<svg width="464" height="213" viewBox="0 0 464 213" fill="none" xmlns="http://www.w3.org/2000/svg">
<path d="M170.344 107.008H171.864L172.016 108.528H129V107.008H130.672C132.901 107.008 134.827 106.248 136.448 104.728C138.069 103.208 138.931 101.333 139.032 99.104V76.304H91V74.784L160.464 0H161.832V63.232H168.52C171.155 63.232 173.08 62.8773 174.296 62.168C175.613 61.3573 176.779 60.0907 177.792 58.368H179.312L175.056 76.304H161.832V98.952C161.933 101.181 162.795 103.107 164.416 104.728C166.037 106.248 168.013 107.008 170.344 107.008ZM139.032 63.232V33.288L111.064 63.232H139.032Z" fill="url(#paint0_linear_3810_13784)"/>
<path d="M202.737 15.048C210.337 5.016 220.724 0 233.897 0C247.172 0 257.609 5.016 265.209 15.048C272.809 24.9787 276.609 38.4053 276.609 55.328C276.609 72.2507 272.809 85.728 265.209 95.76C257.609 105.691 247.172 110.656 233.897 110.656C220.724 110.656 210.337 105.691 202.737 95.76C195.137 85.728 191.337 72.2507 191.337 55.328C191.337 38.4053 195.137 24.9787 202.737 15.048ZM234.049 6.384C225.639 6.384 219.964 13.68 217.025 28.272C215.607 35.568 214.897 44.5867 214.897 55.328C214.897 71.44 216.519 83.6507 219.761 91.96C223.004 100.168 227.716 104.272 233.897 104.272C240.18 104.272 244.943 100.168 248.185 91.96C251.428 83.6507 253.049 71.44 253.049 55.328C253.049 39.216 251.428 27.056 248.185 18.848C244.943 10.5387 240.231 6.384 234.049 6.384Z" fill="url(#paint1_linear_3810_13784)"/>
<path d="M364.358 107.008H365.878L366.03 108.528H323.014V107.008H324.686C326.915 107.008 328.841 106.248 330.462 104.728C332.083 103.208 332.945 101.333 333.046 99.104V76.304H285.014V74.784L354.478 0H355.846V63.232H362.534C365.169 63.232 367.094 62.8773 368.31 62.168C369.627 61.3573 370.793 60.0907 371.806 58.368H373.326L369.07 76.304H355.846V98.952C355.947 101.181 356.809 103.107 358.43 104.728C360.051 106.248 362.027 107.008 364.358 107.008ZM333.046 63.232V33.288L305.078 63.232H333.046Z" fill="url(#paint2_linear_3810_13784)"/>
<path d="M17.7672 158.728C20.6672 158.728 23.0839 159.428 25.0172 160.828C27.6172 162.695 28.9172 165.611 28.9172 169.578C28.9172 172.445 28.1172 174.895 26.5172 176.928C24.7839 179.095 22.3672 180.178 19.2672 180.178C17.6339 180.178 16.1505 179.795 14.8172 179.028C13.4839 178.228 12.7005 176.878 12.4672 174.978L12.9172 174.828C13.2839 176.261 14.1339 177.261 15.4672 177.828C16.3672 178.228 17.1672 178.428 17.8672 178.428C20.6005 178.428 22.5839 177.361 23.8172 175.228C24.7172 173.661 25.1672 171.795 25.1672 169.628C25.1672 166.161 24.2005 163.661 22.2672 162.128C20.8005 160.928 18.9339 160.328 16.6672 160.328C16.1339 160.328 15.6672 160.361 15.2672 160.428C14.9005 160.461 13.2339 160.728 10.2672 161.228V190.878C10.3005 191.778 10.6339 192.528 11.2672 193.128C11.9005 193.728 12.6339 194.028 13.4672 194.028H14.1172V194.528H3.16719V194.028H3.81719C4.65052 194.028 5.38386 193.728 6.01719 193.128C6.65052 192.528 6.98386 191.778 7.01719 190.878V163.828C7.01719 162.961 6.76719 162.295 6.26719 161.828C5.76719 161.328 5.11719 161.078 4.31719 161.078C4.15052 161.078 3.98386 161.095 3.81719 161.128L3.21719 161.178L3.11719 160.678C4.85052 160.511 7.16719 160.195 10.0672 159.728C13.0005 159.228 14.8172 158.945 15.5172 158.878C16.2172 158.778 16.9672 158.728 17.7672 158.728ZM63.3668 194.028H63.7668V194.528H52.5168V194.028H52.9668C53.6668 194.028 54.1835 193.811 54.5168 193.378C54.8835 192.911 55.0668 192.478 55.0668 192.078C55.0668 191.678 55.0001 191.278 54.8668 190.878L51.6668 182.378H38.1668L34.8168 190.928C34.6835 191.328 34.6168 191.728 34.6168 192.128C34.6168 192.495 34.7835 192.911 35.1168 193.378C35.4835 193.811 36.0168 194.028 36.7168 194.028H37.1668V194.528H27.1168V194.028H27.5668C28.4001 194.028 29.2168 193.761 30.0168 193.228C30.8168 192.695 31.4668 191.911 31.9668 190.878L43.2668 163.978C44.5001 161.278 45.1168 159.561 45.1168 158.828H45.5668L58.9668 190.878C59.4335 191.911 60.0668 192.695 60.8668 193.228C61.6668 193.761 62.5001 194.028 63.3668 194.028ZM38.7668 180.878H51.0668L45.0668 164.828L38.7668 180.878ZM82.6547 195.228C77.3214 195.195 72.988 193.511 69.6547 190.178C66.3547 186.845 64.7047 182.461 64.7047 177.028C64.7047 171.595 66.3547 167.211 69.6547 163.878C72.988 160.511 77.3214 158.828 82.6547 158.828C87.2547 158.828 91.3047 159.961 94.8047 162.228L95.8047 169.278H95.3547C94.6214 166.411 93.138 164.211 90.9047 162.678C88.7047 161.111 85.9547 160.328 82.6547 160.328C78.4214 160.328 74.988 161.861 72.3547 164.928C69.7547 167.995 68.4547 172.028 68.4547 177.028C68.4547 182.028 69.7547 186.061 72.3547 189.128C74.988 192.161 78.4214 193.695 82.6547 193.728C84.8214 193.728 86.8714 193.345 88.8047 192.578C90.7714 191.811 92.488 190.745 93.9547 189.378V180.528C93.9547 179.795 93.7214 179.245 93.2547 178.878C92.8214 178.478 92.2047 178.278 91.4047 178.278H90.6047V177.778H100.405V178.278H99.6547C98.8214 178.278 98.188 178.478 97.7547 178.878C97.3214 179.245 97.1214 179.795 97.1547 180.528V188.778C96.288 189.911 95.2547 190.928 94.0547 191.828C92.8547 192.728 91.238 193.528 89.2047 194.228C87.2047 194.895 85.0214 195.228 82.6547 195.228ZM104.278 194.028C105.144 194.028 105.878 193.728 106.478 193.128C107.111 192.495 107.444 191.745 107.478 190.878V162.878C107.478 162.078 107.161 161.411 106.528 160.878C105.894 160.311 105.144 160.028 104.278 160.028H103.678L103.628 159.528H118.278C119.311 159.528 120.428 159.428 121.628 159.228C122.861 159.028 123.728 158.828 124.228 158.628V164.928H123.728V164.028C123.728 163.228 123.444 162.545 122.878 161.978C122.344 161.411 121.694 161.111 120.928 161.078H110.728V176.528H119.178C119.844 176.495 120.411 176.245 120.878 175.778C121.344 175.311 121.578 174.728 121.578 174.028V173.328H122.078V181.228H121.578V180.478C121.578 179.811 121.344 179.245 120.878 178.778C120.444 178.311 119.894 178.061 119.228 178.028H110.728V192.978H117.878C120.344 192.978 122.228 192.428 123.528 191.328C124.828 190.228 125.911 188.595 126.778 186.428H127.278L124.378 194.528H103.628V194.028H104.278ZM195.335 202.128C192.668 202.961 190.268 203.111 188.135 202.578C185.902 201.978 183.968 201.045 182.335 199.778C180.768 198.511 179.168 196.995 177.535 195.228L151.185 166.028V191.028C151.218 192.195 151.735 193.061 152.735 193.628C153.202 193.895 153.702 194.028 154.235 194.028H155.185V194.528H144.885V194.028H145.835C146.668 194.028 147.385 193.745 147.985 193.178C148.585 192.578 148.885 191.845 148.885 190.978V163.528C148.718 163.295 148.385 162.861 147.885 162.228C147.385 161.561 146.968 161.028 146.635 160.628C146.302 160.228 145.852 159.711 145.285 159.078C144.718 158.411 144.185 157.878 143.685 157.478C143.218 157.078 142.668 156.611 142.035 156.078C141.035 155.311 139.968 154.761 138.835 154.428C137.702 154.095 136.752 153.928 135.985 153.928C135.185 153.928 134.335 154.061 133.435 154.328L133.235 153.828C134.835 153.161 136.385 152.828 137.885 152.828C139.352 152.828 140.618 153.011 141.685 153.378C142.752 153.711 143.902 154.328 145.135 155.228C146.368 156.128 147.368 156.961 148.135 157.728C148.935 158.495 149.885 159.495 150.985 160.728L176.185 188.728V163.078C176.152 162.211 175.835 161.495 175.235 160.928C174.635 160.328 173.918 160.028 173.085 160.028H172.135V159.528H182.435V160.028H181.535C180.702 160.028 179.985 160.328 179.385 160.928C178.785 161.495 178.468 162.195 178.435 163.028V191.278C178.768 191.645 179.235 192.195 179.835 192.928C180.468 193.661 180.902 194.178 181.135 194.478C181.402 194.778 181.785 195.211 182.285 195.778C182.785 196.345 183.202 196.778 183.535 197.078C183.902 197.411 184.335 197.811 184.835 198.278C185.368 198.778 185.852 199.161 186.285 199.428C186.752 199.728 187.268 200.061 187.835 200.428C188.635 200.895 189.535 201.245 190.535 201.478C191.568 201.711 192.402 201.828 193.035 201.828C193.702 201.828 194.402 201.761 195.135 201.628L195.335 202.128ZM191.3 163.878C194.866 160.511 199.483 158.828 205.15 158.828C210.85 158.828 215.483 160.511 219.05 163.878C222.616 167.211 224.4 171.595 224.4 177.028C224.4 182.461 222.616 186.861 219.05 190.228C215.483 193.561 210.85 195.228 205.15 195.228C199.483 195.228 194.866 193.561 191.3 190.228C187.733 186.861 185.95 182.461 185.95 177.028C185.95 171.595 187.733 167.211 191.3 163.878ZM194 189.128C196.833 192.195 200.55 193.728 205.15 193.728C209.75 193.728 213.45 192.195 216.25 189.128C219.083 186.061 220.5 182.028 220.5 177.028C220.5 172.028 219.083 167.995 216.25 164.928C213.45 161.861 209.75 160.328 205.15 160.328C200.55 160.328 196.833 161.861 194 164.928C191.2 167.995 189.8 172.028 189.8 177.028C189.8 182.028 191.2 186.061 194 189.128ZM254.813 163.978C254.813 163.178 254.53 162.495 253.963 161.928C253.396 161.328 252.73 161.011 251.963 160.978H242.463V190.928C242.496 191.795 242.813 192.528 243.413 193.128C244.046 193.728 244.796 194.028 245.663 194.028H246.313V194.528H235.363V194.028H236.013C236.88 194.028 237.613 193.728 238.213 193.128C238.846 192.528 239.18 191.811 239.213 190.978V160.978H229.713C228.913 161.011 228.23 161.328 227.663 161.928C227.13 162.495 226.863 163.178 226.863 163.978V164.828L226.363 164.878V158.578C226.863 158.778 227.73 158.978 228.963 159.178C230.196 159.378 231.33 159.478 232.363 159.478H249.263C250.896 159.478 252.246 159.361 253.313 159.128C254.413 158.861 255.08 158.678 255.313 158.578V164.878L254.813 164.828V163.978ZM297.821 180.478C297.821 179.811 297.588 179.245 297.121 178.778C296.688 178.311 296.138 178.061 295.471 178.028H279.471V190.878C279.471 191.745 279.788 192.495 280.421 193.128C281.054 193.728 281.804 194.028 282.671 194.028H283.321V194.528H272.371V194.028H273.021C273.888 194.028 274.621 193.728 275.221 193.128C275.854 192.495 276.188 191.745 276.221 190.878V162.878C276.221 162.078 275.888 161.411 275.221 160.878C274.588 160.311 273.854 160.028 273.021 160.028H272.421L272.371 159.528H287.021C288.454 159.528 289.721 159.411 290.821 159.178C291.921 158.945 292.638 158.761 292.971 158.628V164.278H292.471V163.528C292.471 162.861 292.238 162.295 291.771 161.828C291.304 161.328 290.721 161.078 290.021 161.078H279.471V176.528H295.421C296.088 176.495 296.654 176.245 297.121 175.778C297.588 175.311 297.821 174.728 297.821 174.028V173.328H298.321V181.228H297.821V180.478ZM307.49 163.878C311.056 160.511 315.673 158.828 321.34 158.828C327.04 158.828 331.673 160.511 335.24 163.878C338.806 167.211 340.59 171.595 340.59 177.028C340.59 182.461 338.806 186.861 335.24 190.228C331.673 193.561 327.04 195.228 321.34 195.228C315.673 195.228 311.056 193.561 307.49 190.228C303.923 186.861 302.14 182.461 302.14 177.028C302.14 171.595 303.923 167.211 307.49 163.878ZM310.19 189.128C313.023 192.195 316.74 193.728 321.34 193.728C325.94 193.728 329.64 192.195 332.44 189.128C335.273 186.061 336.69 182.028 336.69 177.028C336.69 172.028 335.273 167.995 332.44 164.928C329.64 161.861 325.94 160.328 321.34 160.328C316.74 160.328 313.023 161.861 310.19 164.928C307.39 167.995 305.99 172.028 305.99 177.028C305.99 182.028 307.39 186.061 310.19 189.128ZM378.84 160.028H378.04C377.34 160.028 376.724 160.261 376.19 160.728C375.69 161.161 375.424 161.711 375.39 162.378V182.178C375.39 186.078 374.157 189.228 371.69 191.628C369.224 194.028 365.94 195.228 361.84 195.228C357.74 195.228 354.407 194.045 351.84 191.678C349.307 189.278 348.04 186.128 348.04 182.228V162.528C348.04 161.528 347.607 160.795 346.74 160.328C346.34 160.128 345.89 160.028 345.39 160.028H344.59V159.528H354.74V160.028H353.94C353.207 160.028 352.59 160.261 352.09 160.728C351.59 161.161 351.324 161.728 351.29 162.428V181.528C351.29 185.161 352.257 188.095 354.19 190.328C356.157 192.561 358.774 193.678 362.04 193.678C365.307 193.678 367.957 192.628 369.99 190.528C372.024 188.395 373.04 185.611 373.04 182.178V162.428C373.007 161.728 372.74 161.161 372.24 160.728C371.74 160.261 371.124 160.028 370.39 160.028H369.59V159.528H378.84V160.028ZM420.548 160.028C419.715 160.028 418.998 160.328 418.398 160.928C417.798 161.495 417.481 162.195 417.448 163.028V188.828C417.448 190.761 417.565 192.595 417.798 194.328L417.898 195.228H417.448L390.198 166.128V191.028C390.198 191.861 390.498 192.578 391.098 193.178C391.698 193.745 392.415 194.028 393.248 194.028H394.198V194.528H383.898V194.028H384.848C385.681 194.028 386.398 193.745 386.998 193.178C387.598 192.578 387.898 191.845 387.898 190.978V165.028C387.898 162.995 387.781 161.178 387.548 159.578L387.448 158.778H387.948L415.198 187.878V163.078C415.165 162.211 414.848 161.495 414.248 160.928C413.648 160.328 412.931 160.028 412.098 160.028H411.148V159.528H421.448V160.028H420.548ZM443.451 159.528C448.784 159.528 453.101 161.145 456.401 164.378C459.734 167.578 461.401 171.795 461.401 177.028C461.401 182.261 459.734 186.495 456.401 189.728C453.101 192.928 448.784 194.528 443.451 194.528H426.501V194.028H427.151C428.017 194.028 428.751 193.728 429.351 193.128C429.984 192.495 430.317 191.745 430.351 190.878V162.878C430.351 162.078 430.017 161.411 429.351 160.878C428.717 160.311 427.984 160.028 427.151 160.028H426.551L426.501 159.528H443.451ZM433.601 161.028V193.028H443.451C446.251 193.028 448.717 192.361 450.851 191.028C453.017 189.695 454.684 187.828 455.851 185.428C457.051 182.995 457.651 180.195 457.651 177.028C457.651 172.228 456.334 168.361 453.701 165.428C451.101 162.495 447.684 161.028 443.451 161.028H433.601Z" fill="url(#paint3_linear_3810_13784)"/>
<defs>
<linearGradient id="paint0_linear_3810_13784" x1="228.015" y1="-13.5427" x2="228.015" y2="127.801" gradientUnits="userSpaceOnUse">
<stop offset="0.234375" stop-color="#FFD37C"/>
<stop offset="0.607292" stop-color="#D08123"/>
</linearGradient>
<linearGradient id="paint1_linear_3810_13784" x1="228.015" y1="-13.5427" x2="228.015" y2="127.801" gradientUnits="userSpaceOnUse">
<stop offset="0.234375" stop-color="#FFD37C"/>
<stop offset="0.607292" stop-color="#D08123"/>
</linearGradient>
<linearGradient id="paint2_linear_3810_13784" x1="228.015" y1="-13.5427" x2="228.015" y2="127.801" gradientUnits="userSpaceOnUse">
<stop offset="0.234375" stop-color="#FFD37C"/>
<stop offset="0.607292" stop-color="#D08123"/>
</linearGradient>
<linearGradient id="paint3_linear_3810_13784" x1="232" y1="145.528" x2="232" y2="212.528" gradientUnits="userSpaceOnUse">
<stop stop-color="#77C5C4"/>
<stop offset="1" stop-color="#017DCC"/>
</linearGradient>
</defs>
</svg>
