<svg width="185" height="38" viewBox="0 0 185 38" fill="none" xmlns="http://www.w3.org/2000/svg">
<rect x="0.5" y="0.5" width="184" height="37" rx="3.5" fill="black"/>
<path d="M26.6103 18.7871V25.1944C25.9983 25.4942 25.2614 25.7315 24.3996 25.9063C23.5378 26.0812 22.6573 26.1686 21.758 26.1686C20.3841 26.1686 19.1914 25.8938 18.1797 25.3443C17.168 24.7947 16.3936 24.0079 15.8566 22.9837C15.3195 21.9596 15.051 20.7356 15.051 19.3117C15.051 17.9129 15.3195 16.7013 15.8566 15.6772C16.3936 14.653 17.1555 13.8662 18.1422 13.3166C19.1414 12.7671 20.3092 12.4923 21.6456 12.4923C22.5823 12.4923 23.4566 12.6297 24.2685 12.9044C25.0928 13.1792 25.7797 13.5664 26.3293 14.066L25.505 15.8271C24.8805 15.34 24.2685 14.9902 23.669 14.7779C23.0694 14.5656 22.4137 14.4594 21.7018 14.4594C20.3279 14.4594 19.285 14.8716 18.5731 15.6959C17.8737 16.5202 17.524 17.7255 17.524 19.3117C17.524 20.9479 17.8862 22.1844 18.6106 23.0212C19.335 23.8455 20.4154 24.2577 21.8517 24.2577C22.726 24.2577 23.5878 24.139 24.4371 23.9017V20.5295H21.5519V18.7871H26.6103ZM33.4533 26.1499C32.4916 26.1499 31.6423 25.95 30.9054 25.5504C30.181 25.1507 29.6189 24.5824 29.2193 23.8455C28.8321 23.0961 28.6385 22.2218 28.6385 21.2227C28.6385 20.2235 28.8321 19.3554 29.2193 18.6185C29.6189 17.8691 30.181 17.2946 30.9054 16.8949C31.6423 16.4953 32.4916 16.2954 33.4533 16.2954C34.4025 16.2954 35.2393 16.4953 35.9637 16.8949C36.6882 17.2946 37.2439 17.8691 37.6311 18.6185C38.0308 19.3554 38.2306 20.2235 38.2306 21.2227C38.2306 22.2218 38.0308 23.0961 37.6311 23.8455C37.2439 24.5824 36.6882 25.1507 35.9637 25.5504C35.2393 25.95 34.4025 26.1499 33.4533 26.1499ZM33.4346 24.3139C34.2339 24.3139 34.8397 24.0578 35.2518 23.5458C35.6765 23.0212 35.8888 22.2468 35.8888 21.2227C35.8888 20.211 35.6765 19.4429 35.2518 18.9183C34.8272 18.3812 34.2277 18.1127 33.4533 18.1127C32.6664 18.1127 32.0607 18.3812 31.636 18.9183C31.2114 19.4429 30.999 20.211 30.999 21.2227C30.999 22.2468 31.2051 23.0212 31.6173 23.5458C32.0419 24.0578 32.6477 24.3139 33.4346 24.3139ZM48.3701 18.3V22.5341C48.3701 23.6457 48.8884 24.2015 49.925 24.2015C50.2123 24.2015 50.5246 24.1515 50.8618 24.0516V25.9063C50.4496 26.0562 49.95 26.1311 49.363 26.1311C48.2889 26.1311 47.4646 25.8314 46.89 25.2319C46.3155 24.6324 46.0282 23.7706 46.0282 22.6465V18.3H44.211V16.539H46.0282V14.2346L48.3701 13.4478V16.539H50.8805V18.3H48.3701ZM56.7802 26.1499C55.8185 26.1499 54.9692 25.95 54.2323 25.5504C53.5079 25.1507 52.9458 24.5824 52.5461 23.8455C52.159 23.0961 51.9654 22.2218 51.9654 21.2227C51.9654 20.2235 52.159 19.3554 52.5461 18.6185C52.9458 17.8691 53.5079 17.2946 54.2323 16.8949C54.9692 16.4953 55.8185 16.2954 56.7802 16.2954C57.7294 16.2954 58.5662 16.4953 59.2906 16.8949C60.015 17.2946 60.5708 17.8691 60.958 18.6185C61.3577 19.3554 61.5575 20.2235 61.5575 21.2227C61.5575 22.2218 61.3577 23.0961 60.958 23.8455C60.5708 24.5824 60.015 25.1507 59.2906 25.5504C58.5662 25.95 57.7294 26.1499 56.7802 26.1499ZM56.7614 24.3139C57.5608 24.3139 58.1666 24.0578 58.5787 23.5458C59.0034 23.0212 59.2157 22.2468 59.2157 21.2227C59.2157 20.211 59.0034 19.4429 58.5787 18.9183C58.1541 18.3812 57.5546 18.1127 56.7802 18.1127C55.9933 18.1127 55.3876 18.3812 54.9629 18.9183C54.5383 19.4429 54.3259 20.211 54.3259 21.2227C54.3259 22.2468 54.532 23.0212 54.9442 23.5458C55.3688 24.0578 55.9746 24.3139 56.7614 24.3139ZM80.5023 12.6609V26H78.1042V20.211H71.2661V26H68.8867V12.6609H71.2661V18.2438H78.1042V12.6609H80.5023ZM87.5168 26.1499C86.5551 26.1499 85.7058 25.95 84.9689 25.5504C84.2445 25.1507 83.6824 24.5824 83.2827 23.8455C82.8956 23.0961 82.702 22.2218 82.702 21.2227C82.702 20.2235 82.8956 19.3554 83.2827 18.6185C83.6824 17.8691 84.2445 17.2946 84.9689 16.8949C85.7058 16.4953 86.5551 16.2954 87.5168 16.2954C88.466 16.2954 89.3028 16.4953 90.0272 16.8949C90.7516 17.2946 91.3074 17.8691 91.6946 18.6185C92.0943 19.3554 92.2941 20.2235 92.2941 21.2227C92.2941 22.2218 92.0943 23.0961 91.6946 23.8455C91.3074 24.5824 90.7516 25.1507 90.0272 25.5504C89.3028 25.95 88.466 26.1499 87.5168 26.1499ZM87.4981 24.3139C88.2974 24.3139 88.9032 24.0578 89.3153 23.5458C89.74 23.0212 89.9523 22.2468 89.9523 21.2227C89.9523 20.211 89.74 19.4429 89.3153 18.9183C88.8907 18.3812 88.2912 18.1127 87.5168 18.1127C86.7299 18.1127 86.1242 18.3812 85.6995 18.9183C85.2749 19.4429 85.0625 20.211 85.0625 21.2227C85.0625 22.2468 85.2686 23.0212 85.6808 23.5458C86.1054 24.0578 86.7112 24.3139 87.4981 24.3139ZM105.48 16.2954C106.554 16.2954 107.353 16.6202 107.878 17.2696C108.402 17.9066 108.664 18.8808 108.664 20.1922V26H106.323V20.2672C106.323 19.5178 106.198 18.9807 105.948 18.656C105.711 18.3188 105.311 18.1502 104.749 18.1502C104.099 18.1502 103.587 18.3812 103.213 18.8433C102.85 19.293 102.669 19.9175 102.669 20.7168V26H100.328V20.2672C100.328 19.5303 100.196 18.9932 99.9341 18.656C99.6843 18.3188 99.2846 18.1502 98.7351 18.1502C98.0856 18.1502 97.5735 18.3812 97.1988 18.8433C96.8241 19.293 96.6368 19.9175 96.6368 20.7168V26H94.3137V19.218C94.3137 18.2189 94.2637 17.3258 94.1638 16.539H96.3558L96.5244 18.0378C96.7991 17.4757 97.1926 17.0448 97.7047 16.7451C98.2292 16.4453 98.8287 16.2954 99.5032 16.2954C100.952 16.2954 101.895 16.8949 102.332 18.094C102.632 17.5319 103.057 17.0948 103.606 16.7825C104.168 16.4578 104.793 16.2954 105.48 16.2954ZM119.445 21.3913H112.925C112.975 22.4029 113.225 23.1523 113.674 23.6394C114.136 24.114 114.817 24.3513 115.716 24.3513C116.753 24.3513 117.715 24.0141 118.602 23.3397L119.276 24.9509C118.826 25.3131 118.271 25.6066 117.609 25.8314C116.959 26.0437 116.297 26.1499 115.623 26.1499C114.074 26.1499 112.856 25.7127 111.97 24.8384C111.083 23.9642 110.639 22.7651 110.639 21.2414C110.639 20.2797 110.833 19.4241 111.22 18.6747C111.607 17.9253 112.151 17.3446 112.85 16.9324C113.549 16.5078 114.343 16.2954 115.229 16.2954C116.528 16.2954 117.552 16.7201 118.302 17.5694C119.064 18.4062 119.445 19.5615 119.445 21.0353V21.3913ZM115.286 17.9816C114.661 17.9816 114.149 18.1689 113.749 18.5436C113.362 18.9058 113.112 19.4366 113 20.136H117.403C117.328 19.4241 117.109 18.8871 116.747 18.5249C116.397 18.1627 115.91 17.9816 115.286 17.9816ZM126.737 12.6609H132.526C133.963 12.6609 135.081 13.0106 135.88 13.71C136.679 14.397 137.079 15.34 137.079 16.539C137.079 17.738 136.673 18.6872 135.861 19.3867C135.062 20.0861 133.95 20.4358 132.526 20.4358H129.154V26H126.737V12.6609ZM132.245 18.5623C133.082 18.5623 133.713 18.3937 134.138 18.0565C134.575 17.7068 134.793 17.2072 134.793 16.5577C134.793 15.8958 134.581 15.3962 134.156 15.0589C133.732 14.7092 133.095 14.5344 132.245 14.5344H129.154V18.5623H132.245ZM147.748 16.539V26H145.443V24.4825C145.156 25.0071 144.744 25.4192 144.207 25.719C143.67 26.0062 143.058 26.1499 142.371 26.1499C141.546 26.1499 140.816 25.95 140.179 25.5504C139.542 25.1507 139.049 24.5824 138.699 23.8455C138.349 23.1086 138.174 22.2531 138.174 21.2789C138.174 20.3047 138.349 19.4429 138.699 18.6935C139.061 17.9316 139.561 17.3446 140.198 16.9324C140.835 16.5078 141.559 16.2954 142.371 16.2954C143.058 16.2954 143.67 16.4453 144.207 16.7451C144.744 17.0323 145.156 17.4382 145.443 17.9628V16.539H147.748ZM143.008 24.3139C143.782 24.3139 144.382 24.0453 144.806 23.5083C145.231 22.9712 145.443 22.2156 145.443 21.2414C145.443 20.2422 145.231 19.4741 144.806 18.937C144.382 18.4 143.776 18.1314 142.989 18.1314C142.215 18.1314 141.609 18.4124 141.172 18.9745C140.747 19.524 140.535 20.2922 140.535 21.2789C140.535 22.2531 140.747 23.0024 141.172 23.527C141.609 24.0516 142.221 24.3139 143.008 24.3139ZM159.441 16.539V25.7002C159.441 27.174 159.035 28.2919 158.223 29.0538C157.411 29.8156 156.218 30.1966 154.645 30.1966C153.183 30.1966 151.897 29.8906 150.785 29.2786L151.16 27.4988C152.309 28.0983 153.452 28.398 154.588 28.398C156.275 28.398 157.118 27.5612 157.118 25.8876V24.0141C156.83 24.5262 156.412 24.9446 155.862 25.2693C155.313 25.5816 154.695 25.7377 154.008 25.7377C153.183 25.7377 152.446 25.5441 151.797 25.1569C151.16 24.7573 150.66 24.2015 150.298 23.4896C149.948 22.7651 149.774 21.9408 149.774 21.0166C149.774 20.0923 149.948 19.2742 150.298 18.5623C150.66 17.8379 151.16 17.2821 151.797 16.8949C152.446 16.4953 153.183 16.2954 154.008 16.2954C154.707 16.2954 155.325 16.4453 155.862 16.7451C156.412 17.0323 156.83 17.4382 157.118 17.9628V16.539H159.441ZM154.626 23.9017C155.4 23.9017 156.006 23.6457 156.443 23.1336C156.893 22.6215 157.118 21.9158 157.118 21.0166C157.118 20.1173 156.899 19.4116 156.462 18.8996C156.025 18.3875 155.413 18.1314 154.626 18.1314C153.852 18.1314 153.24 18.3875 152.79 18.8996C152.353 19.4116 152.134 20.1173 152.134 21.0166C152.134 21.9158 152.353 22.6215 152.79 23.1336C153.24 23.6457 153.852 23.9017 154.626 23.9017ZM170.252 21.3913H163.732C163.782 22.4029 164.032 23.1523 164.481 23.6394C164.943 24.114 165.624 24.3513 166.523 24.3513C167.56 24.3513 168.522 24.0141 169.408 23.3397L170.083 24.9509C169.633 25.3131 169.077 25.6066 168.416 25.8314C167.766 26.0437 167.104 26.1499 166.43 26.1499C164.881 26.1499 163.663 25.7127 162.776 24.8384C161.89 23.9642 161.446 22.7651 161.446 21.2414C161.446 20.2797 161.64 19.4241 162.027 18.6747C162.414 17.9253 162.957 17.3446 163.657 16.9324C164.356 16.5078 165.149 16.2954 166.036 16.2954C167.335 16.2954 168.359 16.7201 169.109 17.5694C169.871 18.4062 170.252 19.5615 170.252 21.0353V21.3913ZM166.092 17.9816C165.468 17.9816 164.956 18.1689 164.556 18.5436C164.169 18.9058 163.919 19.4366 163.807 20.136H168.209C168.135 19.4241 167.916 18.8871 167.554 18.5249C167.204 18.1627 166.717 17.9816 166.092 17.9816Z" fill="url(#paint0_linear_3810_13787)"/>
<rect x="0.5" y="0.5" width="184" height="37" rx="3.5" stroke="#F1A714"/>
<defs>
<linearGradient id="paint0_linear_3810_13787" x1="90.1933" y1="4.06274" x2="90.1933" y2="34.7186" gradientUnits="userSpaceOnUse">
<stop offset="0.234375" stop-color="#FFD37C"/>
<stop offset="0.607292" stop-color="#D08123"/>
</linearGradient>
</defs>
</svg>
