<svg width="98" height="14" viewBox="0 0 98 14" fill="none" xmlns="http://www.w3.org/2000/svg">
<path d="M0.584 0.184H2.06V13H0.584V0.184ZM9.86263 3.73C12.0346 3.73 13.1206 4.924 13.1206 7.312V13H11.6626V7.384C11.6626 6.544 11.4946 5.932 11.1586 5.548C10.8226 5.152 10.2946 4.954 9.57463 4.954C8.73463 4.954 8.06263 5.212 7.55863 5.728C7.05463 6.244 6.80263 6.94 6.80263 7.816V13H5.34463V6.484C5.34463 5.548 5.29663 4.702 5.20063 3.946H6.58663L6.73063 5.566C7.00663 4.978 7.42063 4.528 7.97263 4.216C8.52463 3.892 9.15463 3.73 9.86263 3.73ZM19.2339 13.126C17.7099 13.126 16.5039 12.736 15.6159 11.956L16.1019 10.876C16.5939 11.26 17.0919 11.536 17.5959 11.704C18.0999 11.872 18.6639 11.956 19.2879 11.956C19.9719 11.956 20.4879 11.842 20.8359 11.614C21.1959 11.374 21.3759 11.032 21.3759 10.588C21.3759 10.228 21.2559 9.94 21.0159 9.724C20.7759 9.508 20.3799 9.34 19.8279 9.22L18.2979 8.86C17.5419 8.692 16.9539 8.392 16.5339 7.96C16.1259 7.528 15.9219 7.012 15.9219 6.412C15.9219 5.62 16.2399 4.978 16.8759 4.486C17.5119 3.982 18.3519 3.73 19.3959 3.73C20.0319 3.73 20.6319 3.832 21.1959 4.036C21.7599 4.24 22.2339 4.534 22.6179 4.918L22.1319 5.98C21.2799 5.272 20.3679 4.918 19.3959 4.918C18.7479 4.918 18.2439 5.044 17.8839 5.296C17.5359 5.536 17.3619 5.878 17.3619 6.322C17.3619 6.694 17.4699 6.988 17.6859 7.204C17.9139 7.42 18.2739 7.588 18.7659 7.708L20.2959 8.086C21.1359 8.278 21.7599 8.578 22.1679 8.986C22.5759 9.382 22.7799 9.904 22.7799 10.552C22.7799 11.332 22.4619 11.956 21.8259 12.424C21.1899 12.892 20.3259 13.126 19.2339 13.126ZM27.2597 5.098V10.048C27.2597 10.72 27.3977 11.194 27.6737 11.47C27.9497 11.734 28.3397 11.866 28.8437 11.866C29.1797 11.866 29.5037 11.812 29.8157 11.704V12.946C29.4437 13.066 29.0237 13.126 28.5557 13.126C27.6917 13.126 27.0137 12.886 26.5217 12.406C26.0417 11.914 25.8017 11.194 25.8017 10.246V5.098H24.0377V3.946H25.8017V1.624L27.2597 1.102V3.946H29.8517V5.098H27.2597ZM36.1207 3.73C36.4207 3.73 36.6967 3.766 36.9487 3.838L36.9127 5.17C36.6367 5.074 36.3187 5.026 35.9587 5.026C35.0827 5.026 34.4287 5.302 33.9967 5.854C33.5767 6.394 33.3667 7.054 33.3667 7.834V13H31.9087V6.484C31.9087 5.548 31.8607 4.702 31.7647 3.946H33.1507L33.2947 5.62C33.5227 5.008 33.8887 4.54 34.3927 4.216C34.8967 3.892 35.4727 3.73 36.1207 3.73ZM46.3082 3.946V13H44.8862V11.434C44.5982 11.986 44.1962 12.406 43.6802 12.694C43.1642 12.982 42.5822 13.126 41.9342 13.126C40.8662 13.126 40.0562 12.826 39.5042 12.226C38.9522 11.626 38.6762 10.738 38.6762 9.562V3.946H40.1342V9.526C40.1342 10.342 40.3022 10.942 40.6382 11.326C40.9742 11.71 41.4842 11.902 42.1682 11.902C42.9722 11.902 43.6202 11.644 44.1122 11.128C44.6042 10.6 44.8502 9.91 44.8502 9.058V3.946H46.3082ZM53.2168 13.126C52.3408 13.126 51.5728 12.934 50.9128 12.55C50.2648 12.166 49.7608 11.626 49.4008 10.93C49.0528 10.222 48.8788 9.4 48.8788 8.464C48.8788 7.528 49.0588 6.706 49.4188 5.998C49.7788 5.278 50.2888 4.72 50.9488 4.324C51.6208 3.928 52.4008 3.73 53.2888 3.73C53.9008 3.73 54.4888 3.838 55.0528 4.054C55.6288 4.258 56.1028 4.546 56.4748 4.918L55.9888 5.998C55.5328 5.638 55.0888 5.374 54.6568 5.206C54.2368 5.038 53.8048 4.954 53.3608 4.954C52.4368 4.954 51.7108 5.266 51.1828 5.89C50.6548 6.502 50.3908 7.36 50.3908 8.464C50.3908 9.556 50.6488 10.408 51.1648 11.02C51.6928 11.62 52.4248 11.92 53.3608 11.92C53.8048 11.92 54.2368 11.836 54.6568 11.668C55.0888 11.5 55.5328 11.236 55.9888 10.876L56.4748 11.956C56.0908 12.316 55.6048 12.604 55.0168 12.82C54.4408 13.024 53.8408 13.126 53.2168 13.126ZM60.5925 5.098V10.048C60.5925 10.72 60.7305 11.194 61.0065 11.47C61.2825 11.734 61.6725 11.866 62.1765 11.866C62.5125 11.866 62.8365 11.812 63.1485 11.704V12.946C62.7765 13.066 62.3565 13.126 61.8885 13.126C61.0245 13.126 60.3465 12.886 59.8545 12.406C59.3745 11.914 59.1345 11.194 59.1345 10.246V5.098H57.3705V3.946H59.1345V1.624L60.5925 1.102V3.946H63.1845V5.098H60.5925ZM65.2415 3.946H66.6995V13H65.2415V3.946ZM66.8795 0.112V1.768H65.0975V0.112H66.8795ZM73.5746 13.126C72.7226 13.126 71.9726 12.934 71.3246 12.55C70.6766 12.166 70.1726 11.62 69.8126 10.912C69.4646 10.204 69.2906 9.376 69.2906 8.428C69.2906 7.48 69.4646 6.652 69.8126 5.944C70.1726 5.236 70.6766 4.69 71.3246 4.306C71.9726 3.922 72.7226 3.73 73.5746 3.73C74.4266 3.73 75.1766 3.922 75.8246 4.306C76.4726 4.69 76.9706 5.236 77.3186 5.944C77.6786 6.652 77.8586 7.48 77.8586 8.428C77.8586 9.376 77.6786 10.204 77.3186 10.912C76.9706 11.62 76.4726 12.166 75.8246 12.55C75.1766 12.934 74.4266 13.126 73.5746 13.126ZM73.5746 11.92C74.4746 11.92 75.1646 11.626 75.6446 11.038C76.1246 10.438 76.3646 9.568 76.3646 8.428C76.3646 7.324 76.1186 6.472 75.6266 5.872C75.1346 5.26 74.4506 4.954 73.5746 4.954C72.6866 4.954 71.9966 5.26 71.5046 5.872C71.0126 6.472 70.7666 7.324 70.7666 8.428C70.7666 9.568 71.0066 10.438 71.4866 11.038C71.9786 11.626 72.6746 11.92 73.5746 11.92ZM84.9493 3.73C87.1213 3.73 88.2073 4.924 88.2073 7.312V13H86.7493V7.384C86.7493 6.544 86.5813 5.932 86.2453 5.548C85.9093 5.152 85.3813 4.954 84.6613 4.954C83.8213 4.954 83.1493 5.212 82.6453 5.728C82.1413 6.244 81.8893 6.94 81.8893 7.816V13H80.4313V6.484C80.4313 5.548 80.3833 4.702 80.2873 3.946H81.6733L81.8173 5.566C82.0933 4.978 82.5073 4.528 83.0593 4.216C83.6113 3.892 84.2413 3.73 84.9493 3.73ZM94.3206 13.126C92.7966 13.126 91.5906 12.736 90.7026 11.956L91.1886 10.876C91.6806 11.26 92.1786 11.536 92.6826 11.704C93.1866 11.872 93.7506 11.956 94.3746 11.956C95.0586 11.956 95.5746 11.842 95.9226 11.614C96.2826 11.374 96.4626 11.032 96.4626 10.588C96.4626 10.228 96.3426 9.94 96.1026 9.724C95.8626 9.508 95.4666 9.34 94.9146 9.22L93.3846 8.86C92.6286 8.692 92.0406 8.392 91.6206 7.96C91.2126 7.528 91.0086 7.012 91.0086 6.412C91.0086 5.62 91.3266 4.978 91.9626 4.486C92.5986 3.982 93.4386 3.73 94.4826 3.73C95.1186 3.73 95.7186 3.832 96.2826 4.036C96.8466 4.24 97.3206 4.534 97.7046 4.918L97.2186 5.98C96.3666 5.272 95.4546 4.918 94.4826 4.918C93.8346 4.918 93.3306 5.044 92.9706 5.296C92.6226 5.536 92.4486 5.878 92.4486 6.322C92.4486 6.694 92.5566 6.988 92.7726 7.204C93.0006 7.42 93.3606 7.588 93.8526 7.708L95.3826 8.086C96.2226 8.278 96.8466 8.578 97.2546 8.986C97.6626 9.382 97.8666 9.904 97.8666 10.552C97.8666 11.332 97.5486 11.956 96.9126 12.424C96.2766 12.892 95.4126 13.126 94.3206 13.126Z" fill="url(#paint0_linear_2960_5593)"/>
<defs>
<linearGradient id="paint0_linear_2960_5593" x1="47.5308" y1="-7.69249" x2="47.5308" y2="20.4087" gradientUnits="userSpaceOnUse">
<stop offset="0.234375" stop-color="#FFD37C"/>
<stop offset="0.607292" stop-color="#D08123"/>
</linearGradient>
</defs>
</svg>
