<svg width="101" height="23" viewBox="0 0 101 23" fill="none" xmlns="http://www.w3.org/2000/svg">
<path d="M4.25 20.25H11.75C12.0814 20.2497 12.3992 20.1179 12.6335 19.8835C12.8679 19.6492 12.9997 19.3314 13 19V17.125H11.75V19H4.25V4H11.75V5.875H13V4C12.9997 3.66858 12.8679 3.35083 12.6335 3.11648C12.3992 2.88213 12.0814 2.75033 11.75 2.75H4.25C3.91858 2.75033 3.60083 2.88213 3.36648 3.11648C3.13213 3.35083 3.00033 3.66858 3 4V19C3.00033 19.3314 3.13213 19.6492 3.36648 19.8835C3.60083 20.1179 3.91858 20.2497 4.25 20.25Z" fill="url(#paint0_linear_3220_5185)"/>
<path d="M13.3663 14.3663L15.6075 12.125H6.75V10.875H15.6075L13.3663 8.63375L14.25 7.75L18 11.5L14.25 15.25L13.3663 14.3663Z" fill="url(#paint1_linear_3220_5185)"/>
<path d="M30.886 5.684H33.208V16.592H39.202V18.5H30.886V5.684ZM45.1655 18.644C44.2415 18.644 43.4255 18.452 42.7175 18.068C42.0215 17.684 41.4815 17.138 41.0975 16.43C40.7255 15.71 40.5395 14.87 40.5395 13.91C40.5395 12.95 40.7255 12.116 41.0975 11.408C41.4815 10.688 42.0215 10.136 42.7175 9.752C43.4255 9.368 44.2415 9.176 45.1655 9.176C46.0775 9.176 46.8815 9.368 47.5775 9.752C48.2735 10.136 48.8075 10.688 49.1795 11.408C49.5635 12.116 49.7555 12.95 49.7555 13.91C49.7555 14.87 49.5635 15.71 49.1795 16.43C48.8075 17.138 48.2735 17.684 47.5775 18.068C46.8815 18.452 46.0775 18.644 45.1655 18.644ZM45.1475 16.88C45.9155 16.88 46.4975 16.634 46.8935 16.142C47.3015 15.638 47.5055 14.894 47.5055 13.91C47.5055 12.938 47.3015 12.2 46.8935 11.696C46.4855 11.18 45.9095 10.922 45.1655 10.922C44.4095 10.922 43.8275 11.18 43.4195 11.696C43.0115 12.2 42.8075 12.938 42.8075 13.91C42.8075 14.894 43.0055 15.638 43.4015 16.142C43.8095 16.634 44.3915 16.88 45.1475 16.88ZM60.7799 9.41V18.212C60.7799 19.628 60.3899 20.702 59.6099 21.434C58.8299 22.166 57.6839 22.532 56.1719 22.532C54.7679 22.532 53.5319 22.238 52.4639 21.65L52.8239 19.94C53.9279 20.516 55.0259 20.804 56.1179 20.804C57.7379 20.804 58.5479 20 58.5479 18.392V16.592C58.2719 17.084 57.8699 17.486 57.3419 17.798C56.8139 18.098 56.2199 18.248 55.5599 18.248C54.7679 18.248 54.0599 18.062 53.4359 17.69C52.8239 17.306 52.3439 16.772 51.9959 16.088C51.6599 15.392 51.4919 14.6 51.4919 13.712C51.4919 12.824 51.6599 12.038 51.9959 11.354C52.3439 10.658 52.8239 10.124 53.4359 9.752C54.0599 9.368 54.7679 9.176 55.5599 9.176C56.2319 9.176 56.8259 9.32 57.3419 9.608C57.8699 9.884 58.2719 10.274 58.5479 10.778V9.41H60.7799ZM56.1539 16.484C56.8979 16.484 57.4799 16.238 57.8999 15.746C58.3319 15.254 58.5479 14.576 58.5479 13.712C58.5479 12.848 58.3379 12.17 57.9179 11.678C57.4979 11.186 56.9099 10.94 56.1539 10.94C55.4099 10.94 54.8219 11.186 54.3899 11.678C53.9699 12.17 53.7599 12.848 53.7599 13.712C53.7599 14.576 53.9699 15.254 54.3899 15.746C54.8219 16.238 55.4099 16.484 56.1539 16.484ZM74.6002 18.662C73.3642 18.662 72.2842 18.398 71.3602 17.87C70.4482 17.33 69.7402 16.568 69.2362 15.584C68.7442 14.588 68.4982 13.418 68.4982 12.074C68.4982 10.742 68.7442 9.584 69.2362 8.6C69.7282 7.604 70.4302 6.842 71.3422 6.314C72.2662 5.786 73.3522 5.522 74.6002 5.522C75.8482 5.522 76.9282 5.786 77.8402 6.314C78.7642 6.842 79.4662 7.604 79.9462 8.6C80.4382 9.584 80.6842 10.742 80.6842 12.074C80.6842 13.418 80.4382 14.588 79.9462 15.584C79.4542 16.568 78.7522 17.33 77.8402 17.87C76.9282 18.398 75.8482 18.662 74.6002 18.662ZM74.6002 16.808C75.7882 16.808 76.7122 16.4 77.3722 15.584C78.0322 14.768 78.3622 13.598 78.3622 12.074C78.3622 10.562 78.0322 9.404 77.3722 8.6C76.7122 7.784 75.7882 7.376 74.6002 7.376C73.4122 7.376 72.4882 7.778 71.8282 8.582C71.1682 9.386 70.8382 10.55 70.8382 12.074C70.8382 13.598 71.1682 14.768 71.8282 15.584C72.4882 16.4 73.4122 16.808 74.6002 16.808ZM91.4806 9.41V18.5H89.2846V17.096C88.9966 17.6 88.6126 17.984 88.1326 18.248C87.6526 18.512 87.1006 18.644 86.4766 18.644C84.2566 18.644 83.1466 17.396 83.1466 14.9V9.41H85.3786V14.918C85.3786 15.578 85.5106 16.064 85.7746 16.376C86.0506 16.688 86.4706 16.844 87.0346 16.844C87.6946 16.844 88.2226 16.628 88.6186 16.196C89.0146 15.764 89.2126 15.188 89.2126 14.468V9.41H91.4806ZM97.0852 11.102V15.17C97.0852 16.238 97.5832 16.772 98.5792 16.772C98.8552 16.772 99.1552 16.724 99.4792 16.628V18.41C99.0832 18.554 98.6032 18.626 98.0392 18.626C97.0072 18.626 96.2152 18.338 95.6632 17.762C95.1112 17.186 94.8352 16.358 94.8352 15.278V11.102H93.0892V9.41H94.8352V7.196L97.0852 6.44V9.41H99.4972V11.102H97.0852Z" fill="url(#paint2_linear_3220_5185)"/>
<defs>
<linearGradient id="paint0_linear_3220_5185" x1="8" y1="8.48144" x2="8" y2="20.25" gradientUnits="userSpaceOnUse">
<stop stop-color="#0FA3B1"/>
<stop offset="1" stop-color="#037EC4" stop-opacity="0.97"/>
</linearGradient>
<linearGradient id="paint1_linear_3220_5185" x1="12.375" y1="10.2063" x2="12.375" y2="15.25" gradientUnits="userSpaceOnUse">
<stop stop-color="#0FA3B1"/>
<stop offset="1" stop-color="#037EC4" stop-opacity="0.97"/>
</linearGradient>
<linearGradient id="paint2_linear_3220_5185" x1="65" y1="7.70524" x2="65" y2="22.5" gradientUnits="userSpaceOnUse">
<stop stop-color="#0FA3B1"/>
<stop offset="1" stop-color="#037EC4" stop-opacity="0.97"/>
</linearGradient>
</defs>
</svg>
