<svg width="55" height="22" viewBox="0 0 55 22" fill="none" xmlns="http://www.w3.org/2000/svg">
<path d="M1.584 5.184H6.696C8.016 5.184 9.042 5.502 9.774 6.138C10.518 6.774 10.89 7.65 10.89 8.766C10.89 9.882 10.518 10.764 9.774 11.412C9.03 12.048 8.004 12.366 6.696 12.366H3.06V18H1.584V5.184ZM6.57 11.142C7.518 11.142 8.232 10.938 8.712 10.53C9.192 10.122 9.432 9.534 9.432 8.766C9.432 7.998 9.192 7.416 8.712 7.02C8.232 6.612 7.518 6.408 6.57 6.408H3.06V11.142H6.57ZM17.4648 8.73C17.7648 8.73 18.0408 8.766 18.2928 8.838L18.2568 10.17C17.9808 10.074 17.6628 10.026 17.3028 10.026C16.4268 10.026 15.7728 10.302 15.3408 10.854C14.9208 11.394 14.7108 12.054 14.7108 12.834V18H13.2528V11.484C13.2528 10.548 13.2048 9.702 13.1088 8.946H14.4948L14.6388 10.62C14.8668 10.008 15.2328 9.54 15.7368 9.216C16.2408 8.892 16.8168 8.73 17.4648 8.73ZM23.6425 18.126C22.7905 18.126 22.0405 17.934 21.3925 17.55C20.7445 17.166 20.2405 16.62 19.8805 15.912C19.5325 15.204 19.3585 14.376 19.3585 13.428C19.3585 12.48 19.5325 11.652 19.8805 10.944C20.2405 10.236 20.7445 9.69 21.3925 9.306C22.0405 8.922 22.7905 8.73 23.6425 8.73C24.4945 8.73 25.2445 8.922 25.8925 9.306C26.5405 9.69 27.0385 10.236 27.3865 10.944C27.7465 11.652 27.9265 12.48 27.9265 13.428C27.9265 14.376 27.7465 15.204 27.3865 15.912C27.0385 16.62 26.5405 17.166 25.8925 17.55C25.2445 17.934 24.4945 18.126 23.6425 18.126ZM23.6425 16.92C24.5425 16.92 25.2325 16.626 25.7125 16.038C26.1925 15.438 26.4325 14.568 26.4325 13.428C26.4325 12.324 26.1865 11.472 25.6945 10.872C25.2025 10.26 24.5185 9.954 23.6425 9.954C22.7545 9.954 22.0645 10.26 21.5725 10.872C21.0805 11.472 20.8345 12.324 20.8345 13.428C20.8345 14.568 21.0745 15.438 21.5545 16.038C22.0465 16.626 22.7425 16.92 23.6425 16.92ZM32.4257 8.946H37.9877V18H36.5297V10.098H32.4257V18H30.9677V10.098H29.2037V8.946H30.9677V7.74C30.9677 7.008 31.0757 6.42 31.2917 5.976C31.5197 5.532 31.8857 5.208 32.3897 5.004C32.8937 4.8 33.5777 4.698 34.4417 4.698H35.0177V5.832H34.5677C33.9437 5.832 33.4817 5.886 33.1817 5.994C32.8937 6.102 32.6957 6.312 32.5877 6.624C32.4797 6.924 32.4257 7.392 32.4257 8.028V8.946ZM38.1677 5.022V6.714H36.3497V5.022H38.1677ZM41.1001 4.752H42.5581V18H41.1001V4.752ZM53.2672 13.428H46.6252C46.6372 14.58 46.9012 15.45 47.4172 16.038C47.9452 16.626 48.7072 16.92 49.7032 16.92C50.7592 16.92 51.7312 16.566 52.6192 15.858L53.1052 16.92C52.7092 17.292 52.1992 17.586 51.5752 17.802C50.9632 18.018 50.3332 18.126 49.6852 18.126C48.2692 18.126 47.1592 17.712 46.3552 16.884C45.5512 16.044 45.1492 14.898 45.1492 13.446C45.1492 12.522 45.3292 11.706 45.6892 10.998C46.0492 10.278 46.5532 9.72 47.2012 9.324C47.8492 8.928 48.5872 8.73 49.4152 8.73C50.6152 8.73 51.5572 9.126 52.2412 9.918C52.9252 10.698 53.2672 11.778 53.2672 13.158V13.428ZM49.4332 9.864C48.6772 9.864 48.0592 10.092 47.5792 10.548C47.1112 11.004 46.8112 11.646 46.6792 12.474H51.9532C51.8812 11.622 51.6292 10.974 51.1972 10.53C50.7772 10.086 50.1892 9.864 49.4332 9.864Z" fill="url(#paint0_linear_2962_6580)"/>
<defs>
<linearGradient id="paint0_linear_2962_6580" x1="26.6919" y1="-2.69249" x2="26.6919" y2="25.4087" gradientUnits="userSpaceOnUse">
<stop offset="0.234375" stop-color="#FFD37C"/>
<stop offset="0.607292" stop-color="#D08123"/>
</linearGradient>
</defs>
</svg>
