<svg width="133" height="23" viewBox="0 0 133 23" fill="none" xmlns="http://www.w3.org/2000/svg">
<path d="M8.5 5.4C9.66 5.4 10.6 6.34 10.6 7.5C10.6 8.66 9.66 9.6 8.5 9.6C7.34 9.6 6.4 8.66 6.4 7.5C6.4 6.34 7.34 5.4 8.5 5.4ZM8.5 14.4C11.47 14.4 14.6 15.86 14.6 16.5V17.6H2.4V16.5C2.4 15.86 5.53 14.4 8.5 14.4ZM8.5 3.5C6.29 3.5 4.5 5.29 4.5 7.5C4.5 9.71 6.29 11.5 8.5 11.5C10.71 11.5 12.5 9.71 12.5 7.5C12.5 5.29 10.71 3.5 8.5 3.5ZM8.5 12.5C5.83 12.5 0.5 13.84 0.5 16.5V19.5H16.5V16.5C16.5 13.84 11.17 12.5 8.5 12.5Z" fill="url(#paint0_linear_3224_5175)"/>
<path d="M38.64 5.684L32.934 18.5H31.044L25.338 5.684H27.75L32.016 15.584L36.282 5.684H38.64ZM39.9967 9.41H42.2287V18.5H39.9967V9.41ZM42.3547 5.288V7.502H39.8527V5.288H42.3547ZM52.946 14.072H46.682C46.73 15.044 46.97 15.764 47.402 16.232C47.846 16.688 48.5 16.916 49.364 16.916C50.36 16.916 51.284 16.592 52.136 15.944L52.784 17.492C52.352 17.84 51.818 18.122 51.182 18.338C50.558 18.542 49.922 18.644 49.274 18.644C47.786 18.644 46.616 18.224 45.764 17.384C44.912 16.544 44.486 15.392 44.486 13.928C44.486 13.004 44.672 12.182 45.044 11.462C45.416 10.742 45.938 10.184 46.61 9.788C47.282 9.38 48.044 9.176 48.896 9.176C50.144 9.176 51.128 9.584 51.848 10.4C52.58 11.204 52.946 12.314 52.946 13.73V14.072ZM48.95 10.796C48.35 10.796 47.858 10.976 47.474 11.336C47.102 11.684 46.862 12.194 46.754 12.866H50.984C50.912 12.182 50.702 11.666 50.354 11.318C50.018 10.97 49.55 10.796 48.95 10.796ZM69.4651 9.41L65.9011 18.5H63.9391L61.6891 12.542L59.4931 18.5H57.5131L53.9491 9.41H56.2531L58.5931 15.818L60.9511 9.41H62.5711L64.9291 15.872L67.2691 9.41H69.4651ZM76.5852 5.684H82.1472C83.5272 5.684 84.6012 6.02 85.3692 6.692C86.1372 7.352 86.5212 8.258 86.5212 9.41C86.5212 10.562 86.1312 11.474 85.3512 12.146C84.5832 12.818 83.5152 13.154 82.1472 13.154H78.9072V18.5H76.5852V5.684ZM81.8772 11.354C82.6812 11.354 83.2872 11.192 83.6952 10.868C84.1152 10.532 84.3252 10.052 84.3252 9.428C84.3252 8.792 84.1212 8.312 83.7132 7.988C83.3052 7.652 82.6932 7.484 81.8772 7.484H78.9072V11.354H81.8772ZM93.4317 9.194C93.7797 9.194 94.0797 9.242 94.3317 9.338L94.3137 11.39C93.9297 11.234 93.5337 11.156 93.1257 11.156C92.3577 11.156 91.7697 11.378 91.3617 11.822C90.9657 12.266 90.7677 12.854 90.7677 13.586V18.5H88.5357V11.984C88.5357 11.024 88.4877 10.166 88.3917 9.41H90.4977L90.6777 11.012C90.9057 10.424 91.2657 9.974 91.7577 9.662C92.2497 9.35 92.8077 9.194 93.4317 9.194ZM99.8308 18.644C98.9068 18.644 98.0908 18.452 97.3828 18.068C96.6868 17.684 96.1468 17.138 95.7628 16.43C95.3908 15.71 95.2048 14.87 95.2048 13.91C95.2048 12.95 95.3908 12.116 95.7628 11.408C96.1468 10.688 96.6868 10.136 97.3828 9.752C98.0908 9.368 98.9068 9.176 99.8308 9.176C100.743 9.176 101.547 9.368 102.243 9.752C102.939 10.136 103.473 10.688 103.845 11.408C104.229 12.116 104.421 12.95 104.421 13.91C104.421 14.87 104.229 15.71 103.845 16.43C103.473 17.138 102.939 17.684 102.243 18.068C101.547 18.452 100.743 18.644 99.8308 18.644ZM99.8128 16.88C100.581 16.88 101.163 16.634 101.559 16.142C101.967 15.638 102.171 14.894 102.171 13.91C102.171 12.938 101.967 12.2 101.559 11.696C101.151 11.18 100.575 10.922 99.8308 10.922C99.0748 10.922 98.4928 11.18 98.0848 11.696C97.6768 12.2 97.4728 12.938 97.4728 13.91C97.4728 14.894 97.6708 15.638 98.0668 16.142C98.4748 16.634 99.0568 16.88 99.8128 16.88ZM109.47 9.41H115.446V18.5H113.196V11.102H109.47V18.5H107.22V11.102H105.474V9.41H107.22V8.492C107.22 7.676 107.346 7.034 107.598 6.566C107.85 6.086 108.258 5.738 108.822 5.522C109.398 5.306 110.178 5.198 111.162 5.198H111.828V6.854H111.396C110.832 6.854 110.418 6.902 110.154 6.998C109.89 7.082 109.71 7.256 109.614 7.52C109.518 7.772 109.47 8.18 109.47 8.744V9.41ZM115.59 5.198V7.466H113.052V5.198H115.59ZM118.176 5.252H120.408V18.5H118.176V5.252ZM131.125 14.072H124.861C124.909 15.044 125.149 15.764 125.581 16.232C126.025 16.688 126.679 16.916 127.543 16.916C128.539 16.916 129.463 16.592 130.315 15.944L130.963 17.492C130.531 17.84 129.997 18.122 129.361 18.338C128.737 18.542 128.101 18.644 127.453 18.644C125.965 18.644 124.795 18.224 123.943 17.384C123.091 16.544 122.665 15.392 122.665 13.928C122.665 13.004 122.851 12.182 123.223 11.462C123.595 10.742 124.117 10.184 124.789 9.788C125.461 9.38 126.223 9.176 127.075 9.176C128.323 9.176 129.307 9.584 130.027 10.4C130.759 11.204 131.125 12.314 131.125 13.73V14.072ZM127.129 10.796C126.529 10.796 126.037 10.976 125.653 11.336C125.281 11.684 125.041 12.194 124.933 12.866H129.163C129.091 12.182 128.881 11.666 128.533 11.318C128.197 10.97 127.729 10.796 127.129 10.796Z" fill="url(#paint1_linear_3224_5175)"/>
<defs>
<linearGradient id="paint0_linear_3224_5175" x1="8.5" y1="8.74017" x2="8.5" y2="19.5" gradientUnits="userSpaceOnUse">
<stop stop-color="#0FA3B1"/>
<stop offset="1" stop-color="#037EC4" stop-opacity="0.97"/>
</linearGradient>
<linearGradient id="paint1_linear_3224_5175" x1="79" y1="7.70524" x2="79" y2="22.5" gradientUnits="userSpaceOnUse">
<stop stop-color="#0FA3B1"/>
<stop offset="1" stop-color="#037EC4" stop-opacity="0.97"/>
</linearGradient>
</defs>
</svg>
