<svg width="66" height="48" viewBox="0 0 66 48" fill="none" xmlns="http://www.w3.org/2000/svg">
<rect x="0.5" y="0.5" width="65" height="47" rx="5.5" fill="black" stroke="url(#paint0_linear_2486_6041)"/>
<path d="M16.9393 22.9393C16.3536 23.5251 16.3536 24.4749 16.9393 25.0607L26.4853 34.6066C27.0711 35.1924 28.0208 35.1924 28.6066 34.6066C29.1924 34.0208 29.1924 33.0711 28.6066 32.4853L20.1213 24L28.6066 15.5147C29.1924 14.9289 29.1924 13.9792 28.6066 13.3934C28.0208 12.8076 27.0711 12.8076 26.4853 13.3934L16.9393 22.9393ZM47 22.5L18 22.5V25.5L47 25.5V22.5Z" fill="url(#paint1_linear_2486_6041)"/>
<defs>
<linearGradient id="paint0_linear_2486_6041" x1="32.0303" y1="-5.87452" x2="32.0303" y2="55.4373" gradientUnits="userSpaceOnUse">
<stop offset="0.234375" stop-color="#FFD37C"/>
<stop offset="0.607292" stop-color="#D08123"/>
</linearGradient>
<linearGradient id="paint1_linear_2486_6041" x1="32.9261" y1="24.1224" x2="32.9261" y2="22.8451" gradientUnits="userSpaceOnUse">
<stop offset="0.234375" stop-color="#FFD37C"/>
<stop offset="0.607292" stop-color="#D08123"/>
</linearGradient>
</defs>
</svg>
