<svg width="195" height="521" viewBox="0 0 195 521" fill="none" xmlns="http://www.w3.org/2000/svg">
<g opacity="0.7">
<path d="M88.0999 147.893L95.2241 140.472L92.3821 70.5844C92.2998 68.5606 91.3478 66.6708 89.7704 65.4001L87.3901 63.4827L82.8304 66.5578C82.0083 67.1122 81.3183 67.8409 80.8096 68.6921L74.5585 79.1507L68.3453 90.6316L63.6687 102.983C63.2784 104.013 63.0955 105.111 63.1302 106.212L63.4828 117.375L64.2932 130.612L65.2509 142.531C65.422 144.66 65.8928 146.754 66.6493 148.751L68.8855 154.655L72.5324 164.109L84.4213 151.725L74.9637 162.218L67.6699 178.157L60.9164 196.661V213.545L62.4022 254.876L71.9921 284.186L89.4205 316.182C89.8666 317.001 90.3963 317.771 91.0011 318.481L102.317 331.76C105.041 334.957 108.31 337.645 111.973 339.7L111.703 327.949L111.36 303.081C111.318 300.037 111.581 296.996 112.145 294.005L114.243 282.86C114.889 279.429 115.845 276.064 117.098 272.805L122.664 258.333C123.522 256.102 125.151 254.253 127.255 253.12L132.773 250.149L130.128 237.689C129.124 232.961 129.585 228.04 131.45 223.581L134.799 215.571L130.783 214.132C127.462 212.943 124.419 211.088 121.84 208.683L114.795 202.112C112.742 200.197 110.949 198.022 109.461 195.641L101.659 183.157C101.153 182.349 100.767 181.473 100.51 180.555L95.7343 163.501C95.3958 162.291 95.2241 161.041 95.2241 159.786V142.093L88.0999 147.893Z" fill="black"/>
<path d="M59.9709 194.905L70.9116 167.486L66.5894 156.546L63.895 148.066C62.6354 144.102 61.917 139.986 61.7592 135.83L60.3762 99.4112L59.397 93.2102C58.9977 90.6807 57.3271 88.5338 54.9734 87.525L51.9047 90.7743C50.8935 91.845 50.0303 93.0464 49.3384 94.3464L46.174 100.292C46.0074 100.605 45.8657 100.93 45.7503 101.265L42.5851 110.455C42.0223 112.089 41.6964 113.795 41.6174 115.521L40.9261 130.612L42.8171 146.28L45.4399 165.649C46.0294 170.002 47.2553 174.244 49.0783 178.241L51.9211 184.473C52.8697 186.553 54.1344 188.473 55.6704 190.166L59.9709 194.905Z" fill="black"/>
<path d="M59.7008 225.701V198.417L54.5356 193.252C52.588 191.304 50.9529 189.067 49.6883 186.621L47.447 182.284C46.0784 179.636 45.098 176.805 44.536 173.878L42.1418 161.408L40.2508 147.226L37.9546 131.152L36.8948 122.886C36.7017 121.38 36.3111 119.906 35.7329 118.502L34.713 116.025C32.7743 116.906 31.1356 118.335 29.9984 120.135L27.732 123.724C27.1678 124.617 26.7669 125.604 26.548 126.637L24.7874 134.951C24.5613 136.019 24.4281 137.104 24.3891 138.194L24.0255 148.375C23.947 150.573 24.1268 152.772 24.5611 154.928L27.5543 169.782L31.8765 185.45L36.2468 197.59C36.5739 198.499 37.0035 199.367 37.5273 200.178L45.1133 211.924L48.3056 216.037C50.8399 219.303 53.9308 222.095 57.4359 224.286L59.7008 225.701Z" fill="black"/>
<path d="M62.6723 259.063L60.5112 230.969L51.7941 224.551C49.4326 222.812 47.4217 220.642 45.8676 218.155L35.869 202.158C34.6517 200.21 33.6503 198.136 32.8826 195.971L26.6564 178.415C26.0852 176.804 25.6402 175.152 25.3253 173.473L22.5376 158.605C22.2818 157.241 21.8129 155.925 21.1481 154.706L18.9098 150.602L17.4221 152.462C16.2582 153.917 15.2978 155.524 14.5672 157.237L13.1277 160.615C12.4824 162.129 12.0166 163.713 11.7401 165.336L10.6911 171.49C10.3179 173.679 10.1303 175.896 10.1303 178.117V183.991C10.1303 188.791 11.0509 193.547 12.8421 198.001L14.2126 201.409C14.8207 202.921 15.6022 204.358 16.5414 205.689L36.0999 233.427C36.9745 234.667 37.9563 235.828 39.034 236.897L53.4876 251.229L62.6723 259.063Z" fill="black"/>
<path d="M72.2623 287.833L63.6178 262.845L52.9473 254.876L34.0376 235.291L21.206 217.597L12.7632 205.106C11.8199 203.711 10.7638 202.395 9.60538 201.172L6.48343 197.877L6.11687 198.595C4.23595 202.278 3.39751 206.406 3.69218 210.531L3.97467 214.486C4.02625 215.208 4.13698 215.925 4.30574 216.629L8.35451 233.518C8.63646 234.694 9.08502 235.824 9.68658 236.873L14.062 244.505C14.411 245.113 14.8352 245.676 15.3245 246.179L43.6275 275.272L61.3182 288.307C63.2044 289.697 65.2535 290.85 67.42 291.743C69.8264 292.733 72.3572 293.39 74.9419 293.694L75.639 293.776L72.2623 287.833Z" fill="black"/>
<path d="M57.2813 290.902L78.8807 300.935L94.0085 323.897L91.0516 324.367C85.1771 325.302 79.1665 324.877 73.482 323.125L62.4022 319.71L42.66 310.079C41.0562 309.297 39.5149 308.392 38.0497 307.374L27.0219 299.709C23.1738 297.035 19.8188 293.713 17.1061 289.892L9.31073 278.91C6.90233 275.518 5.07454 271.748 3.90205 267.756L2.77965 263.935C0.965729 257.759 0.984726 251.189 2.83434 245.023L3.24176 243.665L4.86259 240.154L10.8056 245.691L29.9855 267.573L51.6137 287.147C53.3036 288.676 55.2142 289.942 57.2813 290.902Z" fill="black"/>
<path d="M96.1696 326.868L109.136 339.024L97.528 347.109C95.1927 348.735 92.6451 350.033 89.9565 350.966L86.6216 352.123C82.749 353.466 78.6787 354.152 74.5796 354.152H62.1994C57.7817 354.152 53.4035 353.321 49.2932 351.702C47.5045 350.997 45.8135 350.066 44.2616 348.931L38.4255 344.664C35.5195 342.539 32.9782 339.956 30.9008 337.016L21.6969 323.99C19.3279 320.638 17.7302 316.802 17.0182 312.76L14.3175 297.423C16.7927 297.423 19.2218 298.092 21.3479 299.36L25.123 301.61L43.646 315.036C44.7113 315.808 45.8543 316.467 47.0564 317.002L66.4326 325.624C71.8415 328.03 77.7953 328.948 83.678 328.282L96.1696 326.868Z" fill="black"/>
<path d="M112.378 366.038V346.453L92.4238 354.972C90.3401 355.861 88.1362 356.438 85.8838 356.682L66.8595 358.745L54.163 360.23L57.8354 367.428C59.8423 371.362 62.9926 374.596 66.8721 376.706L71.5857 379.27C74.6557 380.939 78.1831 381.572 81.642 381.074L84.5697 380.652C89.0086 380.012 93.2564 378.418 97.0211 375.981L112.378 366.038Z" fill="black"/>
<path d="M183.896 291.055L182.105 287.921C181.814 287.413 181.486 286.927 181.122 286.469L176.592 280.754C174.133 277.651 171.305 274.858 168.172 272.437L161.003 266.897L152.204 260.326C150.959 259.396 149.633 258.579 148.243 257.884L138.315 252.919C138.043 252.783 137.76 252.669 137.47 252.579L135.147 251.853C134.14 251.538 133.052 251.603 132.09 252.034L125.75 254.876L119.186 270.191C118.162 272.58 117.403 275.075 116.921 277.63L113.721 294.599C113.367 296.477 113.198 298.385 113.217 300.296L113.823 361.115C113.85 363.851 114.134 366.578 114.67 369.261L115.917 375.493L118.456 442.353L179.643 490.572L183.154 500.703L184.235 508.672L183.154 512.859L177.346 513.669L173.835 509.887L174.51 505.43L178.697 502.459L179.643 505.43V507.726L180.318 509.482L182.209 509.887L183.154 508.672V505.025L182.209 501.648L179.643 499.487H177.346L173.835 501.648L172.079 505.025L171.403 511.643L174.51 517.316L176.806 518.937L180.318 519.342L185.18 517.316L187.071 514.885L188.287 510.833L189.097 504.62V495.705L187.071 488.952L176.806 479.632L133.854 446.81L127.101 442.353L126.56 399.671L123.181 394.151C122.733 393.42 122.356 392.648 122.055 391.846L116.64 377.42L123.761 393.468C124.631 395.429 125.811 397.238 127.256 398.824L137.215 409.754C140.176 413.004 143.657 415.74 147.515 417.85L152.401 420.522C156.753 422.902 161.479 424.525 166.375 425.321L170.77 426.036C173.965 426.555 177.221 426.587 180.425 426.129L183.157 425.739C184.929 425.486 186.46 424.37 187.243 422.76C188.019 421.166 188.416 419.414 188.404 417.641L187.747 321.195L186.531 302.421L185.839 296.886C185.583 294.833 184.922 292.851 183.896 291.055Z" fill="black"/>
<path d="M88.0999 147.893L95.2241 140.472L92.3821 70.5844C92.2998 68.5606 91.3478 66.6708 89.7704 65.4001L87.3901 63.4827L82.8304 66.5578C82.0083 67.1122 81.3183 67.8409 80.8096 68.6921L74.5585 79.1507L68.3453 90.6316L63.6687 102.983C63.2784 104.013 63.0955 105.111 63.1302 106.212L63.4828 117.375L64.2932 130.612L65.2509 142.531C65.422 144.66 65.8928 146.754 66.6493 148.751L68.8855 154.655L72.5324 164.109L84.4213 151.725L74.9637 162.218L67.6699 178.157L60.9164 196.661V213.545L62.4022 254.876L71.9921 284.186L89.4205 316.182C89.8666 317.001 90.3963 317.771 91.0011 318.481L102.317 331.76C105.041 334.957 108.31 337.645 111.973 339.7L111.703 327.949L111.36 303.081C111.318 300.037 111.581 296.996 112.145 294.005L114.243 282.86C114.889 279.429 115.845 276.064 117.098 272.805L122.664 258.333C123.522 256.102 125.151 254.253 127.255 253.12L132.773 250.149L130.128 237.689C129.124 232.961 129.585 228.04 131.45 223.581L134.799 215.571L130.783 214.132C127.462 212.943 124.419 211.088 121.84 208.683L114.795 202.112C112.742 200.197 110.949 198.022 109.461 195.641L101.659 183.157C101.153 182.349 100.767 181.473 100.51 180.555L95.7343 163.501C95.3958 162.291 95.2241 161.041 95.2241 159.786V142.093L88.0999 147.893Z" stroke="url(#paint0_linear_2029_8270)" stroke-width="2.16111"/>
<path d="M59.9709 194.905L70.9116 167.486L66.5894 156.546L63.895 148.066C62.6354 144.102 61.917 139.986 61.7592 135.83L60.3762 99.4112L59.397 93.2102C58.9977 90.6807 57.3271 88.5338 54.9734 87.525L51.9047 90.7743C50.8935 91.845 50.0303 93.0464 49.3384 94.3464L46.174 100.292C46.0074 100.605 45.8657 100.93 45.7503 101.265L42.5851 110.455C42.0223 112.089 41.6964 113.795 41.6174 115.521L40.9261 130.612L42.8171 146.28L45.4399 165.649C46.0294 170.002 47.2553 174.244 49.0783 178.241L51.9211 184.473C52.8697 186.553 54.1344 188.473 55.6704 190.166L59.9709 194.905Z" stroke="url(#paint1_linear_2029_8270)" stroke-width="2.16111"/>
<path d="M59.7008 225.701V198.417L54.5356 193.252C52.588 191.304 50.9529 189.067 49.6883 186.621L47.447 182.284C46.0784 179.636 45.098 176.805 44.536 173.878L42.1418 161.408L40.2508 147.226L37.9546 131.152L36.8948 122.886C36.7017 121.38 36.3111 119.906 35.7329 118.502L34.713 116.025C32.7743 116.906 31.1356 118.335 29.9984 120.135L27.732 123.724C27.1678 124.617 26.7669 125.604 26.548 126.637L24.7874 134.951C24.5613 136.019 24.4281 137.104 24.3891 138.194L24.0255 148.375C23.947 150.573 24.1268 152.772 24.5611 154.928L27.5543 169.782L31.8765 185.45L36.2468 197.59C36.5739 198.499 37.0035 199.367 37.5273 200.178L45.1133 211.924L48.3056 216.037C50.8399 219.303 53.9308 222.095 57.4359 224.286L59.7008 225.701Z" stroke="url(#paint2_linear_2029_8270)" stroke-width="2.16111"/>
<path d="M62.6723 259.063L60.5112 230.969L51.7941 224.551C49.4326 222.812 47.4217 220.642 45.8676 218.155L35.869 202.158C34.6517 200.21 33.6503 198.136 32.8826 195.971L26.6564 178.415C26.0852 176.804 25.6402 175.152 25.3253 173.473L22.5376 158.605C22.2818 157.241 21.8129 155.925 21.1481 154.706L18.9098 150.602L17.4221 152.462C16.2582 153.917 15.2978 155.524 14.5672 157.237L13.1277 160.615C12.4824 162.129 12.0166 163.713 11.7401 165.336L10.6911 171.49C10.3179 173.679 10.1303 175.896 10.1303 178.117V183.991C10.1303 188.791 11.0509 193.547 12.8421 198.001L14.2126 201.409C14.8207 202.921 15.6022 204.358 16.5414 205.689L36.0999 233.427C36.9745 234.667 37.9563 235.828 39.034 236.897L53.4876 251.229L62.6723 259.063Z" stroke="url(#paint3_linear_2029_8270)" stroke-width="2.16111"/>
<path d="M72.2623 287.833L63.6178 262.845L52.9473 254.876L34.0376 235.291L21.206 217.597L12.7632 205.106C11.8199 203.711 10.7638 202.395 9.60538 201.172L6.48343 197.877L6.11687 198.595C4.23595 202.278 3.39751 206.406 3.69218 210.531L3.97467 214.486C4.02625 215.208 4.13698 215.925 4.30574 216.629L8.35451 233.518C8.63646 234.694 9.08502 235.824 9.68658 236.873L14.062 244.505C14.411 245.113 14.8352 245.676 15.3245 246.179L43.6275 275.272L61.3182 288.307C63.2044 289.697 65.2535 290.85 67.42 291.743C69.8264 292.733 72.3572 293.39 74.9419 293.694L75.639 293.776L72.2623 287.833Z" stroke="url(#paint4_linear_2029_8270)" stroke-width="2.16111"/>
<path d="M57.2813 290.902L78.8807 300.935L94.0085 323.897L91.0516 324.367C85.1771 325.302 79.1665 324.877 73.482 323.125L62.4022 319.71L42.66 310.079C41.0562 309.297 39.5149 308.392 38.0497 307.374L27.0219 299.709C23.1738 297.035 19.8188 293.713 17.1061 289.892L9.31073 278.91C6.90233 275.518 5.07454 271.748 3.90205 267.756L2.77965 263.935C0.965729 257.759 0.984726 251.189 2.83434 245.023L3.24176 243.665L4.86259 240.154L10.8056 245.691L29.9855 267.573L51.6137 287.147C53.3036 288.676 55.2142 289.942 57.2813 290.902Z" stroke="url(#paint5_linear_2029_8270)" stroke-width="2.16111"/>
<path d="M96.1696 326.868L109.136 339.024L97.528 347.109C95.1927 348.735 92.6451 350.033 89.9565 350.966L86.6216 352.123C82.749 353.466 78.6787 354.152 74.5796 354.152H62.1994C57.7817 354.152 53.4035 353.321 49.2932 351.702C47.5045 350.997 45.8135 350.066 44.2616 348.931L38.4255 344.664C35.5195 342.539 32.9782 339.956 30.9008 337.016L21.6969 323.99C19.3279 320.638 17.7302 316.802 17.0182 312.76L14.3175 297.423C16.7927 297.423 19.2218 298.092 21.3479 299.36L25.123 301.61L43.646 315.036C44.7113 315.808 45.8543 316.467 47.0564 317.002L66.4326 325.624C71.8415 328.03 77.7953 328.948 83.678 328.282L96.1696 326.868Z" stroke="url(#paint6_linear_2029_8270)" stroke-width="2.16111"/>
<path d="M112.378 366.038V346.453L92.4238 354.972C90.3401 355.861 88.1362 356.438 85.8838 356.682L66.8595 358.745L54.163 360.23L57.8354 367.428C59.8423 371.362 62.9926 374.596 66.8721 376.706L71.5857 379.27C74.6557 380.939 78.1831 381.572 81.642 381.074L84.5697 380.652C89.0086 380.012 93.2564 378.418 97.0211 375.981L112.378 366.038Z" stroke="url(#paint7_linear_2029_8270)" stroke-width="2.16111"/>
<path d="M183.896 291.055L182.105 287.921C181.814 287.413 181.486 286.927 181.122 286.469L176.592 280.754C174.133 277.651 171.305 274.858 168.172 272.437L161.003 266.897L152.204 260.326C150.959 259.396 149.633 258.579 148.243 257.884L138.315 252.919C138.043 252.783 137.76 252.669 137.47 252.579L135.147 251.853C134.14 251.538 133.052 251.603 132.09 252.034L125.75 254.876L119.186 270.191C118.162 272.58 117.403 275.075 116.921 277.63L113.721 294.599C113.367 296.477 113.198 298.385 113.217 300.296L113.823 361.115C113.85 363.851 114.134 366.578 114.67 369.261L115.917 375.493L118.456 442.353L179.643 490.572L183.154 500.703L184.235 508.672L183.154 512.859L177.346 513.669L173.835 509.887L174.51 505.43L178.697 502.459L179.643 505.43V507.726L180.318 509.482L182.209 509.887L183.154 508.672V505.025L182.209 501.648L179.643 499.487H177.346L173.835 501.648L172.079 505.025L171.403 511.643L174.51 517.316L176.806 518.937L180.318 519.342L185.18 517.316L187.071 514.885L188.287 510.833L189.097 504.62V495.705L187.071 488.952L176.806 479.632L133.854 446.81L127.101 442.353L126.56 399.671L123.181 394.151C122.733 393.42 122.356 392.648 122.055 391.846L116.64 377.42L123.761 393.468C124.631 395.429 125.811 397.238 127.256 398.824L137.215 409.754C140.176 413.004 143.657 415.74 147.515 417.85L152.401 420.522C156.753 422.902 161.479 424.525 166.375 425.321L170.77 426.036C173.965 426.555 177.221 426.587 180.425 426.129L183.157 425.739C184.929 425.486 186.46 424.37 187.243 422.76C188.019 421.166 188.416 419.414 188.404 417.641L187.747 321.195L186.531 302.421L185.839 296.886C185.583 294.833 184.922 292.851 183.896 291.055Z" stroke="url(#paint8_linear_2029_8270)" stroke-width="2.16111"/>
<mask id="path-2-inside-1_2029_8270" fill="white">
<path d="M261.224 60.6329C261.224 74.9943 254.209 88.7674 241.721 98.9224C229.233 109.077 212.296 114.782 194.635 114.782C176.975 114.782 160.037 109.077 147.549 98.9224C135.062 88.7674 128.046 74.9943 128.046 60.6329H135.799C135.799 73.3222 141.998 85.4917 153.032 94.4644C164.066 103.437 179.031 108.478 194.635 108.478C210.24 108.478 225.205 103.437 236.239 94.4644C247.273 85.4917 253.471 73.3222 253.471 60.6329H261.224Z"/>
</mask>
<path d="M261.224 60.6329C261.224 74.9943 254.209 88.7674 241.721 98.9224C229.233 109.077 212.296 114.782 194.635 114.782C176.975 114.782 160.037 109.077 147.549 98.9224C135.062 88.7674 128.046 74.9943 128.046 60.6329H135.799C135.799 73.3222 141.998 85.4917 153.032 94.4644C164.066 103.437 179.031 108.478 194.635 108.478C210.24 108.478 225.205 103.437 236.239 94.4644C247.273 85.4917 253.471 73.3222 253.471 60.6329H261.224Z" fill="black" stroke="#FFD37C" stroke-width="2.16111" mask="url(#path-2-inside-1_2029_8270)"/>
<path d="M125.548 59.947C125.584 59.0931 126.229 58.3888 127.076 58.2788L134.373 57.3312C135.1 57.2367 135.745 57.8032 135.745 58.5367V60.7812C135.745 61.1542 135.442 61.4566 135.069 61.4566H125.485L125.548 59.947Z" fill="black" stroke="#FFD37C" stroke-width="0.270139"/>
<circle cx="194.635" cy="53.8927" r="52.8122" fill="black" stroke="url(#paint9_radial_2029_8270)" stroke-width="2.16111"/>
<path d="M256.236 219.873L254.059 214.068C253.267 211.955 251.937 210.085 250.201 208.644L246.605 205.659L252.85 210.438L268.113 181.804L280.134 188.287L275.812 178.022L286.347 171.133H271.895L257.443 143.174L239.881 112.108L236.03 106.03L233.805 102.518L216.922 103.598L218.813 109.406H228.132L228.673 110.02L231.104 112.783L233.4 116.43L266.897 171.133L266.222 175.05L239.613 200.308L245.429 204.759L243.068 203.484C239.205 201.4 234.884 200.308 230.494 200.308H222.054L213.218 203.895C210.04 205.185 206.656 205.894 203.228 205.987L193.555 206.251L180.688 204.795C179.723 204.685 178.768 204.495 177.835 204.225L170.167 202.01C168.12 201.419 166 201.119 163.869 201.119H150.873L140.346 212.505C138.557 214.439 137.175 216.712 136.279 219.19L133.9 225.774C132.543 229.529 132.214 233.579 132.945 237.504L133.411 240.003C134.294 244.735 137.17 248.859 141.306 251.323L159.517 262.17L178.257 278.893C179.984 280.435 181.506 282.191 182.785 284.12L186.899 290.326C188.341 292.5 189.207 295.006 189.415 297.607L190.988 317.278L192.339 366.849V420.201H196.661V407.505V366.849L197.877 317.278L199.496 298.388C199.762 295.289 200.913 292.332 202.814 289.87L209.493 281.215L226.516 264.43C228.038 262.929 229.735 261.616 231.57 260.518L241.234 254.741L245.004 252.58C249.123 250.218 252.324 246.534 254.087 242.126L256.159 236.948C257.269 234.171 257.715 231.173 257.461 228.193L257.064 223.539C256.957 222.285 256.678 221.052 256.236 219.873Z" fill="black"/>
<path d="M235.426 199.092L236.646 195.245C236.986 194.174 236.831 193.007 236.225 192.061L235.001 190.152C234.256 188.99 232.97 188.287 231.59 188.287H228.132L229.368 185.67C230.066 184.191 230.429 182.576 230.429 180.941V179.907C230.429 178.658 230.227 177.418 229.833 176.233L228.569 172.443C228.28 171.575 227.862 170.754 227.33 170.009L223.405 164.515L221.97 162.995C219.925 160.83 217.21 159.418 214.263 158.986L213.275 158.842L211.599 156.275L217.732 151.548H226.782V149.252V139.122L229.483 135.745V131.828H225.836V134.934L224.215 137.636V149.252H216.922L209.923 153.709C209.283 152.729 208.45 151.889 207.476 151.239L205.314 149.797C204.233 149.077 203.055 148.517 201.815 148.133L200.197 147.632C198.749 147.184 197.241 146.956 195.724 146.956H193.683C192.163 146.956 190.65 147.153 189.18 147.543L186.344 148.295C185.304 148.571 184.313 149.005 183.404 149.581L179.237 152.223L177.481 153.709L171.673 146.956H163.704V135.475L161.408 134.259V131.288H158.977V135.745L161.948 136.42V146.956V149.252L170.188 149.792L175.725 155.195L174.78 158.842L171.234 161.115C170.098 161.843 169.121 162.794 168.363 163.909L164.92 168.972L160.733 175.05L158.202 179.57C157.381 181.035 156.951 182.685 156.951 184.363C156.951 185.441 157.125 186.512 157.465 187.535L158.707 191.258L154.866 190.271C154.331 190.133 153.765 190.336 153.439 190.782L151.985 192.771C151.613 193.28 151.413 193.894 151.413 194.525V195.446L151.953 200.308H164.92L166.775 200.428C168.325 200.528 169.859 200.799 171.349 201.236L179.237 203.55L188.2 205.103C188.977 205.238 189.764 205.306 190.553 205.306H199.903L206.742 204.837C208.744 204.7 210.713 204.254 212.578 203.515L216.922 201.794L218.946 200.841C220.637 200.045 222.483 199.633 224.352 199.633H231.104L235.426 199.092Z" fill="black"/>
<path d="M139.392 211.114L149.792 200.308L125.75 178.022L125.074 173.294L152.223 117.105L155.679 112.289C156.343 111.362 157.135 110.534 158.031 109.829L164.92 104.409H175.725V102.518V99.006L174.085 98.6779C172.481 98.3571 170.85 98.1956 169.214 98.1956C167.796 98.1956 166.38 98.3357 164.989 98.6139L161.521 99.3076C159.854 99.641 158.304 100.405 157.024 101.525L156.537 101.951C155.291 103.042 154.236 104.333 153.415 105.771L153.037 106.435L148.171 114.809L116.835 171.133L106.165 178.022L116.835 180.318L111.703 188.287L122.373 182.614L123.589 184.505L139.392 211.114Z" fill="black"/>
<path d="M228.132 188.287H231.59C232.97 188.287 234.256 188.99 235.001 190.152L236.225 192.061C236.831 193.007 236.986 194.174 236.646 195.245L235.426 199.092L231.104 199.633H224.352C222.483 199.633 220.637 200.045 218.946 200.841L216.922 201.794L212.578 203.515C210.713 204.254 208.744 204.7 206.742 204.837L199.903 205.306H190.553C189.764 205.306 188.977 205.238 188.2 205.103L179.237 203.55L171.349 201.236C169.859 200.799 168.325 200.528 166.775 200.428L164.92 200.308H151.953L151.413 195.446V194.525C151.413 193.894 151.613 193.28 151.985 192.771L153.439 190.782C153.765 190.336 154.331 190.133 154.866 190.271L158.707 191.258M228.132 188.287L229.368 185.67C230.066 184.191 230.429 182.576 230.429 180.941V179.907C230.429 178.658 230.227 177.418 229.833 176.233L228.569 172.443C228.28 171.575 227.862 170.754 227.33 170.009L223.405 164.515L221.97 162.995C219.925 160.83 217.21 159.418 214.263 158.986L213.275 158.842M228.132 188.287L223.515 187.569C222.563 187.421 221.676 186.993 220.967 186.34L215.166 180.993L211.429 176.882C210.34 175.685 209.61 174.206 209.32 172.614L208.609 168.706C208.479 167.986 208.449 167.252 208.522 166.525L208.746 164.287C208.878 162.966 209.544 161.756 210.591 160.939L213.275 158.842M213.275 158.842L211.599 156.275M174.78 158.842L177.065 159.811C178.474 160.409 179.649 161.452 180.408 162.782V162.782C181.057 163.917 181.398 165.203 181.398 166.511V170.694C181.398 171.966 181.156 173.225 180.684 174.406L179.622 177.059C179.367 177.698 179.037 178.306 178.641 178.87L174.78 184.37L170.728 188.733C169.922 189.601 168.991 190.344 167.965 190.937L163.434 193.555L158.707 191.258M174.78 158.842L171.234 161.115C170.098 161.843 169.121 162.794 168.363 163.909L164.92 168.972L160.733 175.05L158.202 179.57C157.381 181.035 156.951 182.685 156.951 184.363V184.363C156.951 185.441 157.125 186.512 157.465 187.535L158.707 191.258M174.78 158.842L175.725 155.195M175.725 155.195L177.481 153.709M175.725 155.195L170.188 149.792L161.948 149.252V146.956V136.42L158.977 135.745V131.288H161.408V134.259L163.704 135.475V146.956H171.673L177.481 153.709M177.481 153.709L179.237 152.223L183.404 149.581C184.313 149.005 185.304 148.571 186.344 148.295L189.18 147.543C190.65 147.153 192.163 146.956 193.683 146.956H195.724C197.241 146.956 198.749 147.184 200.197 147.632L201.815 148.133C203.055 148.517 204.233 149.077 205.314 149.797L207.476 151.239C208.45 151.889 209.283 152.729 209.923 153.709V153.709M209.923 153.709L216.922 149.252H224.215V137.636L225.836 134.934V131.828H229.483V135.745L226.782 139.122V149.252V151.548H217.732L211.599 156.275M209.923 153.709L211.599 156.275M245.691 204.9L250.201 208.644C251.937 210.085 253.267 211.955 254.059 214.068L256.236 219.873C256.678 221.052 256.957 222.285 257.064 223.539L257.461 228.193C257.715 231.173 257.269 234.171 256.159 236.948L254.087 242.126C252.324 246.534 249.123 250.218 245.004 252.58L241.234 254.741L231.57 260.518C229.735 261.616 228.038 262.929 226.516 264.43L209.493 281.215L202.814 289.87C200.913 292.332 199.762 295.289 199.496 298.388L197.877 317.278L196.661 366.849V407.505V420.201H192.339V366.849L190.988 317.278L189.415 297.607C189.207 295.006 188.341 292.5 186.899 290.326L182.785 284.121C181.506 282.191 179.984 280.435 178.257 278.893L159.517 262.17L141.306 251.323C137.17 248.859 134.294 244.735 133.411 240.003L132.945 237.504C132.214 233.579 132.543 229.529 133.9 225.774L136.279 219.19C137.175 216.712 138.557 214.439 140.346 212.505L150.873 201.119H163.869C166 201.119 168.12 201.419 170.167 202.01L177.835 204.225C178.768 204.495 179.723 204.685 180.688 204.795L193.555 206.251L203.228 205.987C206.656 205.894 210.04 205.185 213.218 203.895L222.054 200.308H230.494C234.884 200.308 239.205 201.4 243.068 203.484L245.691 204.9ZM149.792 200.308L139.392 211.114L123.589 184.505L122.373 182.614L111.703 188.287L116.835 180.318L106.165 178.022L116.835 171.133L148.171 114.809L153.037 106.435L153.415 105.771C154.236 104.333 155.291 103.042 156.537 101.951L157.024 101.525C158.304 100.405 159.854 99.641 161.521 99.3076L164.989 98.6139C166.38 98.3357 167.796 98.1956 169.214 98.1956V98.1956C170.85 98.1956 172.481 98.3571 174.085 98.6779L175.725 99.006V102.518V104.409H164.92L158.031 109.829V109.829C157.135 110.534 156.343 111.362 155.679 112.289L152.223 117.105L125.074 173.294L125.75 178.022L149.792 200.308ZM252.85 210.438L239.613 200.308L266.222 175.05L266.897 171.133L233.4 116.43L231.104 112.783L228.673 110.02L228.132 109.406H218.813L216.922 103.598L233.805 102.518L236.03 106.03L239.881 112.108L257.443 143.174L271.895 171.133H286.347L275.812 178.022L280.134 188.287L268.113 181.804L252.85 210.438Z" stroke="url(#paint10_linear_2029_8270)" stroke-width="2.16111"/>
<circle cx="130.342" cy="52.0017" r="4.99757" fill="url(#paint11_radial_2029_8270)"/>
</g>
<defs>
<linearGradient id="paint0_linear_2029_8270" x1="97.327" y1="7.69193" x2="97.327" y2="589.975" gradientUnits="userSpaceOnUse">
<stop stop-color="#FFD37C"/>
<stop offset="0.607292" stop-color="#D08123"/>
</linearGradient>
<linearGradient id="paint1_linear_2029_8270" x1="97.327" y1="7.69193" x2="97.327" y2="589.975" gradientUnits="userSpaceOnUse">
<stop stop-color="#FFD37C"/>
<stop offset="0.607292" stop-color="#D08123"/>
</linearGradient>
<linearGradient id="paint2_linear_2029_8270" x1="97.327" y1="7.69193" x2="97.327" y2="589.975" gradientUnits="userSpaceOnUse">
<stop stop-color="#FFD37C"/>
<stop offset="0.607292" stop-color="#D08123"/>
</linearGradient>
<linearGradient id="paint3_linear_2029_8270" x1="97.327" y1="7.69193" x2="97.327" y2="589.975" gradientUnits="userSpaceOnUse">
<stop stop-color="#FFD37C"/>
<stop offset="0.607292" stop-color="#D08123"/>
</linearGradient>
<linearGradient id="paint4_linear_2029_8270" x1="97.327" y1="7.69193" x2="97.327" y2="589.975" gradientUnits="userSpaceOnUse">
<stop stop-color="#FFD37C"/>
<stop offset="0.607292" stop-color="#D08123"/>
</linearGradient>
<linearGradient id="paint5_linear_2029_8270" x1="97.327" y1="7.69193" x2="97.327" y2="589.975" gradientUnits="userSpaceOnUse">
<stop stop-color="#FFD37C"/>
<stop offset="0.607292" stop-color="#D08123"/>
</linearGradient>
<linearGradient id="paint6_linear_2029_8270" x1="97.327" y1="7.69193" x2="97.327" y2="589.975" gradientUnits="userSpaceOnUse">
<stop stop-color="#FFD37C"/>
<stop offset="0.607292" stop-color="#D08123"/>
</linearGradient>
<linearGradient id="paint7_linear_2029_8270" x1="97.327" y1="7.69193" x2="97.327" y2="589.975" gradientUnits="userSpaceOnUse">
<stop stop-color="#FFD37C"/>
<stop offset="0.607292" stop-color="#D08123"/>
</linearGradient>
<linearGradient id="paint8_linear_2029_8270" x1="97.327" y1="7.69193" x2="97.327" y2="589.975" gradientUnits="userSpaceOnUse">
<stop stop-color="#FFD37C"/>
<stop offset="0.607292" stop-color="#D08123"/>
</linearGradient>
<radialGradient id="paint9_radial_2029_8270" cx="0" cy="0" r="1" gradientUnits="userSpaceOnUse" gradientTransform="translate(193.051 55.6473) rotate(90) scale(68.8387 52.4291)">
<stop offset="0.607292" stop-color="#D08123"/>
<stop offset="0.786458" stop-color="#FFD37C"/>
</radialGradient>
<linearGradient id="paint10_linear_2029_8270" x1="198.903" y1="58.7866" x2="198.903" y2="470.094" gradientUnits="userSpaceOnUse">
<stop stop-color="#FFD37C"/>
<stop offset="0.607292" stop-color="#D08123"/>
</linearGradient>
<radialGradient id="paint11_radial_2029_8270" cx="0" cy="0" r="1" gradientUnits="userSpaceOnUse" gradientTransform="translate(130.195 52.1644) rotate(90) scale(6.38354 4.86185)">
<stop offset="0.234375" stop-color="#FFD37C"/>
<stop offset="0.927083" stop-color="#D08123"/>
</radialGradient>
</defs>
</svg>
