<svg width="194" height="521" viewBox="0 0 194 521" fill="none" xmlns="http://www.w3.org/2000/svg">
<g opacity="0.7">
<path d="M105.9 147.893L98.7759 140.472L101.618 70.5844C101.7 68.5606 102.652 66.6708 104.23 65.4001L106.61 63.4827L111.17 66.5578C111.992 67.1122 112.682 67.8409 113.19 68.6921L119.442 79.1507L125.655 90.6316L130.331 102.983C130.722 104.013 130.905 105.111 130.87 106.212L130.517 117.375L129.707 130.612L128.749 142.531C128.578 144.66 128.107 146.754 127.351 148.751L125.114 154.655L121.468 164.109L109.579 151.725L119.036 162.218L126.33 178.157L133.084 196.661V213.545L131.598 254.876L122.008 284.186L104.579 316.182C104.133 317.001 103.604 317.771 102.999 318.481L91.6834 331.76C88.9595 334.957 85.6901 337.645 82.0273 339.7L82.2974 327.949L82.6396 303.081C82.6815 300.037 82.4188 296.996 81.8554 294.005L79.7567 282.86C79.1106 279.429 78.1551 276.064 76.9019 272.805L71.3356 258.333C70.4777 256.102 68.8493 254.253 66.7453 253.12L61.2266 250.149L63.872 237.689C64.8759 232.961 64.4148 228.04 62.55 223.581L59.2005 215.571L63.217 214.132C66.5376 212.943 69.5806 211.088 72.1599 208.683L79.2047 202.112C81.2577 200.197 83.051 198.022 84.5388 195.641L92.3414 183.157C92.8465 182.349 93.2335 181.473 93.4905 180.555L98.2657 163.501C98.6042 162.291 98.7759 161.041 98.7759 159.786V142.093L105.9 147.893Z" fill="black"/>
<path d="M134.029 194.905L123.088 167.486L127.411 156.546L130.105 148.066C131.365 144.102 132.083 139.986 132.241 135.83L133.624 99.4112L134.603 93.2102C135.002 90.6807 136.673 88.5338 139.027 87.525L142.095 90.7743C143.107 91.845 143.97 93.0464 144.662 94.3464L147.826 100.292C147.993 100.605 148.134 100.93 148.25 101.265L151.415 110.455C151.978 112.089 152.304 113.795 152.383 115.521L153.074 130.612L151.183 146.28L148.56 165.649C147.971 170.002 146.745 174.244 144.922 178.241L142.079 184.473C141.13 186.553 139.866 188.473 138.33 190.166L134.029 194.905Z" fill="black"/>
<path d="M134.299 225.701V198.417L139.464 193.252C141.412 191.304 143.047 189.067 144.312 186.621L146.553 182.284C147.922 179.636 148.902 176.805 149.464 173.878L151.858 161.408L153.749 147.226L156.045 131.152L157.105 122.886C157.298 121.38 157.689 119.906 158.267 118.502L159.287 116.025C161.226 116.906 162.864 118.335 164.002 120.135L166.268 123.724C166.832 124.617 167.233 125.604 167.452 126.637L169.213 134.951C169.439 136.019 169.572 137.104 169.611 138.194L169.974 148.375C170.053 150.573 169.873 152.772 169.439 154.928L166.446 169.782L162.124 185.45L157.753 197.59C157.426 198.499 156.997 199.367 156.473 200.178L148.887 211.924L145.694 216.037C143.16 219.303 140.069 222.095 136.564 224.286L134.299 225.701Z" fill="black"/>
<path d="M131.328 259.063L133.489 230.969L142.206 224.551C144.567 222.812 146.578 220.642 148.132 218.155L158.131 202.158C159.348 200.21 160.35 198.136 161.117 195.971L167.344 178.415C167.915 176.804 168.36 175.152 168.675 173.473L171.462 158.605C171.718 157.241 172.187 155.925 172.852 154.706L175.09 150.602L176.578 152.462C177.742 153.917 178.702 155.524 179.433 157.237L180.872 160.615C181.518 162.129 181.983 163.713 182.26 165.336L183.309 171.49C183.682 173.679 183.87 175.896 183.87 178.117V183.991C183.87 188.791 182.949 193.547 181.158 198.001L179.787 201.409C179.179 202.921 178.398 204.358 177.459 205.689L157.9 233.427C157.025 234.667 156.044 235.828 154.966 236.897L140.512 251.229L131.328 259.063Z" fill="black"/>
<path d="M121.738 287.833L130.382 262.845L141.053 254.876L159.962 235.291L172.794 217.597L181.237 205.106C182.18 203.711 183.236 202.395 184.395 201.172L187.517 197.877L187.883 198.595C189.764 202.278 190.602 206.406 190.308 210.531L190.025 214.486C189.974 215.208 189.863 215.925 189.694 216.629L185.645 233.518C185.364 234.694 184.915 235.824 184.313 236.873L179.938 244.505C179.589 245.113 179.165 245.676 178.676 246.179L150.372 275.272L132.682 288.307C130.796 289.697 128.746 290.85 126.58 291.743C124.174 292.733 121.643 293.39 119.058 293.694L118.361 293.776L121.738 287.833Z" fill="black"/>
<path d="M136.719 290.902L115.119 300.935L99.9915 323.897L102.948 324.367C108.823 325.302 114.834 324.877 120.518 323.125L131.598 319.71L151.34 310.079C152.944 309.297 154.485 308.392 155.95 307.374L166.978 299.709C170.826 297.035 174.181 293.713 176.894 289.892L184.689 278.91C187.098 275.518 188.925 271.748 190.098 267.756L191.22 263.935C193.034 257.759 193.015 251.189 191.166 245.023L190.758 243.665L189.137 240.154L183.194 245.691L164.014 267.573L142.386 287.147C140.696 288.676 138.786 289.942 136.719 290.902Z" fill="black"/>
<path d="M97.8304 326.868L84.8637 339.024L96.472 347.109C98.8073 348.735 101.355 350.033 104.043 350.966L107.378 352.123C111.251 353.466 115.321 354.152 119.42 354.152H131.801C136.218 354.152 140.597 353.321 144.707 351.702C146.495 350.997 148.186 350.066 149.738 348.931L155.574 344.664C158.48 342.539 161.022 339.956 163.099 337.016L172.303 323.99C174.672 320.638 176.27 316.802 176.982 312.76L179.683 297.423C177.207 297.423 174.778 298.092 172.652 299.36L168.877 301.61L150.354 315.036C149.289 315.808 148.146 316.467 146.944 317.002L127.567 325.624C122.158 328.03 116.205 328.948 110.322 328.282L97.8304 326.868Z" fill="black"/>
<path d="M81.6221 366.038V346.453L101.576 354.972C103.66 355.861 105.864 356.438 108.116 356.682L127.141 358.745L139.837 360.23L136.165 367.428C134.158 371.362 131.007 374.596 127.128 376.706L122.414 379.27C119.344 380.939 115.817 381.572 112.358 381.074L109.43 380.652C104.991 380.012 100.744 378.418 96.9789 375.981L81.6221 366.038Z" fill="black"/>
<path d="M10.1042 291.055L11.8951 287.921C12.1856 287.413 12.514 286.927 12.8777 286.469L17.4078 280.754C19.8674 277.651 22.6949 274.858 25.8281 272.437L32.997 266.897L41.7959 260.326C43.0412 259.396 44.3667 258.579 45.7569 257.884L55.6852 252.919C55.9572 252.783 56.2398 252.669 56.5301 252.579L58.8532 251.853C59.8602 251.538 60.9476 251.603 61.9104 252.034L68.2502 254.876L74.8136 270.191C75.8377 272.58 76.5974 275.075 77.0792 277.63L80.2792 294.599C80.6333 296.477 80.8021 298.385 80.783 300.296L80.1773 361.115C80.15 363.851 79.8662 366.578 79.3296 369.261L78.0833 375.493L75.5439 442.353L14.3575 490.572L10.8456 500.703L9.76509 508.672L10.8456 512.859L16.6536 513.669L20.1654 509.887L19.4901 505.43L15.3029 502.459L14.3575 505.43V507.726L13.6821 509.482L11.7911 509.887L10.8456 508.672V505.025L11.7911 501.648L14.3575 499.487H16.6536L20.1654 501.648L21.9213 505.025L22.5967 511.643L19.4901 517.316L17.1939 518.937L13.6821 519.342L8.8196 517.316L6.92863 514.885L5.71301 510.833L4.90259 504.62V495.705L6.92863 488.952L17.1939 479.632L60.146 446.81L66.8995 442.353L67.4398 399.671L70.8189 394.151C71.2665 393.42 71.6435 392.648 71.9448 391.846L77.3598 377.42L70.2394 393.468C69.3692 395.429 68.1889 397.238 66.7438 398.824L56.7851 409.754C53.8236 413.004 50.3428 415.74 46.4848 417.85L41.5992 420.522C37.2468 422.902 32.5214 424.525 27.625 425.321L23.2298 426.036C20.0348 426.555 16.7795 426.587 13.575 426.129L10.8426 425.739C9.07077 425.486 7.54007 424.37 6.75708 422.76C5.98145 421.166 5.58422 419.414 5.5963 417.641L6.25328 321.195L7.46891 302.421L8.16079 296.886C8.41737 294.833 9.07786 292.851 10.1042 291.055Z" fill="black"/>
<path d="M105.9 147.893L98.7759 140.472L101.618 70.5844C101.7 68.5606 102.652 66.6708 104.23 65.4001L106.61 63.4827L111.17 66.5578C111.992 67.1122 112.682 67.8409 113.19 68.6921L119.442 79.1507L125.655 90.6316L130.331 102.983C130.722 104.013 130.905 105.111 130.87 106.212L130.517 117.375L129.707 130.612L128.749 142.531C128.578 144.66 128.107 146.754 127.351 148.751L125.114 154.655L121.468 164.109L109.579 151.725L119.036 162.218L126.33 178.157L133.084 196.661V213.545L131.598 254.876L122.008 284.186L104.579 316.182C104.133 317.001 103.604 317.771 102.999 318.481L91.6834 331.76C88.9595 334.957 85.6901 337.645 82.0273 339.7L82.2974 327.949L82.6396 303.081C82.6815 300.037 82.4188 296.996 81.8554 294.005L79.7567 282.86C79.1106 279.429 78.1551 276.064 76.9019 272.805L71.3356 258.333C70.4777 256.102 68.8493 254.253 66.7453 253.12L61.2266 250.149L63.872 237.689C64.8759 232.961 64.4148 228.04 62.55 223.581L59.2005 215.571L63.217 214.132C66.5376 212.943 69.5806 211.088 72.1599 208.683L79.2047 202.112C81.2577 200.197 83.051 198.022 84.5388 195.641L92.3414 183.157C92.8465 182.349 93.2335 181.473 93.4905 180.555L98.2657 163.501C98.6042 162.291 98.7759 161.041 98.7759 159.786V142.093L105.9 147.893Z" stroke="url(#paint0_linear_2029_8260)" stroke-width="2.16111"/>
<path d="M134.029 194.905L123.088 167.486L127.411 156.546L130.105 148.066C131.365 144.102 132.083 139.986 132.241 135.83L133.624 99.4112L134.603 93.2102C135.002 90.6807 136.673 88.5338 139.027 87.525L142.095 90.7743C143.107 91.845 143.97 93.0464 144.662 94.3464L147.826 100.292C147.993 100.605 148.134 100.93 148.25 101.265L151.415 110.455C151.978 112.089 152.304 113.795 152.383 115.521L153.074 130.612L151.183 146.28L148.56 165.649C147.971 170.002 146.745 174.244 144.922 178.241L142.079 184.473C141.13 186.553 139.866 188.473 138.33 190.166L134.029 194.905Z" stroke="url(#paint1_linear_2029_8260)" stroke-width="2.16111"/>
<path d="M134.299 225.701V198.417L139.464 193.252C141.412 191.304 143.047 189.067 144.312 186.621L146.553 182.284C147.922 179.636 148.902 176.805 149.464 173.878L151.858 161.408L153.749 147.226L156.045 131.152L157.105 122.886C157.298 121.38 157.689 119.906 158.267 118.502L159.287 116.025C161.226 116.906 162.864 118.335 164.002 120.135L166.268 123.724C166.832 124.617 167.233 125.604 167.452 126.637L169.213 134.951C169.439 136.019 169.572 137.104 169.611 138.194L169.974 148.375C170.053 150.573 169.873 152.772 169.439 154.928L166.446 169.782L162.124 185.45L157.753 197.59C157.426 198.499 156.997 199.367 156.473 200.178L148.887 211.924L145.694 216.037C143.16 219.303 140.069 222.095 136.564 224.286L134.299 225.701Z" stroke="url(#paint2_linear_2029_8260)" stroke-width="2.16111"/>
<path d="M131.328 259.063L133.489 230.969L142.206 224.551C144.567 222.812 146.578 220.642 148.132 218.155L158.131 202.158C159.348 200.21 160.35 198.136 161.117 195.971L167.344 178.415C167.915 176.804 168.36 175.152 168.675 173.473L171.462 158.605C171.718 157.241 172.187 155.925 172.852 154.706L175.09 150.602L176.578 152.462C177.742 153.917 178.702 155.524 179.433 157.237L180.872 160.615C181.518 162.129 181.983 163.713 182.26 165.336L183.309 171.49C183.682 173.679 183.87 175.896 183.87 178.117V183.991C183.87 188.791 182.949 193.547 181.158 198.001L179.787 201.409C179.179 202.921 178.398 204.358 177.459 205.689L157.9 233.427C157.025 234.667 156.044 235.828 154.966 236.897L140.512 251.229L131.328 259.063Z" stroke="url(#paint3_linear_2029_8260)" stroke-width="2.16111"/>
<path d="M121.738 287.833L130.382 262.845L141.053 254.876L159.962 235.291L172.794 217.597L181.237 205.106C182.18 203.711 183.236 202.395 184.395 201.172L187.517 197.877L187.883 198.595C189.764 202.278 190.602 206.406 190.308 210.531L190.025 214.486C189.974 215.208 189.863 215.925 189.694 216.629L185.645 233.518C185.364 234.694 184.915 235.824 184.313 236.873L179.938 244.505C179.589 245.113 179.165 245.676 178.676 246.179L150.372 275.272L132.682 288.307C130.796 289.697 128.746 290.85 126.58 291.743C124.174 292.733 121.643 293.39 119.058 293.694L118.361 293.776L121.738 287.833Z" stroke="url(#paint4_linear_2029_8260)" stroke-width="2.16111"/>
<path d="M136.719 290.902L115.119 300.935L99.9915 323.897L102.948 324.367C108.823 325.302 114.834 324.877 120.518 323.125L131.598 319.71L151.34 310.079C152.944 309.297 154.485 308.392 155.95 307.374L166.978 299.709C170.826 297.035 174.181 293.713 176.894 289.892L184.689 278.91C187.098 275.518 188.925 271.748 190.098 267.756L191.22 263.935C193.034 257.759 193.015 251.189 191.166 245.023L190.758 243.665L189.137 240.154L183.194 245.691L164.014 267.573L142.386 287.147C140.696 288.676 138.786 289.942 136.719 290.902Z" stroke="url(#paint5_linear_2029_8260)" stroke-width="2.16111"/>
<path d="M97.8304 326.868L84.8637 339.024L96.472 347.109C98.8073 348.735 101.355 350.033 104.043 350.966L107.378 352.123C111.251 353.466 115.321 354.152 119.42 354.152H131.801C136.218 354.152 140.597 353.321 144.707 351.702C146.495 350.997 148.186 350.066 149.738 348.931L155.574 344.664C158.48 342.539 161.022 339.956 163.099 337.016L172.303 323.99C174.672 320.638 176.27 316.802 176.982 312.76L179.683 297.423C177.207 297.423 174.778 298.092 172.652 299.36L168.877 301.61L150.354 315.036C149.289 315.808 148.146 316.467 146.944 317.002L127.567 325.624C122.158 328.03 116.205 328.948 110.322 328.282L97.8304 326.868Z" stroke="url(#paint6_linear_2029_8260)" stroke-width="2.16111"/>
<path d="M81.6221 366.038V346.453L101.576 354.972C103.66 355.861 105.864 356.438 108.116 356.682L127.141 358.745L139.837 360.23L136.165 367.428C134.158 371.362 131.007 374.596 127.128 376.706L122.414 379.27C119.344 380.939 115.817 381.572 112.358 381.074L109.43 380.652C104.991 380.012 100.744 378.418 96.9789 375.981L81.6221 366.038Z" stroke="url(#paint7_linear_2029_8260)" stroke-width="2.16111"/>
<path d="M10.1042 291.055L11.8951 287.921C12.1856 287.413 12.514 286.927 12.8777 286.469L17.4078 280.754C19.8674 277.651 22.6949 274.858 25.8281 272.437L32.997 266.897L41.7959 260.326C43.0412 259.396 44.3667 258.579 45.7569 257.884L55.6852 252.919C55.9572 252.783 56.2398 252.669 56.5301 252.579L58.8532 251.853C59.8602 251.538 60.9476 251.603 61.9104 252.034L68.2502 254.876L74.8136 270.191C75.8377 272.58 76.5974 275.075 77.0792 277.63L80.2792 294.599C80.6333 296.477 80.8021 298.385 80.783 300.296L80.1773 361.115C80.15 363.851 79.8662 366.578 79.3296 369.261L78.0833 375.493L75.5439 442.353L14.3575 490.572L10.8456 500.703L9.76509 508.672L10.8456 512.859L16.6536 513.669L20.1654 509.887L19.4901 505.43L15.3029 502.459L14.3575 505.43V507.726L13.6821 509.482L11.7911 509.887L10.8456 508.672V505.025L11.7911 501.648L14.3575 499.487H16.6536L20.1654 501.648L21.9213 505.025L22.5967 511.643L19.4901 517.316L17.1939 518.937L13.6821 519.342L8.8196 517.316L6.92863 514.885L5.71301 510.833L4.90259 504.62V495.705L6.92863 488.952L17.1939 479.632L60.146 446.81L66.8995 442.353L67.4398 399.671L70.8189 394.151C71.2665 393.42 71.6435 392.648 71.9448 391.846L77.3598 377.42L70.2394 393.468C69.3692 395.429 68.1889 397.238 66.7438 398.824L56.7851 409.754C53.8236 413.004 50.3428 415.74 46.4848 417.85L41.5992 420.522C37.2468 422.902 32.5214 424.525 27.625 425.321L23.2298 426.036C20.0348 426.555 16.7795 426.587 13.575 426.129L10.8426 425.739C9.07077 425.486 7.54007 424.37 6.75708 422.76C5.98145 421.166 5.58422 419.414 5.5963 417.641L6.25328 321.195L7.46891 302.421L8.16079 296.886C8.41737 294.833 9.07786 292.851 10.1042 291.055Z" stroke="url(#paint8_linear_2029_8260)" stroke-width="2.16111"/>
<mask id="path-2-inside-1_2029_8260" fill="white">
<path d="M66.2244 60.6329C66.2244 74.9943 59.2087 88.7674 46.7208 98.9224C34.2329 109.077 17.2957 114.782 -0.364891 114.782C-18.0255 114.782 -34.9627 109.077 -47.4506 98.9224C-59.9385 88.7674 -66.9542 74.9943 -66.9542 60.6329H-59.2012C-59.2012 73.3222 -53.0024 85.4917 -41.9685 94.4644C-30.9345 103.437 -15.9693 108.478 -0.364891 108.478C15.2395 108.478 30.2047 103.437 41.2387 94.4644C52.2726 85.4917 58.4714 73.3222 58.4714 60.6329H66.2244Z"/>
</mask>
<path d="M66.2244 60.6329C66.2244 74.9943 59.2087 88.7674 46.7208 98.9224C34.2329 109.077 17.2957 114.782 -0.364891 114.782C-18.0255 114.782 -34.9627 109.077 -47.4506 98.9224C-59.9385 88.7674 -66.9542 74.9943 -66.9542 60.6329H-59.2012C-59.2012 73.3222 -53.0024 85.4917 -41.9685 94.4644C-30.9345 103.437 -15.9693 108.478 -0.364891 108.478C15.2395 108.478 30.2047 103.437 41.2387 94.4644C52.2726 85.4917 58.4714 73.3222 58.4714 60.6329H66.2244Z" fill="black" stroke="#FFD37C" stroke-width="2.16111" mask="url(#path-2-inside-1_2029_8260)"/>
<path d="M68.7223 59.9472C68.6867 59.0933 68.0416 58.3891 67.1941 58.279L59.8979 57.3315C59.1704 57.237 58.5257 57.8034 58.5257 58.537V60.7815C58.5257 61.1544 58.828 61.4568 59.201 61.4568H68.7852L68.7223 59.9472Z" fill="black" stroke="#FFD37C" stroke-width="0.270139"/>
<circle cx="-0.365322" cy="53.8927" r="52.8122" fill="black" stroke="url(#paint9_radial_2029_8260)" stroke-width="2.16111"/>
<path d="M61.2363 219.873L59.0593 214.068C58.2669 211.955 56.9369 210.085 55.2007 208.644L51.6049 205.659L57.8502 210.438L73.113 181.804L85.1342 188.287L80.812 178.022L91.3474 171.133H76.895L62.4425 143.174L44.8812 112.108L41.0303 106.03L38.8054 102.518L21.9217 103.598L23.8127 109.406H33.1325L33.6727 110.02L36.104 112.783L38.4002 116.43L71.8974 171.133L71.2221 175.05L44.6134 200.308L50.4288 204.759L48.0675 203.484C44.2046 201.4 39.8839 200.308 35.4943 200.308H27.0543L18.2177 203.895C15.04 205.185 11.6563 205.894 8.22797 205.987L-1.44534 206.251L-14.3119 204.795C-15.2774 204.685 -16.2319 204.495 -17.1654 204.225L-24.8331 202.01C-26.8801 201.419 -29.0003 201.119 -31.131 201.119H-44.1273L-54.6542 212.505C-56.4427 214.439 -57.8254 216.712 -58.7207 219.19L-61.0999 225.774C-62.4567 229.529 -62.7863 233.579 -62.0545 237.504L-61.5885 240.003C-60.7062 244.735 -57.8303 248.859 -53.6944 251.323L-35.4828 262.17L-16.7431 278.893C-15.0161 280.435 -13.4944 282.191 -12.2152 284.12L-8.10101 290.326C-6.6591 292.5 -5.79346 295.006 -5.58539 297.607L-4.01166 317.278L-2.66096 366.849V420.201H1.66126V407.505V366.849L2.87688 317.278L4.49606 298.388C4.76169 295.289 5.91336 292.332 7.81364 289.87L14.4929 281.215L31.516 264.43C33.0384 262.929 34.7352 261.616 36.5703 260.518L46.2342 254.741L50.0039 252.58C54.1231 250.218 57.3239 246.534 59.0874 242.126L61.1586 236.948C62.2693 234.171 62.7153 231.173 62.4609 228.193L62.0636 223.539C61.9565 222.285 61.6782 221.052 61.2363 219.873Z" fill="black"/>
<path d="M40.4262 199.092L41.646 195.245C41.9857 194.174 41.8313 193.007 41.2249 192.061L40.0011 190.152C39.256 188.99 37.9704 188.287 36.5897 188.287H33.1325L34.3681 185.67C35.0665 184.191 35.4286 182.576 35.4286 180.941V179.907C35.4286 178.658 35.2274 177.418 34.8325 176.233L33.5692 172.443C33.2797 171.575 32.8619 170.754 32.3297 170.009L28.405 164.515L26.9698 162.995C24.925 160.83 22.2098 159.418 19.2631 158.986L18.2748 158.842L16.5988 156.275L22.7321 151.548H31.7818V149.252V139.122L34.4832 135.745V131.828H30.8363V134.934L29.2154 137.636V149.252H21.9217L14.9229 153.709C14.2827 152.729 13.4503 151.889 12.4761 151.239L10.3135 149.797C9.23341 149.077 8.05511 148.517 6.815 148.133L5.19733 147.632C3.74865 147.184 2.24078 146.956 0.724289 146.956H-1.3168C-2.8368 146.956 -4.35036 147.153 -5.81954 147.543L-8.65551 148.295C-9.6956 148.571 -10.6873 149.005 -11.596 149.581L-15.7627 152.223L-17.5186 153.709L-23.3266 146.956H-31.2957V135.475L-33.5919 134.259V131.288H-36.0231V135.745L-33.0516 136.42V146.956V149.252L-24.8124 149.792L-19.2745 155.195L-20.22 158.842L-23.7663 161.115C-24.9021 161.843 -25.8788 162.794 -26.6375 163.909L-30.0801 168.972L-34.2672 175.05L-36.7984 179.57C-37.6185 181.035 -38.0492 182.685 -38.0492 184.363C-38.0492 185.441 -37.8754 186.512 -37.5346 187.535L-36.2933 191.258L-40.134 190.271C-40.6694 190.133 -41.2347 190.336 -41.5609 190.782L-43.0147 192.771C-43.3866 193.28 -43.587 193.894 -43.587 194.525V195.446L-43.0467 200.308H-30.0801L-28.2249 200.428C-26.675 200.528 -25.1409 200.799 -23.6506 201.236L-15.7627 203.55L-6.80025 205.103C-6.02319 205.238 -5.23598 205.306 -4.44731 205.306H4.90293L11.7423 204.837C13.744 204.7 15.7125 204.254 17.5779 203.515L21.9217 201.794L23.946 200.841C25.6372 200.045 27.4832 199.633 29.3522 199.633H36.104L40.4262 199.092Z" fill="black"/>
<path d="M-55.6082 211.114L-45.2079 200.308L-69.2502 178.022L-69.9256 173.294L-42.7766 117.105L-39.3212 112.289C-38.6566 111.362 -37.8646 110.534 -36.9686 109.829L-30.0801 104.409H-19.2745V102.518V99.006L-20.9151 98.6779C-22.5188 98.3571 -24.1504 98.1956 -25.7859 98.1956C-27.2045 98.1956 -28.6196 98.3357 -30.0106 98.6139L-33.479 99.3076C-35.1459 99.641 -36.6964 100.405 -37.9757 101.525L-38.463 101.951C-39.7092 103.042 -40.7642 104.333 -41.5847 105.771L-41.9634 106.435L-46.8287 114.809L-78.1648 171.133L-88.8353 178.022L-78.1648 180.318L-83.2975 188.287L-72.627 182.614L-71.4113 184.505L-55.6082 211.114Z" fill="black"/>
<path d="M33.1325 188.287H36.5897C37.9704 188.287 39.256 188.99 40.0011 190.152L41.2249 192.061C41.8313 193.007 41.9857 194.174 41.646 195.245L40.4262 199.092L36.104 199.633H29.3522C27.4832 199.633 25.6372 200.045 23.946 200.841L21.9217 201.794L17.5779 203.515C15.7125 204.254 13.744 204.7 11.7423 204.837L4.90293 205.306H-4.44731C-5.23598 205.306 -6.02318 205.238 -6.80026 205.103L-15.7627 203.55L-23.6506 201.236C-25.1409 200.799 -26.675 200.528 -28.2249 200.428L-30.0801 200.308H-43.0467L-43.587 195.446V194.525C-43.587 193.894 -43.3866 193.28 -43.0147 192.771L-41.5609 190.782C-41.2347 190.336 -40.6694 190.133 -40.134 190.271L-36.2933 191.258M33.1325 188.287L34.3681 185.67C35.0665 184.191 35.4286 182.576 35.4286 180.941V179.907C35.4286 178.658 35.2274 177.418 34.8325 176.233L33.5692 172.443C33.2797 171.575 32.8619 170.754 32.3297 170.009L28.405 164.515L26.9698 162.995C24.925 160.83 22.2098 159.418 19.2631 158.986L18.2748 158.842M33.1325 188.287L28.5151 187.569C27.5628 187.421 26.676 186.993 25.9672 186.34L20.1658 180.993L16.4287 176.882C15.3401 175.685 14.6095 174.206 14.32 172.614L13.6095 168.706C13.4787 167.986 13.4492 167.252 13.522 166.525L13.7458 164.287C13.8779 162.966 14.5444 161.756 15.5906 160.939L18.2748 158.842M18.2748 158.842L16.5988 156.275M-20.22 158.842L-17.935 159.811C-16.5258 160.409 -15.3515 161.452 -14.592 162.782V162.782C-13.943 163.917 -13.6016 165.203 -13.6016 166.511V170.694C-13.6016 171.966 -13.8442 173.225 -14.3165 174.406L-15.3775 177.059C-15.6334 177.698 -15.9627 178.306 -16.3587 178.87L-20.22 184.37L-24.2715 188.733C-25.0778 189.601 -26.0093 190.344 -27.0353 190.937L-31.5658 193.555L-36.2933 191.258M-20.22 158.842L-23.7663 161.115C-24.9021 161.843 -25.8788 162.794 -26.6375 163.909L-30.0801 168.972L-34.2672 175.05L-36.7984 179.57C-37.6185 181.035 -38.0492 182.685 -38.0492 184.363V184.363C-38.0492 185.441 -37.8754 186.512 -37.5346 187.535L-36.2933 191.258M-20.22 158.842L-19.2745 155.195M-19.2745 155.195L-17.5186 153.709M-19.2745 155.195L-24.8124 149.792L-33.0516 149.252V146.956V136.42L-36.0231 135.745V131.288H-33.5919V134.259L-31.2957 135.475V146.956H-23.3266L-17.5186 153.709M-17.5186 153.709L-15.7627 152.223L-11.596 149.581C-10.6873 149.005 -9.6956 148.571 -8.65551 148.295L-5.81954 147.543C-4.35037 147.153 -2.8368 146.956 -1.3168 146.956H0.724291C2.24078 146.956 3.74865 147.184 5.19733 147.632L6.815 148.133C8.05511 148.517 9.2334 149.077 10.3135 149.797L12.4761 151.239C13.4503 151.889 14.2827 152.729 14.9229 153.709V153.709M14.9229 153.709L21.9217 149.252H29.2154V137.636L30.8363 134.934V131.828H34.4832V135.745L31.7818 139.122V149.252V151.548H22.7321L16.5988 156.275M14.9229 153.709L16.5988 156.275M50.6915 204.9L55.2007 208.644C56.9369 210.085 58.2669 211.955 59.0593 214.068L61.2363 219.873C61.6782 221.052 61.9565 222.285 62.0636 223.539L62.4609 228.193C62.7153 231.173 62.2693 234.171 61.1586 236.948L59.0874 242.126C57.3239 246.534 54.1231 250.218 50.0039 252.58L46.2342 254.741L36.5703 260.518C34.7352 261.616 33.0384 262.929 31.516 264.43L14.4929 281.215L7.81364 289.87C5.91336 292.332 4.76169 295.289 4.49606 298.388L2.87689 317.278L1.66126 366.849V407.505V420.201H-2.66096V366.849L-4.01166 317.278L-5.58539 297.607C-5.79347 295.006 -6.6591 292.5 -8.10101 290.326L-12.2152 284.121C-13.4944 282.191 -15.0161 280.435 -16.7431 278.893L-35.4829 262.17L-53.6944 251.323C-57.8303 248.859 -60.7062 244.735 -61.5885 240.003L-62.0545 237.504C-62.7863 233.579 -62.4567 229.529 -61.0999 225.774L-58.7207 219.19C-57.8254 216.712 -56.4427 214.439 -54.6542 212.505L-44.1273 201.119H-31.131C-29.0003 201.119 -26.8801 201.419 -24.8331 202.01L-17.1654 204.225C-16.2319 204.495 -15.2774 204.685 -14.3119 204.795L-1.44534 206.251L8.22797 205.987C11.6563 205.894 15.04 205.185 18.2177 203.895L27.0543 200.308H35.4943C39.8839 200.308 44.2046 201.4 48.0675 203.484L50.6915 204.9ZM-45.2079 200.308L-55.6082 211.114L-71.4113 184.505L-72.627 182.614L-83.2975 188.287L-78.1648 180.318L-88.8353 178.022L-78.1648 171.133L-46.8287 114.809L-41.9634 106.435L-41.5847 105.771C-40.7642 104.333 -39.7091 103.042 -38.463 101.951L-37.9757 101.525C-36.6964 100.405 -35.1459 99.641 -33.479 99.3076L-30.0106 98.6139C-28.6196 98.3357 -27.2045 98.1956 -25.7859 98.1956V98.1956C-24.1504 98.1956 -22.5188 98.3571 -20.9151 98.6779L-19.2745 99.006V102.518V104.409H-30.0801L-36.9686 109.829V109.829C-37.8646 110.534 -38.6566 111.362 -39.3212 112.289L-42.7766 117.105L-69.9256 173.294L-69.2502 178.022L-45.2079 200.308ZM57.8502 210.438L44.6134 200.308L71.2221 175.05L71.8974 171.133L38.4002 116.43L36.104 112.783L33.6727 110.02L33.1325 109.406H23.8127L21.9217 103.598L38.8054 102.518L41.0303 106.03L44.8812 112.108L62.4425 143.174L76.895 171.133H91.3474L80.812 178.022L85.1342 188.287L73.113 181.804L57.8502 210.438Z" stroke="url(#paint10_linear_2029_8260)" stroke-width="2.16111"/>
<circle cx="63.9282" cy="52.0017" r="4.99757" fill="url(#paint11_radial_2029_8260)"/>
</g>
<defs>
<linearGradient id="paint0_linear_2029_8260" x1="96.673" y1="7.69193" x2="96.673" y2="589.975" gradientUnits="userSpaceOnUse">
<stop stop-color="#FFD37C"/>
<stop offset="0.607292" stop-color="#D08123"/>
</linearGradient>
<linearGradient id="paint1_linear_2029_8260" x1="96.673" y1="7.69193" x2="96.673" y2="589.975" gradientUnits="userSpaceOnUse">
<stop stop-color="#FFD37C"/>
<stop offset="0.607292" stop-color="#D08123"/>
</linearGradient>
<linearGradient id="paint2_linear_2029_8260" x1="96.673" y1="7.69193" x2="96.673" y2="589.975" gradientUnits="userSpaceOnUse">
<stop stop-color="#FFD37C"/>
<stop offset="0.607292" stop-color="#D08123"/>
</linearGradient>
<linearGradient id="paint3_linear_2029_8260" x1="96.673" y1="7.69193" x2="96.673" y2="589.975" gradientUnits="userSpaceOnUse">
<stop stop-color="#FFD37C"/>
<stop offset="0.607292" stop-color="#D08123"/>
</linearGradient>
<linearGradient id="paint4_linear_2029_8260" x1="96.673" y1="7.69193" x2="96.673" y2="589.975" gradientUnits="userSpaceOnUse">
<stop stop-color="#FFD37C"/>
<stop offset="0.607292" stop-color="#D08123"/>
</linearGradient>
<linearGradient id="paint5_linear_2029_8260" x1="96.673" y1="7.69193" x2="96.673" y2="589.975" gradientUnits="userSpaceOnUse">
<stop stop-color="#FFD37C"/>
<stop offset="0.607292" stop-color="#D08123"/>
</linearGradient>
<linearGradient id="paint6_linear_2029_8260" x1="96.673" y1="7.69193" x2="96.673" y2="589.975" gradientUnits="userSpaceOnUse">
<stop stop-color="#FFD37C"/>
<stop offset="0.607292" stop-color="#D08123"/>
</linearGradient>
<linearGradient id="paint7_linear_2029_8260" x1="96.673" y1="7.69193" x2="96.673" y2="589.975" gradientUnits="userSpaceOnUse">
<stop stop-color="#FFD37C"/>
<stop offset="0.607292" stop-color="#D08123"/>
</linearGradient>
<linearGradient id="paint8_linear_2029_8260" x1="96.673" y1="7.69193" x2="96.673" y2="589.975" gradientUnits="userSpaceOnUse">
<stop stop-color="#FFD37C"/>
<stop offset="0.607292" stop-color="#D08123"/>
</linearGradient>
<radialGradient id="paint9_radial_2029_8260" cx="0" cy="0" r="1" gradientUnits="userSpaceOnUse" gradientTransform="translate(-1.94894 55.6473) rotate(90) scale(68.8387 52.4291)">
<stop offset="0.607292" stop-color="#D08123"/>
<stop offset="0.786458" stop-color="#FFD37C"/>
</radialGradient>
<linearGradient id="paint10_linear_2029_8260" x1="3.90335" y1="58.7866" x2="3.90335" y2="470.094" gradientUnits="userSpaceOnUse">
<stop stop-color="#FFD37C"/>
<stop offset="0.607292" stop-color="#D08123"/>
</linearGradient>
<radialGradient id="paint11_radial_2029_8260" cx="0" cy="0" r="1" gradientUnits="userSpaceOnUse" gradientTransform="translate(63.7814 52.1644) rotate(90) scale(6.38354 4.86185)">
<stop offset="0.234375" stop-color="#FFD37C"/>
<stop offset="0.927083" stop-color="#D08123"/>
</radialGradient>
</defs>
</svg>
