<svg width="84" height="158" viewBox="0 0 84 158" fill="none" xmlns="http://www.w3.org/2000/svg">
<path d="M25.4975 109.408C22.7576 113.413 8.02228 113.009 0.99707 112.306C1.78741 126.181 11.0607 154.51 41.8311 156.828C72.6015 154.51 81.8748 126.181 82.6651 112.306C75.6399 113.009 60.9045 113.413 58.1647 109.408H25.4975Z" fill="url(#paint0_linear_3488_48836)" stroke="url(#paint1_linear_3488_48836)" stroke-width="1.42279"/>
<path d="M25.4974 109.408C23.1641 112.79 11.4583 113.163 5.47559 112.57C5.47559 125.215 15.6266 151.182 41.831 153.14C68.0355 151.182 77.7769 124.286 78.4499 112.57C72.4672 113.163 60.4979 112.79 58.1646 109.408H25.4974Z" fill="url(#paint2_radial_3488_48836)"/>
<path d="M41.9717 121.079C35.9391 121.421 27.6964 114.108 24.3291 110.408C27.63 109.839 27.6964 94.1886 27.0324 87.5015H58.0492C57.3853 94.1886 56.7687 109.412 60.0411 110.835C56.6739 114.534 48.5734 121.421 42.5408 121.079" fill="url(#paint3_linear_3488_48836)"/>
<path d="M41.9717 121.079C35.9391 121.421 27.6964 114.108 24.3291 110.408C27.63 109.839 27.6964 94.1886 27.0324 87.5015H58.0492C57.3853 94.1886 56.7687 109.412 60.0411 110.835C56.6739 114.534 48.5734 121.421 42.5408 121.079" stroke="black" stroke-width="0.0284558"/>
<path d="M31.8723 101.303C29.9373 100.164 28.0307 97.793 27.3193 96.7496C27.3193 92.4243 27.509 92.3864 27.6039 92.9081L31.8723 97.1764L44.1082 110.266L57.4824 91.9121V96.7496L54.0678 101.303C53.6125 101.53 48.756 108.701 46.3847 112.258H37.848C36.9374 109.754 33.4848 103.911 31.8723 101.303Z" fill="black"/>
<path d="M57.0549 65.875C52.4179 65.875 45.9663 72.5777 42.7462 74.7674C37.3363 70.9033 29.2507 66.4441 27.3186 66.4441C25.773 66.4441 25.3574 70.7745 25.3574 72.0625C25.4862 75.4115 25.8984 82.4185 26.5167 83.655C27.2895 85.2007 27.2895 89.8377 27.2895 91.7697C27.2895 93.7018 28.4488 97.566 31.1537 99.1117C33.3176 100.348 36.6923 106.84 38.1092 109.931H46.6103C47.8984 107.484 51.17 101.894 53.9522 99.1117C57.43 95.6339 58.2028 89.0648 58.2028 88.292C58.2028 87.5192 58.9756 82.4958 59.3621 75.5403C59.6712 69.9759 57.5701 66.0038 57.0549 65.875Z" fill="url(#paint4_linear_3488_48836)"/>
<path d="M37.7251 109.932C37.416 109.004 36.5152 107.354 36 106.71C36.644 105.55 38.5752 103.363 41.9757 103.363C45.3762 103.363 47.7719 105.681 48.5448 106.841C47.8091 107.563 46.9991 109.03 46.6127 109.932H37.7251Z" fill="url(#paint5_radial_3488_48836)" stroke="black" stroke-width="0.284558"/>
<path d="M42.2266 134.026C39.2387 138.853 34.4122 151.494 42.2266 151.953C49.3515 151.034 45.2144 138.853 42.2266 134.026Z" stroke="black" stroke-width="0.284558"/>
<path d="M42.349 134.256C39.8293 138.216 35.7589 148.588 42.349 148.965C48.3576 148.211 44.8687 138.216 42.349 134.256Z" stroke="black" stroke-width="0.284558"/>
<path d="M42.0954 134.256C40.0796 137.35 36.8233 145.453 42.0954 145.748C46.9023 145.158 44.1112 137.35 42.0954 134.256Z" stroke="black" stroke-width="0.284558"/>
<circle cx="41.9979" cy="142.531" r="1.78177" stroke="black" stroke-width="0.113823"/>
<circle cx="41.9981" cy="142.53" r="1.37901" fill="black"/>
<ellipse cx="41.9968" cy="142.071" rx="0.45967" ry="0.91934" fill="#AC1F15"/>
<circle cx="41.9972" cy="138.855" r="1.3221" stroke="black" stroke-width="0.113823"/>
<circle cx="41.9952" cy="138.853" r="1.03426" fill="black"/>
<ellipse cx="41.9932" cy="138.508" rx="0.344752" ry="0.689505" fill="#1552AC"/>
<path d="M24.6138 110.267L23.4756 110.836C27.08 114.82 36.5652 124.04 42.2564 123.926C47.9475 123.812 56.4368 115.01 60.0412 110.836L58.903 109.556C50.7077 118.662 44.2483 121.839 42.1141 121.934C35.5124 121.251 27.412 113.492 24.6138 110.267Z" fill="#802A43"/>
<path d="M23.4794 110.836L22.0566 111.405C25.8982 117.808 36.5691 126.174 42.2602 126.06C47.9514 125.946 56.7727 116.954 61.4679 111.405L60.0451 110.836C51.8498 119.942 44.3944 123.831 42.2602 123.926C35.6585 123.243 26.2776 114.061 23.4794 110.836Z" fill="#A93158"/>
<path d="M22.0543 111.404L20.4893 111.831C24.6697 118.958 36.0646 128.32 42.2579 128.193C48.4512 128.066 58.2057 118.008 63.3152 111.831L61.4655 111.404C52.5472 121.54 44.5804 126.029 42.2579 126.134C35.0737 125.374 25.0994 114.994 22.0543 111.404Z" fill="#802A43"/>
<path d="M20.4879 111.832L18.9229 112.168C23.4423 120.744 35.5611 130.623 42.2566 130.471C48.952 130.318 59.4974 119.6 65.0212 112.168L63.3138 111.832C52.2161 125.064 44.9599 128.194 42.2566 128.194C33.1507 127.483 23.7799 116.152 20.4879 111.832Z" fill="#A93158"/>
<path d="M36.9502 108C37.4186 107.181 39.36 104.908 41.8331 104.908C44.3062 104.908 47.2078 107.181 47.7698 108" stroke="black" stroke-width="0.284558"/>
<path d="M39.7223 135.053L37.9902 110.408H45.9578L44.2258 135.053C42.563 136.285 40.5306 135.566 39.7223 135.053Z" fill="url(#paint6_linear_3488_48836)"/>
<path d="M39.6247 131.715L37.707 109.839H46.5283L44.6106 131.715C42.7697 132.809 40.5196 132.171 39.6247 131.715Z" fill="url(#paint7_radial_3488_48836)"/>
<path d="M45.7553 110.498C44.6171 111.115 42.2268 112.547 41.7715 113.344L42.3406 114.482C42.9571 113.818 44.5032 112.405 45.7553 112.063" stroke="url(#paint8_linear_3488_48836)" stroke-width="0.284558"/>
<path d="M45.7553 112.775C44.6171 113.391 42.2268 114.824 41.7715 115.62L42.3406 116.759C42.9571 116.095 44.5032 114.681 45.7553 114.34" stroke="url(#paint9_linear_3488_48836)" stroke-width="0.284558"/>
<path d="M45.7553 115.052C44.6171 115.669 42.2268 117.101 41.7715 117.898L42.3406 119.036C42.9571 118.372 44.5032 116.959 45.7553 116.617" stroke="url(#paint10_linear_3488_48836)" stroke-width="0.284558"/>
<path d="M45.7553 117.329C44.6171 117.945 42.2268 119.377 41.7715 120.174L42.3406 121.312C42.9571 120.648 44.5032 119.235 45.7553 118.894" stroke="url(#paint11_linear_3488_48836)" stroke-width="0.284558"/>
<path d="M45.4707 119.604C44.4138 120.221 42.1943 121.653 41.7715 122.45L42.2999 123.588C42.8725 122.924 44.3081 121.511 45.4707 121.17" stroke="url(#paint12_linear_3488_48836)" stroke-width="0.284558"/>
<path d="M45.1862 121.881C44.2105 122.497 42.1617 123.93 41.7715 124.726L42.2593 125.865C42.7878 125.201 44.113 123.787 45.1862 123.446" stroke="url(#paint13_linear_3488_48836)" stroke-width="0.284558"/>
<path d="M45.1862 124.156C44.2105 124.773 42.1617 126.205 41.7715 127.002L42.2593 128.14C42.7878 127.476 44.113 126.063 45.1862 125.721" stroke="url(#paint14_linear_3488_48836)" stroke-width="0.284558"/>
<path d="M44.6171 126.435C43.804 127.051 42.0967 128.483 41.7715 129.28L42.178 130.418C42.6184 129.754 43.7227 128.341 44.6171 128" stroke="url(#paint15_linear_3488_48836)" stroke-width="0.284558"/>
<path d="M38.3629 111.636C39.5011 112.253 41.8914 113.685 42.3467 114.482L41.7776 115.62C41.161 114.956 39.6149 113.543 38.3629 113.201" stroke="url(#paint16_linear_3488_48836)" stroke-width="0.284558"/>
<path d="M38.6474 113.913C39.7044 114.53 41.9239 115.962 42.3467 116.759L41.8182 117.897C41.2457 117.233 39.8101 115.82 38.6474 115.478" stroke="url(#paint17_linear_3488_48836)" stroke-width="0.284558"/>
<path d="M38.932 116.189C39.9076 116.806 41.9564 118.238 42.3467 119.035L41.8589 120.173C41.3304 119.509 40.0052 118.096 38.932 117.755" stroke="url(#paint18_linear_3488_48836)" stroke-width="0.284558"/>
<path d="M38.932 118.465C39.9076 119.082 41.9564 120.514 42.3467 121.311L41.8589 122.449C41.3304 121.785 40.0052 120.372 38.932 120.03" stroke="url(#paint19_linear_3488_48836)" stroke-width="0.284558"/>
<path d="M39.1759 120.744C40.0818 121.36 41.9843 122.792 42.3467 123.589L41.8937 124.727C41.403 124.063 40.1724 122.65 39.1759 122.309" stroke="url(#paint20_linear_3488_48836)" stroke-width="0.284558"/>
<path d="M39.4198 123.019C40.2561 123.636 42.0122 125.068 42.3467 125.865L41.9286 127.003C41.4756 126.339 40.3397 124.926 39.4198 124.584" stroke="url(#paint21_linear_3488_48836)" stroke-width="0.284558"/>
<path d="M39.4198 125.296C40.2561 125.912 42.0122 127.345 42.3467 128.141L41.9286 129.28C41.4756 128.616 40.3397 127.202 39.4198 126.861" stroke="url(#paint22_linear_3488_48836)" stroke-width="0.284558"/>
<path d="M39.9076 127.571C40.6045 128.188 42.0679 129.62 42.3467 130.417L41.9982 131.555C41.6208 130.891 40.6742 129.478 39.9076 129.136" stroke="url(#paint23_linear_3488_48836)" stroke-width="0.284558"/>
<path d="M24.6156 86.3641C24.7294 87.7299 26.3703 88.356 27.1766 88.4982C27.8595 87.0185 26.2281 77.7325 25.327 73.2744C24.9476 73.559 23.9895 74.4411 23.1928 75.6932C22.396 76.9452 23.0505 80.2935 23.4773 81.8111C23.8093 82.7597 24.5018 84.9982 24.6156 86.3641Z" fill="url(#paint24_linear_3488_48836)"/>
<path d="M60.0631 86.5066C59.9493 87.8725 58.3084 88.4985 57.5021 88.6408C56.8192 87.1611 58.4506 77.8751 59.3517 73.417C59.7311 73.7015 60.6892 74.5837 61.4859 75.8357C62.2827 77.0878 61.6282 80.4361 61.2014 81.9537C60.8694 82.9022 60.177 85.1408 60.0631 86.5066Z" fill="url(#paint25_linear_3488_48836)"/>
<path d="M39.1298 78.1104L38.4184 79.1064C36.5687 77.9682 32.3004 76.2608 30.8776 75.834C29.7394 75.4925 28.1269 77.2093 27.4629 78.1104C28.4873 74.8096 30.1662 74.5535 30.8776 74.838C34.7191 75.834 37.1378 77.2568 39.1298 78.1104Z" fill="black"/>
<path d="M46.2423 78.1964L46.9537 79.1923C48.8033 78.0541 53.0717 76.3468 54.4945 75.9199C55.6327 75.5784 57.2452 77.2953 57.9092 78.1964C56.8848 74.8955 55.2059 74.6394 54.4945 74.924C50.653 75.9199 48.2342 77.3427 46.2423 78.1964Z" fill="black"/>
<path d="M44.9612 90.3488C44.5344 90.3488 43.5384 91.3448 42.5425 91.487C42.2579 91.5345 41.3758 91.3732 40.1238 90.3488C39.7823 90.3488 39.6021 90.6334 39.5547 90.7756C39.033 90.6808 38.0181 90.2634 38.1319 89.3529C38.2742 88.2146 38.701 87.6455 39.4124 87.5032L42.5425 83.2349L45.6726 87.5032C46.384 87.6455 46.8108 88.2146 46.9531 89.3529C47.0669 90.2634 46.052 90.6808 45.5303 90.7756C45.4829 90.6334 45.3027 90.3488 44.9612 90.3488Z" fill="url(#paint26_linear_3488_48836)"/>
<path d="M19.4932 62.7222C24.3648 66.1323 25.9887 75.1042 26.1916 79.1639H27.4096V66.9849C30.0249 65.4904 35.6709 74.277 42.6846 74.4118C47.1023 74.4967 51.9768 64.7257 57.2483 66.9849V79.1639H58.4662C58.6692 75.1042 59.6841 66.1323 64.5557 62.7222C64.5557 57.8506 63.5814 46.2804 59.6841 38.973C54.8125 29.8387 51.7677 23.1402 51.1587 19.4865C50.6716 16.5635 50.5498 13.397 50.5498 12.1791C49.3319 11.1641 47.2614 8.64714 48.7229 6.69849C48.7229 6.4955 49.2101 5.96774 51.1587 5.48058C51.1587 6.69849 51.7677 9.01251 54.2035 8.52535C57.2483 7.91639 56.6393 3.65372 55.4214 2.43581C54.8125 1.82686 53.1074 0.487163 51.1587 0C49.3319 0 45.6782 1.70507 45.6782 8.52535C45.6782 15.3456 48.114 23.1402 48.7229 25.576C54.8125 44.4536 58.4662 51.761 52.3766 58.4595C42.6334 55.0494 34.514 57.0386 31.6722 58.4595C25.5827 51.761 29.2364 44.4536 35.3259 25.576C35.9349 23.1402 38.3707 15.3456 38.3707 8.52535C38.3707 1.70507 34.717 0 32.8901 0C30.9415 0.487163 29.2364 1.82686 28.6275 2.43581C27.4096 3.65372 26.8006 7.91639 29.8454 8.52535C32.2812 9.01251 32.8901 6.69849 32.8901 5.48058C34.8388 5.96774 35.3259 6.4955 35.3259 6.69849C36.7874 8.64714 34.717 11.1641 33.4991 12.1791C33.4991 13.397 33.3773 16.5635 32.8901 19.4865C32.2812 23.1402 29.2364 29.8387 24.3648 38.973C20.4675 46.2804 19.4932 57.8506 19.4932 62.7222Z" fill="url(#paint27_linear_3488_48836)"/>
<path d="M25.5827 66.9852L19.4932 59.6778L20.7111 50.5435L25.5827 56.633V62.1136C28.2215 60.6927 34.2298 57.8509 37.1528 57.8509C39.5886 56.8766 44.6632 57.4449 46.8961 57.8509C49.819 57.8509 55.8274 60.6927 58.4662 62.1136V56.633L63.3378 50.5435L64.5557 59.6778L58.4662 66.9852C57.2483 65.7673 52.3766 63.2097 42.6334 62.7225C32.8901 62.2354 27.2066 65.3613 25.5827 66.9852Z" fill="#9D3136"/>
<path d="M26.8028 55.4146L21.3223 48.7162C21.3223 47.7418 21.7282 46.2803 21.9312 45.6714L26.8028 52.3699V55.4146Z" fill="#E7E7E7"/>
<path d="M57.8588 54.8057L62.7305 48.7162C62.7305 47.7418 62.3245 46.2803 62.1215 45.6714L57.8588 51.7609V54.8057Z" fill="#E7E7E7"/>
<path d="M39.842 69.8592L42.5168 74.4691L44.8217 69.8592C46.8706 69.0909 50.0883 66.7136 51.3666 65.2494C52.9316 63.4567 53.3585 61.4648 53.2162 60.042C52.0211 56.9688 49.1129 50.6004 48.2933 49.3711C49.147 52.0175 50.0861 57.5664 47.7811 61.9201C47.1836 62.8591 45.7323 65.2494 43.6835 66.2738H40.8664C38.8176 64.7372 38.0493 63.7128 36.5127 61.9201C33.8492 58.2322 35.1468 52.0175 36.0005 49.3711C35.1809 50.6004 32.5858 57.0541 31.3906 60.1274C31.6467 61.0664 32.3126 63.4055 32.9272 65.2494C33.5419 67.0933 37.7932 69.0909 39.842 69.8592Z" fill="url(#paint28_linear_3488_48836)"/>
<path d="M39.8408 75.4922L41.1213 73.4434L42.4018 74.5531L43.6823 73.4434L44.9629 75.4922L42.4018 81.1264L39.8408 75.4922Z" fill="#FBD280"/>
<path d="M39.8408 75.4922L41.1213 73.4434L41.3774 74.2117L40.6091 75.4922L42.4018 79.8459L44.4507 75.4922L43.4262 73.9556L43.6823 73.4434L44.9629 75.4922L42.4018 81.1264L39.8408 75.4922Z" fill="#F5B21F" stroke="url(#paint29_linear_3488_48836)" stroke-width="0.113823"/>
<path d="M41.1211 75.9371L41.7613 74.981L41.8894 75.3395L41.5052 75.9371L42.4016 77.9688L43.426 75.9371L42.9138 75.22L43.0419 74.981L43.6821 75.9371L42.4016 78.5664L41.1211 75.9371Z" stroke="url(#paint30_linear_3488_48836)" stroke-width="0.113823"/>
<path d="M39.84 57.0533C39.4302 61.9704 41.3766 69.3462 42.401 72.4194C43.9376 70.3706 44.962 61.407 45.2181 57.0533C45.4742 52.6996 44.1937 45.7848 43.6909 44.5043C43.4286 43.5709 43.5816 40.8714 43.6909 39.6384C43.8407 34.8518 42.5598 31.3369 41.8888 30.1626C40.6595 32.2114 40.8644 37.5042 41.1205 39.8945C41.2912 40.492 41.5815 42.1994 41.3766 44.2482C41.1205 46.8092 40.3522 50.9068 39.84 57.0533Z" fill="#F3B90B"/>
<path d="M41.12 62.4309C40.7102 64.2748 41.8029 68.3212 42.4005 70.1139V59.6138L41.12 62.4309Z" fill="url(#paint31_linear_3488_48836)"/>
<path d="M42.6577 58.5898C41.6333 59.6142 40.6943 62.9436 40.3528 64.4802L40.0967 61.663C40.0967 60.6386 41.804 57.1386 42.6577 55.5166C43.6821 57.5654 44.4504 60.4679 44.7065 61.663L44.4504 64.4802C44.4504 63.4558 43.2553 60.1264 42.6577 58.5898Z" fill="url(#paint32_linear_3488_48836)"/>
<path d="M42.1451 55.0033C41.3256 56.2326 40.6085 58.0765 40.3524 58.8448C39.9427 57.0009 41.0354 47.8325 41.6329 43.4787C41.8378 42.6592 41.5476 40.9177 41.3768 40.1494L42.1451 38.6128V41.686V55.0033Z" fill="url(#paint33_linear_3488_48836)"/>
<path d="M44.4499 57.0522C44.1085 55.9424 43.2719 53.4668 42.6572 52.4424" stroke="black" stroke-width="0.0512204"/>
<path d="M44.7053 53.9807C44.4492 53.3831 43.6297 51.7782 42.4004 50.1392" stroke="black" stroke-width="0.0512204"/>
<path d="M42.4004 47.5771C42.998 48.3455 44.2443 50.0357 44.4492 50.6504" stroke="black" stroke-width="0.0512204"/>
<path d="M41.8882 30.9316C41.4784 31.7512 41.376 36.2244 41.376 38.3586C42.1955 37.3342 42.9126 37.5903 43.1687 37.8464C43.1687 37.0269 42.315 32.8951 41.8882 30.9316Z" fill="#8D5952"/>
<path d="M35.999 68.3217C31.9014 66.068 30.877 61.9191 30.877 60.1264C31.2184 58.9313 32.3111 56.1312 33.9502 54.4922C33.1819 56.0288 31.7477 59.5118 32.1575 61.1508C32.9258 66.2729 38.2736 69.3374 40.0966 69.8583L42.4015 74.212L44.7065 69.8583C50.2383 65.7607 51.8773 65.7826 52.9017 62.4313C53.6025 60.1389 51.6212 56.0288 50.8529 54.4922C52.4919 56.1312 53.5846 58.9313 53.9261 60.1264C53.9261 64.4289 50.6822 67.3826 49.0602 68.3217L44.7065 71.1388L42.4015 76.2608L40.0966 71.1388L35.999 68.3217Z" fill="#FBD280" stroke="url(#paint34_linear_3488_48836)" stroke-width="0.113823"/>
<path d="M31.064 58.46C29.6025 58.46 27.2073 60.4898 26.1924 61.5048C26.1924 50.3 29.0342 42.6272 30.4551 40.1914C28.0192 49.9347 29.8461 56.4302 31.064 58.46Z" fill="#50195E"/>
<path d="M53.5961 59.0669C55.0576 59.0669 57.4529 61.0968 58.4678 62.1117C58.4678 50.907 55.626 43.2342 54.2051 40.7983C56.6409 50.5416 54.8141 57.0371 53.5961 59.0669Z" fill="#50195E"/>
<g filter="url(#filter0_f_3488_48836)">
<path d="M41.8653 107.449C42.1874 108.131 41.9101 108.758 41.7311 108.985H42.8048C42.9121 108.575 42.5811 108.018 42.4022 107.79C42.268 107.676 42.0801 107.278 42.4022 106.595C42.7242 105.912 42.268 105.058 41.9995 104.717C42.3216 105.127 42.0443 105.57 41.8653 105.741C41.7311 106.026 41.5433 106.766 41.8653 107.449Z" fill="#FCD400"/>
</g>
<path d="M48.5202 96.4643H36.2842L40.8233 94.4907C41.1523 94.5565 41.9285 94.767 42.4022 95.0828C42.8758 94.767 43.6521 94.5565 43.981 94.4907L48.5202 96.4643Z" fill="#114D12" stroke="#114D12" stroke-width="0.394709"/>
<path d="M48.5202 96.4649H36.2842L40.8233 98.4385C41.1523 98.3727 41.9285 98.1622 42.4022 97.8464C42.8758 98.1622 43.6521 98.3727 43.981 98.4385L48.5202 96.4649Z" fill="#547949" stroke="#547949" stroke-width="0.394709"/>
<path d="M30.8027 86.8149C32.2543 86.7338 33.4463 85.7631 34.486 84.838C35.156 84.2464 35.7505 83.5273 36.5647 83.1311C36.6551 83.5569 36.5178 84.0247 36.5073 84.4651C36.4526 85.3019 36.3398 86.1469 36.4112 86.9836C36.6183 86.6192 36.8491 86.1877 37.1177 85.8289C37.6048 85.1482 38.1369 84.4918 38.7733 83.9445C38.2804 84.0172 37.6381 84.191 37.2633 83.7505C36.9841 83.3513 37.1435 82.7384 37.6503 82.6274C38.0329 82.487 38.4386 82.522 38.7609 82.748C39.0638 82.9604 39.3286 83.3276 39.2997 82.7855C39.2749 82.3213 38.7555 82.1081 38.6513 81.8557C38.9742 81.5724 38.0128 81.4877 37.6699 81.3573C36.3972 80.8735 35.1185 80.2225 33.7192 80.3202C32.1541 80.4232 30.6371 80.8653 29.1198 81.2304C28.6961 81.3079 28.272 81.2743 27.8472 81.2253C28.5587 81.7075 29.4352 81.8337 30.1809 82.2517C31.2153 82.7547 32.303 83.1967 33.4648 83.2662C34.1076 83.3228 34.7556 83.3381 35.3986 83.2752C34.5239 84.0347 33.6473 84.7973 32.7291 85.5034C31.8236 86.0858 30.6618 86.5285 29.6012 86.1276C29.0386 85.8861 28.7767 84.9557 29.3449 84.5848C29.5676 84.4409 30.3111 84.5665 29.716 84.678C29.264 84.9777 29.4016 85.7688 29.9499 85.8567C30.4537 86.0076 30.9571 85.5546 30.9242 85.0439C30.946 84.1093 29.7097 83.6679 28.989 84.1133C28.1888 84.6094 28.2544 85.952 29.0561 86.4219C29.5654 86.7628 30.203 86.8449 30.8027 86.8149ZM32.9649 82.6699C31.9246 82.4852 30.923 82.0962 29.994 81.5941C30.4339 81.4031 30.9375 81.326 31.4087 81.2069C32.0726 81.0389 32.752 80.8792 33.4403 80.8826C33.0514 81.397 33.1235 82.1905 33.6108 82.6226C34.1467 82.9873 33.0366 82.6826 32.9649 82.6699ZM34.3032 82.753C33.6923 82.5839 33.3107 81.8486 33.586 81.2271C33.686 81.0012 34.0769 80.7624 33.7893 81.1311C33.4314 81.59 33.7257 82.3437 34.2979 82.5254C34.7784 82.6781 35.3598 82.464 35.5469 81.9861C35.0904 81.9727 35.0753 80.8934 35.547 81.2875C35.952 81.8663 35.5098 82.8049 34.779 82.7962C34.6191 82.7943 34.4569 82.7955 34.3032 82.753ZM35.6878 82.5883C36.0477 82.2399 36.0878 81.7075 36.0107 81.245C36.6829 81.5066 37.1777 81.7449 38.0502 81.9817C38.3553 82.0646 38.2078 82.1253 37.8162 82.0705C37.6644 82.0492 37.0622 82.3026 36.6821 82.4078C36.3307 82.5051 35.9523 82.6308 35.6224 82.6797L35.6309 82.6592L35.6878 82.5883ZM29.824 80.54C31.4937 80.3865 33.1388 79.7597 34.8298 79.9982C36.0841 80.1717 37.1733 80.9254 38.4255 81.0962C38.9037 81.1218 39.3872 81.0356 39.8446 80.9035C39.5183 80.7565 38.9306 80.8256 38.5243 80.6342C37.0297 80.1554 35.6206 79.2467 34.0053 79.2678C32.4438 79.3163 30.9626 79.881 29.4324 80.1283C29.094 80.2321 28.4958 80.0476 28.2977 80.1825C28.7795 80.3586 29.2998 80.6033 29.824 80.54Z" fill="black"/>
<path d="M54.5176 86.8149C53.066 86.7338 51.874 85.7631 50.8344 84.838C50.1643 84.2464 49.5699 83.5273 48.7556 83.1311C48.6652 83.5569 48.8025 84.0247 48.813 84.4651C48.8678 85.3019 48.9806 86.1469 48.9091 86.9836C48.702 86.6192 48.4712 86.1877 48.2026 85.8289C47.7155 85.1482 47.1834 84.4918 46.5471 83.9445C47.0399 84.0172 47.6823 84.191 48.057 83.7505C48.3362 83.3513 48.1768 82.7384 47.67 82.6274C47.2874 82.487 46.8817 82.522 46.5594 82.748C46.2565 82.9604 45.9917 83.3276 46.0206 82.7855C46.0454 82.3213 46.5648 82.1081 46.669 81.8557C46.3461 81.5724 47.3075 81.4877 47.6504 81.3573C48.9231 80.8735 50.2018 80.2225 51.6011 80.3202C53.1662 80.4232 54.6832 80.8653 56.2006 81.2304C56.6242 81.3079 57.0484 81.2743 57.4731 81.2253C56.7617 81.7075 55.8852 81.8337 55.1394 82.2517C54.105 82.7547 53.0173 83.1967 51.8555 83.2662C51.2128 83.3228 50.5647 83.3381 49.9217 83.2752C50.7964 84.0347 51.673 84.7973 52.5913 85.5034C53.4967 86.0858 54.6585 86.5285 55.7191 86.1276C56.2818 85.8861 56.5436 84.9557 55.9754 84.5848C55.7527 84.4409 55.0092 84.5665 55.6043 84.678C56.0563 84.9777 55.9187 85.7688 55.3704 85.8567C54.8666 86.0076 54.3632 85.5546 54.3961 85.0439C54.3744 84.1093 55.6106 83.6679 56.3314 84.1133C57.1315 84.6094 57.0659 85.952 56.2642 86.4219C55.755 86.7628 55.1173 86.8449 54.5176 86.8149ZM52.3554 82.6699C53.3957 82.4852 54.3973 82.0962 55.3264 81.5941C54.8864 81.4031 54.3828 81.326 53.9116 81.2069C53.2477 81.0389 52.5683 80.8792 51.8801 80.8826C52.2689 81.397 52.1968 82.1905 51.7095 82.6226C51.1736 82.9873 52.2837 82.6826 52.3554 82.6699ZM51.0171 82.753C51.628 82.5839 52.0096 81.8486 51.7343 81.2271C51.6343 81.0012 51.2434 80.7624 51.531 81.1311C51.8889 81.59 51.5946 82.3437 51.0224 82.5254C50.5419 82.6781 49.9605 82.464 49.7734 81.9861C50.2299 81.9727 50.245 80.8934 49.7733 81.2875C49.3684 81.8663 49.8106 82.8049 50.5413 82.7962C50.7012 82.7943 50.8634 82.7955 51.0171 82.753ZM49.6325 82.5883C49.2726 82.2399 49.2326 81.7075 49.3097 81.245C48.6374 81.5066 48.1426 81.7449 47.2701 81.9817C46.965 82.0646 47.1125 82.1253 47.5041 82.0705C47.656 82.0492 48.2581 82.3026 48.6382 82.4078C48.9897 82.5051 49.368 82.6308 49.6979 82.6797L49.6894 82.6592L49.6325 82.5883ZM55.4963 80.54C53.8266 80.3865 52.1815 79.7597 50.4905 79.9982C49.2362 80.1717 48.147 80.9254 46.8949 81.0962C46.4166 81.1218 45.9331 81.0356 45.4757 80.9035C45.802 80.7565 46.3897 80.8256 46.796 80.6342C48.2906 80.1554 49.6997 79.2467 51.315 79.2678C52.8766 79.3163 54.3577 79.881 55.888 80.1283C56.2263 80.2321 56.8245 80.0476 57.0226 80.1825C56.5408 80.3586 56.0205 80.6033 55.4963 80.54Z" fill="black"/>
<path d="M36.8514 107.136C35.518 97.0282 30.6521 90.1665 27.3188 87.3589C27.0343 91.3427 27.1764 94.7574 29.4529 97.7452C30.2895 98.8433 31.1639 98.6553 32.583 100.449C34.2551 102.561 36.2823 106.14 36.8514 107.136Z" fill="url(#paint35_linear_3488_48836)"/>
<path d="M47.6646 107.989C48.998 97.8817 54.0063 91.02 57.3397 88.2124C57.4026 89.0932 57.7665 88.497 58.1934 88.497C58.1934 90.7734 57.3904 94.2302 55.0632 97.8874C54.322 99.052 53.3521 99.5088 51.933 101.302C50.3679 103.721 48.2337 106.993 47.6646 107.989Z" fill="url(#paint36_linear_3488_48836)"/>
<path d="M21.2988 119.741L6.68457 113.254C6.13328 118.669 11.6324 130.957 14.4509 136.424L21.2988 119.741Z" fill="#242424" stroke="black" stroke-width="0.323163"/>
<path d="M19.7421 120.206L8.05469 114.806C7.6072 119.203 12.426 128.587 14.7164 133.027L19.7421 120.206Z" fill="#A9A78E"/>
<path d="M19.7421 120.206L8.05469 114.806C7.88054 116.744 8.70202 120.495 10.5063 124.255L19.7421 120.206Z" fill="#402D26"/>
<path d="M21.1142 119.873L19.5705 120.26L18.6208 122.882L19.735 123.077L21.1142 119.873Z" fill="url(#paint37_linear_3488_48836)"/>
<path d="M62.6738 120.18L77.5967 114.439C77.8741 119.875 71.7621 131.87 68.6715 137.188L62.6738 120.18Z" fill="#242424" stroke="black" stroke-width="0.323163"/>
<path d="M64.2054 120.725L76.1504 115.921C76.3755 120.335 71.0895 129.464 68.578 133.783L64.2054 120.725Z" fill="#A9A78E"/>
<path d="M64.2054 120.725L76.1504 115.921C76.2266 117.865 75.2169 121.571 73.2252 125.234L64.2054 120.725Z" fill="#402D26"/>
<path d="M62.8529 120.322L64.3751 120.787L65.1913 123.454L64.0687 123.592L62.8529 120.322Z" fill="url(#paint38_linear_3488_48836)"/>
<path d="M47.9281 131.359C47.9924 137.035 50.6923 150.294 57.536 146.494C63.0585 141.899 53.0374 133.832 47.9281 131.359Z" stroke="black" stroke-width="0.284558"/>
<path d="M48.1568 131.486C48.152 136.18 50.2744 147.118 56.0402 143.904C60.7087 140.047 52.4066 133.479 48.1568 131.486Z" stroke="black" stroke-width="0.284558"/>
<path d="M47.9423 131.623C47.8986 135.315 49.4923 143.902 54.1012 141.325C57.8436 138.251 51.3023 133.155 47.9423 131.623Z" stroke="black" stroke-width="0.284558"/>
<circle cx="52.2907" cy="138.662" r="1.78177" transform="rotate(-32.4078 52.2907 138.662)" stroke="black" stroke-width="0.113823"/>
<circle cx="52.2949" cy="138.662" r="1.37901" transform="rotate(-32.4078 52.2949 138.662)" fill="black"/>
<ellipse cx="52.0488" cy="138.274" rx="0.45967" ry="0.91934" transform="rotate(-32.4078 52.0488 138.274)" fill="#AC1F15"/>
<circle cx="50.3232" cy="135.558" r="1.3221" transform="rotate(-32.4078 50.3232 135.558)" stroke="black" stroke-width="0.113823"/>
<circle cx="50.322" cy="135.558" r="1.03426" transform="rotate(-32.4078 50.322 135.558)" fill="black"/>
<ellipse cx="50.1362" cy="135.267" rx="0.344752" ry="0.689505" transform="rotate(-32.4078 50.1362 135.267)" fill="#1552AC"/>
<path d="M35.2008 131.156C35.1365 136.832 32.4366 150.091 25.5929 146.291C20.0704 141.697 30.0915 133.63 35.2008 131.156Z" stroke="black" stroke-width="0.284558"/>
<path d="M34.9701 131.284C34.975 135.978 32.8526 146.916 27.0867 143.703C22.4182 139.845 30.7204 133.277 34.9701 131.284Z" stroke="black" stroke-width="0.284558"/>
<path d="M35.1866 131.42C35.2303 135.112 33.6366 143.699 29.0277 141.122C25.2854 138.048 31.8266 132.952 35.1866 131.42Z" stroke="black" stroke-width="0.284558"/>
<circle r="1.78177" transform="matrix(-0.844255 -0.535942 -0.535942 0.844255 30.8353 138.459)" stroke="black" stroke-width="0.113823"/>
<circle r="1.37901" transform="matrix(-0.844255 -0.535942 -0.535942 0.844255 30.8379 138.459)" fill="black"/>
<ellipse rx="0.45967" ry="0.91934" transform="matrix(-0.844255 -0.535942 -0.535942 0.844255 31.0831 138.072)" fill="#AC1F15"/>
<circle r="1.3221" transform="matrix(-0.844255 -0.535942 -0.535942 0.844255 32.8057 135.355)" stroke="black" stroke-width="0.113823"/>
<circle r="1.03426" transform="matrix(-0.844255 -0.535942 -0.535942 0.844255 32.8069 135.354)" fill="black"/>
<ellipse rx="0.344752" ry="0.689505" transform="matrix(-0.844255 -0.535942 -0.535942 0.844255 32.9898 135.064)" fill="#1552AC"/>
<path d="M54.5811 126.652C55.6113 131.507 60.2035 142.409 65.4172 137.976C69.3619 133.088 59.3858 127.895 54.5811 126.652Z" stroke="black" stroke-width="0.284558"/>
<path d="M54.7976 126.721C55.5998 130.745 59.2982 139.757 63.6888 136.012C67.0281 131.904 58.783 127.699 54.7976 126.721Z" stroke="black" stroke-width="0.284558"/>
<path d="M54.6354 126.875C55.2323 130.048 58.0734 137.135 61.5816 134.134C64.2616 130.856 57.7787 127.611 54.6354 126.875Z" stroke="black" stroke-width="0.284558"/>
<circle cx="59.5726" cy="132.162" r="1.55057" transform="rotate(-43.74 59.5726 132.162)" stroke="black" stroke-width="0.113823"/>
<circle cx="59.5747" cy="132.162" r="1.20561" transform="rotate(-43.74 59.5747 132.162)" fill="black"/>
<ellipse cx="59.2982" cy="131.873" rx="0.401871" ry="0.803742" transform="rotate(-43.74 59.2982 131.873)" fill="#AC1F15"/>
<circle cx="57.353" cy="129.839" r="1.1487" transform="rotate(-43.74 57.353 129.839)" stroke="black" stroke-width="0.113823"/>
<circle cx="57.3546" cy="129.839" r="0.904209" transform="rotate(-43.74 57.3546 129.839)" fill="black"/>
<ellipse cx="57.1453" cy="129.621" rx="0.301403" ry="0.602806" transform="rotate(-43.74 57.1453 129.621)" fill="#1552AC"/>
<path d="M28.5517 126.448C27.5215 131.302 22.9293 142.204 17.7156 137.771C13.771 132.884 23.747 127.69 28.5517 126.448Z" stroke="black" stroke-width="0.284558"/>
<path d="M28.3323 126.518C27.53 130.542 23.8316 139.554 19.4411 135.809C16.1018 131.7 24.3469 127.496 28.3323 126.518Z" stroke="black" stroke-width="0.284558"/>
<path d="M28.4935 126.672C27.8967 129.845 25.0555 136.932 21.5473 133.931C18.8673 130.653 25.3502 127.408 28.4935 126.672Z" stroke="black" stroke-width="0.284558"/>
<circle r="1.55057" transform="matrix(-0.722485 -0.691387 -0.691387 0.722485 23.5563 131.959)" stroke="black" stroke-width="0.113823"/>
<circle r="1.20561" transform="matrix(-0.722485 -0.691387 -0.691387 0.722485 23.5532 131.959)" fill="black"/>
<ellipse rx="0.401871" ry="0.803742" transform="matrix(-0.722485 -0.691387 -0.691387 0.722485 23.8307 131.668)" fill="#AC1F15"/>
<circle r="1.1487" transform="matrix(-0.722485 -0.691387 -0.691387 0.722485 25.7778 129.635)" stroke="black" stroke-width="0.113823"/>
<circle r="0.904209" transform="matrix(-0.722485 -0.691387 -0.691387 0.722485 25.7772 129.635)" fill="black"/>
<ellipse rx="0.301403" ry="0.602806" transform="matrix(-0.722485 -0.691387 -0.691387 0.722485 25.9856 129.418)" fill="#1552AC"/>
<defs>
<filter id="filter0_f_3488_48836" x="40.5493" y="103.579" width="3.41513" height="6.54502" filterUnits="userSpaceOnUse" color-interpolation-filters="sRGB">
<feFlood flood-opacity="0" result="BackgroundImageFix"/>
<feBlend mode="normal" in="SourceGraphic" in2="BackgroundImageFix" result="shape"/>
<feGaussianBlur stdDeviation="0.569115" result="effect1_foregroundBlur_3488_48836"/>
</filter>
<linearGradient id="paint0_linear_3488_48836" x1="41.8311" y1="109.408" x2="41.8311" y2="156.828" gradientUnits="userSpaceOnUse">
<stop stop-color="#F1B017"/>
<stop offset="1" stop-color="#F19A17"/>
</linearGradient>
<linearGradient id="paint1_linear_3488_48836" x1="41.8311" y1="109.408" x2="41.8311" y2="156.828" gradientUnits="userSpaceOnUse">
<stop stop-color="#D09A2D"/>
<stop offset="1" stop-color="#3F2E0D" stop-opacity="0.76"/>
</linearGradient>
<radialGradient id="paint2_radial_3488_48836" cx="0" cy="0" r="1" gradientUnits="userSpaceOnUse" gradientTransform="translate(41.9627 131.274) rotate(90) scale(21.866 36.4872)">
<stop stop-color="#692225"/>
<stop offset="1" stop-color="#1B0A0B"/>
</radialGradient>
<linearGradient id="paint3_linear_3488_48836" x1="42.2562" y1="87.5015" x2="42.2562" y2="121.091" gradientUnits="userSpaceOnUse">
<stop stop-color="#060505"/>
<stop offset="0.988853" stop-color="#392424"/>
</linearGradient>
<linearGradient id="paint4_linear_3488_48836" x1="42.2579" y1="63.4563" x2="42.2579" y2="109.839" gradientUnits="userSpaceOnUse">
<stop stop-color="#3C5228"/>
<stop offset="0.0001" stop-color="#487158"/>
<stop offset="1" stop-color="#90BE67"/>
</linearGradient>
<radialGradient id="paint5_radial_3488_48836" cx="0" cy="0" r="1" gradientUnits="userSpaceOnUse" gradientTransform="translate(42.2724 106.647) rotate(90.1178) scale(5.89569 11.2588)">
<stop stop-color="#845E2F"/>
<stop offset="1"/>
</radialGradient>
<linearGradient id="paint6_linear_3488_48836" x1="41.974" y1="135.733" x2="42.2815" y2="110.411" gradientUnits="userSpaceOnUse">
<stop stop-color="#845E2F"/>
<stop offset="1"/>
</linearGradient>
<radialGradient id="paint7_radial_3488_48836" cx="0" cy="0" r="1" gradientUnits="userSpaceOnUse" gradientTransform="translate(42.1177 121.079) rotate(90) scale(11.24 4.41064)">
<stop stop-color="#561C18"/>
<stop offset="1"/>
</radialGradient>
<linearGradient id="paint8_linear_3488_48836" x1="42.056" y1="113.913" x2="46.0398" y2="111.209" gradientUnits="userSpaceOnUse">
<stop stop-color="#FFA84E"/>
<stop offset="1" stop-color="#C58362" stop-opacity="0.17"/>
</linearGradient>
<linearGradient id="paint9_linear_3488_48836" x1="42.056" y1="116.19" x2="46.0398" y2="113.486" gradientUnits="userSpaceOnUse">
<stop stop-color="#FFA84E"/>
<stop offset="1" stop-color="#C58362" stop-opacity="0.17"/>
</linearGradient>
<linearGradient id="paint10_linear_3488_48836" x1="42.056" y1="118.467" x2="46.0398" y2="115.764" gradientUnits="userSpaceOnUse">
<stop stop-color="#FFA84E"/>
<stop offset="1" stop-color="#C58362" stop-opacity="0.17"/>
</linearGradient>
<linearGradient id="paint11_linear_3488_48836" x1="42.056" y1="120.743" x2="46.0398" y2="118.04" gradientUnits="userSpaceOnUse">
<stop stop-color="#FFA84E"/>
<stop offset="1" stop-color="#C58362" stop-opacity="0.17"/>
</linearGradient>
<linearGradient id="paint12_linear_3488_48836" x1="42.0357" y1="123.019" x2="45.9029" y2="120.582" gradientUnits="userSpaceOnUse">
<stop stop-color="#FFA84E"/>
<stop offset="1" stop-color="#C58362" stop-opacity="0.17"/>
</linearGradient>
<linearGradient id="paint13_linear_3488_48836" x1="42.0154" y1="125.296" x2="45.7418" y2="123.128" gradientUnits="userSpaceOnUse">
<stop stop-color="#FFA84E"/>
<stop offset="1" stop-color="#C58362" stop-opacity="0.17"/>
</linearGradient>
<linearGradient id="paint14_linear_3488_48836" x1="42.0154" y1="127.571" x2="45.7418" y2="125.404" gradientUnits="userSpaceOnUse">
<stop stop-color="#FFA84E"/>
<stop offset="1" stop-color="#C58362" stop-opacity="0.17"/>
</linearGradient>
<linearGradient id="paint15_linear_3488_48836" x1="41.9747" y1="129.849" x2="45.34" y2="128.218" gradientUnits="userSpaceOnUse">
<stop stop-color="#FFA84E"/>
<stop offset="1" stop-color="#C58362" stop-opacity="0.17"/>
</linearGradient>
<linearGradient id="paint16_linear_3488_48836" x1="42.0621" y1="115.051" x2="38.0783" y2="112.348" gradientUnits="userSpaceOnUse">
<stop stop-color="#FFA84E"/>
<stop offset="1" stop-color="#C58362" stop-opacity="0.17"/>
</linearGradient>
<linearGradient id="paint17_linear_3488_48836" x1="42.0824" y1="117.328" x2="38.2152" y2="114.891" gradientUnits="userSpaceOnUse">
<stop stop-color="#FFA84E"/>
<stop offset="1" stop-color="#C58362" stop-opacity="0.17"/>
</linearGradient>
<linearGradient id="paint18_linear_3488_48836" x1="42.1028" y1="119.604" x2="38.3764" y2="117.437" gradientUnits="userSpaceOnUse">
<stop stop-color="#FFA84E"/>
<stop offset="1" stop-color="#C58362" stop-opacity="0.17"/>
</linearGradient>
<linearGradient id="paint19_linear_3488_48836" x1="42.1028" y1="121.88" x2="38.3764" y2="119.713" gradientUnits="userSpaceOnUse">
<stop stop-color="#FFA84E"/>
<stop offset="1" stop-color="#C58362" stop-opacity="0.17"/>
</linearGradient>
<linearGradient id="paint20_linear_3488_48836" x1="42.1202" y1="124.158" x2="38.5351" y2="122.222" gradientUnits="userSpaceOnUse">
<stop stop-color="#FFA84E"/>
<stop offset="1" stop-color="#C58362" stop-opacity="0.17"/>
</linearGradient>
<linearGradient id="paint21_linear_3488_48836" x1="42.1376" y1="126.434" x2="38.714" y2="124.727" gradientUnits="userSpaceOnUse">
<stop stop-color="#FFA84E"/>
<stop offset="1" stop-color="#C58362" stop-opacity="0.17"/>
</linearGradient>
<linearGradient id="paint22_linear_3488_48836" x1="42.1376" y1="128.711" x2="38.714" y2="127.004" gradientUnits="userSpaceOnUse">
<stop stop-color="#FFA84E"/>
<stop offset="1" stop-color="#C58362" stop-opacity="0.17"/>
</linearGradient>
<linearGradient id="paint23_linear_3488_48836" x1="42.1725" y1="130.986" x2="39.1346" y2="129.724" gradientUnits="userSpaceOnUse">
<stop stop-color="#FFA84E"/>
<stop offset="1" stop-color="#C58362" stop-opacity="0.17"/>
</linearGradient>
<linearGradient id="paint24_linear_3488_48836" x1="25.0783" y1="73.2744" x2="25.0783" y2="88.4982" gradientUnits="userSpaceOnUse">
<stop stop-color="#2D421B" stop-opacity="0.89"/>
<stop offset="1" stop-color="#90BE67"/>
</linearGradient>
<linearGradient id="paint25_linear_3488_48836" x1="59.6004" y1="73.417" x2="59.6004" y2="88.6408" gradientUnits="userSpaceOnUse">
<stop stop-color="#2D421B" stop-opacity="0.89"/>
<stop offset="1" stop-color="#90BE67"/>
</linearGradient>
<linearGradient id="paint26_linear_3488_48836" x1="42.5425" y1="87.5032" x2="42.5425" y2="91.4943" gradientUnits="userSpaceOnUse">
<stop stop-color="#010602" stop-opacity="0"/>
<stop offset="1" stop-color="#074B0A"/>
</linearGradient>
<linearGradient id="paint27_linear_3488_48836" x1="42.0244" y1="0" x2="42.0244" y2="79.1639" gradientUnits="userSpaceOnUse">
<stop stop-color="#FBCE08"/>
<stop offset="0.558333" stop-color="#DF7930"/>
<stop offset="0.891666" stop-color="#771613"/>
<stop offset="1"/>
</linearGradient>
<linearGradient id="paint28_linear_3488_48836" x1="42.3162" y1="49.3711" x2="42.3162" y2="74.4691" gradientUnits="userSpaceOnUse">
<stop stop-color="#241E1E"/>
<stop offset="1" stop-color="#FF575E"/>
</linearGradient>
<linearGradient id="paint29_linear_3488_48836" x1="42.4018" y1="73.4434" x2="42.4018" y2="81.1264" gradientUnits="userSpaceOnUse">
<stop stop-color="#542B29"/>
<stop offset="1" stop-color="#A34C47" stop-opacity="0.58"/>
</linearGradient>
<linearGradient id="paint30_linear_3488_48836" x1="42.4016" y1="74.981" x2="42.4016" y2="78.5664" gradientUnits="userSpaceOnUse">
<stop stop-color="#542B29"/>
<stop offset="1" stop-color="#A34C47" stop-opacity="0.58"/>
</linearGradient>
<linearGradient id="paint31_linear_3488_48836" x1="41.7154" y1="59.6138" x2="41.7154" y2="70.1139" gradientUnits="userSpaceOnUse">
<stop stop-color="#854345"/>
<stop offset="1" stop-color="#854345" stop-opacity="0.94"/>
</linearGradient>
<linearGradient id="paint32_linear_3488_48836" x1="42.4016" y1="55.5166" x2="42.4016" y2="64.4802" gradientUnits="userSpaceOnUse">
<stop stop-color="#451E27"/>
<stop offset="1" stop-color="#844B3E"/>
</linearGradient>
<linearGradient id="paint33_linear_3488_48836" x1="41.2039" y1="38.6128" x2="41.2039" y2="58.8448" gradientUnits="userSpaceOnUse">
<stop stop-color="#713A46"/>
<stop offset="1" stop-color="#713A46" stop-opacity="0.66"/>
</linearGradient>
<linearGradient id="paint34_linear_3488_48836" x1="42.4015" y1="54.4922" x2="42.4015" y2="76.2608" gradientUnits="userSpaceOnUse">
<stop stop-color="#542B29"/>
<stop offset="1" stop-color="#A34C47" stop-opacity="0.58"/>
</linearGradient>
<linearGradient id="paint35_linear_3488_48836" x1="26.0382" y1="87.3475" x2="38.7213" y2="105.752" gradientUnits="userSpaceOnUse">
<stop stop-color="#0D390C"/>
<stop offset="0.985213" stop-color="#0D390C" stop-opacity="0.06"/>
</linearGradient>
<linearGradient id="paint36_linear_3488_48836" x1="58.4779" y1="88.201" x2="45.7948" y2="106.605" gradientUnits="userSpaceOnUse">
<stop stop-color="#0D390C"/>
<stop offset="0.985213" stop-color="#0D390C" stop-opacity="0.06"/>
</linearGradient>
<linearGradient id="paint37_linear_3488_48836" x1="20.1592" y1="119.706" x2="19.4167" y2="123.021" gradientUnits="userSpaceOnUse">
<stop stop-color="#A9A78E"/>
<stop offset="1" stop-color="#A9A78E" stop-opacity="0"/>
</linearGradient>
<linearGradient id="paint38_linear_3488_48836" x1="63.8151" y1="120.204" x2="64.3894" y2="123.552" gradientUnits="userSpaceOnUse">
<stop stop-color="#A9A78E"/>
<stop offset="1" stop-color="#A9A78E" stop-opacity="0"/>
</linearGradient>
</defs>
</svg>
