<svg width="41" height="42" viewBox="0 0 41 42" fill="none" xmlns="http://www.w3.org/2000/svg">
<path d="M20.6151 12.647C21.9182 12.647 23.5518 11.766 24.5246 10.5913C25.4056 9.52677 26.048 8.04007 26.048 6.55336C26.048 6.35146 26.0296 6.14956 25.9929 5.98438C24.5429 6.03944 22.7992 6.95716 21.753 8.1869C20.9271 9.12298 20.1746 10.5913 20.1746 12.0964C20.1746 12.3166 20.2113 12.5369 20.2296 12.6103C20.3214 12.6287 20.4682 12.647 20.6151 12.647ZM16.0265 34.8558C17.8069 34.8558 18.5961 33.6628 20.817 33.6628C23.0746 33.6628 23.5701 34.8191 25.5524 34.8191C27.498 34.8191 28.8011 33.0204 30.0309 31.2584C31.4075 29.2394 31.9764 27.2571 32.0131 27.1653C31.8847 27.1286 28.1587 25.6052 28.1587 21.3286C28.1587 17.6211 31.0954 15.9508 31.2606 15.8223C29.3151 13.0325 26.36 12.959 25.5524 12.959C23.3682 12.959 21.5879 14.2806 20.4682 14.2806C19.2568 14.2806 17.66 13.0325 15.7695 13.0325C12.1721 13.0325 8.51953 16.0059 8.51953 21.6223C8.51953 25.1096 9.87776 28.7989 11.548 31.1849C12.9796 33.2039 14.2277 34.8558 16.0265 34.8558Z" fill="white"/>
</svg>
