<svg width="360" height="640" viewBox="0 0 360 640" fill="none" xmlns="http://www.w3.org/2000/svg">
<rect y="1" width="359" height="639" fill="black"/>
<rect y="1" width="359" height="639" fill="url(#paint0_linear_3668_13175)"/>
<path d="M316.548 581.302C317.143 581.302 317.626 580.967 317.626 580.552C317.626 580.138 317.143 579.802 316.548 579.802C315.952 579.802 315.469 580.138 315.469 580.552C315.469 580.967 315.952 581.302 316.548 581.302Z" fill="white"/>
<path d="M10.5918 568.547C10.9187 568.547 11.1837 568.363 11.1837 568.136C11.1837 567.909 10.9187 567.725 10.5918 567.725C10.265 567.725 10 567.909 10 568.136C10 568.363 10.265 568.547 10.5918 568.547Z" fill="white"/>
<path d="M329.405 558.801C329.874 558.801 330.255 558.536 330.255 558.21C330.255 557.884 329.874 557.62 329.405 557.62C328.936 557.62 328.556 557.884 328.556 558.21C328.556 558.536 328.936 558.801 329.405 558.801Z" fill="white"/>
<path d="M249.008 616.725C249.852 616.725 250.536 616.25 250.536 615.663C250.536 615.076 249.852 614.6 249.008 614.6C248.164 614.6 247.479 615.076 247.479 615.663C247.479 616.25 248.164 616.725 249.008 616.725Z" fill="white"/>
<path d="M111.974 562.988C112.775 562.988 113.425 562.536 113.425 561.979C113.425 561.422 112.775 560.97 111.974 560.97C111.172 560.97 110.522 561.422 110.522 561.979C110.522 562.536 111.172 562.988 111.974 562.988Z" fill="white"/>
<path d="M62.5934 577.961C63.372 577.961 64.0032 577.522 64.0032 576.981C64.0032 576.44 63.372 576.001 62.5934 576.001C61.8148 576.001 61.1836 576.44 61.1836 576.981C61.1836 577.522 61.8148 577.961 62.5934 577.961Z" fill="white"/>
<path d="M237.104 552.989C237.645 552.989 238.083 552.685 238.083 552.309C238.083 551.933 237.645 551.629 237.104 551.629C236.564 551.629 236.126 551.933 236.126 552.309C236.126 552.685 236.564 552.989 237.104 552.989Z" fill="white"/>
<path d="M316.357 586.708C317.22 586.708 317.919 586.221 317.919 585.621C317.919 585.021 317.22 584.535 316.357 584.535C315.494 584.535 314.794 585.021 314.794 585.621C314.794 586.221 315.494 586.708 316.357 586.708Z" fill="white"/>
<path d="M16.6533 573.402C17.4342 573.402 18.0673 572.962 18.0673 572.419C18.0673 571.876 17.4342 571.436 16.6533 571.436C15.8723 571.436 15.2393 571.876 15.2393 572.419C15.2393 572.962 15.8723 573.402 16.6533 573.402Z" fill="white"/>
<path d="M217.634 576.463C218.3 576.463 218.84 576.088 218.84 575.625C218.84 575.162 218.3 574.787 217.634 574.787C216.969 574.787 216.429 575.162 216.429 575.625C216.429 576.088 216.969 576.463 217.634 576.463Z" fill="white"/>
<path d="M212.613 539.603C213.406 539.603 214.049 539.156 214.049 538.605C214.049 538.054 213.406 537.607 212.613 537.607C211.821 537.607 211.178 538.054 211.178 538.605C211.178 539.156 211.821 539.603 212.613 539.603Z" fill="white"/>
<path d="M96.8893 529.982C97.382 529.982 97.7815 529.704 97.7815 529.362C97.7815 529.019 97.382 528.741 96.8893 528.741C96.3966 528.741 95.9971 529.019 95.9971 529.362C95.9971 529.704 96.3966 529.982 96.8893 529.982Z" fill="white"/>
<path d="M308.121 66.5855C308.72 66.5855 309.206 66.248 309.206 65.8317C309.206 65.4154 308.72 65.0779 308.121 65.0779C307.523 65.0779 307.037 65.4154 307.037 65.8317C307.037 66.248 307.523 66.5855 308.121 66.5855Z" fill="white"/>
<path d="M339.181 419.47C339.78 419.47 340.265 419.133 340.265 418.716C340.265 418.3 339.78 417.962 339.181 417.962C338.582 417.962 338.097 418.3 338.097 418.716C338.097 419.133 338.582 419.47 339.181 419.47Z" fill="white"/>
<path d="M160.909 330.538C161.507 330.538 161.993 330.2 161.993 329.784C161.993 329.368 161.507 329.03 160.909 329.03C160.31 329.03 159.824 329.368 159.824 329.784C159.824 330.2 160.31 330.538 160.909 330.538Z" fill="white"/>
<path d="M300.054 397.827C300.653 397.827 301.138 397.489 301.138 397.073C301.138 396.657 300.653 396.319 300.054 396.319C299.455 396.319 298.97 396.657 298.97 397.073C298.97 397.489 299.455 397.827 300.054 397.827Z" fill="white"/>
<path d="M357.549 74.418C358.746 74.418 359.717 73.743 359.717 72.9104C359.717 72.0778 358.746 71.4028 357.549 71.4028C356.351 71.4028 355.38 72.0778 355.38 72.9104C355.38 73.743 356.351 74.418 357.549 74.418Z" fill="white"/>
<path d="M0.594882 53.765C0.923432 53.765 1.18976 53.5799 1.18976 53.3515C1.18976 53.1231 0.923432 52.938 0.594882 52.938C0.266333 52.938 0 53.1231 0 53.3515C0 53.5799 0.266333 53.765 0.594882 53.765Z" fill="white"/>
<path d="M321.045 43.968C321.517 43.968 321.899 43.7023 321.899 43.3745C321.899 43.0467 321.517 42.781 321.045 42.781C320.574 42.781 320.191 43.0467 320.191 43.3745C320.191 43.7023 320.574 43.968 321.045 43.968Z" fill="white"/>
<path d="M293.423 214.065C294.304 214.065 295.018 213.568 295.018 212.956C295.018 212.343 294.304 211.846 293.423 211.846C292.542 211.846 291.827 212.343 291.827 212.956C291.827 213.568 292.542 214.065 293.423 214.065Z" fill="white"/>
<path d="M83.1507 372.956C83.9832 372.956 84.6579 372.487 84.6579 371.908C84.6579 371.33 83.9832 370.861 83.1507 370.861C82.3183 370.861 81.6436 371.33 81.6436 371.908C81.6436 372.487 82.3183 372.956 83.1507 372.956Z" fill="white"/>
<path d="M240.236 102.19C241.085 102.19 241.773 101.712 241.773 101.122C241.773 100.533 241.085 100.054 240.236 100.054C239.388 100.054 238.7 100.533 238.7 101.122C238.7 101.712 239.388 102.19 240.236 102.19Z" fill="white"/>
<path d="M253.737 381.067C254.57 381.067 255.245 380.598 255.245 380.019C255.245 379.44 254.57 378.971 253.737 378.971C252.905 378.971 252.229 379.44 252.229 380.019C252.229 380.598 252.905 381.067 253.737 381.067Z" fill="white"/>
<path d="M235.343 344.498C236.136 344.498 236.778 344.052 236.778 343.501C236.778 342.951 236.136 342.504 235.343 342.504C234.551 342.504 233.909 342.951 233.909 343.501C233.909 344.052 234.551 344.498 235.343 344.498Z" fill="white"/>
<path d="M102.498 48.177C103.303 48.177 103.957 47.723 103.957 47.163C103.957 46.6029 103.303 46.1489 102.498 46.1489C101.692 46.1489 101.039 46.6029 101.039 47.163C101.039 47.723 101.692 48.177 102.498 48.177Z" fill="white"/>
<path d="M52.8633 63.2267C53.6459 63.2267 54.2804 62.7856 54.2804 62.2416C54.2804 61.6976 53.6459 61.2566 52.8633 61.2566C52.0807 61.2566 51.4463 61.6976 51.4463 62.2416C51.4463 62.7856 52.0807 63.2267 52.8633 63.2267Z" fill="white"/>
<path d="M201.821 301.645C202.65 301.645 203.323 301.178 203.323 300.601C203.323 300.024 202.65 299.557 201.821 299.557C200.991 299.557 200.318 300.024 200.318 300.601C200.318 301.178 200.991 301.645 201.821 301.645Z" fill="white"/>
<path d="M115.596 447.785C116.39 447.785 117.033 447.338 117.033 446.787C117.033 446.235 116.39 445.788 115.596 445.788C114.803 445.788 114.159 446.235 114.159 446.787C114.159 447.338 114.803 447.785 115.596 447.785Z" fill="white"/>
<path d="M32.7855 263.878C33.6244 263.878 34.3044 263.405 34.3044 262.822C34.3044 262.239 33.6244 261.766 32.7855 261.766C31.9466 261.766 31.2666 262.239 31.2666 262.822C31.2666 263.405 31.9466 263.878 32.7855 263.878Z" fill="white"/>
<path d="M228.271 38.1265C228.815 38.1265 229.255 37.8204 229.255 37.4429C229.255 37.0653 228.815 36.7593 228.271 36.7593C227.728 36.7593 227.288 37.0653 227.288 37.4429C227.288 37.8204 227.728 38.1265 228.271 38.1265Z" fill="white"/>
<path d="M198.56 175.807C199.281 175.807 199.866 175.4 199.866 174.899C199.866 174.397 199.281 173.991 198.56 173.991C197.839 173.991 197.254 174.397 197.254 174.899C197.254 175.4 197.839 175.807 198.56 175.807Z" fill="white"/>
<path d="M359.225 101.07C359.575 101.07 359.859 100.873 359.859 100.63C359.859 100.386 359.575 100.189 359.225 100.189C358.875 100.189 358.591 100.386 358.591 100.63C358.591 100.873 358.875 101.07 359.225 101.07Z" fill="white"/>
<path d="M77.412 134.522C77.8007 134.522 78.1159 134.303 78.1159 134.032C78.1159 133.762 77.8007 133.543 77.412 133.543C77.0232 133.543 76.708 133.762 76.708 134.032C76.708 134.303 77.0232 134.522 77.412 134.522Z" fill="white"/>
<path d="M307.93 72.0183C308.797 72.0183 309.501 71.5295 309.501 70.9265C309.501 70.3235 308.797 69.8347 307.93 69.8347C307.063 69.8347 306.359 70.3235 306.359 70.9265C306.359 71.5295 307.063 72.0183 307.93 72.0183Z" fill="white"/>
<path d="M17.4606 440.032C18.1621 440.032 18.7308 439.636 18.7308 439.149C18.7308 438.661 18.1621 438.266 17.4606 438.266C16.7591 438.266 16.1904 438.661 16.1904 439.149C16.1904 439.636 16.7591 440.032 17.4606 440.032Z" fill="white"/>
<path d="M282.488 144.426C282.992 144.426 283.4 144.143 283.4 143.792C283.4 143.442 282.992 143.158 282.488 143.158C281.984 143.158 281.575 143.442 281.575 143.792C281.575 144.143 281.984 144.426 282.488 144.426Z" fill="white"/>
<path d="M197.992 424.436C198.88 424.436 199.6 423.935 199.6 423.318C199.6 422.701 198.88 422.201 197.992 422.201C197.104 422.201 196.385 422.701 196.385 423.318C196.385 423.935 197.104 424.436 197.992 424.436Z" fill="white"/>
<path d="M204.375 140.479C205.086 140.479 205.663 140.078 205.663 139.584C205.663 139.089 205.086 138.688 204.375 138.688C203.663 138.688 203.086 139.089 203.086 139.584C203.086 140.078 203.663 140.479 204.375 140.479Z" fill="white"/>
<path d="M85.7121 181.204C86.0875 181.204 86.3919 180.993 86.3919 180.732C86.3919 180.471 86.0875 180.259 85.7121 180.259C85.3366 180.259 85.0322 180.471 85.0322 180.732C85.0322 180.993 85.3366 181.204 85.7121 181.204Z" fill="white"/>
<path d="M257.301 129.13C257.775 129.13 258.159 128.863 258.159 128.533C258.159 128.204 257.775 127.937 257.301 127.937C256.827 127.937 256.442 128.204 256.442 128.533C256.442 128.863 256.827 129.13 257.301 129.13Z" fill="white"/>
<path d="M72.4908 412.011C73.2036 412.011 73.7814 411.609 73.7814 411.114C73.7814 410.618 73.2036 410.217 72.4908 410.217C71.778 410.217 71.2002 410.618 71.2002 411.114C71.2002 411.609 71.778 412.011 72.4908 412.011Z" fill="white"/>
<path d="M6.68787 58.6442C7.47281 58.6442 8.10914 58.2018 8.10914 57.6562C8.10914 57.1105 7.47281 56.6682 6.68787 56.6682C5.90292 56.6682 5.2666 57.1105 5.2666 57.6562C5.2666 58.2018 5.90292 58.6442 6.68787 58.6442Z" fill="white"/>
<path d="M153.817 334.12C154.608 334.12 155.249 333.674 155.249 333.124C155.249 332.574 154.608 332.128 153.817 332.128C153.025 332.128 152.384 332.574 152.384 333.124C152.384 333.674 153.025 334.12 153.817 334.12Z" fill="white"/>
<path d="M11.674 353.157C12.4653 353.157 13.1068 352.711 13.1068 352.161C13.1068 351.61 12.4653 351.165 11.674 351.165C10.8827 351.165 10.2412 351.61 10.2412 352.161C10.2412 352.711 10.8827 353.157 11.674 353.157Z" fill="white"/>
<path d="M150.958 331.433C151.757 331.433 152.406 330.982 152.406 330.426C152.406 329.871 151.757 329.42 150.958 329.42C150.158 329.42 149.51 329.871 149.51 330.426C149.51 330.982 150.158 331.433 150.958 331.433Z" fill="white"/>
<path d="M220.349 242.412C220.834 242.412 221.226 242.139 221.226 241.803C221.226 241.466 220.834 241.193 220.349 241.193C219.865 241.193 219.473 241.466 219.473 241.803C219.473 242.139 219.865 242.412 220.349 242.412Z" fill="white"/>
<path d="M92.1482 444.194C92.4797 444.194 92.7485 444.008 92.7485 443.777C92.7485 443.547 92.4797 443.36 92.1482 443.36C91.8166 443.36 91.5479 443.547 91.5479 443.777C91.5479 444.008 91.8166 444.194 92.1482 444.194Z" fill="white"/>
<path d="M208.701 61.7213C209.37 61.7213 209.913 61.3441 209.913 60.8788C209.913 60.4136 209.37 60.0364 208.701 60.0364C208.032 60.0364 207.489 60.4136 207.489 60.8788C207.489 61.3441 208.032 61.7213 208.701 61.7213Z" fill="white"/>
<path d="M203.655 24.6718C204.452 24.6718 205.098 24.2226 205.098 23.6686C205.098 23.1146 204.452 22.6655 203.655 22.6655C202.858 22.6655 202.212 23.1146 202.212 23.6686C202.212 24.2226 202.858 24.6718 203.655 24.6718Z" fill="white"/>
<path d="M206.923 372.359C207.796 372.359 208.503 371.868 208.503 371.261C208.503 370.655 207.796 370.163 206.923 370.163C206.051 370.163 205.344 370.655 205.344 371.261C205.344 371.868 206.051 372.359 206.923 372.359Z" fill="white"/>
<path d="M87.3353 15.0012C87.8306 15.0012 88.232 14.7221 88.232 14.3778C88.232 14.0335 87.8306 13.7544 87.3353 13.7544C86.84 13.7544 86.4385 14.0335 86.4385 14.3778C86.4385 14.7221 86.84 15.0012 87.3353 15.0012Z" fill="white"/>
<path d="M183.469 503.934C184.068 503.934 184.553 503.597 184.553 503.181C184.553 502.764 184.068 502.427 183.469 502.427C182.87 502.427 182.385 502.764 182.385 503.181C182.385 503.597 182.87 503.934 183.469 503.934Z" fill="white"/>
<path d="M105.711 546.357C106.544 546.357 107.218 545.888 107.218 545.309C107.218 544.731 106.544 544.262 105.711 544.262C104.879 544.262 104.204 544.731 104.204 545.309C104.204 545.888 104.879 546.357 105.711 546.357Z" fill="white"/>
<path d="M257.905 517.895C258.697 517.895 259.339 517.449 259.339 516.898C259.339 516.347 258.697 515.901 257.905 515.901C257.113 515.901 256.471 516.347 256.471 516.898C256.471 517.449 257.113 517.895 257.905 517.895Z" fill="white" fill-opacity="0.678571"/>
<path d="M176.372 507.519C177.164 507.519 177.805 507.073 177.805 506.523C177.805 505.973 177.164 505.527 176.372 505.527C175.581 505.527 174.939 505.973 174.939 506.523C174.939 507.073 175.581 507.519 176.372 507.519Z" fill="white"/>
<path d="M34.2404 526.553C35.0317 526.553 35.6732 526.107 35.6732 525.557C35.6732 525.007 35.0317 524.561 34.2404 524.561C33.4491 524.561 32.8076 525.007 32.8076 525.557C32.8076 526.107 33.4491 526.553 34.2404 526.553Z" fill="white"/>
<path d="M229.484 545.758C230.356 545.758 231.064 545.267 231.064 544.66C231.064 544.054 230.356 543.562 229.484 543.562C228.612 543.562 227.904 544.054 227.904 544.66C227.904 545.267 228.612 545.758 229.484 545.758Z" fill="white"/>
<path d="M282.678 451.612L264.268 472.746L249.673 492.093H379.702L342.883 376.99L321.985 403.165L285.497 451.612H282.678Z" fill="url(#paint1_linear_3668_13175)"/>
<path d="M198.724 473.948L183 492.093H264.6L238.945 427.41L200.876 473.948H198.724Z" fill="url(#paint2_linear_3668_13175)"/>
<path d="M296.444 492.258L239.225 427.244L264.6 492.258H296.444Z" fill="url(#paint3_linear_3668_13175)"/>
<path d="M435.429 487.702L343.546 376.658L379.536 492.424L435.429 487.702Z" fill="url(#paint4_linear_3668_13175)"/>
<path d="M319.996 402.366C320.128 401.702 334.314 385.172 341.391 376.99L343.215 375L372.074 410.99C372.626 411.875 372.969 413.379 369.917 412.317C366.103 410.99 361.293 409.498 355.986 409.498C350.678 409.498 342.718 413.644 339.069 414.307C335.42 414.971 327.459 409.995 326.132 409.498C324.805 409 325.966 403.195 324.474 403.195C322.981 403.195 319.83 403.195 319.996 402.366Z" fill="#A19038"/>
<path d="M217.001 474.18H200.747L201.245 473.351L217.001 474.18Z" fill="#FFEA7B"/>
<path d="M301.42 451.79H285.166L285.664 450.961L301.42 451.79Z" fill="#FFEA7B"/>
<path d="M247.849 468.375H255.146L255.81 470.2L247.849 468.375Z" fill="#816913"/>
<path d="M357.478 488.444H378.375L379.038 490.434L357.478 488.444Z" fill="#534411"/>
<path d="M207.381 465.888H211.693" stroke="#FFDA58" stroke-width="0.970732"/>
<path d="M369 481.672C180.445 497.805 114.168 486.81 -4 499.349V655.328H369V481.672Z" fill="#E9B329"/>
<path d="M344.464 533.323C151.218 554.551 -183.698 509.458 -327 484.259V668H1125V492.77C1021.57 492.77 916.963 473.077 877.591 463.231C819.596 453.218 586.02 506.788 344.464 533.323Z" fill="#EFD237"/>
<path d="M40.0968 518.765C39.5147 518.769 38.9651 518.547 38.763 518.436C38.5361 517.617 38.1316 517.21 37.9577 517.109C37.932 517.437 37.9329 518.033 37.9365 518.29L36.3008 518.485C35.6681 517.52 34.7323 517.317 34.3434 517.336C34.357 518.538 34.9313 519.556 35.2168 519.914C34.5607 520.521 33.2989 523.516 33.0383 524.726C32.7777 525.935 33.9385 527.87 34.5396 529.18C35.1406 530.49 35.4455 534.071 35.4802 535.042C35.5149 536.013 34.7057 536.353 33.7977 536.543C32.8897 536.732 31.8798 536.405 31.4431 535.116C31.0064 533.827 30.6278 530.987 30.1877 530.348C29.7476 529.71 27.4702 530.631 27.0833 528.401C26.6965 526.171 26.504 524.894 25.1146 523.759C23.7253 522.624 21.1686 523.578 20.2476 524.338C19.3266 525.098 17.6693 527.49 16.8649 527.87C16.0605 528.25 14.4956 527.339 13.2619 527.852C12.0283 528.365 12.1839 530.012 12.056 530.637C11.9281 531.262 9.08963 534.607 7.90802 536.577C6.7264 538.546 7.37559 542.98 7.42156 543.706C7.45834 544.287 7.82544 545.853 8.00439 546.563C7.71748 547.098 6.93395 548.243 6.09515 548.538C5.25635 548.833 4.76768 549.509 4.6282 549.81C4.45519 550.169 4.29579 551.028 5.04233 551.589C5.78887 552.151 6.59992 552.325 6.91213 552.342C6.66858 552.222 6.0695 551.857 5.62165 551.358C5.06183 550.733 5.98804 548.997 6.47326 548.655C6.95849 548.313 8.57416 546.251 8.88204 546.458C9.18992 546.666 9.64437 547.424 9.2437 547.797C8.84304 548.17 6.46546 548.25 7.1415 549.51C7.68233 550.519 10.1834 550.706 11.3663 550.674C12.2965 551.01 15.4563 550.024 15.9875 550.408C16.5187 550.792 17.9926 551.958 19.3377 552.041C20.4138 552.108 20.5172 551.413 20.4343 551.057L20.8333 551.01C22.6396 550.957 22.3141 549.628 21.9256 548.97L22.4841 548.903C23.4112 548.874 26.4066 547.867 26.9508 547.681C27.495 547.494 28.7998 548.598 28.8202 549.449C28.8406 550.3 27.0042 549.828 27.0771 551.12C27.1354 552.153 28.8969 551.906 29.7703 551.653C30.2521 551.961 31.6068 552.125 32.6392 551.962C33.6717 551.798 34.9964 551.031 36.2171 551.089C37.4377 551.147 40.4358 551.521 41.1045 551.36C41.7731 551.199 41.7337 550.188 42.0177 550.195C42.3017 550.202 43.7444 549.746 44.0349 549.467C44.3254 549.189 44.4295 548.363 43.8441 547.864C43.3758 547.465 40.6 545.649 39.2706 544.792C39.3462 544.634 39.7056 543.96 40.5385 542.527C41.5796 540.737 41.433 536.447 40.8758 533.465C40.3185 530.483 40.9521 530.367 41.1038 529.943C41.2556 529.518 40.9225 528.42 40.684 526.416C40.4455 524.413 42.5183 524.491 43.7103 524.309C44.9023 524.126 46.4499 524.551 47.0197 524.24C47.5895 523.928 47.4065 522.731 47.2391 522.344C47.0717 521.958 47.1949 521.293 46.5952 520.673C45.9955 520.054 43.1296 520.11 42.1899 519.694C41.2503 519.278 40.8244 518.759 40.0968 518.765Z" fill="black" stroke="black" stroke-width="0.340922"/>
<path d="M51.0848 499.063C52.1624 498.755 53.535 499.652 54.0866 500.139C55.8415 499.555 57.1782 499.895 57.6272 500.139C57.4219 500.369 56.9575 501.03 56.742 501.83C56.4735 502.826 57.6195 503.669 58.351 504.207L58.3584 504.212C59.0896 504.75 58.3584 505.98 58.3584 506.864C58.3584 507.748 59.0511 509.785 58.5508 510.592C58.0505 511.399 57.6272 512.705 58.3584 513.397C59.0896 514.089 62.5147 512.705 63.3998 511.706C64.285 510.707 66.9404 508.209 68.0949 507.287C69.2495 506.364 69.8652 504.827 70.9428 501.83C72.0203 498.832 74.1755 499.87 75.4455 499.985C76.7154 500.1 76.2536 502.79 77.6391 504.827C79.0245 506.864 80.4869 507.325 81.526 507.287C82.5651 507.248 83.6811 506.749 85.259 504.212C86.8368 501.676 88.2608 499.87 89.3383 499.524C90.4159 499.178 92.0707 499.716 92.6095 501.83C93.1483 503.943 93.764 505.365 94.4568 505.98C95.1495 506.595 97.574 509.247 98.3437 510.284C99.1134 511.322 101.384 513.205 102.423 514.012C103.462 514.819 106.849 518.547 106.887 521.275C106.926 524.004 107.657 526.117 108.003 527.27C108.35 528.423 109.35 529.307 109.889 530.883C110.32 532.143 109.248 533.944 108.658 534.687C108.658 533.265 107.311 533.227 107.311 530.191C107.311 527.762 106.592 526.463 106.233 526.117C106.233 528.333 106.448 533.15 107.311 534.687C108.173 536.224 108.568 538.402 108.658 539.299C107.811 540.259 105.733 546.831 105.81 548.829C105.887 550.828 106.425 551.25 106.233 551.25C106.041 551.25 102.423 552.057 101.038 552.057C99.6521 552.057 99.8831 552.057 100.114 550.712C100.345 549.367 102.462 549.636 103.347 548.407C104.232 547.177 104.655 539.299 104.578 538.338C104.501 537.377 103.655 536.762 103.077 534.687C102.615 533.027 101.756 531.818 101.384 531.421C100.229 532.65 101.538 538.953 101.384 539.299C101.23 539.645 96.8813 546.447 95.3804 547.792C94.1797 548.868 94.0847 550.546 94.1874 551.25C92.5967 551.391 89.2921 551.589 88.7995 551.25C88.1838 550.828 91.2626 548.752 92.3401 548.214C93.4177 547.676 93.764 546.024 95.3804 543.718C96.9967 541.412 97.574 538.492 96.8813 537.531C96.1886 536.57 96.2655 533.035 95.9961 531.882C95.7267 530.729 94.3798 527.27 93.764 527.27C93.1483 527.27 91.9168 528.807 86.6829 530.883C82.4958 532.543 77.9854 531.113 76.2536 530.191C74.8682 530.037 74.2909 530.588 74.1755 530.883C73.7906 534.918 76.4076 536.762 76.2536 538.953C76.0997 541.143 76.6 545.217 76.8694 546.024C77.1388 546.831 76.6 549.29 77.2927 549.636C77.8469 549.913 77.5236 550.828 77.2927 551.25C72.1469 552.361 73.0704 550.407 74.1755 549.29C75.0606 548.945 74.0985 547.369 74.1755 544.602C74.237 542.389 73.3801 541.195 72.944 540.874C72.7387 543.68 72.3282 549.36 72.3282 549.636C72.3282 549.982 73.2134 550.636 73.2903 551.25C73.3673 551.865 71.7125 552.557 69.8652 552.941C68.018 553.326 66.9404 552.749 66.4786 552.057C66.0168 551.366 68.1719 550.52 68.7877 550.251C69.4034 549.982 70.6349 543.295 70.3655 542.488C70.0961 541.681 69.057 540.183 69.3264 539.299C69.5419 538.592 69.7754 536.878 69.8652 536.109C68.7877 534.756 67.9795 530.678 67.7101 528.807L66.9404 528.077C62.6686 527.001 64.4389 524.35 62.5147 524.004C60.5905 523.658 61.2832 526.233 57.6272 526.117C54.7024 526.025 52.0469 523.543 51.0848 522.313C47.2672 519.669 47.8521 511.962 48.6218 508.44C46.8515 508.67 46.1973 507.748 45.62 507.287C45.0428 506.826 44.8119 506.864 43.9267 506.864C43.0416 506.864 42.3489 505.288 41.8101 505.25C41.2713 505.212 41.0019 505.98 40.0398 505.865C39.0777 505.75 40.4631 504.097 39.6934 503.521C38.9238 502.944 41.0019 500.869 41.8101 500.562C42.6183 500.254 46.7746 500.139 47.7367 500.139C48.6988 500.139 49.7379 499.447 51.0848 499.063Z" fill="black" stroke="black" stroke-width="0.340922"/>
<path d="M322.057 595.893C411.18 588.354 363.739 552.156 328.878 535C384.111 546.511 400.911 560.511 400.911 571.089C400.911 583.908 450.675 593.235 480.555 595.893V599.88C457.124 599.009 420.206 598.324 384.111 599.023C345.489 599.772 307.81 602.106 288.603 607.492C251.447 617.912 285.464 633.823 307.116 640.476C295.164 643.085 280.7 645.913 274.962 647C217.667 647 182.822 635.677 172.328 630.327C119.711 603.505 210.653 605.317 322.057 595.893Z" fill="#C9A036"/>
<g opacity="0.6">
<g filter="url(#filter0_f_3668_13175)">
<circle cx="54" cy="159" r="31" fill="#FF3406"/>
</g>
<g filter="url(#filter1_f_3668_13175)">
<circle cx="54" cy="159" r="31" fill="white"/>
</g>
<circle cx="54" cy="159" r="31" fill="#FFB802"/>
</g>
<path d="M329.093 355.608C329.093 355.721 326.941 354.528 326.997 351.118C327.054 347.709 320.993 346.402 320.993 346.402L319.747 346.118L320.143 347.141C320.143 347.141 318.67 346.856 318.217 346.97C317.764 347.084 319.35 348.448 319.35 348.448C319.35 348.448 317.877 348.107 317.707 348.277C317.537 348.448 318.274 349.243 318.444 349.3C318.614 349.357 317.537 349.186 317.367 349.3C317.197 349.414 317.594 350.38 318.104 350.607C318.614 350.834 317.424 350.948 317.311 350.891C317.197 350.834 317.141 351.346 317.537 351.63C317.934 351.914 317.028 351.971 317.651 352.425C318.274 352.88 318.444 353.221 318.784 354.187C319.123 355.153 319.35 357.085 320.086 357.653C320.823 358.221 322.522 359.244 323.259 359.358C323.995 359.472 325.015 359.699 325.071 359.983C325.128 360.267 324.392 361.517 323.655 361.858C322.919 362.199 320.54 364.302 320.143 364.586C319.747 364.87 319.463 365.95 319.916 366.234C320.37 366.518 322.239 365.495 322.239 365.495C322.239 365.495 322.126 366.404 322.352 366.291C322.579 366.177 324.618 364.586 325.298 364.302C325.978 364.018 326.601 365.438 326.771 365.495C326.941 365.552 327.96 365.211 327.96 365.211L328.725 365.58L328.782 367.171C328.782 367.171 329.008 367.91 329.065 365.808L330.311 367.058C330.311 367.058 330.651 366.831 329.631 365.751C329.631 365.751 330.821 365.978 330.878 365.751C330.934 365.524 329.461 365.467 329.348 365.41C329.235 365.353 328.498 364.785 328.498 364.785L328.612 363.023L329.405 364.387L329.66 365.552L329.943 365.609C329.952 365.22 329.962 364.832 329.971 364.444C329.971 364.444 330.991 364.728 331.048 365.126C331.082 365.365 331.158 365.596 331.274 365.808C331.274 365.808 331.727 364.842 331.444 364.614C331.161 364.387 330.255 363.762 330.255 363.762C330.255 363.762 329.745 362.796 329.745 362.057C329.745 361.318 329.745 361.205 330.028 361.091C330.311 360.978 330.708 360.637 330.821 360.523C330.934 360.409 331.841 359.784 332.747 361.603C332.747 361.603 333.54 362.398 333.54 360.75C333.54 359.102 333.257 358.875 333.257 358.875C333.257 358.875 332.577 357.852 332.124 357.738C332.124 357.738 332.18 356.829 332.407 356.716C332.634 356.602 337.449 356.886 337.619 356.716C337.789 356.545 338.128 356.545 338.128 356.545L338.638 357.17C338.638 357.17 338.865 356.659 338.638 356.318C338.412 355.977 339.828 356.545 339.941 356.716C340.054 356.886 340.224 355.863 339.941 355.75C339.658 355.636 340.791 356.261 341.244 356.261L341.98 356.147C341.98 356.147 340.961 354.84 340.621 354.67C340.281 354.499 342.434 355.295 342.717 355.238C343 355.181 341.131 353.761 341.244 353.874C341.357 353.988 343 354.215 343 354.215C343 354.215 341.98 353.306 341.64 353.249C341.301 353.192 342.264 352.056 342.264 352.056C341.283 351.701 338.231 350.738 334.616 351.885C332.461 352.577 330.546 353.868 329.093 355.608Z" fill="black"/>
<rect y="1" width="359" height="639" fill="url(#paint5_linear_3668_13175)"/>
<rect y="1" width="359" height="639" fill="url(#paint6_linear_3668_13175)"/>
<defs>
<filter id="filter0_f_3668_13175" x="-7.43636" y="97.5636" width="122.873" height="122.873" filterUnits="userSpaceOnUse" color-interpolation-filters="sRGB">
<feFlood flood-opacity="0" result="BackgroundImageFix"/>
<feBlend mode="normal" in="SourceGraphic" in2="BackgroundImageFix" result="shape"/>
<feGaussianBlur stdDeviation="15.2182" result="effect1_foregroundBlur_3668_13175"/>
</filter>
<filter id="filter1_f_3668_13175" x="-7.43636" y="97.5636" width="122.873" height="122.873" filterUnits="userSpaceOnUse" color-interpolation-filters="sRGB">
<feFlood flood-opacity="0" result="BackgroundImageFix"/>
<feBlend mode="normal" in="SourceGraphic" in2="BackgroundImageFix" result="shape"/>
<feGaussianBlur stdDeviation="15.2182" result="effect1_foregroundBlur_3668_13175"/>
</filter>
<linearGradient id="paint0_linear_3668_13175" x1="179.5" y1="1" x2="179.5" y2="514.318" gradientUnits="userSpaceOnUse">
<stop stop-color="#222125"/>
<stop offset="1" stop-color="#B28139"/>
</linearGradient>
<linearGradient id="paint1_linear_3668_13175" x1="314.687" y1="376.99" x2="314.687" y2="492.093" gradientUnits="userSpaceOnUse">
<stop stop-color="#A69B3B"/>
<stop offset="1" stop-color="#CF7102"/>
</linearGradient>
<linearGradient id="paint2_linear_3668_13175" x1="239.888" y1="427.41" x2="236.405" y2="492.093" gradientUnits="userSpaceOnUse">
<stop stop-color="#B19D36"/>
<stop offset="1" stop-color="#E4A84F"/>
</linearGradient>
<linearGradient id="paint3_linear_3668_13175" x1="267.834" y1="427.244" x2="267.834" y2="492.258" gradientUnits="userSpaceOnUse">
<stop stop-color="#6E5E0A"/>
<stop offset="1" stop-color="#D19337"/>
</linearGradient>
<linearGradient id="paint4_linear_3668_13175" x1="389.487" y1="376.658" x2="389.487" y2="492.424" gradientUnits="userSpaceOnUse">
<stop stop-color="#3B3605"/>
<stop offset="1" stop-color="#797123"/>
</linearGradient>
<linearGradient id="paint5_linear_3668_13175" x1="179.5" y1="1" x2="180" y2="810.5" gradientUnits="userSpaceOnUse">
<stop stop-opacity="0"/>
<stop offset="0.344791" stop-opacity="0.18"/>
<stop offset="1"/>
</linearGradient>
<linearGradient id="paint6_linear_3668_13175" x1="179.5" y1="1" x2="180" y2="810.5" gradientUnits="userSpaceOnUse">
<stop stop-opacity="0"/>
<stop offset="0.344791" stop-opacity="0.18"/>
<stop offset="1"/>
</linearGradient>
</defs>
</svg>
