<svg width="194" height="54" viewBox="0 0 194 54" fill="none" xmlns="http://www.w3.org/2000/svg">
<path d="M41.0561 10.9583C37.9188 9.49041 34.5642 8.42361 31.057 7.81616C30.6263 8.59489 30.1231 9.64229 29.7761 10.4755C26.048 9.91482 22.354 9.91482 18.6944 10.4755C18.3475 9.64229 17.8329 8.59489 17.3983 7.81616C13.8874 8.42361 10.529 9.49433 7.3916 10.9661C1.06353 20.5286 -0.651903 29.8536 0.205816 39.0462C4.40292 42.1805 8.47042 44.0845 12.4693 45.3304C13.4566 43.9716 14.3372 42.5271 15.0958 41.0047C13.651 40.4557 12.2672 39.7783 10.9597 38.9918C11.3066 38.7348 11.6459 38.4661 11.9737 38.1897C19.9486 41.9197 28.6135 41.9197 36.4931 38.1897C36.8247 38.4661 37.164 38.7348 37.507 38.9918C36.1957 39.7821 34.8081 40.4596 33.3633 41.0086C34.1219 42.5271 34.9987 43.9755 35.9899 45.3343C39.9926 44.0884 44.0638 42.1845 48.261 39.0462C49.2674 28.3897 46.5417 19.1503 41.0561 10.9583ZM16.1823 33.3929C13.7883 33.3929 11.825 31.158 11.825 28.4364C11.825 25.7148 13.7464 23.476 16.1823 23.476C18.6182 23.476 20.5814 25.7109 20.5395 28.4364C20.5433 31.158 18.6182 33.3929 16.1823 33.3929ZM32.2845 33.3929C29.8905 33.3929 27.9273 31.158 27.9273 28.4364C27.9273 25.7148 29.8486 23.476 32.2845 23.476C34.7204 23.476 36.6837 25.7109 36.6417 28.4364C36.6417 31.158 34.7204 33.3929 32.2845 33.3929Z" fill="#5865F2"/>
<path d="M65.1292 17.3872H75.5359C78.0446 17.3872 80.164 17.7882 81.9026 18.5864C83.6367 19.3845 84.9369 20.4981 85.7986 21.9232C86.6596 23.3482 87.0941 24.9796 87.0941 26.8173C87.0941 28.6162 86.6444 30.2475 85.7448 31.7076C84.8452 33.1716 83.4766 34.328 81.6356 35.1807C79.7946 36.0333 77.5144 36.4616 74.7891 36.4616H65.1292V17.3872ZM74.6821 31.6142C76.371 31.6142 77.6712 31.182 78.5781 30.3215C79.4856 29.4571 79.9394 28.2813 79.9394 26.7901C79.9394 25.4078 79.5348 24.306 78.7269 23.4805C77.919 22.6551 76.6952 22.2385 75.0595 22.2385H71.804V31.6142H74.6821Z" fill="#5865F2"/>
<path d="M102.675 36.4384C101.233 36.0568 99.9333 35.5039 98.7786 34.7758V30.2516C99.6516 30.9407 100.822 31.5092 102.289 31.9569C103.757 32.4008 105.175 32.6227 106.547 32.6227C107.188 32.6227 107.672 32.5371 108 32.3657C108.328 32.1944 108.492 31.9881 108.492 31.7506C108.492 31.478 108.404 31.2522 108.225 31.0692C108.045 30.8862 107.699 30.7343 107.184 30.6058L103.982 29.87C102.148 29.4339 100.848 28.8304 100.075 28.0556C99.3008 27.2846 98.9154 26.2723 98.9154 25.0186C98.9154 23.9635 99.2509 23.0485 99.9299 22.2659C100.604 21.4833 101.565 20.8798 102.811 20.4554C104.058 20.0271 105.514 19.813 107.188 19.813C108.682 19.813 110.05 19.9765 111.298 20.3036C112.544 20.6306 113.573 21.0472 114.393 21.5573V25.8363C113.554 25.3262 112.593 24.9252 111.496 24.6215C110.401 24.3217 109.277 24.1737 108.118 24.1737C106.444 24.1737 105.61 24.4657 105.61 25.0459C105.61 25.3185 105.739 25.5209 105.998 25.6572C106.258 25.7934 106.734 25.9336 107.424 26.0816L110.092 26.5722C111.835 26.8798 113.135 27.421 113.988 28.1919C114.843 28.9628 115.269 30.1036 115.269 31.6143C115.269 33.269 114.564 34.5812 113.15 35.5546C111.735 36.5279 109.73 37.0146 107.131 37.0146C105.602 37.0108 104.116 36.8199 102.675 36.4384Z" fill="#5865F2"/>
<path d="M121.567 35.8658C120.039 35.1027 118.884 34.067 118.114 32.7588C117.344 31.4505 116.955 29.9788 116.955 28.3435C116.955 26.7082 117.355 25.2443 118.156 23.9555C118.956 22.6667 120.13 21.6544 121.678 20.9185C123.226 20.1827 125.075 19.8167 127.229 19.8167C129.897 19.8167 132.112 20.389 133.873 21.5337V26.5213C133.252 26.0852 132.527 25.7309 131.7 25.4584C130.873 25.1859 129.989 25.0495 129.043 25.0495C127.389 25.0495 126.097 25.3571 125.162 25.9762C124.228 26.5953 123.76 27.4013 123.76 28.4019C123.76 29.383 124.213 30.1852 125.121 30.8159C126.028 31.4428 127.343 31.7581 129.07 31.7581C129.958 31.7581 130.835 31.6257 131.7 31.3649C132.562 31.1001 133.305 30.777 133.926 30.3954V35.2195C131.971 36.4187 129.703 37.0183 127.122 37.0183C124.949 37.0105 123.096 36.6289 121.567 35.8658Z" fill="#5865F2"/>
<path d="M140.529 35.866C138.989 35.1029 137.815 34.0594 137.007 32.7317C136.199 31.404 135.791 29.9245 135.791 28.2892C135.791 26.654 136.195 25.1938 137.007 23.9129C137.818 22.6319 138.985 21.6274 140.518 20.8993C142.046 20.1712 143.872 19.8091 145.988 19.8091C148.104 19.8091 149.93 20.1712 151.458 20.8993C152.987 21.6274 154.154 22.6241 154.954 23.8973C155.755 25.1705 156.155 26.6306 156.155 28.2854C156.155 29.9206 155.755 31.4002 154.954 32.7278C154.154 34.0555 152.983 35.099 151.443 35.8621C149.903 36.6253 148.085 37.0068 145.984 37.0068C143.884 37.0068 142.065 36.6291 140.529 35.866ZM148.637 31.0303C149.286 30.3684 149.613 29.4923 149.613 28.4022C149.613 27.312 149.289 26.4437 148.637 25.8012C147.99 25.1549 147.105 24.8318 145.984 24.8318C144.844 24.8318 143.952 25.1549 143.3 25.8012C142.653 26.4476 142.328 27.312 142.328 28.4022C142.328 29.4923 142.653 30.3684 143.3 31.0303C143.949 31.6922 144.844 32.027 145.984 32.027C147.105 32.0231 147.99 31.6922 148.637 31.0303Z" fill="#5865F2"/>
<path d="M172.188 20.8213V26.7084C171.51 26.2528 170.633 26.027 169.547 26.027C168.124 26.027 167.027 26.467 166.264 27.3469C165.498 28.2269 165.117 29.5974 165.117 31.4507V36.4656H158.579V20.5216H164.984V25.5909C165.338 23.7376 165.914 22.371 166.707 21.4871C167.496 20.6072 168.517 20.1672 169.76 20.1672C170.701 20.1672 171.51 20.3853 172.188 20.8213Z" fill="#5865F2"/>
<path d="M193.91 16.8423V36.4657H187.371V32.8954C186.819 34.2386 185.98 35.2627 184.852 35.9634C183.723 36.6604 182.328 37.0108 180.674 37.0108C179.195 37.0108 177.907 36.6448 176.804 35.909C175.703 35.1731 174.853 34.1647 174.254 32.8837C173.66 31.6027 173.358 30.1543 173.358 28.5346C173.34 26.8643 173.656 25.3653 174.308 24.0376C174.956 22.7099 175.874 21.6742 177.056 20.9305C178.238 20.1869 179.587 19.8131 181.101 19.8131C184.216 19.8131 186.304 21.1953 187.371 23.9558V16.8423H193.91ZM186.396 30.9214C187.063 30.2594 187.395 29.399 187.395 28.3477C187.395 27.3315 187.07 26.5022 186.423 25.8675C185.774 25.2329 184.886 24.9136 183.769 24.9136C182.668 24.9136 181.787 25.2368 181.127 25.8831C180.468 26.5295 180.14 27.3665 180.14 28.4022C180.14 29.4379 180.468 30.2828 181.127 30.9369C181.787 31.591 182.656 31.9181 183.743 31.9181C184.844 31.9142 185.728 31.5832 186.396 30.9214Z" fill="#5865F2"/>
<path d="M92.6032 22.219C94.403 22.219 95.8627 20.8802 95.8627 19.2287C95.8627 17.5773 94.403 16.2385 92.6032 16.2385C90.8027 16.2385 89.3438 17.5773 89.3438 19.2287C89.3438 20.8802 90.8027 22.219 92.6032 22.219Z" fill="#5865F2"/>
<path d="M89.3411 24.2788C91.3382 25.1587 93.8164 25.1977 95.8593 24.2788V36.5512H89.3411V24.2788Z" fill="#5865F2"/>
</svg>
