<svg width="349" height="117" viewBox="0 0 349 117" fill="none" xmlns="http://www.w3.org/2000/svg">
<path d="M3.96041 60.2801C5.20841 60.2801 6.26441 59.8481 7.12841 58.9841C8.04041 58.0721 8.52041 56.9921 8.56841 55.7441V15.6401C8.42441 13.9601 7.63241 12.7121 6.19241 11.8961C5.47241 11.5121 4.72841 11.3201 3.96041 11.3201H3.02441V10.6001H23.2564C25.3684 10.6001 27.2164 10.4321 28.8004 10.0961C30.3844 9.76006 31.4164 9.49606 31.8964 9.30406V21.9041H31.1044V21.0401C31.1524 18.8801 30.5284 17.1521 29.2324 15.8561C27.9844 14.5121 26.2804 13.7921 24.1204 13.6961H19.3684V34.6481H30.8164C32.5924 34.6001 34.0564 34.0001 35.2084 32.8481C36.3604 31.6481 36.9364 30.1841 36.9364 28.4561V27.8081H37.5844V44.4401H36.9364V43.8641C36.9364 42.0881 36.3604 40.6241 35.2084 39.4721C34.0564 38.3201 32.6164 37.7201 30.8884 37.6721H19.3684V57.9041H33.4084C36.9124 57.9041 39.8404 56.8961 42.1924 54.8801C44.5924 52.8641 46.3684 50.0081 47.5204 46.3121H48.2404L44.8564 61.0001H3.02441V60.2801H3.96041Z" fill="url(#paint0_linear_2373_5173)"/>
<path d="M116.282 68.4881C117.098 68.9681 118.01 69.4001 119.018 69.7841C120.026 70.2161 120.986 70.5041 121.898 70.6481C122.858 70.8401 123.89 70.9361 124.994 70.9361C126.146 70.9361 127.322 70.7921 128.522 70.5041L128.81 71.2241C126.122 72.5201 123.41 73.1681 120.674 73.1681C114.386 73.1681 107.978 69.6881 101.45 62.7281L67.3215 26.5121V55.9601C67.3215 57.1601 67.7535 58.1921 68.6175 59.0561C69.4815 59.8721 70.5135 60.2801 71.7135 60.2801H73.0815V61.0001H51.2655V60.2801H52.5615C53.8095 60.2801 54.8655 59.8721 55.7295 59.0561C56.5935 58.1921 57.0255 57.1361 57.0255 55.8881V15.4961C54.6735 12.8081 52.8975 10.9361 51.6975 9.88006C50.4975 8.77606 49.4415 7.86406 48.5295 7.14406C47.5695 6.42407 46.6575 5.82406 45.7935 5.34406C43.7775 4.19206 42.1695 3.52006 40.9695 3.32806C39.7215 3.13606 38.5695 3.04006 37.5135 3.04006C36.4095 3.04006 35.2335 3.25606 33.9855 3.68806L33.6975 2.96806C36.3375 1.43206 39.0495 0.664062 41.8335 0.664062C47.8815 0.664062 54.2895 4.26406 61.0575 11.4641L93.2415 45.6641V15.7121C93.1935 14.4641 92.7375 13.4321 91.8735 12.6161C91.0095 11.7521 89.9775 11.3201 88.7775 11.3201H87.4815V10.6001H109.298V11.3201H107.93C106.73 11.3201 105.698 11.7521 104.834 12.6161C103.97 13.4321 103.514 14.4401 103.466 15.6401V56.6081L104.618 57.7601C104.906 58.0481 105.338 58.5521 105.914 59.2721C106.538 59.9441 107.09 60.5201 107.57 61.0001C108.05 61.5281 108.65 62.1761 109.37 62.9441C110.138 63.7121 110.834 64.3841 111.458 64.9601C112.13 65.5361 112.898 66.1601 113.762 66.8321C114.674 67.5041 115.514 68.0561 116.282 68.4881Z" fill="url(#paint1_linear_2373_5173)"/>
<path d="M141.498 60.2801H142.434V61.0001H120.546V60.2801H121.482C122.73 60.2801 123.786 59.8481 124.65 58.9841C125.562 58.0721 126.042 56.9921 126.09 55.7441V13.5521L119.25 13.8401C114.738 14.0321 112.482 15.7121 112.482 18.8801C112.482 20.1761 112.914 21.2801 113.778 22.1921C114.69 23.0561 115.938 23.4881 117.522 23.4881C117.666 23.4881 117.81 23.4881 117.954 23.4881V23.9201C116.994 24.2561 116.178 24.4241 115.506 24.4241C113.346 24.4241 111.69 23.6561 110.538 22.1201C109.722 21.0641 109.314 19.8641 109.314 18.5201C109.314 16.4081 110.154 14.6801 111.834 13.3361C113.466 11.9441 116.01 11.1281 119.466 10.8881C120.09 10.8401 122.106 10.7441 125.514 10.6001C133.29 10.3121 138.93 9.83206 142.434 9.16006L142.578 9.88006C140.514 10.2161 139.05 10.9121 138.186 11.9681C137.37 13.0241 136.938 14.5841 136.89 16.6481V55.7441C136.938 56.9921 137.394 58.0721 138.258 58.9841C139.17 59.8481 140.25 60.2801 141.498 60.2801Z" fill="url(#paint2_linear_2373_5173)"/>
<path d="M213.68 75.2561C212.48 75.2561 211.304 75.1601 210.152 74.9681C205.496 74.2481 201.536 72.4721 198.272 69.6401C195.008 66.8561 192.656 63.3761 191.216 59.2001C186.704 61.0721 181.832 62.0081 176.6 62.0081C167.96 62.0081 160.88 59.5601 155.36 54.6641C149.84 49.7681 147.08 43.4801 147.08 35.8001C147.08 30.6641 148.328 26.1041 150.824 22.1201C153.368 18.1361 156.92 15.0641 161.48 12.9041C166.04 10.6961 171.248 9.59206 177.104 9.59206C180.944 9.59206 184.664 9.97606 188.264 10.7441C191.864 11.4641 194.768 12.3761 196.976 13.4801L197.12 25.8641H196.544C195.392 21.4961 193.16 18.2081 189.848 16.0001C186.584 13.7441 182.648 12.6161 178.04 12.6161C172.376 12.6161 167.744 14.8001 164.144 19.1681C160.592 23.4881 158.816 29.0801 158.816 35.9441C158.816 42.7601 160.568 48.3041 164.072 52.5761C167.576 56.8481 172.088 58.9841 177.608 58.9841C180.584 58.9841 183.152 58.3361 185.312 57.0401C187.52 55.7441 189.008 54.0161 189.776 51.8561V40.9121C189.776 39.8561 189.464 39.0401 188.84 38.4641C188.216 37.8881 187.328 37.6001 186.176 37.6001H185.024V36.8801H205.256V37.6001H204.176C202.976 37.6001 202.064 37.8881 201.44 38.4641C200.816 39.0401 200.528 39.8321 200.576 40.8401V52.2881C200.624 55.4561 201.224 58.4081 202.376 61.1441C204.92 67.0001 209.144 70.6481 215.048 72.0881C216.632 72.4721 218.264 72.6641 219.944 72.6641C221.672 72.6641 223.424 72.4721 225.2 72.0881L225.344 72.8081C221.216 74.4401 217.328 75.2561 213.68 75.2561Z" fill="url(#paint3_linear_2373_5173)"/>
<path d="M201.104 5.84806C203.84 4.69606 206.216 4.12007 208.232 4.12007C210.248 4.12007 212.024 4.31206 213.56 4.69606C215.096 5.08006 216.656 5.72806 218.24 6.64006C219.872 7.50406 221.384 8.58406 222.776 9.88006C225.464 12.4241 227.744 15.3041 229.616 18.5201L244.016 45.5201L264.896 9.59206H265.544L273.032 51.9281C274.184 58.4561 276.176 63.6401 279.008 67.4801C281.84 71.3681 285.728 73.3121 290.672 73.3121C291.008 73.3121 291.32 73.3121 291.608 73.3121V74.0321C288.968 74.7521 286.376 75.1121 283.832 75.1121C278.648 75.1121 273.92 73.0721 269.648 68.9921C265.52 65.1041 262.712 59.4161 261.224 51.9281L257.696 30.9761L244.16 54.4481C242.336 57.4721 241.4 60.1361 241.352 62.4401H240.704L222.776 28.4561L219.248 57.2561C219.104 58.3601 219.584 59.2481 220.688 59.9201C221.12 60.2081 221.576 60.3521 222.056 60.3521H223.208V61.0001H208.16V60.2801H209.312C210.56 60.2801 211.664 59.9201 212.624 59.2001C213.632 58.4321 214.256 57.4001 214.496 56.1041L219.392 21.7601C217.232 17.9201 214.76 14.5121 211.976 11.5361C208.856 8.17606 205.592 6.49606 202.184 6.49606C201.848 6.49606 201.536 6.52006 201.248 6.56806L201.104 5.84806Z" fill="url(#paint4_linear_2373_5173)"/>
<path d="M348.327 74.1761C343.095 76.8161 337.791 77.2481 332.415 75.4721C326.703 73.6481 321.783 69.7601 317.655 63.8081C315.447 60.6401 313.551 56.9681 311.967 52.7921L309.663 46.6721H292.671L288.855 55.7441C288.615 56.3681 288.495 56.8721 288.495 57.2561C288.495 57.6401 288.567 58.0721 288.711 58.5521C288.903 58.9841 289.263 59.3921 289.791 59.7761C290.367 60.1121 290.991 60.2801 291.663 60.2801H292.239V61.0001H276.831V60.2801H277.479C278.583 60.2801 279.663 59.9681 280.719 59.3441C281.823 58.6721 282.735 57.6881 283.455 56.3921L299.511 19.7441C297.639 15.5201 295.647 12.6161 293.535 11.0321C291.759 9.68806 290.055 9.01606 288.423 9.01606C286.839 9.01606 285.351 9.25606 283.959 9.73607L283.815 9.01606C287.271 7.24006 290.583 6.35206 293.751 6.35206C297.687 6.35206 301.215 7.88806 304.335 10.9601C307.407 13.9841 310.119 18.3521 312.471 24.0641L322.911 49.8401C326.847 59.5841 330.879 66.2801 335.007 69.9281C336.687 71.4161 338.415 72.4481 340.191 73.0241C341.967 73.6001 343.455 73.8881 344.655 73.8881C345.903 73.8881 347.103 73.7441 348.255 73.4561L348.327 74.1761ZM293.895 43.5761H308.583L303.543 30.2561C303.303 29.5841 302.967 28.6721 302.535 27.5201C302.103 26.3201 301.815 25.4801 301.671 25.0001L293.895 43.5761Z" fill="url(#paint5_linear_2373_5173)"/>
<path d="M24.1836 115.392C22.4396 116.272 20.6716 116.416 18.8796 115.824C16.9756 115.216 15.3356 113.92 13.9596 111.936C13.2236 110.88 12.5916 109.656 12.0636 108.264L11.2956 106.224H5.63156L4.35956 109.248C4.27956 109.456 4.23956 109.624 4.23956 109.752C4.23956 109.88 4.26356 110.024 4.31156 110.184C4.37556 110.328 4.49556 110.464 4.67156 110.592C4.86356 110.704 5.07156 110.76 5.29556 110.76H5.48756V111H0.351562V110.76H0.567562C0.935562 110.76 1.29556 110.656 1.64756 110.448C2.01556 110.224 2.31956 109.896 2.55956 109.464L7.91156 97.2478C7.28756 95.8398 6.62356 94.8718 5.91956 94.3438C5.32756 93.8958 4.75956 93.6718 4.21556 93.6718C3.68756 93.6718 3.19156 93.7518 2.72756 93.9118L2.67956 93.6718C3.83156 93.0798 4.93556 92.7838 5.99156 92.7838C7.30356 92.7838 8.47956 93.2958 9.51956 94.3198C10.5436 95.3278 11.4476 96.7838 12.2316 98.6878L15.7116 107.28C17.0236 110.528 18.3676 112.76 19.7436 113.976C20.3036 114.472 20.8796 114.816 21.4716 115.008C22.0636 115.2 22.5596 115.296 22.9596 115.296C23.3756 115.296 23.7756 115.248 24.1596 115.152L24.1836 115.392ZM6.03956 105.192H10.9356L9.25556 100.752C9.17556 100.528 9.06356 100.224 8.91956 99.8398C8.77556 99.4398 8.67956 99.1598 8.63156 98.9998L6.03956 105.192Z" fill="url(#paint6_linear_2373_5173)"/>
<path d="M37.5294 94.4398C37.1294 94.4398 36.7854 94.5838 36.4974 94.8718C36.2094 95.1438 36.0574 95.4798 36.0414 95.8798V108.264C36.0414 109.336 36.1134 110.24 36.2574 110.976L36.3294 111.336H36.1134L23.9934 99.7918V109.32C23.9934 109.72 24.1374 110.064 24.4254 110.352C24.7134 110.624 25.0574 110.76 25.4574 110.76H25.9134V111H18.6414V110.76H19.0734C19.4894 110.76 19.8414 110.624 20.1294 110.352C20.4174 110.064 20.5614 109.712 20.5614 109.296V96.8398C20.5614 95.7838 20.4894 94.9038 20.3454 94.1998L20.2974 93.8398H20.5134L32.6334 105.384V95.9038C32.6174 95.4878 32.4654 95.1438 32.1774 94.8718C31.8894 94.5838 31.5454 94.4398 31.1454 94.4398H30.7134V94.1998H37.9854V94.4398H37.5294Z" fill="url(#paint7_linear_2373_5173)"/>
<path d="M52.6551 100.272C52.3671 99.6638 52.2231 99.0878 52.2231 98.5438C52.2231 97.9838 52.2951 97.4718 52.4391 97.0078C52.5831 96.5278 52.8231 96.0638 53.1591 95.6158C53.4951 95.1518 53.9671 94.7678 54.5751 94.4638C55.4071 94.0318 56.4071 93.8158 57.5751 93.8158C59.1111 93.8158 60.5671 94.2078 61.9431 94.9918C63.7511 96.0158 65.0071 97.4318 65.7111 99.2398C66.1111 100.232 66.3111 101.296 66.3111 102.432C66.3111 105.104 65.3431 107.256 63.4071 108.888C61.4871 110.52 58.9751 111.336 55.8711 111.336C52.7831 111.336 50.2631 110.52 48.3111 108.888C46.3751 107.256 45.4071 105.112 45.4071 102.456C45.4071 100.472 45.9671 98.7518 47.0871 97.2958C48.2231 95.8238 49.7511 94.8238 51.6711 94.2958L51.8151 94.5118C50.9991 95.1998 50.3831 96.2078 49.9671 97.5358C49.5511 98.8638 49.3431 100.296 49.3431 101.832C49.3431 104.424 49.9431 106.488 51.1431 108.024C52.3431 109.56 53.9111 110.328 55.8471 110.328C57.7991 110.328 59.3671 109.608 60.5511 108.168C61.7511 106.712 62.3511 104.792 62.3511 102.408C62.3511 100.968 62.1271 99.6718 61.6791 98.5198C61.2471 97.3518 60.6151 96.4558 59.7831 95.8318C58.9511 95.1918 58.0231 94.8718 56.9991 94.8718C55.8631 94.8718 54.9431 95.1678 54.2391 95.7598C53.2471 96.6078 52.7511 97.6878 52.7511 98.9998C52.7511 99.4158 52.8071 99.8398 52.9191 100.272H52.6551Z" fill="url(#paint8_linear_2373_5173)"/>
<path d="M86.3498 94.4398C85.9498 94.4398 85.6058 94.5838 85.3177 94.8718C85.0297 95.1438 84.8777 95.4798 84.8617 95.8798V108.264C84.8617 109.336 84.9338 110.24 85.0778 110.976L85.1497 111.336H84.9338L72.8138 99.7918V109.32C72.8138 109.72 72.9577 110.064 73.2458 110.352C73.5338 110.624 73.8777 110.76 74.2777 110.76H74.7337V111H67.4618V110.76H67.8938C68.3098 110.76 68.6618 110.624 68.9498 110.352C69.2378 110.064 69.3818 109.712 69.3818 109.296V96.8398C69.3818 95.7838 69.3097 94.9038 69.1657 94.1998L69.1178 93.8398H69.3337L81.4538 105.384V95.9038C81.4378 95.4878 81.2858 95.1438 80.9977 94.8718C80.7097 94.5838 80.3658 94.4398 79.9658 94.4398H79.5338V94.1998H86.8057V94.4398H86.3498Z" fill="url(#paint9_linear_2373_5173)"/>
<path d="M88.4524 110.76C88.8684 110.76 89.2204 110.616 89.5084 110.328C89.8124 110.024 89.9724 109.664 89.9884 109.248V95.9518C89.9724 95.5358 89.8124 95.1838 89.5084 94.8958C89.2204 94.5918 88.8684 94.4398 88.4524 94.4398H88.1404V94.1998H95.4364L95.4124 94.4398H95.1244C94.7084 94.4398 94.3484 94.5918 94.0444 94.8958C93.7404 95.1838 93.5884 95.5358 93.5884 95.9518V109.968H96.7324C97.9004 109.968 98.8764 109.632 99.6604 108.96C100.46 108.288 101.052 107.336 101.436 106.104H101.676L100.572 111H88.1404V110.76H88.4524Z" fill="url(#paint10_linear_2373_5173)"/>
<path d="M103.101 110.76C103.517 110.76 103.869 110.616 104.157 110.328C104.461 110.024 104.621 109.664 104.637 109.248V95.9278C104.621 95.5118 104.461 95.1598 104.157 94.8718C103.869 94.5838 103.517 94.4398 103.101 94.4398H102.789V94.1998H110.085L110.061 94.4398H109.773C109.357 94.4398 108.997 94.5838 108.693 94.8718C108.389 95.1598 108.237 95.5118 108.237 95.9278V109.248C108.237 109.664 108.389 110.024 108.693 110.328C108.997 110.616 109.357 110.76 109.773 110.76H110.061L110.085 111H102.789V110.76H103.101Z" fill="url(#paint11_linear_2373_5173)"/>
<path d="M130.647 94.4398C130.247 94.4398 129.903 94.5838 129.615 94.8718C129.327 95.1438 129.175 95.4798 129.159 95.8798V108.264C129.159 109.336 129.231 110.24 129.375 110.976L129.447 111.336H129.231L117.111 99.7918V109.32C117.111 109.72 117.255 110.064 117.543 110.352C117.831 110.624 118.175 110.76 118.575 110.76H119.031V111H111.759V110.76H112.191C112.607 110.76 112.959 110.624 113.247 110.352C113.535 110.064 113.679 109.712 113.679 109.296V96.8398C113.679 95.7838 113.607 94.9038 113.463 94.1998L113.415 93.8398H113.631L125.751 105.384V95.9038C125.735 95.4878 125.583 95.1438 125.295 94.8718C125.007 94.5838 124.663 94.4398 124.263 94.4398H123.831V94.1998H131.103V94.4398H130.647Z" fill="url(#paint12_linear_2373_5173)"/>
<path d="M132.749 110.76C133.165 110.76 133.517 110.616 133.805 110.328C134.109 110.024 134.269 109.664 134.285 109.248V95.8798C134.237 95.3198 133.973 94.9038 133.493 94.6318C133.253 94.5038 133.005 94.4398 132.749 94.4398H132.437V94.1998H141.629C142.125 94.1998 142.669 94.1518 143.261 94.0558C143.853 93.9598 144.269 93.8638 144.509 93.7678V97.9678H144.269V97.6798C144.269 96.9598 144.053 96.3838 143.621 95.9518C143.205 95.5038 142.637 95.2638 141.917 95.2318H137.885V102.216H141.053C141.645 102.2 142.133 102 142.517 101.616C142.901 101.216 143.093 100.728 143.093 100.152V99.9358H143.333V105.48H143.093V105.288C143.093 104.488 142.773 103.896 142.133 103.512C141.813 103.336 141.461 103.24 141.077 103.224H137.885V109.968H141.029C142.197 109.968 143.173 109.632 143.957 108.96C144.757 108.288 145.349 107.336 145.733 106.104H145.973L144.869 111H132.437V110.76H132.749Z" fill="url(#paint13_linear_2373_5173)"/>
<path d="M171.962 101.616C172.01 102.096 172.034 102.704 172.034 103.44C172.034 104.16 171.89 105.048 171.602 106.104C171.314 107.144 170.794 108.064 170.042 108.864C168.506 110.512 166.394 111.336 163.706 111.336C160.442 111.336 157.866 110.536 155.978 108.936C154.09 107.32 153.146 105.216 153.146 102.624C153.146 100.016 154.098 97.9038 156.002 96.2878C157.922 94.6718 160.45 93.8638 163.586 93.8638C164.786 93.8638 165.93 93.9838 167.018 94.2238C168.106 94.4638 169.01 94.7758 169.73 95.1598L169.778 99.2878H169.586C169.314 98.2638 168.858 97.4078 168.218 96.7198C167.066 95.4878 165.514 94.8718 163.562 94.8718C161.61 94.8718 160.034 95.5678 158.834 96.9598C157.65 98.3518 157.058 100.2 157.058 102.504C157.058 104.792 157.674 106.656 158.906 108.096C160.154 109.536 161.866 110.28 164.042 110.328C166.394 110.328 168.266 109.576 169.658 108.072C171.05 106.568 171.746 104.528 171.746 101.952C171.746 101.84 171.746 101.728 171.746 101.616H171.962Z" fill="url(#paint14_linear_2373_5173)"/>
<path d="M179.889 95.2558H178.857C178.825 95.2558 178.801 95.2558 178.785 95.2558V109.248C178.801 109.84 179.057 110.28 179.553 110.568C179.793 110.696 180.049 110.76 180.321 110.76H180.633V111H173.337V110.76H173.649C174.225 110.76 174.665 110.512 174.969 110.016C175.097 109.792 175.169 109.544 175.185 109.272V95.9518C175.169 95.5358 175.009 95.1838 174.705 94.8958C174.417 94.5918 174.065 94.4398 173.649 94.4398H173.337V94.1998H181.569C183.121 94.1998 184.433 94.5358 185.505 95.2078C186.049 95.5438 186.481 96.0158 186.801 96.6238C187.121 97.2158 187.281 97.8958 187.281 98.6638C187.281 99.4158 187.145 100.112 186.873 100.752C186.617 101.392 186.177 101.952 185.553 102.432C184.945 102.912 184.209 103.2 183.345 103.296C184.273 103.6 185.089 104.304 185.793 105.408C187.521 108.176 188.801 109.824 189.633 110.352C190.049 110.608 190.569 110.744 191.193 110.76V111H188.841C187.481 111 186.345 110.816 185.433 110.448C184.521 110.064 183.777 109.416 183.201 108.504C182.913 108.04 182.545 107.344 182.097 106.416C181.649 105.472 181.353 104.8 181.209 104.4C180.777 103.44 180.233 102.904 179.577 102.792V102.552H180.321C181.041 102.552 181.673 102.336 182.217 101.904C182.777 101.472 183.153 100.768 183.345 99.7918C183.409 99.4558 183.441 99.1918 183.441 98.9998C183.441 97.6878 183.177 96.7438 182.649 96.1678C182.121 95.5758 181.441 95.2718 180.609 95.2558C180.449 95.2558 180.209 95.2558 179.889 95.2558Z" fill="url(#paint15_linear_2373_5173)"/>
<path d="M206.632 94.4398H206.296C205.816 94.4398 205.36 94.5758 204.928 94.8478C204.496 95.1198 204.152 95.4478 203.896 95.8318L199.168 103.368V109.248C199.168 109.664 199.32 110.024 199.624 110.328C199.928 110.616 200.288 110.76 200.704 110.76H200.992L201.016 111H193.72V110.76H194.032C194.448 110.76 194.8 110.616 195.088 110.328C195.392 110.04 195.552 109.688 195.568 109.272V103.344L190.984 95.8078C190.744 95.4238 190.4 95.1038 189.952 94.8478C189.52 94.5758 189.072 94.4398 188.608 94.4398H188.272V94.1998H196.216V94.4398H195.904C195.552 94.4398 195.28 94.5998 195.088 94.9198C194.992 95.0958 194.944 95.2718 194.944 95.4478C194.944 95.6078 194.984 95.7678 195.064 95.9278L198.496 102.168L202.048 95.9278C202.144 95.7678 202.192 95.6078 202.192 95.4478C202.192 95.2718 202.136 95.1038 202.024 94.9438C201.832 94.6078 201.56 94.4398 201.208 94.4398H200.92V94.1998H206.632V94.4398Z" fill="url(#paint16_linear_2373_5173)"/>
<path d="M220.459 101.088C219.915 102.336 218.907 103.2 217.435 103.68C217.003 103.824 216.603 103.896 216.235 103.896C215.099 103.896 214.083 103.6 213.187 103.008V102.768C214.387 102.8 215.355 102.408 216.091 101.592C216.747 100.888 217.075 99.9678 217.075 98.8318C217.075 97.0878 216.467 95.9598 215.251 95.4478C214.867 95.2878 214.443 95.2078 213.979 95.2078H212.371V109.248C212.371 109.664 212.523 110.024 212.827 110.328C213.131 110.616 213.491 110.76 213.907 110.76H214.219V111H206.923V110.76H207.235C207.651 110.76 208.003 110.616 208.291 110.328C208.595 110.024 208.755 109.664 208.771 109.248V95.8318C208.707 95.2878 208.435 94.8878 207.955 94.6318C207.731 94.5038 207.491 94.4398 207.235 94.4398H206.923V94.1998H214.939C217.835 94.1998 219.691 95.1198 220.507 96.9598C220.763 97.5678 220.891 98.2478 220.891 98.9998C220.891 99.7358 220.747 100.432 220.459 101.088Z" fill="url(#paint17_linear_2373_5173)"/>
<path d="M231.667 95.1838V109.272C231.683 109.688 231.835 110.04 232.123 110.328C232.427 110.616 232.787 110.76 233.203 110.76H233.491L233.515 111H226.219V110.76H226.531C226.931 110.76 227.275 110.616 227.563 110.328C227.867 110.04 228.035 109.696 228.067 109.296V95.1838H224.827C224.091 95.1998 223.507 95.4318 223.075 95.8798C222.643 96.3278 222.427 96.9118 222.427 97.6318V97.9198H222.187V93.7438C222.411 93.8398 222.811 93.9358 223.387 94.0318C223.979 94.1278 224.523 94.1758 225.019 94.1758H234.691C235.475 94.1598 236.115 94.0958 236.611 93.9838C237.107 93.8718 237.411 93.7918 237.523 93.7438V97.9198H237.283V97.6318C237.283 96.9118 237.067 96.3278 236.635 95.8798C236.203 95.4318 235.619 95.1998 234.883 95.1838H231.667Z" fill="url(#paint18_linear_2373_5173)"/>
<path d="M239.156 110.76C239.572 110.76 239.924 110.616 240.212 110.328C240.516 110.024 240.675 109.664 240.691 109.248V95.9278C240.675 95.5118 240.516 95.1598 240.212 94.8718C239.924 94.5838 239.572 94.4398 239.156 94.4398H238.844V94.1998H246.139L246.115 94.4398H245.827C245.411 94.4398 245.051 94.5838 244.747 94.8718C244.443 95.1598 244.292 95.5118 244.292 95.9278V109.248C244.292 109.664 244.443 110.024 244.747 110.328C245.051 110.616 245.411 110.76 245.827 110.76H246.115L246.139 111H238.844V110.76H239.156Z" fill="url(#paint19_linear_2373_5173)"/>
<path d="M257.546 111.312C254.458 111.312 252.034 110.536 250.274 108.984C248.514 107.432 247.634 105.304 247.634 102.6C247.634 99.8958 248.506 97.7678 250.25 96.2158C251.994 94.6478 254.386 93.8638 257.426 93.8638C259.746 93.8638 261.738 94.2958 263.402 95.1598L263.45 99.2878H263.258C262.442 96.3438 260.578 94.8718 257.666 94.8718C255.778 94.8718 254.282 95.5598 253.178 96.9358C252.09 98.2958 251.546 100.16 251.546 102.528C251.546 104.896 252.066 106.776 253.106 108.168C254.162 109.56 255.586 110.28 257.378 110.328C259.234 110.328 260.65 109.864 261.626 108.936C262.618 107.976 263.306 106.328 263.69 103.992H263.882L264.122 108.12C262.826 110.264 260.634 111.328 257.546 111.312Z" fill="url(#paint20_linear_2373_5173)"/>
<path d="M283.833 110.76C284.249 110.76 284.609 110.616 284.913 110.328C285.217 110.04 285.377 109.688 285.393 109.272V103.152H277.833V109.32C277.833 111.24 277.345 112.768 276.369 113.904C275.601 114.8 274.497 115.248 273.057 115.248C272.593 115.248 272.089 115.192 271.545 115.08L271.497 114.84C272.681 114.344 273.441 113.608 273.777 112.632C274.081 111.8 274.233 110.696 274.233 109.32V95.9278C274.217 95.5118 274.057 95.1598 273.753 94.8718C273.465 94.5838 273.113 94.4398 272.697 94.4398H272.385V94.1998H279.681V94.4398H279.369C278.793 94.4398 278.361 94.6798 278.073 95.1598C277.929 95.3838 277.849 95.6398 277.833 95.9278V102.12H285.393V96.3598C285.393 94.4878 285.977 92.9998 287.145 91.8958C288.073 90.9838 289.241 90.5278 290.649 90.5278C290.969 90.5278 291.305 90.5518 291.657 90.5998L291.705 90.8398C290.537 91.2558 289.777 91.9918 289.425 93.0478C289.137 93.9118 288.985 95.0158 288.969 96.3598V109.248C288.985 109.824 289.241 110.256 289.737 110.544C289.977 110.688 290.241 110.76 290.529 110.76H290.817V111H283.545V110.76H283.833Z" fill="url(#paint21_linear_2373_5173)"/>
<path d="M310.913 94.4398H310.505C310.169 94.4398 309.873 94.5518 309.617 94.7758C309.377 94.9838 309.257 95.2478 309.257 95.5678V104.928C309.257 106.896 308.641 108.456 307.409 109.608C306.177 110.76 304.489 111.336 302.345 111.336C299.817 111.336 297.881 110.776 296.537 109.656C295.193 108.52 294.521 106.952 294.521 104.952V95.6398C294.521 95.2878 294.393 94.9998 294.137 94.7758C293.897 94.5518 293.601 94.4398 293.249 94.4398H292.865V94.1998H299.777V94.4398H299.393C299.041 94.4398 298.745 94.5518 298.505 94.7758C298.265 94.9838 298.137 95.2558 298.121 95.5918V104.76C298.121 106.456 298.537 107.8 299.369 108.792C300.201 109.784 301.345 110.28 302.801 110.28C304.257 110.28 305.409 109.816 306.257 108.888C307.105 107.944 307.537 106.672 307.553 105.072V95.5918C307.553 95.2558 307.425 94.9838 307.169 94.7758C306.929 94.5518 306.633 94.4398 306.281 94.4398H305.897V94.1998H310.913V94.4398Z" fill="url(#paint22_linear_2373_5173)"/>
<path d="M331.272 94.4398C330.872 94.4398 330.528 94.5838 330.24 94.8718C329.952 95.1438 329.8 95.4798 329.784 95.8798V108.264C329.784 109.336 329.856 110.24 330 110.976L330.072 111.336H329.856L317.736 99.7918V109.32C317.736 109.72 317.88 110.064 318.168 110.352C318.456 110.624 318.8 110.76 319.2 110.76H319.656V111H312.384V110.76H312.816C313.232 110.76 313.584 110.624 313.872 110.352C314.16 110.064 314.304 109.712 314.304 109.296V96.8398C314.304 95.7838 314.232 94.9038 314.088 94.1998L314.04 93.8398H314.256L326.376 105.384V95.9038C326.36 95.4878 326.208 95.1438 325.92 94.8718C325.632 94.5838 325.288 94.4398 324.888 94.4398H324.456V94.1998H331.728V94.4398H331.272Z" fill="url(#paint23_linear_2373_5173)"/>
<path d="M342.245 95.1838V109.272C342.261 109.688 342.413 110.04 342.701 110.328C343.005 110.616 343.365 110.76 343.781 110.76H344.069L344.093 111H336.797V110.76H337.109C337.509 110.76 337.853 110.616 338.141 110.328C338.445 110.04 338.613 109.696 338.645 109.296V95.1838H335.405C334.669 95.1998 334.085 95.4318 333.653 95.8798C333.221 96.3278 333.005 96.9118 333.005 97.6318V97.9198H332.765V93.7438C332.989 93.8398 333.389 93.9358 333.965 94.0318C334.557 94.1278 335.101 94.1758 335.597 94.1758H345.269C346.053 94.1598 346.693 94.0958 347.189 93.9838C347.685 93.8718 347.989 93.7918 348.101 93.7438V97.9198H347.861V97.6318C347.861 96.9118 347.645 96.3278 347.213 95.8798C346.781 95.4318 346.197 95.1998 345.461 95.1838H342.245Z" fill="url(#paint24_linear_2373_5173)"/>
<defs>
<linearGradient id="paint0_linear_2373_5173" x1="170.603" y1="-8.6225" x2="170.603" y2="88.3004" gradientUnits="userSpaceOnUse">
<stop offset="0.234375" stop-color="#FFD37C"/>
<stop offset="0.607292" stop-color="#D08123"/>
</linearGradient>
<linearGradient id="paint1_linear_2373_5173" x1="170.603" y1="-8.6225" x2="170.603" y2="88.3004" gradientUnits="userSpaceOnUse">
<stop offset="0.234375" stop-color="#FFD37C"/>
<stop offset="0.607292" stop-color="#D08123"/>
</linearGradient>
<linearGradient id="paint2_linear_2373_5173" x1="170.603" y1="-8.6225" x2="170.603" y2="88.3004" gradientUnits="userSpaceOnUse">
<stop offset="0.234375" stop-color="#FFD37C"/>
<stop offset="0.607292" stop-color="#D08123"/>
</linearGradient>
<linearGradient id="paint3_linear_2373_5173" x1="170.603" y1="-8.6225" x2="170.603" y2="88.3004" gradientUnits="userSpaceOnUse">
<stop offset="0.234375" stop-color="#FFD37C"/>
<stop offset="0.607292" stop-color="#D08123"/>
</linearGradient>
<linearGradient id="paint4_linear_2373_5173" x1="170.603" y1="-8.6225" x2="170.603" y2="88.3004" gradientUnits="userSpaceOnUse">
<stop offset="0.234375" stop-color="#FFD37C"/>
<stop offset="0.607292" stop-color="#D08123"/>
</linearGradient>
<linearGradient id="paint5_linear_2373_5173" x1="170.603" y1="-8.6225" x2="170.603" y2="88.3004" gradientUnits="userSpaceOnUse">
<stop offset="0.234375" stop-color="#FFD37C"/>
<stop offset="0.607292" stop-color="#D08123"/>
</linearGradient>
<linearGradient id="paint6_linear_2373_5173" x1="174.226" y1="98.9295" x2="174.226" y2="116.181" gradientUnits="userSpaceOnUse">
<stop stop-color="#0FA3B1"/>
<stop offset="1" stop-color="#037EC4" stop-opacity="0.97"/>
</linearGradient>
<linearGradient id="paint7_linear_2373_5173" x1="174.226" y1="98.9295" x2="174.226" y2="116.181" gradientUnits="userSpaceOnUse">
<stop stop-color="#0FA3B1"/>
<stop offset="1" stop-color="#037EC4" stop-opacity="0.97"/>
</linearGradient>
<linearGradient id="paint8_linear_2373_5173" x1="174.226" y1="98.9295" x2="174.226" y2="116.181" gradientUnits="userSpaceOnUse">
<stop stop-color="#0FA3B1"/>
<stop offset="1" stop-color="#037EC4" stop-opacity="0.97"/>
</linearGradient>
<linearGradient id="paint9_linear_2373_5173" x1="174.226" y1="98.9295" x2="174.226" y2="116.181" gradientUnits="userSpaceOnUse">
<stop stop-color="#0FA3B1"/>
<stop offset="1" stop-color="#037EC4" stop-opacity="0.97"/>
</linearGradient>
<linearGradient id="paint10_linear_2373_5173" x1="174.226" y1="98.9295" x2="174.226" y2="116.181" gradientUnits="userSpaceOnUse">
<stop stop-color="#0FA3B1"/>
<stop offset="1" stop-color="#037EC4" stop-opacity="0.97"/>
</linearGradient>
<linearGradient id="paint11_linear_2373_5173" x1="174.226" y1="98.9295" x2="174.226" y2="116.181" gradientUnits="userSpaceOnUse">
<stop stop-color="#0FA3B1"/>
<stop offset="1" stop-color="#037EC4" stop-opacity="0.97"/>
</linearGradient>
<linearGradient id="paint12_linear_2373_5173" x1="174.226" y1="98.9295" x2="174.226" y2="116.181" gradientUnits="userSpaceOnUse">
<stop stop-color="#0FA3B1"/>
<stop offset="1" stop-color="#037EC4" stop-opacity="0.97"/>
</linearGradient>
<linearGradient id="paint13_linear_2373_5173" x1="174.226" y1="98.9295" x2="174.226" y2="116.181" gradientUnits="userSpaceOnUse">
<stop stop-color="#0FA3B1"/>
<stop offset="1" stop-color="#037EC4" stop-opacity="0.97"/>
</linearGradient>
<linearGradient id="paint14_linear_2373_5173" x1="174.226" y1="98.9295" x2="174.226" y2="116.181" gradientUnits="userSpaceOnUse">
<stop stop-color="#0FA3B1"/>
<stop offset="1" stop-color="#037EC4" stop-opacity="0.97"/>
</linearGradient>
<linearGradient id="paint15_linear_2373_5173" x1="174.226" y1="98.9295" x2="174.226" y2="116.181" gradientUnits="userSpaceOnUse">
<stop stop-color="#0FA3B1"/>
<stop offset="1" stop-color="#037EC4" stop-opacity="0.97"/>
</linearGradient>
<linearGradient id="paint16_linear_2373_5173" x1="174.226" y1="98.9295" x2="174.226" y2="116.181" gradientUnits="userSpaceOnUse">
<stop stop-color="#0FA3B1"/>
<stop offset="1" stop-color="#037EC4" stop-opacity="0.97"/>
</linearGradient>
<linearGradient id="paint17_linear_2373_5173" x1="174.226" y1="98.9295" x2="174.226" y2="116.181" gradientUnits="userSpaceOnUse">
<stop stop-color="#0FA3B1"/>
<stop offset="1" stop-color="#037EC4" stop-opacity="0.97"/>
</linearGradient>
<linearGradient id="paint18_linear_2373_5173" x1="174.226" y1="98.9295" x2="174.226" y2="116.181" gradientUnits="userSpaceOnUse">
<stop stop-color="#0FA3B1"/>
<stop offset="1" stop-color="#037EC4" stop-opacity="0.97"/>
</linearGradient>
<linearGradient id="paint19_linear_2373_5173" x1="174.226" y1="98.9295" x2="174.226" y2="116.181" gradientUnits="userSpaceOnUse">
<stop stop-color="#0FA3B1"/>
<stop offset="1" stop-color="#037EC4" stop-opacity="0.97"/>
</linearGradient>
<linearGradient id="paint20_linear_2373_5173" x1="174.226" y1="98.9295" x2="174.226" y2="116.181" gradientUnits="userSpaceOnUse">
<stop stop-color="#0FA3B1"/>
<stop offset="1" stop-color="#037EC4" stop-opacity="0.97"/>
</linearGradient>
<linearGradient id="paint21_linear_2373_5173" x1="174.226" y1="98.9295" x2="174.226" y2="116.181" gradientUnits="userSpaceOnUse">
<stop stop-color="#0FA3B1"/>
<stop offset="1" stop-color="#037EC4" stop-opacity="0.97"/>
</linearGradient>
<linearGradient id="paint22_linear_2373_5173" x1="174.226" y1="98.9295" x2="174.226" y2="116.181" gradientUnits="userSpaceOnUse">
<stop stop-color="#0FA3B1"/>
<stop offset="1" stop-color="#037EC4" stop-opacity="0.97"/>
</linearGradient>
<linearGradient id="paint23_linear_2373_5173" x1="174.226" y1="98.9295" x2="174.226" y2="116.181" gradientUnits="userSpaceOnUse">
<stop stop-color="#0FA3B1"/>
<stop offset="1" stop-color="#037EC4" stop-opacity="0.97"/>
</linearGradient>
<linearGradient id="paint24_linear_2373_5173" x1="174.226" y1="98.9295" x2="174.226" y2="116.181" gradientUnits="userSpaceOnUse">
<stop stop-color="#0FA3B1"/>
<stop offset="1" stop-color="#037EC4" stop-opacity="0.97"/>
</linearGradient>
</defs>
</svg>
