<svg width="359" height="263" viewBox="0 0 359 263" fill="none" xmlns="http://www.w3.org/2000/svg">
<path d="M14.1897 69.28C15.4377 69.28 16.4937 68.848 17.3577 67.984C18.2697 67.072 18.7497 65.992 18.7977 64.744V24.64C18.6537 22.96 17.8617 21.712 16.4217 20.896C15.7017 20.512 14.9577 20.32 14.1897 20.32H13.2537V19.6H33.4857C35.5977 19.6 37.4457 19.432 39.0297 19.096C40.6137 18.76 41.6457 18.496 42.1257 18.304V30.904H41.3337V30.04C41.3817 27.88 40.7577 26.152 39.4617 24.856C38.2137 23.512 36.5097 22.792 34.3497 22.696H29.5977V43.648H41.0457C42.8217 43.6 44.2857 43 45.4377 41.848C46.5897 40.648 47.1657 39.184 47.1657 37.456V36.808H47.8137V53.44H47.1657V52.864C47.1657 51.088 46.5897 49.624 45.4377 48.472C44.2857 47.32 42.8457 46.72 41.1177 46.672H29.5977V66.904H43.6377C47.1417 66.904 50.0697 65.896 52.4217 63.88C54.8217 61.864 56.5977 59.008 57.7497 55.312H58.4697L55.0857 70H13.2537V69.28H14.1897ZM126.511 77.488C127.327 77.968 128.239 78.4 129.247 78.784C130.255 79.216 131.215 79.504 132.127 79.648C133.087 79.84 134.119 79.936 135.223 79.936C136.375 79.936 137.551 79.792 138.751 79.504L139.039 80.224C136.351 81.52 133.639 82.168 130.903 82.168C124.615 82.168 118.207 78.688 111.679 71.728L77.5508 35.512V64.96C77.5508 66.16 77.9828 67.192 78.8468 68.056C79.7108 68.872 80.7428 69.28 81.9428 69.28H83.3108V70H61.4948V69.28H62.7908C64.0388 69.28 65.0948 68.872 65.9588 68.056C66.8228 67.192 67.2548 66.136 67.2548 64.888V24.496C64.9028 21.808 63.1268 19.936 61.9268 18.88C60.7268 17.776 59.6708 16.864 58.7588 16.144C57.7988 15.424 56.8868 14.824 56.0228 14.344C54.0068 13.192 52.3988 12.52 51.1988 12.328C49.9508 12.136 48.7988 12.04 47.7428 12.04C46.6388 12.04 45.4628 12.256 44.2148 12.688L43.9268 11.968C46.5668 10.432 49.2788 9.664 52.0628 9.664C58.1108 9.664 64.5188 13.264 71.2868 20.464L103.471 54.664V24.712C103.423 23.464 102.967 22.432 102.103 21.616C101.239 20.752 100.207 20.32 99.0068 20.32H97.7108V19.6H119.527V20.32H118.159C116.959 20.32 115.927 20.752 115.063 21.616C114.199 22.432 113.743 23.44 113.695 24.64V65.608L114.847 66.76C115.135 67.048 115.567 67.552 116.143 68.272C116.767 68.944 117.319 69.52 117.799 70C118.279 70.528 118.879 71.176 119.599 71.944C120.367 72.712 121.063 73.384 121.687 73.96C122.359 74.536 123.127 75.16 123.991 75.832C124.903 76.504 125.743 77.056 126.511 77.488ZM151.728 69.28H152.664V70H130.776V69.28H131.712C132.96 69.28 134.016 68.848 134.88 67.984C135.792 67.072 136.272 65.992 136.32 64.744V22.552L129.48 22.84C124.968 23.032 122.712 24.712 122.712 27.88C122.712 29.176 123.144 30.28 124.008 31.192C124.92 32.056 126.168 32.488 127.752 32.488C127.896 32.488 128.04 32.488 128.184 32.488V32.92C127.224 33.256 126.408 33.424 125.736 33.424C123.576 33.424 121.92 32.656 120.768 31.12C119.952 30.064 119.544 28.864 119.544 27.52C119.544 25.408 120.384 23.68 122.064 22.336C123.696 20.944 126.24 20.128 129.696 19.888C130.32 19.84 132.336 19.744 135.744 19.6C143.52 19.312 149.16 18.832 152.664 18.16L152.808 18.88C150.744 19.216 149.28 19.912 148.416 20.968C147.6 22.024 147.168 23.584 147.12 25.648V64.744C147.168 65.992 147.624 67.072 148.488 67.984C149.4 68.848 150.48 69.28 151.728 69.28ZM223.909 84.256C222.709 84.256 221.533 84.16 220.381 83.968C215.725 83.248 211.765 81.472 208.501 78.64C205.237 75.856 202.885 72.376 201.445 68.2C196.933 70.072 192.061 71.008 186.829 71.008C178.189 71.008 171.109 68.56 165.589 63.664C160.069 58.768 157.309 52.48 157.309 44.8C157.309 39.664 158.557 35.104 161.053 31.12C163.597 27.136 167.149 24.064 171.709 21.904C176.269 19.696 181.477 18.592 187.333 18.592C191.173 18.592 194.893 18.976 198.493 19.744C202.093 20.464 204.997 21.376 207.205 22.48L207.349 34.864H206.773C205.621 30.496 203.389 27.208 200.077 25C196.813 22.744 192.877 21.616 188.269 21.616C182.605 21.616 177.973 23.8 174.373 28.168C170.821 32.488 169.045 38.08 169.045 44.944C169.045 51.76 170.797 57.304 174.301 61.576C177.805 65.848 182.317 67.984 187.837 67.984C190.813 67.984 193.381 67.336 195.541 66.04C197.749 64.744 199.237 63.016 200.005 60.856V49.912C200.005 48.856 199.693 48.04 199.069 47.464C198.445 46.888 197.557 46.6 196.405 46.6H195.253V45.88H215.485V46.6H214.405C213.205 46.6 212.293 46.888 211.669 47.464C211.045 48.04 210.757 48.832 210.805 49.84V61.288C210.853 64.456 211.453 67.408 212.605 70.144C215.149 76 219.373 79.648 225.277 81.088C226.861 81.472 228.493 81.664 230.173 81.664C231.901 81.664 233.653 81.472 235.429 81.088L235.573 81.808C231.445 83.44 227.557 84.256 223.909 84.256ZM211.333 14.848C214.069 13.696 216.445 13.12 218.461 13.12C220.477 13.12 222.253 13.312 223.789 13.696C225.325 14.08 226.885 14.728 228.469 15.64C230.101 16.504 231.613 17.584 233.005 18.88C235.693 21.424 237.973 24.304 239.845 27.52L254.245 54.52L275.125 18.592H275.773L283.261 60.928C284.413 67.456 286.405 72.64 289.237 76.48C292.069 80.368 295.957 82.312 300.901 82.312C301.237 82.312 301.549 82.312 301.837 82.312V83.032C299.197 83.752 296.605 84.112 294.061 84.112C288.877 84.112 284.149 82.072 279.877 77.992C275.749 74.104 272.941 68.416 271.453 60.928L267.925 39.976L254.389 63.448C252.565 66.472 251.629 69.136 251.581 71.44H250.933L233.005 37.456L229.477 66.256C229.333 67.36 229.813 68.248 230.917 68.92C231.349 69.208 231.805 69.352 232.285 69.352H233.437V70H218.389V69.28H219.541C220.789 69.28 221.893 68.92 222.853 68.2C223.861 67.432 224.485 66.4 224.725 65.104L229.621 30.76C227.461 26.92 224.989 23.512 222.205 20.536C219.085 17.176 215.821 15.496 212.413 15.496C212.077 15.496 211.765 15.52 211.477 15.568L211.333 14.848ZM358.557 83.176C353.325 85.816 348.021 86.248 342.645 84.472C336.933 82.648 332.013 78.76 327.885 72.808C325.677 69.64 323.781 65.968 322.197 61.792L319.893 55.672H302.901L299.085 64.744C298.845 65.368 298.725 65.872 298.725 66.256C298.725 66.64 298.797 67.072 298.941 67.552C299.133 67.984 299.493 68.392 300.021 68.776C300.597 69.112 301.221 69.28 301.893 69.28H302.469V70H287.061V69.28H287.709C288.813 69.28 289.893 68.968 290.949 68.344C292.053 67.672 292.965 66.688 293.685 65.392L309.741 28.744C307.869 24.52 305.877 21.616 303.765 20.032C301.989 18.688 300.285 18.016 298.653 18.016C297.069 18.016 295.581 18.256 294.189 18.736L294.045 18.016C297.501 16.24 300.813 15.352 303.981 15.352C307.917 15.352 311.445 16.888 314.565 19.96C317.637 22.984 320.349 27.352 322.701 33.064L333.141 58.84C337.077 68.584 341.109 75.28 345.237 78.928C346.917 80.416 348.645 81.448 350.421 82.024C352.197 82.6 353.685 82.888 354.885 82.888C356.133 82.888 357.333 82.744 358.485 82.456L358.557 83.176ZM304.125 52.576H318.813L313.773 39.256C313.533 38.584 313.197 37.672 312.765 36.52C312.333 35.32 312.045 34.48 311.901 34L304.125 52.576Z" fill="url(#paint0_linear_3146_5175)"/>
<path d="M24.477 124.392C22.733 125.272 20.965 125.416 19.173 124.824C17.269 124.216 15.629 122.92 14.253 120.936C13.517 119.88 12.885 118.656 12.357 117.264L11.589 115.224H5.92497L4.65297 118.248C4.57297 118.456 4.53297 118.624 4.53297 118.752C4.53297 118.88 4.55697 119.024 4.60497 119.184C4.66897 119.328 4.78897 119.464 4.96497 119.592C5.15697 119.704 5.36497 119.76 5.58897 119.76H5.78097V120H0.644969V119.76H0.860969C1.22897 119.76 1.58897 119.656 1.94097 119.448C2.30897 119.224 2.61297 118.896 2.85297 118.464L8.20497 106.248C7.58097 104.84 6.91697 103.872 6.21297 103.344C5.62097 102.896 5.05297 102.672 4.50897 102.672C3.98097 102.672 3.48497 102.752 3.02097 102.912L2.97297 102.672C4.12497 102.08 5.22897 101.784 6.28497 101.784C7.59697 101.784 8.77297 102.296 9.81297 103.32C10.837 104.328 11.741 105.784 12.525 107.688L16.005 116.28C17.317 119.528 18.661 121.76 20.037 122.976C20.597 123.472 21.173 123.816 21.765 124.008C22.357 124.2 22.853 124.296 23.253 124.296C23.669 124.296 24.069 124.248 24.453 124.152L24.477 124.392ZM6.33297 114.192H11.229L9.54897 109.752C9.46897 109.528 9.35697 109.224 9.21297 108.84C9.06897 108.44 8.97297 108.16 8.92497 108L6.33297 114.192ZM37.8228 103.44C37.4228 103.44 37.0788 103.584 36.7908 103.872C36.5028 104.144 36.3508 104.48 36.3348 104.88V117.264C36.3348 118.336 36.4068 119.24 36.5508 119.976L36.6228 120.336H36.4068L24.2868 108.792V118.32C24.2868 118.72 24.4308 119.064 24.7188 119.352C25.0068 119.624 25.3508 119.76 25.7508 119.76H26.2068V120H18.9348V119.76H19.3668C19.7828 119.76 20.1348 119.624 20.4228 119.352C20.7108 119.064 20.8548 118.712 20.8548 118.296V105.84C20.8548 104.784 20.7828 103.904 20.6388 103.2L20.5908 102.84H20.8068L32.9268 114.384V104.904C32.9108 104.488 32.7588 104.144 32.4708 103.872C32.1828 103.584 31.8388 103.44 31.4388 103.44H31.0068V103.2H38.2788V103.44H37.8228ZM52.9485 109.272C52.6605 108.664 52.5165 108.088 52.5165 107.544C52.5165 106.984 52.5885 106.472 52.7325 106.008C52.8765 105.528 53.1165 105.064 53.4525 104.616C53.7885 104.152 54.2605 103.768 54.8685 103.464C55.7005 103.032 56.7005 102.816 57.8685 102.816C59.4045 102.816 60.8605 103.208 62.2365 103.992C64.0445 105.016 65.3005 106.432 66.0045 108.24C66.4045 109.232 66.6045 110.296 66.6045 111.432C66.6045 114.104 65.6365 116.256 63.7005 117.888C61.7805 119.52 59.2685 120.336 56.1645 120.336C53.0765 120.336 50.5565 119.52 48.6045 117.888C46.6685 116.256 45.7005 114.112 45.7005 111.456C45.7005 109.472 46.2605 107.752 47.3805 106.296C48.5165 104.824 50.0445 103.824 51.9645 103.296L52.1085 103.512C51.2925 104.2 50.6765 105.208 50.2605 106.536C49.8445 107.864 49.6365 109.296 49.6365 110.832C49.6365 113.424 50.2365 115.488 51.4365 117.024C52.6365 118.56 54.2045 119.328 56.1405 119.328C58.0925 119.328 59.6605 118.608 60.8445 117.168C62.0445 115.712 62.6445 113.792 62.6445 111.408C62.6445 109.968 62.4205 108.672 61.9725 107.52C61.5405 106.352 60.9085 105.456 60.0765 104.832C59.2445 104.192 58.3165 103.872 57.2925 103.872C56.1565 103.872 55.2365 104.168 54.5325 104.76C53.5405 105.608 53.0445 106.688 53.0445 108C53.0445 108.416 53.1005 108.84 53.2125 109.272H52.9485ZM86.6432 103.44C86.2432 103.44 85.8992 103.584 85.6112 103.872C85.3232 104.144 85.1712 104.48 85.1552 104.88V117.264C85.1552 118.336 85.2272 119.24 85.3712 119.976L85.4432 120.336H85.2272L73.1072 108.792V118.32C73.1072 118.72 73.2512 119.064 73.5392 119.352C73.8272 119.624 74.1712 119.76 74.5712 119.76H75.0272V120H67.7552V119.76H68.1872C68.6032 119.76 68.9552 119.624 69.2432 119.352C69.5312 119.064 69.6752 118.712 69.6752 118.296V105.84C69.6752 104.784 69.6032 103.904 69.4592 103.2L69.4112 102.84H69.6272L81.7472 114.384V104.904C81.7312 104.488 81.5792 104.144 81.2912 103.872C81.0032 103.584 80.6592 103.44 80.2592 103.44H79.8272V103.2H87.0992V103.44H86.6432ZM88.7458 119.76C89.1618 119.76 89.5138 119.616 89.8018 119.328C90.1058 119.024 90.2658 118.664 90.2818 118.248V104.952C90.2658 104.536 90.1058 104.184 89.8018 103.896C89.5138 103.592 89.1618 103.44 88.7458 103.44H88.4338V103.2H95.7298L95.7058 103.44H95.4178C95.0018 103.44 94.6418 103.592 94.3378 103.896C94.0338 104.184 93.8818 104.536 93.8818 104.952V118.968H97.0258C98.1938 118.968 99.1698 118.632 99.9538 117.96C100.754 117.288 101.346 116.336 101.73 115.104H101.97L100.866 120H88.4338V119.76H88.7458ZM103.394 119.76C103.81 119.76 104.162 119.616 104.45 119.328C104.754 119.024 104.914 118.664 104.93 118.248V104.928C104.914 104.512 104.754 104.16 104.45 103.872C104.162 103.584 103.81 103.44 103.394 103.44H103.082V103.2H110.378L110.354 103.44H110.066C109.65 103.44 109.29 103.584 108.986 103.872C108.682 104.16 108.53 104.512 108.53 104.928V118.248C108.53 118.664 108.682 119.024 108.986 119.328C109.29 119.616 109.65 119.76 110.066 119.76H110.354L110.378 120H103.082V119.76H103.394ZM130.94 103.44C130.54 103.44 130.196 103.584 129.908 103.872C129.62 104.144 129.468 104.48 129.452 104.88V117.264C129.452 118.336 129.524 119.24 129.668 119.976L129.74 120.336H129.524L117.404 108.792V118.32C117.404 118.72 117.548 119.064 117.836 119.352C118.124 119.624 118.468 119.76 118.868 119.76H119.324V120H112.052V119.76H112.484C112.9 119.76 113.252 119.624 113.54 119.352C113.828 119.064 113.972 118.712 113.972 118.296V105.84C113.972 104.784 113.9 103.904 113.756 103.2L113.708 102.84H113.924L126.044 114.384V104.904C126.028 104.488 125.876 104.144 125.588 103.872C125.3 103.584 124.956 103.44 124.556 103.44H124.124V103.2H131.396V103.44H130.94ZM133.043 119.76C133.459 119.76 133.811 119.616 134.099 119.328C134.403 119.024 134.563 118.664 134.579 118.248V104.88C134.531 104.32 134.267 103.904 133.787 103.632C133.547 103.504 133.299 103.44 133.043 103.44H132.731V103.2H141.923C142.419 103.2 142.963 103.152 143.555 103.056C144.147 102.96 144.563 102.864 144.803 102.768V106.968H144.563V106.68C144.563 105.96 144.347 105.384 143.915 104.952C143.499 104.504 142.931 104.264 142.211 104.232H138.179V111.216H141.347C141.939 111.2 142.427 111 142.811 110.616C143.195 110.216 143.387 109.728 143.387 109.152V108.936H143.627V114.48H143.387V114.288C143.387 113.488 143.067 112.896 142.427 112.512C142.107 112.336 141.755 112.24 141.371 112.224H138.179V118.968H141.323C142.491 118.968 143.467 118.632 144.251 117.96C145.051 117.288 145.643 116.336 146.027 115.104H146.267L145.163 120H132.731V119.76H133.043ZM172.255 110.616C172.303 111.096 172.327 111.704 172.327 112.44C172.327 113.16 172.183 114.048 171.895 115.104C171.607 116.144 171.087 117.064 170.335 117.864C168.799 119.512 166.687 120.336 163.999 120.336C160.735 120.336 158.159 119.536 156.271 117.936C154.383 116.32 153.439 114.216 153.439 111.624C153.439 109.016 154.391 106.904 156.295 105.288C158.215 103.672 160.743 102.864 163.879 102.864C165.079 102.864 166.223 102.984 167.311 103.224C168.399 103.464 169.303 103.776 170.023 104.16L170.071 108.288H169.879C169.607 107.264 169.151 106.408 168.511 105.72C167.359 104.488 165.807 103.872 163.855 103.872C161.903 103.872 160.327 104.568 159.127 105.96C157.943 107.352 157.351 109.2 157.351 111.504C157.351 113.792 157.967 115.656 159.199 117.096C160.447 118.536 162.159 119.28 164.335 119.328C166.687 119.328 168.559 118.576 169.951 117.072C171.343 115.568 172.039 113.528 172.039 110.952C172.039 110.84 172.039 110.728 172.039 110.616H172.255ZM180.183 104.256H179.151C179.119 104.256 179.095 104.256 179.079 104.256V118.248C179.095 118.84 179.351 119.28 179.847 119.568C180.087 119.696 180.343 119.76 180.615 119.76H180.927V120H173.631V119.76H173.943C174.519 119.76 174.959 119.512 175.263 119.016C175.391 118.792 175.463 118.544 175.479 118.272V104.952C175.463 104.536 175.303 104.184 174.999 103.896C174.711 103.592 174.359 103.44 173.943 103.44H173.631V103.2H181.863C183.415 103.2 184.727 103.536 185.799 104.208C186.343 104.544 186.775 105.016 187.095 105.624C187.415 106.216 187.575 106.896 187.575 107.664C187.575 108.416 187.439 109.112 187.167 109.752C186.911 110.392 186.471 110.952 185.847 111.432C185.239 111.912 184.503 112.2 183.639 112.296C184.567 112.6 185.383 113.304 186.087 114.408C187.815 117.176 189.095 118.824 189.927 119.352C190.343 119.608 190.863 119.744 191.487 119.76V120H189.135C187.775 120 186.639 119.816 185.727 119.448C184.815 119.064 184.071 118.416 183.495 117.504C183.207 117.04 182.839 116.344 182.391 115.416C181.943 114.472 181.647 113.8 181.503 113.4C181.071 112.44 180.527 111.904 179.871 111.792V111.552H180.615C181.335 111.552 181.967 111.336 182.511 110.904C183.071 110.472 183.447 109.768 183.639 108.792C183.703 108.456 183.735 108.192 183.735 108C183.735 106.688 183.471 105.744 182.943 105.168C182.415 104.576 181.735 104.272 180.903 104.256C180.743 104.256 180.503 104.256 180.183 104.256ZM206.925 103.44H206.589C206.109 103.44 205.653 103.576 205.221 103.848C204.789 104.12 204.445 104.448 204.189 104.832L199.461 112.368V118.248C199.461 118.664 199.613 119.024 199.917 119.328C200.221 119.616 200.581 119.76 200.997 119.76H201.285L201.309 120H194.013V119.76H194.325C194.741 119.76 195.093 119.616 195.381 119.328C195.685 119.04 195.845 118.688 195.861 118.272V112.344L191.277 104.808C191.037 104.424 190.693 104.104 190.245 103.848C189.813 103.576 189.365 103.44 188.901 103.44H188.565V103.2H196.509V103.44H196.197C195.845 103.44 195.573 103.6 195.381 103.92C195.285 104.096 195.237 104.272 195.237 104.448C195.237 104.608 195.277 104.768 195.357 104.928L198.789 111.168L202.341 104.928C202.437 104.768 202.485 104.608 202.485 104.448C202.485 104.272 202.429 104.104 202.317 103.944C202.125 103.608 201.853 103.44 201.501 103.44H201.213V103.2H206.925V103.44ZM220.753 110.088C220.209 111.336 219.201 112.2 217.729 112.68C217.297 112.824 216.897 112.896 216.529 112.896C215.393 112.896 214.377 112.6 213.481 112.008V111.768C214.681 111.8 215.649 111.408 216.385 110.592C217.041 109.888 217.369 108.968 217.369 107.832C217.369 106.088 216.761 104.96 215.545 104.448C215.161 104.288 214.737 104.208 214.273 104.208H212.665V118.248C212.665 118.664 212.817 119.024 213.121 119.328C213.425 119.616 213.785 119.76 214.201 119.76H214.513V120H207.217V119.76H207.529C207.945 119.76 208.297 119.616 208.585 119.328C208.889 119.024 209.049 118.664 209.065 118.248V104.832C209.001 104.288 208.729 103.888 208.249 103.632C208.025 103.504 207.785 103.44 207.529 103.44H207.217V103.2H215.233C218.129 103.2 219.985 104.12 220.801 105.96C221.057 106.568 221.185 107.248 221.185 108C221.185 108.736 221.041 109.432 220.753 110.088ZM231.961 104.184V118.272C231.977 118.688 232.129 119.04 232.417 119.328C232.721 119.616 233.081 119.76 233.497 119.76H233.785L233.809 120H226.513V119.76H226.825C227.225 119.76 227.569 119.616 227.857 119.328C228.161 119.04 228.329 118.696 228.361 118.296V104.184H225.121C224.385 104.2 223.801 104.432 223.369 104.88C222.937 105.328 222.721 105.912 222.721 106.632V106.92H222.481V102.744C222.705 102.84 223.105 102.936 223.681 103.032C224.273 103.128 224.817 103.176 225.313 103.176H234.985C235.769 103.16 236.409 103.096 236.905 102.984C237.401 102.872 237.705 102.792 237.817 102.744V106.92H237.577V106.632C237.577 105.912 237.361 105.328 236.929 104.88C236.497 104.432 235.913 104.2 235.177 104.184H231.961ZM239.449 119.76C239.865 119.76 240.217 119.616 240.505 119.328C240.809 119.024 240.969 118.664 240.985 118.248V104.928C240.969 104.512 240.809 104.16 240.505 103.872C240.217 103.584 239.865 103.44 239.449 103.44H239.137V103.2H246.433L246.409 103.44H246.121C245.705 103.44 245.345 103.584 245.041 103.872C244.737 104.16 244.585 104.512 244.585 104.928V118.248C244.585 118.664 244.737 119.024 245.041 119.328C245.345 119.616 245.705 119.76 246.121 119.76H246.409L246.433 120H239.137V119.76H239.449ZM257.84 120.312C254.752 120.312 252.328 119.536 250.568 117.984C248.808 116.432 247.928 114.304 247.928 111.6C247.928 108.896 248.8 106.768 250.544 105.216C252.288 103.648 254.68 102.864 257.72 102.864C260.04 102.864 262.032 103.296 263.696 104.16L263.744 108.288H263.552C262.736 105.344 260.872 103.872 257.96 103.872C256.072 103.872 254.576 104.56 253.472 105.936C252.384 107.296 251.84 109.16 251.84 111.528C251.84 113.896 252.36 115.776 253.4 117.168C254.456 118.56 255.88 119.28 257.672 119.328C259.528 119.328 260.944 118.864 261.92 117.936C262.912 116.976 263.6 115.328 263.984 112.992H264.176L264.416 117.12C263.12 119.264 260.928 120.328 257.84 120.312ZM284.126 119.76C284.542 119.76 284.902 119.616 285.206 119.328C285.51 119.04 285.67 118.688 285.686 118.272V112.152H278.126V118.32C278.126 120.24 277.638 121.768 276.662 122.904C275.894 123.8 274.79 124.248 273.35 124.248C272.886 124.248 272.382 124.192 271.838 124.08L271.79 123.84C272.974 123.344 273.734 122.608 274.07 121.632C274.374 120.8 274.526 119.696 274.526 118.32V104.928C274.51 104.512 274.35 104.16 274.046 103.872C273.758 103.584 273.406 103.44 272.99 103.44H272.678V103.2H279.974V103.44H279.662C279.086 103.44 278.654 103.68 278.366 104.16C278.222 104.384 278.142 104.64 278.126 104.928V111.12H285.686V105.36C285.686 103.488 286.27 102 287.438 100.896C288.366 99.984 289.534 99.528 290.942 99.528C291.262 99.528 291.598 99.552 291.95 99.6L291.998 99.84C290.83 100.256 290.07 100.992 289.718 102.048C289.43 102.912 289.278 104.016 289.262 105.36V118.248C289.278 118.824 289.534 119.256 290.03 119.544C290.27 119.688 290.534 119.76 290.822 119.76H291.11V120H283.838V119.76H284.126ZM311.206 103.44H310.798C310.462 103.44 310.166 103.552 309.91 103.776C309.67 103.984 309.55 104.248 309.55 104.568V113.928C309.55 115.896 308.934 117.456 307.702 118.608C306.47 119.76 304.782 120.336 302.638 120.336C300.11 120.336 298.174 119.776 296.83 118.656C295.486 117.52 294.814 115.952 294.814 113.952V104.64C294.814 104.288 294.686 104 294.43 103.776C294.19 103.552 293.894 103.44 293.542 103.44H293.158V103.2H300.07V103.44H299.686C299.334 103.44 299.038 103.552 298.798 103.776C298.558 103.984 298.43 104.256 298.414 104.592V113.76C298.414 115.456 298.83 116.8 299.662 117.792C300.494 118.784 301.638 119.28 303.094 119.28C304.55 119.28 305.702 118.816 306.55 117.888C307.398 116.944 307.83 115.672 307.846 114.072V104.592C307.846 104.256 307.718 103.984 307.462 103.776C307.222 103.552 306.926 103.44 306.574 103.44H306.19V103.2H311.206V103.44ZM331.565 103.44C331.165 103.44 330.821 103.584 330.533 103.872C330.245 104.144 330.093 104.48 330.077 104.88V117.264C330.077 118.336 330.149 119.24 330.293 119.976L330.365 120.336H330.149L318.029 108.792V118.32C318.029 118.72 318.173 119.064 318.461 119.352C318.749 119.624 319.093 119.76 319.493 119.76H319.949V120H312.677V119.76H313.109C313.525 119.76 313.877 119.624 314.165 119.352C314.453 119.064 314.597 118.712 314.597 118.296V105.84C314.597 104.784 314.525 103.904 314.381 103.2L314.333 102.84H314.549L326.669 114.384V104.904C326.653 104.488 326.501 104.144 326.213 103.872C325.925 103.584 325.581 103.44 325.181 103.44H324.749V103.2H332.021V103.44H331.565ZM342.539 104.184V118.272C342.555 118.688 342.707 119.04 342.995 119.328C343.299 119.616 343.659 119.76 344.075 119.76H344.363L344.387 120H337.091V119.76H337.403C337.803 119.76 338.147 119.616 338.435 119.328C338.739 119.04 338.907 118.696 338.939 118.296V104.184H335.699C334.963 104.2 334.379 104.432 333.947 104.88C333.515 105.328 333.299 105.912 333.299 106.632V106.92H333.059V102.744C333.283 102.84 333.683 102.936 334.259 103.032C334.851 103.128 335.395 103.176 335.891 103.176H345.563C346.347 103.16 346.987 103.096 347.483 102.984C347.979 102.872 348.283 102.792 348.395 102.744V106.92H348.155V106.632C348.155 105.912 347.939 105.328 347.507 104.88C347.075 104.432 346.491 104.2 345.755 104.184H342.539Z" fill="url(#paint1_linear_3146_5175)"/>
<g clip-path="url(#clip0_3146_5175)">
<path d="M170.612 146.103L170.509 146.116L29.0388 152.736H29L29.013 153.15L171.349 151.495H171.479L171.543 151.392L174.672 145.496L179.457 151.392L179.521 151.495H179.651L321.987 153.15L322 152.736H321.961L180.491 146.116L180.388 146.103L180.323 146.168L176.328 153.766L170.677 146.168L170.612 146.103ZM169.63 147.358L175.358 156.688L175.5 156.83L175.642 156.688L180.543 146.53L316.996 152.814L180.582 150.254L175.681 143.323L175.5 143L175.319 143.323L171.246 151.081L34.004 152.814L169.63 147.358Z" fill="url(#paint2_linear_3146_5175)"/>
</g>
<path d="M126.401 188.01C127.778 188.01 129.143 188.29 130.496 188.85C131.873 189.41 132.946 190.227 133.716 191.3C134.51 192.373 134.906 193.633 134.906 195.08C134.906 196.317 134.533 197.693 133.786 199.21C133.39 200.05 132.468 201.275 131.021 202.885C130.135 203.888 128.84 205.055 127.136 206.385C125.456 207.692 124.558 208.392 124.441 208.485H131.651C132.678 208.485 133.53 208.228 134.206 207.715C134.906 207.178 135.56 206.303 136.166 205.09H136.516L134.451 213H117.721V212.65C118.048 212.277 118.643 211.6 119.506 210.62C120.393 209.64 121.058 208.905 121.501 208.415C121.968 207.902 122.598 207.167 123.391 206.21C124.208 205.23 124.838 204.425 125.281 203.795C125.725 203.165 126.238 202.407 126.821 201.52C127.428 200.61 127.883 199.805 128.186 199.105C128.933 197.425 129.306 195.862 129.306 194.415C129.306 192.945 128.898 191.755 128.081 190.845C127.288 189.935 126.238 189.48 124.931 189.48C123.228 189.48 121.945 190.052 121.081 191.195C120.218 192.338 119.798 193.925 119.821 195.955H119.471L117.791 190.565C119.681 188.862 122.551 188.01 126.401 188.01ZM149.684 199.91C148.75 199.91 147.945 200.237 147.269 200.89L147.024 200.61C147.677 199.537 148.645 198.755 149.929 198.265C150.675 197.985 151.387 197.845 152.064 197.845C152.74 197.845 153.359 197.915 153.919 198.055C154.502 198.172 155.085 198.417 155.669 198.79C157.675 200.097 158.679 202.232 158.679 205.195C158.679 207.528 157.897 209.488 156.334 211.075C154.7 212.708 152.39 213.525 149.404 213.525C146.44 213.525 144.13 212.615 142.474 210.795C140.817 208.952 139.989 206.245 139.989 202.675C139.989 198.032 141.272 194.275 143.839 191.405C145.099 190.005 146.662 188.967 148.529 188.29C150.395 187.613 152.402 187.275 154.549 187.275C154.899 187.275 155.26 187.287 155.634 187.31L155.774 187.555C152.507 188.582 150.08 190.052 148.494 191.965C147.14 193.622 146.3 195.885 145.974 198.755C145.857 199.945 145.799 201.368 145.799 203.025C145.799 206.012 146.067 208.228 146.604 209.675C147.14 211.122 148.12 211.845 149.544 211.845C150.454 211.845 151.2 211.542 151.784 210.935C152.787 209.885 153.289 208.147 153.289 205.72C153.289 202.15 152.32 200.237 150.384 199.98C150.15 199.933 149.917 199.91 149.684 199.91ZM171.17 202.78L171.45 201.625H181.95L182.23 202.78L181.95 203.97H171.45L171.17 202.78ZM203.401 188.01C204.778 188.01 206.143 188.29 207.496 188.85C208.873 189.41 209.946 190.227 210.716 191.3C211.51 192.373 211.906 193.633 211.906 195.08C211.906 196.317 211.533 197.693 210.786 199.21C210.39 200.05 209.468 201.275 208.021 202.885C207.135 203.888 205.84 205.055 204.136 206.385C202.456 207.692 201.558 208.392 201.441 208.485H208.651C209.678 208.485 210.53 208.228 211.206 207.715C211.906 207.178 212.56 206.303 213.166 205.09H213.516L211.451 213H194.721V212.65C195.048 212.277 195.643 211.6 196.506 210.62C197.393 209.64 198.058 208.905 198.501 208.415C198.968 207.902 199.598 207.167 200.391 206.21C201.208 205.23 201.838 204.425 202.281 203.795C202.725 203.165 203.238 202.407 203.821 201.52C204.428 200.61 204.883 199.805 205.186 199.105C205.933 197.425 206.306 195.862 206.306 194.415C206.306 192.945 205.898 191.755 205.081 190.845C204.288 189.935 203.238 189.48 201.931 189.48C200.228 189.48 198.945 190.052 198.081 191.195C197.218 192.338 196.798 193.925 196.821 195.955H196.471L194.791 190.565C196.681 188.862 199.551 188.01 203.401 188.01ZM219.299 212.055C218.459 211.565 217.794 210.912 217.304 210.095C216.837 209.255 216.604 208.298 216.604 207.225C216.604 204.448 218.284 202.43 221.644 201.17C219.217 199.397 218.004 197.262 218.004 194.765C218.004 192.735 218.715 191.102 220.139 189.865C221.585 188.628 223.417 188.01 225.634 188.01C227.874 188.01 229.729 188.558 231.199 189.655C232.692 190.728 233.439 192.152 233.439 193.925C233.439 194.788 233.229 195.582 232.809 196.305C232.039 197.658 230.72 198.592 228.854 199.105C230.534 199.968 231.572 200.563 231.969 200.89C232.389 201.217 232.762 201.532 233.089 201.835C233.439 202.138 233.707 202.442 233.894 202.745C234.08 203.048 234.267 203.387 234.454 203.76C234.804 204.46 234.979 205.323 234.979 206.35C234.979 208.59 234.104 210.34 232.354 211.6C230.627 212.86 228.434 213.49 225.774 213.49C223.114 213.49 220.955 213.012 219.299 212.055ZM225.389 189.515C224.572 189.515 223.884 189.842 223.324 190.495C222.787 191.148 222.519 191.988 222.519 193.015C222.519 194.042 222.88 194.94 223.604 195.71C224.304 196.48 225.552 197.355 227.349 198.335C228.375 197.192 228.889 195.652 228.889 193.715C228.889 191.988 228.387 190.775 227.384 190.075C226.87 189.702 226.205 189.515 225.389 189.515ZM225.599 212.02C226.952 212.02 228.025 211.67 228.819 210.97C229.635 210.247 230.044 209.337 230.044 208.24C230.044 207.143 229.635 206.245 228.819 205.545C228.025 204.822 226.964 204.122 225.634 203.445C224.304 202.745 223.394 202.255 222.904 201.975C221.784 203.165 221.224 204.647 221.224 206.42C221.224 208.193 221.597 209.558 222.344 210.515C223.184 211.518 224.269 212.02 225.599 212.02Z" fill="url(#paint3_linear_3146_5175)"/>
<path d="M108.703 231.3C108.003 231.3 107.473 231.6 107.113 232.2C106.953 232.46 106.863 232.76 106.843 233.1V248.58C106.843 249.92 106.933 251.05 107.113 251.97L107.203 252.42H106.933L91.7826 237.99V249.9C91.7826 250.4 91.9626 250.83 92.3226 251.19C92.6826 251.53 93.1126 251.7 93.6126 251.7H94.1826V252H85.0926V251.7H85.6326C86.1526 251.7 86.5926 251.53 86.9526 251.19C87.3126 250.83 87.4926 250.39 87.4926 249.87V234.3C87.4926 232.98 87.4026 231.88 87.2226 231L87.1626 230.55H87.4326L102.583 244.98V233.13C102.563 232.61 102.373 232.18 102.013 231.84C101.653 231.48 101.223 231.3 100.723 231.3H100.183V231H109.273V231.3H108.703ZM114.752 233.52C116.892 231.56 119.762 230.58 123.362 230.58C126.982 230.58 129.852 231.56 131.972 233.52C134.112 235.48 135.182 238.14 135.182 241.5C135.182 244.86 134.112 247.52 131.972 249.48C129.852 251.44 126.982 252.42 123.362 252.42C119.762 252.42 116.892 251.44 114.752 249.48C112.632 247.52 111.572 244.86 111.572 241.5C111.572 238.14 112.632 235.48 114.752 233.52ZM118.322 248.58C119.562 250.3 121.242 251.16 123.362 251.16C125.482 251.16 127.162 250.3 128.402 248.58C129.642 246.84 130.262 244.48 130.262 241.5C130.262 238.52 129.642 236.17 128.402 234.45C127.162 232.71 125.482 231.84 123.362 231.84C121.242 231.84 119.562 232.71 118.322 234.45C117.102 236.17 116.492 238.52 116.492 241.5C116.492 244.48 117.102 246.84 118.322 248.58ZM152.213 231H158.633V231.3H158.363C157.903 231.3 157.443 231.44 156.983 231.72C156.523 232 156.143 232.42 155.843 232.98L148.733 248.67C147.813 250.65 147.323 251.96 147.263 252.6H146.993L137.903 233.01C137.603 232.45 137.223 232.03 136.763 231.75C136.303 231.45 135.833 231.3 135.353 231.3H135.113V231H144.653V231.3H144.413C143.973 231.3 143.643 231.44 143.423 231.72C143.223 231.98 143.123 232.23 143.123 232.47C143.123 232.71 143.163 232.95 143.243 233.19L148.343 245.58L153.623 233.19C153.723 232.93 153.773 232.69 153.773 232.47C153.773 232.23 153.663 231.98 153.443 231.72C153.243 231.44 152.923 231.3 152.483 231.3H152.213V231ZM159.82 251.7C160.34 251.7 160.78 251.52 161.14 251.16C161.52 250.78 161.72 250.33 161.74 249.81V233.1C161.7 232.58 161.55 232.2 161.29 231.96C160.81 231.52 160.32 231.3 159.82 231.3H159.43V231H170.92C171.9 231 172.71 230.93 173.35 230.79C173.99 230.63 174.38 230.52 174.52 230.46V235.71L174.22 235.68V235.35C174.22 234.11 173.76 233.23 172.84 232.71C172.4 232.45 171.88 232.31 171.28 232.29H166.24V241.02H170.2C170.94 241 171.55 240.75 172.03 240.27C172.51 239.77 172.75 239.16 172.75 238.44V238.17H173.05V245.1H172.75V244.86C172.75 244.12 172.51 243.51 172.03 243.03C171.57 242.55 170.98 242.3 170.26 242.28H166.24V250.71H170.17C171.63 250.71 172.85 250.29 173.83 249.45C174.83 248.61 175.57 247.42 176.05 245.88H176.35L174.97 252H159.43V251.7H159.82ZM205.955 251.7H206.435V252H197.435V251.73H197.885C198.225 251.71 198.515 251.57 198.755 251.31C198.995 251.05 199.095 250.76 199.055 250.44L197.885 239.55L192.245 249.27C191.505 250.51 191.125 251.62 191.105 252.6H190.805L183.095 239.64L181.925 250.44C181.885 250.76 181.985 251.06 182.225 251.34C182.465 251.6 182.755 251.73 183.095 251.73H183.545V252H177.275V251.7H177.755C178.315 251.7 178.795 251.53 179.195 251.19C179.615 250.85 179.865 250.39 179.945 249.81L182.435 230.58H182.705L192.005 245.88L200.945 230.58H201.215L203.765 249.81C203.865 250.39 204.115 250.85 204.515 251.19C204.935 251.53 205.415 251.7 205.955 251.7ZM217.329 252H207.849V251.7H208.239C208.959 251.7 209.509 251.39 209.889 250.77C210.049 250.49 210.139 250.18 210.159 249.84V233.16C210.139 232.64 209.939 232.2 209.559 231.84C209.199 231.48 208.759 231.3 208.239 231.3H207.849V231H216.549C218.869 231 220.709 231.42 222.069 232.26C223.449 233.1 224.149 234.39 224.169 236.13C224.149 237.01 223.959 237.78 223.599 238.44C222.939 239.68 221.899 240.39 220.479 240.57C222.019 240.71 223.289 241.29 224.289 242.31C225.289 243.31 225.789 244.59 225.789 246.15C225.789 248.03 225.029 249.48 223.509 250.5C222.009 251.5 219.949 252 217.329 252ZM219.369 236.52C219.349 233.7 218.069 232.29 215.529 232.29H214.659V250.62H216.039C216.059 250.62 216.079 250.62 216.099 250.62C217.479 250.62 218.579 250.22 219.399 249.42C220.219 248.62 220.629 247.4 220.629 245.76C220.629 244.12 220.169 242.9 219.249 242.1C218.329 241.3 217.139 240.9 215.679 240.9V240.63C216.719 240.63 217.589 240.3 218.289 239.64C218.989 238.96 219.349 237.92 219.369 236.52ZM228.787 251.7C229.307 251.7 229.747 251.52 230.107 251.16C230.487 250.78 230.687 250.33 230.707 249.81V233.1C230.667 232.58 230.517 232.2 230.257 231.96C229.777 231.52 229.287 231.3 228.787 231.3H228.397V231H239.887C240.867 231 241.677 230.93 242.317 230.79C242.957 230.63 243.347 230.52 243.487 230.46V235.71L243.187 235.68V235.35C243.187 234.11 242.727 233.23 241.807 232.71C241.367 232.45 240.847 232.31 240.247 232.29H235.207V241.02H239.167C239.907 241 240.517 240.75 240.997 240.27C241.477 239.77 241.717 239.16 241.717 238.44V238.17H242.017V245.1H241.717V244.86C241.717 244.12 241.477 243.51 240.997 243.03C240.537 242.55 239.947 242.3 239.227 242.28H235.207V250.71H239.137C240.597 250.71 241.817 250.29 242.797 249.45C243.797 248.61 244.537 247.42 245.017 245.88H245.317L243.937 252H228.397V251.7H228.787ZM255.935 232.32H254.645C254.605 232.32 254.575 232.32 254.555 232.32V249.81C254.575 250.33 254.765 250.78 255.125 251.16C255.505 251.52 255.955 251.7 256.475 251.7H256.865V252H247.745V251.7H248.135C248.855 251.7 249.405 251.39 249.785 250.77C249.945 250.49 250.035 250.18 250.055 249.84V233.19C250.035 232.67 249.835 232.23 249.455 231.87C249.095 231.49 248.655 231.3 248.135 231.3H247.745V231H258.035C259.975 231 261.615 231.42 262.955 232.26C263.635 232.68 264.175 233.27 264.575 234.03C264.975 234.77 265.175 235.75 265.175 236.97C265.175 238.17 264.755 239.33 263.915 240.45C263.075 241.57 261.855 242.21 260.255 242.37C261.415 242.75 262.435 243.63 263.315 245.01C265.475 248.47 267.075 250.53 268.115 251.19C268.635 251.51 269.285 251.68 270.065 251.7V252H267.125C265.385 252 263.935 251.77 262.775 251.31C261.635 250.85 260.735 250.04 260.075 248.88C259.695 248.22 258.865 246.51 257.585 243.75C257.025 242.53 256.345 241.86 255.545 241.74V241.44H256.475C257.375 241.44 258.165 241.17 258.845 240.63C259.545 240.09 260.015 239.21 260.255 237.99C260.335 237.57 260.375 237.24 260.375 237C260.375 235.36 260.045 234.18 259.385 233.46C258.725 232.72 257.875 232.34 256.835 232.32C256.635 232.32 256.335 232.32 255.935 232.32Z" fill="url(#paint4_linear_3146_5175)"/>
<path d="M237.077 181.41V187.28C237.084 187.453 237.147 187.6 237.267 187.72C237.394 187.84 237.544 187.9 237.717 187.9H237.837L237.847 188H234.807V187.9H234.937C235.104 187.9 235.247 187.84 235.367 187.72C235.494 187.6 235.564 187.457 235.577 187.29V181.41H234.227C233.921 181.417 233.677 181.513 233.497 181.7C233.317 181.887 233.227 182.13 233.227 182.43V182.55H233.127V180.81C233.401 180.923 233.794 180.983 234.307 180.99H238.337C238.544 180.99 238.767 180.97 239.007 180.93C239.254 180.89 239.424 180.85 239.517 180.81V182.55H239.417V182.43C239.417 182.017 239.261 181.723 238.947 181.55C238.801 181.463 238.624 181.417 238.417 181.41H237.077ZM245.088 187.9C245.261 187.9 245.394 187.857 245.488 187.77C245.641 187.617 245.721 187.453 245.728 187.28V184.73H242.488V187.27C242.488 187.443 242.551 187.593 242.678 187.72C242.804 187.84 242.954 187.9 243.128 187.9H243.248L243.258 188H240.218V187.9H240.348C240.521 187.9 240.668 187.84 240.788 187.72C240.914 187.593 240.981 187.443 240.988 187.27V181.73C240.981 181.557 240.914 181.41 240.788 181.29C240.668 181.163 240.521 181.1 240.348 181.1H240.218V181H243.258L243.248 181.1H243.128C242.954 181.1 242.804 181.163 242.678 181.29C242.551 181.41 242.488 181.557 242.488 181.73V184.3H245.728V181.73C245.721 181.557 245.654 181.41 245.528 181.29C245.408 181.163 245.261 181.1 245.088 181.1H244.958V181H247.998V181.1H247.868C247.694 181.1 247.544 181.163 247.418 181.29C247.291 181.41 247.228 181.557 247.228 181.73V187.27C247.228 187.443 247.291 187.593 247.418 187.72C247.544 187.84 247.694 187.9 247.868 187.9H247.998V188H244.958V187.9H245.088Z" fill="url(#paint5_linear_3146_5175)"/>
<path d="M160.077 181.41V187.28C160.084 187.453 160.147 187.6 160.267 187.72C160.394 187.84 160.544 187.9 160.717 187.9H160.837L160.847 188H157.807V187.9H157.937C158.104 187.9 158.247 187.84 158.367 187.72C158.494 187.6 158.564 187.457 158.577 187.29V181.41H157.227C156.921 181.417 156.677 181.513 156.497 181.7C156.317 181.887 156.227 182.13 156.227 182.43V182.55H156.127V180.81C156.401 180.923 156.794 180.983 157.307 180.99H161.337C161.544 180.99 161.767 180.97 162.007 180.93C162.254 180.89 162.424 180.85 162.517 180.81V182.55H162.417V182.43C162.417 182.017 162.261 181.723 161.947 181.55C161.801 181.463 161.624 181.417 161.417 181.41H160.077ZM168.088 187.9C168.261 187.9 168.394 187.857 168.488 187.77C168.641 187.617 168.721 187.453 168.728 187.28V184.73H165.488V187.27C165.488 187.443 165.551 187.593 165.678 187.72C165.804 187.84 165.954 187.9 166.128 187.9H166.248L166.258 188H163.218V187.9H163.348C163.521 187.9 163.668 187.84 163.788 187.72C163.914 187.593 163.981 187.443 163.988 187.27V181.73C163.981 181.557 163.914 181.41 163.788 181.29C163.668 181.163 163.521 181.1 163.348 181.1H163.218V181H166.258L166.248 181.1H166.128C165.954 181.1 165.804 181.163 165.678 181.29C165.551 181.41 165.488 181.557 165.488 181.73V184.3H168.728V181.73C168.721 181.557 168.654 181.41 168.528 181.29C168.408 181.163 168.261 181.1 168.088 181.1H167.958V181H170.998V181.1H170.868C170.694 181.1 170.544 181.163 170.418 181.29C170.291 181.41 170.228 181.557 170.228 181.73V187.27C170.228 187.443 170.291 187.593 170.418 187.72C170.544 187.84 170.694 187.9 170.868 187.9H170.998V188H167.958V187.9H168.088Z" fill="url(#paint6_linear_3146_5175)"/>
<defs>
<linearGradient id="paint0_linear_3146_5175" x1="170.152" y1="-11.8714" x2="170.152" y2="112.029" gradientUnits="userSpaceOnUse">
<stop offset="0.234375" stop-color="#FFD37C"/>
<stop offset="0.607292" stop-color="#D08123"/>
</linearGradient>
<linearGradient id="paint1_linear_3146_5175" x1="175" y1="107.48" x2="175" y2="129" gradientUnits="userSpaceOnUse">
<stop stop-color="#0FA3B1"/>
<stop offset="1" stop-color="#037EC4" stop-opacity="0.97"/>
</linearGradient>
<linearGradient id="paint2_linear_3146_5175" x1="171.195" y1="141.307" x2="171.195" y2="158.973" gradientUnits="userSpaceOnUse">
<stop offset="0.234375" stop-color="#FFD37C"/>
<stop offset="0.607292" stop-color="#D08123"/>
</linearGradient>
<linearGradient id="paint3_linear_3146_5175" x1="176.5" y1="194.393" x2="176.5" y2="226" gradientUnits="userSpaceOnUse">
<stop stop-color="#0FA3B1"/>
<stop offset="1" stop-color="#037EC4" stop-opacity="0.97"/>
</linearGradient>
<linearGradient id="paint4_linear_3146_5175" x1="176.5" y1="236.1" x2="176.5" y2="263" gradientUnits="userSpaceOnUse">
<stop stop-color="#0FA3B1"/>
<stop offset="1" stop-color="#037EC4" stop-opacity="0.97"/>
</linearGradient>
<linearGradient id="paint5_linear_3146_5175" x1="240.699" y1="183.818" x2="240.699" y2="189.605" gradientUnits="userSpaceOnUse">
<stop stop-color="#0FA3B1"/>
<stop offset="1" stop-color="#037EC4" stop-opacity="0.97"/>
</linearGradient>
<linearGradient id="paint6_linear_3146_5175" x1="163.699" y1="183.818" x2="163.699" y2="189.605" gradientUnits="userSpaceOnUse">
<stop stop-color="#0FA3B1"/>
<stop offset="1" stop-color="#037EC4" stop-opacity="0.97"/>
</linearGradient>
<clipPath id="clip0_3146_5175">
<rect width="293" height="13.8301" fill="white" transform="translate(29 143)"/>
</clipPath>
</defs>
</svg>
