<svg width="25" height="25" viewBox="0 0 25 25" fill="none" xmlns="http://www.w3.org/2000/svg">
<g clip-path="url(#clip0_2083_7782)">
<path fill-rule="evenodd" clip-rule="evenodd" d="M12.4445 0.0100098C5.60805 0.0100098 0.0708008 5.54726 0.0708008 12.3837C0.0708008 17.8591 3.61278 22.4838 8.53134 24.1233C9.15003 24.2316 9.38204 23.8604 9.38204 23.5356C9.38204 23.2417 9.36657 22.2673 9.36657 21.231C6.25767 21.8033 5.45338 20.4731 5.2059 19.7771C5.0667 19.4213 4.46348 18.3231 3.93759 18.0293C3.50451 17.7973 2.88583 17.225 3.92213 17.2095C4.89656 17.194 5.59258 18.1066 5.82459 18.4778C6.93822 20.3493 8.71695 19.8235 9.42844 19.4986C9.53671 18.6944 9.86152 18.153 10.2173 17.8437C7.46411 17.5343 4.58721 16.4671 4.58721 11.7341C4.58721 10.3885 5.0667 9.27485 5.85552 8.40868C5.73179 8.09934 5.2987 6.83103 5.97926 5.12964C5.97926 5.12964 7.01556 4.80483 9.38204 6.39795C10.3719 6.11954 11.4237 5.98034 12.4755 5.98034C13.5272 5.98034 14.579 6.11954 15.5689 6.39795C17.9354 4.78937 18.9717 5.12964 18.9717 5.12964C19.6522 6.83103 19.2192 8.09934 19.0954 8.40868C19.8842 9.27485 20.3637 10.373 20.3637 11.7341C20.3637 16.4825 17.4714 17.5343 14.7182 17.8437C15.1668 18.2303 15.5534 18.9728 15.5534 20.1328C15.5534 21.7878 15.538 23.118 15.538 23.5356C15.538 23.8604 15.77 24.2471 16.3887 24.1233C18.845 23.294 20.9795 21.7153 22.4917 19.6094C24.0038 17.5034 24.8175 14.9763 24.8183 12.3837C24.8183 5.54726 19.281 0.0100098 12.4445 0.0100098Z" fill="url(#paint0_linear_2083_7782)"/>
</g>
<defs>
<linearGradient id="paint0_linear_2083_7782" x1="12.0809" y1="-2.94401" x2="12.0809" y2="27.8868" gradientUnits="userSpaceOnUse">
<stop stop-color="#FFD37C"/>
<stop offset="0.607292" stop-color="#D08123"/>
</linearGradient>
<clipPath id="clip0_2083_7782">
<rect width="24.7475" height="24.7475" fill="white" transform="translate(0.0708008 0.0100098)"/>
</clipPath>
</defs>
</svg>
