<svg width="30" height="29" viewBox="0 0 30 29" fill="none" xmlns="http://www.w3.org/2000/svg">
<path fill-rule="evenodd" clip-rule="evenodd" d="M25.563 14.7871C25.563 14.0228 25.4944 13.2878 25.367 12.5823H15.2148V16.7519H21.0161C20.7662 18.0993 20.0068 19.241 18.8651 20.0053V22.71H22.3488C24.3871 20.8334 25.563 18.0699 25.563 14.7871Z" fill="#4285F4"/>
<path fill-rule="evenodd" clip-rule="evenodd" d="M15.2149 25.3214C18.1253 25.3214 20.5653 24.3561 22.3488 22.7098L18.8651 20.0052C17.8999 20.6519 16.6652 21.0341 15.2149 21.0341C12.4073 21.0341 10.031 19.1379 9.18331 16.5901H5.58203V19.3829C7.35572 22.9058 11.0011 25.3214 15.2149 25.3214Z" fill="#34A853"/>
<path fill-rule="evenodd" clip-rule="evenodd" d="M9.18336 16.5902C8.96777 15.9434 8.84528 15.2525 8.84528 14.5421C8.84528 13.8316 8.96777 13.1408 9.18336 12.494V9.70117H5.58208C4.85202 11.1564 4.43555 12.8027 4.43555 14.5421C4.43555 16.2815 4.85202 17.9278 5.58208 19.383L9.18336 16.5902Z" fill="#FBBC05"/>
<path fill-rule="evenodd" clip-rule="evenodd" d="M15.2149 8.05018C16.7975 8.05018 18.2184 8.59405 19.3355 9.66218L22.4272 6.57047C20.5604 4.83108 18.1204 3.76294 15.2149 3.76294C11.0011 3.76294 7.35572 6.17849 5.58203 9.70138L9.18331 12.4942C10.031 9.94637 12.4073 8.05018 15.2149 8.05018Z" fill="#EA4335"/>
</svg>
