<svg width="293" height="14" viewBox="0 0 293 14" fill="none" xmlns="http://www.w3.org/2000/svg">
<path d="M141.612 3.10327L141.509 3.11622L0.0387719 9.73649H0L0.0129555 10.1503L142.349 8.49519H142.479L142.543 8.39175L145.672 2.49557L150.457 8.39175L150.521 8.49519H150.651L292.987 10.1503L293 9.73649H292.961L151.491 3.11622L151.388 3.10327L151.323 3.16792L147.328 10.7656L141.677 3.16792L141.612 3.10327ZM140.63 4.3575L146.358 13.6879L146.5 13.8301L146.642 13.6879L151.543 3.52996L287.996 9.81408L151.582 7.25388L146.681 0.323257L146.5 0L146.319 0.323257L142.246 8.08142L5.004 9.81408L140.63 4.3575Z" fill="url(#paint0_linear_3104_6298)"/>
<defs>
<linearGradient id="paint0_linear_3104_6298" x1="142.195" y1="-1.69261" x2="142.195" y2="15.973" gradientUnits="userSpaceOnUse">
<stop offset="0.234375" stop-color="#FFD37C"/>
<stop offset="0.607292" stop-color="#D08123"/>
</linearGradient>
</defs>
</svg>
