<svg width="57" height="44" viewBox="0 0 57 44" fill="none" xmlns="http://www.w3.org/2000/svg">
<path d="M48.2844 3.68499C44.5947 1.9635 40.6495 0.712392 36.5249 0C36.0183 0.913261 35.4265 2.14162 35.0185 3.11877C30.6339 2.46123 26.2897 2.46123 21.9858 3.11877C21.5778 2.14162 20.9726 0.913261 20.4615 0C16.3324 0.712392 12.3827 1.9681 8.69296 3.69411C1.25078 14.9087 -0.766676 25.8448 0.242052 36.6256C5.1781 40.3014 9.96172 42.5343 14.6646 43.9955C15.8258 42.4019 16.8614 40.7078 17.7535 38.9224C16.0544 38.2786 14.427 37.4841 12.8893 36.5617C13.2972 36.2603 13.6963 35.9452 14.0818 35.621C23.4607 39.9955 33.6511 39.9955 42.918 35.621C43.3081 35.9452 43.707 36.2603 44.1105 36.5617C42.5683 37.4886 40.9364 38.2831 39.2373 38.927C40.1294 40.7078 41.1606 42.4064 42.3262 44C47.0336 42.5388 51.8217 40.306 56.7577 36.6256C57.9413 24.1279 54.7358 13.2923 48.2844 3.68499ZM19.0313 29.9955C16.2158 29.9955 13.9069 27.3745 13.9069 24.1827C13.9069 20.9909 16.1665 18.3653 19.0313 18.3653C21.8961 18.3653 24.205 20.9863 24.1557 24.1827C24.1601 27.3745 21.8961 29.9955 19.0313 29.9955ZM37.9685 29.9955C35.1531 29.9955 32.8442 27.3745 32.8442 24.1827C32.8442 20.9909 35.1037 18.3653 37.9685 18.3653C40.8333 18.3653 43.1422 20.9863 43.0929 24.1827C43.0929 27.3745 40.8333 29.9955 37.9685 29.9955Z" fill="#5865F2"/>
</svg>
