<svg width="23" height="23" viewBox="0 0 23 23" fill="none" xmlns="http://www.w3.org/2000/svg">
<path fill-rule="evenodd" clip-rule="evenodd" d="M6.7684 0.351747C7.97793 0.296065 8.36358 0.283691 11.4446 0.283691C14.5257 0.283691 14.9114 0.297096 16.1199 0.351747C17.3284 0.406398 18.1533 0.599222 18.8751 0.878662C19.6309 1.16429 20.3166 1.61077 20.8837 2.18822C21.4612 2.75431 21.9066 3.43899 22.1912 4.19585C22.4717 4.91766 22.6635 5.74257 22.7192 6.94901C22.7749 8.16061 22.7872 8.54625 22.7872 11.6263C22.7872 14.7073 22.7738 15.093 22.7192 16.3025C22.6645 17.509 22.4717 18.3339 22.1912 19.0557C21.9066 19.8126 21.4604 20.4985 20.8837 21.0654C20.3166 21.6428 19.6309 22.0883 18.8751 22.3729C18.1533 22.6533 17.3284 22.8451 16.1219 22.9008C14.9113 22.9565 14.5257 22.9689 11.4446 22.9689C8.36358 22.9689 7.97793 22.9555 6.7684 22.9008C5.56196 22.8462 4.73705 22.6533 4.01524 22.3729C3.2583 22.0882 2.57249 21.6421 2.00554 21.0654C1.42849 20.4989 0.981942 19.8135 0.697021 19.0567C0.417581 18.3349 0.225788 17.51 0.170106 16.3036C0.114424 15.092 0.102051 14.7063 0.102051 11.6263C0.102051 8.54522 0.115456 8.15957 0.170106 6.95107C0.224757 5.74257 0.417581 4.91766 0.697021 4.19585C0.982362 3.43908 1.42926 2.75361 2.00657 2.18718C2.57271 1.61026 3.25784 1.16372 4.01421 0.878662C4.73601 0.599222 5.56093 0.407429 6.76737 0.351747H6.7684ZM16.0281 2.39341C14.832 2.33876 14.4731 2.32742 11.4446 2.32742C8.41617 2.32742 8.05733 2.33876 6.8612 2.39341C5.75479 2.44394 5.15466 2.62851 4.75458 2.78422C4.2256 2.99045 3.84717 3.23483 3.45018 3.63182C3.07386 3.99793 2.78424 4.44362 2.60258 4.93622C2.44687 5.3363 2.2623 5.93643 2.21177 7.04284C2.15712 8.23897 2.14578 8.59781 2.14578 11.6263C2.14578 14.6548 2.15712 15.0136 2.21177 16.2097C2.2623 17.3161 2.44687 17.9163 2.60258 18.3163C2.78406 18.8082 3.07381 19.2547 3.45018 19.6207C3.81623 19.9971 4.26272 20.2869 4.75458 20.4683C5.15466 20.6241 5.75479 20.8086 6.8612 20.8592C8.05733 20.9138 8.41514 20.9251 11.4446 20.9251C14.4741 20.9251 14.832 20.9138 16.0281 20.8592C17.1345 20.8086 17.7346 20.6241 18.1347 20.4683C18.6637 20.2621 19.0421 20.0177 19.4391 19.6207C19.8155 19.2547 20.1052 18.8082 20.2867 18.3163C20.4424 17.9163 20.627 17.3161 20.6775 16.2097C20.7322 15.0136 20.7435 14.6548 20.7435 11.6263C20.7435 8.59781 20.7322 8.23897 20.6775 7.04284C20.627 5.93643 20.4424 5.3363 20.2867 4.93622C20.0805 4.40724 19.8361 4.02881 19.4391 3.63182C19.073 3.25552 18.6273 2.96592 18.1347 2.78422C17.7346 2.62851 17.1345 2.44394 16.0281 2.39341ZM9.99588 15.1229C10.805 15.4597 11.7059 15.5052 12.5448 15.2515C13.3837 14.9978 14.1085 14.4608 14.5954 13.7321C15.0823 13.0034 15.3012 12.1283 15.2146 11.2562C15.1279 10.3841 14.7412 9.56912 14.1205 8.95046C13.7247 8.55499 13.2463 8.25218 12.7195 8.06383C12.1927 7.87547 11.6307 7.80626 11.0739 7.86118C10.5172 7.91609 9.97954 8.09376 9.4997 8.3814C9.01986 8.66905 8.60976 9.0595 8.29893 9.52466C7.9881 9.98981 7.78427 10.5181 7.70212 11.0715C7.61996 11.6249 7.66153 12.1896 7.82382 12.725C7.98611 13.2604 8.26509 13.7531 8.64067 14.1678C9.01626 14.5824 9.4791 14.9086 9.99588 15.1229ZM7.32213 7.50377C7.8635 6.96239 8.50621 6.53295 9.21355 6.23996C9.92089 5.94696 10.679 5.79616 11.4446 5.79616C12.2103 5.79616 12.9684 5.94696 13.6757 6.23995C14.3831 6.53295 15.0258 6.96239 15.5672 7.50377C16.1085 8.04514 16.538 8.68785 16.831 9.39519C17.124 10.1025 17.2748 10.8607 17.2748 11.6263C17.2748 12.3919 17.124 13.15 16.831 13.8574C16.538 14.5647 16.1085 15.2074 15.5672 15.7488C14.4738 16.8422 12.9909 17.4564 11.4446 17.4564C9.8984 17.4564 8.41548 16.8422 7.32213 15.7488C6.22877 14.6554 5.61452 13.1725 5.61452 11.6263C5.61452 10.08 6.22877 8.59713 7.32213 7.50377ZM18.5678 6.66441C18.7019 6.53786 18.8093 6.38568 18.8836 6.21687C18.9579 6.04807 18.9976 5.86607 19.0003 5.68166C19.003 5.49725 18.9686 5.31418 18.8993 5.14328C18.83 4.97238 18.727 4.81713 18.5966 4.68672C18.4662 4.55631 18.311 4.45339 18.1401 4.38406C17.9692 4.31472 17.7861 4.28038 17.6017 4.28307C17.4173 4.28576 17.2353 4.32542 17.0665 4.39971C16.8977 4.47399 16.7455 4.58139 16.6189 4.71555C16.3728 4.97646 16.2381 5.32302 16.2433 5.68166C16.2485 6.0403 16.3933 6.38279 16.6469 6.63641C16.9006 6.89004 17.243 7.03483 17.6017 7.04006C17.9603 7.04529 18.3069 6.91054 18.5678 6.66441Z" fill="url(#paint0_linear_2083_7775)"/>
<defs>
<linearGradient id="paint0_linear_2083_7775" x1="11.1113" y1="-2.49265" x2="11.1113" y2="26.4838" gradientUnits="userSpaceOnUse">
<stop stop-color="#FFD37C"/>
<stop offset="0.607292" stop-color="#D08123"/>
</linearGradient>
</defs>
</svg>
