<svg width="1440" height="676" viewBox="0 0 1440 676" fill="none" xmlns="http://www.w3.org/2000/svg">
<path d="M1440 0H0V676H1440V0Z" fill="url(#paint0_radial_2300_5770)"/>
<path d="M449.05 347.002C449.642 347.002 450.121 346.643 450.121 346.201C450.121 345.759 449.642 345.401 449.05 345.401C448.459 345.401 447.979 345.759 447.979 346.201C447.979 346.643 448.459 347.002 449.05 347.002Z" fill="white"/>
<path d="M715.761 354.097C716.353 354.097 716.832 353.739 716.832 353.297C716.832 352.855 716.353 352.496 715.761 352.496C715.17 352.496 714.69 352.855 714.69 353.297C714.69 353.739 715.17 354.097 715.761 354.097Z" fill="white"/>
<path d="M305.394 77.4435C305.986 77.4435 306.465 77.0851 306.465 76.6431C306.465 76.2011 305.986 75.8428 305.394 75.8428C304.803 75.8428 304.323 76.2011 304.323 76.6431C304.323 77.0851 304.803 77.4435 305.394 77.4435Z" fill="white"/>
<path d="M1242.04 24.0687C1242.63 24.0687 1243.11 23.7104 1243.11 23.2684C1243.11 22.8264 1242.63 22.4681 1242.04 22.4681C1241.45 22.4681 1240.97 22.8264 1240.97 23.2684C1240.97 23.7104 1241.45 24.0687 1242.04 24.0687Z" fill="white"/>
<path d="M908.539 361.573C909.13 361.573 909.61 361.215 909.61 360.773C909.61 360.331 909.13 359.973 908.539 359.973C907.947 359.973 907.468 360.331 907.468 360.773C907.468 361.215 907.947 361.573 908.539 361.573Z" fill="white"/>
<path d="M336.066 452.124C336.657 452.124 337.137 451.765 337.137 451.323C337.137 450.881 336.657 450.523 336.066 450.523C335.475 450.523 334.995 450.881 334.995 451.323C334.995 451.765 335.475 452.124 336.066 452.124Z" fill="white"/>
<path d="M392.496 423.327C393.087 423.327 393.567 422.969 393.567 422.527C393.567 422.085 393.087 421.727 392.496 421.727C391.904 421.727 391.425 422.085 391.425 422.527C391.425 422.969 391.904 423.327 392.496 423.327Z" fill="white"/>
<path d="M160.006 357.698C160.598 357.698 161.077 357.339 161.077 356.897C161.077 356.455 160.598 356.097 160.006 356.097C159.415 356.097 158.936 356.455 158.936 356.897C158.936 357.339 159.415 357.698 160.006 357.698Z" fill="white"/>
<path d="M685.869 397.971C686.46 397.971 686.94 397.612 686.94 397.17C686.94 396.728 686.46 396.37 685.869 396.37C685.277 396.37 684.798 396.728 684.798 397.17C684.798 397.612 685.277 397.971 685.869 397.971Z" fill="white"/>
<path d="M297.421 429.143C298.013 429.143 298.492 428.785 298.492 428.343C298.492 427.901 298.013 427.542 297.421 427.542C296.83 427.542 296.351 427.901 296.351 428.343C296.351 428.785 296.83 429.143 297.421 429.143Z" fill="white"/>
<path d="M946.142 241.201C947.325 241.201 948.284 240.485 948.284 239.601C948.284 238.717 947.325 238 946.142 238C944.959 238 944 238.717 944 239.601C944 240.485 944.959 241.201 946.142 241.201Z" fill="white"/>
<path d="M795.322 379.191C796.505 379.191 797.464 378.474 797.464 377.59C797.464 376.706 796.505 375.989 795.322 375.989C794.14 375.989 793.181 376.706 793.181 377.59C793.181 378.474 794.14 379.191 795.322 379.191Z" fill="white"/>
<path d="M593.755 54.9143C594.938 54.9143 595.897 54.1976 595.897 53.3136C595.897 52.4295 594.938 51.7129 593.755 51.7129C592.572 51.7129 591.613 52.4295 591.613 53.3136C591.613 54.1976 592.572 54.9143 593.755 54.9143Z" fill="white"/>
<path d="M588.792 72.7507C589.975 72.7507 590.934 72.034 590.934 71.15C590.934 70.266 589.975 69.5493 588.792 69.5493C587.609 69.5493 586.65 70.266 586.65 71.15C586.65 72.034 587.609 72.7507 588.792 72.7507Z" fill="white"/>
<path d="M354.201 85.7615C355.384 85.7615 356.343 85.0449 356.343 84.1609C356.343 83.2768 355.384 82.5602 354.201 82.5602C353.019 82.5602 352.06 83.2768 352.06 84.1609C352.06 85.0449 353.019 85.7615 354.201 85.7615Z" fill="white"/>
<path d="M1097.07 478.708C1098.25 478.708 1099.21 477.991 1099.21 477.107C1099.21 476.223 1098.25 475.506 1097.07 475.506C1095.89 475.506 1094.93 476.223 1094.93 477.107C1094.93 477.991 1095.89 478.708 1097.07 478.708Z" fill="white"/>
<path d="M1402.39 73.9154C1402.94 73.9154 1403.39 73.5779 1403.39 73.1614C1403.39 72.745 1402.94 72.4075 1402.39 72.4075C1401.83 72.4075 1401.38 72.745 1401.38 73.1614C1401.38 73.5779 1401.83 73.9154 1402.39 73.9154Z" fill="white"/>
<path d="M693.579 177.673C694.307 177.673 694.897 177.232 694.897 176.687C694.897 176.143 694.307 175.702 693.579 175.702C692.851 175.702 692.26 176.143 692.26 176.687C692.26 177.232 692.851 177.673 693.579 177.673Z" fill="white"/>
<path d="M1063.58 17.5725C1064.22 17.5725 1064.74 17.1863 1064.74 16.7099C1064.74 16.2335 1064.22 15.8474 1063.58 15.8474C1062.94 15.8474 1062.43 16.2335 1062.43 16.7099C1062.43 17.1863 1062.94 17.5725 1063.58 17.5725Z" fill="white"/>
<path d="M1005.42 478.1C1006.04 478.1 1006.54 477.728 1006.54 477.27C1006.54 476.811 1006.04 476.439 1005.42 476.439C1004.81 476.439 1004.31 476.811 1004.31 477.27C1004.31 477.728 1004.81 478.1 1005.42 478.1Z" fill="white"/>
<path d="M1.6793 63.8321C2.00377 63.8321 2.2668 63.6355 2.2668 63.393C2.2668 63.1505 2.00377 62.9539 1.6793 62.9539C1.35483 62.9539 1.0918 63.1505 1.0918 63.393C1.0918 63.6355 1.35483 63.8321 1.6793 63.8321Z" fill="white"/>
<path d="M924.355 415.392C925.206 415.392 925.896 414.877 925.896 414.24C925.896 413.604 925.206 413.089 924.355 413.089C923.503 413.089 922.813 413.604 922.813 414.24C922.813 414.877 923.503 415.392 924.355 415.392Z" fill="white"/>
<path d="M318.153 53.431C318.618 53.431 318.996 53.1489 318.996 52.8008C318.996 52.4528 318.618 52.1707 318.153 52.1707C317.687 52.1707 317.31 52.4528 317.31 52.8008C317.31 53.1489 317.687 53.431 318.153 53.431Z" fill="white"/>
<path d="M1156.35 402.161C1157.12 402.161 1157.74 401.697 1157.74 401.125C1157.74 400.553 1157.12 400.089 1156.35 400.089C1155.59 400.089 1154.96 400.553 1154.96 401.125C1154.96 401.697 1155.59 402.161 1156.35 402.161Z" fill="white"/>
<path d="M1210.13 62.3007C1210.61 62.3007 1210.99 62.0136 1210.99 61.6595C1210.99 61.3053 1210.61 61.0182 1210.13 61.0182C1209.66 61.0182 1209.27 61.3053 1209.27 61.6595C1209.27 62.0136 1209.66 62.3007 1210.13 62.3007Z" fill="white"/>
<path d="M290.871 234.032C291.741 234.032 292.447 233.505 292.447 232.854C292.447 232.204 291.741 231.677 290.871 231.677C290 231.677 289.295 232.204 289.295 232.854C289.295 233.505 290 234.032 290.871 234.032Z" fill="white"/>
<path d="M831.195 445.178C831.84 445.178 832.362 444.787 832.362 444.305C832.362 443.823 831.84 443.433 831.195 443.433C830.55 443.433 830.027 443.823 830.027 444.305C830.027 444.787 830.55 445.178 831.195 445.178Z" fill="white"/>
<path d="M1119.88 473.877C1120.64 473.877 1121.25 473.419 1121.25 472.853C1121.25 472.287 1120.64 471.829 1119.88 471.829C1119.13 471.829 1118.51 472.287 1118.51 472.853C1118.51 473.419 1119.13 473.877 1119.88 473.877Z" fill="white"/>
<path d="M1312.91 376.089C1313.77 376.089 1314.46 375.567 1314.46 374.924C1314.46 374.28 1313.77 373.759 1312.91 373.759C1312.04 373.759 1311.35 374.28 1311.35 374.924C1311.35 375.567 1312.04 376.089 1312.91 376.089Z" fill="white"/>
<path d="M424.264 481.296C424.761 481.296 425.163 480.995 425.163 480.624C425.163 480.253 424.761 479.953 424.264 479.953C423.768 479.953 423.365 480.253 423.365 480.624C423.365 480.995 423.768 481.296 424.264 481.296Z" fill="white"/>
<path d="M486.639 389.663C487.244 389.663 487.734 389.296 487.734 388.844C487.734 388.392 487.244 388.026 486.639 388.026C486.034 388.026 485.543 388.392 485.543 388.844C485.543 389.296 486.034 389.663 486.639 389.663Z" fill="white"/>
<path d="M1220.56 61.8168C1220.96 61.8168 1221.28 61.5748 1221.28 61.2763C1221.28 60.9778 1220.96 60.7358 1220.56 60.7358C1220.16 60.7358 1219.83 60.9778 1219.83 61.2763C1219.83 61.5748 1220.16 61.8168 1220.56 61.8168Z" fill="white"/>
<path d="M484.682 413.139C485.533 413.139 486.223 412.623 486.223 411.987C486.223 411.351 485.533 410.835 484.682 410.835C483.83 410.835 483.14 411.351 483.14 411.987C483.14 412.623 483.83 413.139 484.682 413.139Z" fill="white"/>
<path d="M1378.53 303.225C1378.86 303.225 1379.13 303.025 1379.13 302.778C1379.13 302.532 1378.86 302.332 1378.53 302.332C1378.2 302.332 1377.94 302.532 1377.94 302.778C1377.94 303.025 1378.2 303.225 1378.53 303.225Z" fill="white"/>
<path d="M83.2112 402.738C84.0332 402.738 84.6996 402.24 84.6996 401.626C84.6996 401.011 84.0332 400.513 83.2112 400.513C82.3891 400.513 81.7227 401.011 81.7227 401.626C81.7227 402.24 82.3891 402.738 83.2112 402.738Z" fill="white"/>
<path d="M1351.22 476.864C1352.1 476.864 1352.82 476.331 1352.82 475.673C1352.82 475.016 1352.1 474.483 1351.22 474.483C1350.34 474.483 1349.63 475.016 1349.63 475.673C1349.63 476.331 1350.34 476.864 1351.22 476.864Z" fill="white"/>
<path d="M783.509 365.973C783.845 365.973 784.118 365.769 784.118 365.518C784.118 365.267 783.845 365.064 783.509 365.064C783.173 365.064 782.901 365.267 782.901 365.518C782.901 365.769 783.173 365.973 783.509 365.973Z" fill="white"/>
<path d="M1198.88 158.471C1199.26 158.471 1199.57 158.241 1199.57 157.958C1199.57 157.674 1199.26 157.444 1198.88 157.444C1198.5 157.444 1198.2 157.674 1198.2 157.958C1198.2 158.241 1198.5 158.471 1198.88 158.471Z" fill="white"/>
<path d="M238.346 115.25C239.184 115.25 239.864 114.742 239.864 114.116C239.864 113.49 239.184 112.982 238.346 112.982C237.508 112.982 236.829 113.49 236.829 114.116C236.829 114.742 237.508 115.25 238.346 115.25Z" fill="white"/>
<path d="M251.68 411.347C252.503 411.347 253.169 410.849 253.169 410.234C253.169 409.62 252.503 409.122 251.68 409.122C250.858 409.122 250.191 409.62 250.191 410.234C250.191 410.849 250.858 411.347 251.68 411.347Z" fill="white"/>
<path d="M813.873 317.181C814.194 317.181 814.455 316.987 814.455 316.746C814.455 316.506 814.194 316.312 813.873 316.312C813.552 316.312 813.291 316.506 813.291 316.746C813.291 316.987 813.552 317.181 813.873 317.181Z" fill="white"/>
<path d="M1368.62 122.765C1369.09 122.765 1369.48 122.477 1369.48 122.121C1369.48 121.765 1369.09 121.476 1368.62 121.476C1368.14 121.476 1367.75 121.765 1367.75 122.121C1367.75 122.477 1368.14 122.765 1368.62 122.765Z" fill="white"/>
<path d="M1210.14 103.366C1210.98 103.366 1211.67 102.856 1211.67 102.226C1211.67 101.597 1210.98 101.086 1210.14 101.086C1209.3 101.086 1208.62 101.597 1208.62 102.226C1208.62 102.856 1209.3 103.366 1210.14 103.366Z" fill="white"/>
<path d="M856.183 60.2264C856.935 60.2264 857.544 59.7708 857.544 59.2089C857.544 58.6469 856.935 58.1913 856.183 58.1913C855.431 58.1913 854.821 58.6469 854.821 59.2089C854.821 59.7708 855.431 60.2264 856.183 60.2264Z" fill="white"/>
<path d="M1289.96 161.675C1290.73 161.675 1291.36 161.204 1291.36 160.623C1291.36 160.042 1290.73 159.571 1289.96 159.571C1289.18 159.571 1288.55 160.042 1288.55 160.623C1288.55 161.204 1289.18 161.675 1289.96 161.675Z" fill="white"/>
<path d="M655.529 253.539C656.106 253.539 656.573 253.19 656.573 252.759C656.573 252.329 656.106 251.979 655.529 251.979C654.953 251.979 654.485 252.329 654.485 252.759C654.485 253.19 654.953 253.539 655.529 253.539Z" fill="white"/>
<path d="M233.519 372.52C234.301 372.52 234.935 372.046 234.935 371.461C234.935 370.877 234.301 370.403 233.519 370.403C232.737 370.403 232.103 370.877 232.103 371.461C232.103 372.046 232.737 372.52 233.519 372.52Z" fill="white"/>
<path d="M1123.12 259.115C1123.82 259.115 1124.38 258.693 1124.38 258.172C1124.38 257.651 1123.82 257.228 1123.12 257.228C1122.42 257.228 1121.86 257.651 1121.86 258.172C1121.86 258.693 1122.42 259.115 1123.12 259.115Z" fill="white"/>
<path d="M102.315 57.8991C103.11 57.8991 103.755 57.4171 103.755 56.8225C103.755 56.2278 103.11 55.7458 102.315 55.7458C101.519 55.7458 100.874 56.2278 100.874 56.8225C100.874 57.4171 101.519 57.8991 102.315 57.8991Z" fill="white"/>
<path d="M973.661 147.445C974.003 147.445 974.28 147.238 974.28 146.982C974.28 146.726 974.003 146.519 973.661 146.519C973.318 146.519 973.041 146.726 973.041 146.982C973.041 147.238 973.318 147.445 973.661 147.445Z" fill="white"/>
<path d="M547.525 253.288C548.094 253.288 548.555 252.944 548.555 252.518C548.555 252.093 548.094 251.749 547.525 251.749C546.956 251.749 546.495 252.093 546.495 252.518C546.495 252.944 546.956 253.288 547.525 253.288Z" fill="white"/>
<path d="M1184.89 107.295C1185.44 107.295 1185.89 106.962 1185.89 106.55C1185.89 106.139 1185.44 105.805 1184.89 105.805C1184.34 105.805 1183.9 106.139 1183.9 106.55C1183.9 106.962 1184.34 107.295 1184.89 107.295Z" fill="white"/>
<path d="M1253.94 227.028C1254.78 227.028 1255.46 226.522 1255.46 225.898C1255.46 225.274 1254.78 224.768 1253.94 224.768C1253.11 224.768 1252.43 225.274 1252.43 225.898C1252.43 226.522 1253.11 227.028 1253.94 227.028Z" fill="white"/>
<path d="M53.3008 73.877C54.0737 73.877 54.7003 73.4088 54.7003 72.8312C54.7003 72.2535 54.0737 71.7853 53.3008 71.7853C52.5279 71.7853 51.9014 72.2535 51.9014 72.8312C51.9014 73.4088 52.5279 73.877 53.3008 73.877Z" fill="white"/>
<path d="M1427.97 160.324C1428.4 160.324 1428.74 160.065 1428.74 159.747C1428.74 159.428 1428.4 159.17 1427.97 159.17C1427.55 159.17 1427.2 159.428 1427.2 159.747C1427.2 160.065 1427.55 160.324 1427.97 160.324Z" fill="white"/>
<path d="M653.891 453.855C654.219 453.855 654.485 453.656 654.485 453.411C654.485 453.166 654.219 452.967 653.891 452.967C653.563 452.967 653.296 453.166 653.296 453.411C653.296 453.656 653.563 453.855 653.891 453.855Z" fill="white"/>
<path d="M200.407 327.02C201.226 327.02 201.89 326.524 201.89 325.912C201.89 325.299 201.226 324.803 200.407 324.803C199.587 324.803 198.923 325.299 198.923 325.912C198.923 326.524 199.587 327.02 200.407 327.02Z" fill="white"/>
<path d="M673.292 221.381C674.089 221.381 674.735 220.899 674.735 220.303C674.735 219.708 674.089 219.225 673.292 219.225C672.495 219.225 671.85 219.708 671.85 220.303C671.85 220.899 672.495 221.381 673.292 221.381Z" fill="white"/>
<path d="M1331.89 400.936C1332.23 400.936 1332.5 400.731 1332.5 400.477C1332.5 400.224 1332.23 400.018 1331.89 400.018C1331.55 400.018 1331.28 400.224 1331.28 400.477C1331.28 400.731 1331.55 400.936 1331.89 400.936Z" fill="white"/>
<path d="M115.251 482.186C116.035 482.186 116.67 481.711 116.67 481.125C116.67 480.54 116.035 480.065 115.251 480.065C114.467 480.065 113.832 480.54 113.832 481.125C113.832 481.711 114.467 482.186 115.251 482.186Z" fill="white"/>
<path d="M33.4698 286.922C34.2982 286.922 34.9699 286.42 34.9699 285.801C34.9699 285.182 34.2982 284.68 33.4698 284.68C32.6413 284.68 31.9697 285.182 31.9697 285.801C31.9697 286.42 32.6413 286.922 33.4698 286.922Z" fill="white"/>
<path d="M1374.73 88.622C1375.56 88.622 1376.24 88.1191 1376.24 87.4987C1376.24 86.8784 1375.56 86.3755 1374.73 86.3755C1373.9 86.3755 1373.23 86.8784 1373.23 87.4987C1373.23 88.1191 1373.9 88.622 1374.73 88.622Z" fill="white"/>
<path d="M580.504 276.562C581.08 276.562 581.547 276.214 581.547 275.783C581.547 275.353 581.08 275.004 580.504 275.004C579.929 275.004 579.462 275.353 579.462 275.783C579.462 276.214 579.929 276.562 580.504 276.562Z" fill="white"/>
<path d="M226.53 47.2275C227.066 47.2275 227.501 46.9026 227.501 46.5017C227.501 46.1009 227.066 45.7759 226.53 45.7759C225.993 45.7759 225.559 46.1009 225.559 46.5017C225.559 46.9026 225.993 47.2275 226.53 47.2275Z" fill="white"/>
<path d="M773.056 122.674C773.7 122.674 774.222 122.284 774.222 121.803C774.222 121.322 773.7 120.932 773.056 120.932C772.412 120.932 771.89 121.322 771.89 121.803C771.89 122.284 772.412 122.674 773.056 122.674Z" fill="white"/>
<path d="M1056.2 158.809C1056.8 158.809 1057.28 158.448 1057.28 158.004C1057.28 157.56 1056.8 157.199 1056.2 157.199C1055.61 157.199 1055.12 157.56 1055.12 158.004C1055.12 158.448 1055.61 158.809 1056.2 158.809Z" fill="white"/>
<path d="M197.186 193.41C197.898 193.41 198.476 192.979 198.476 192.446C198.476 191.914 197.898 191.482 197.186 191.482C196.474 191.482 195.896 191.914 195.896 192.446C195.896 192.979 196.474 193.41 197.186 193.41Z" fill="white"/>
<path d="M1230.92 459.4C1231.67 459.4 1232.28 458.945 1232.28 458.384C1232.28 457.823 1231.67 457.368 1230.92 457.368C1230.17 457.368 1229.56 457.823 1229.56 458.384C1229.56 458.945 1230.17 459.4 1230.92 459.4Z" fill="white"/>
<path d="M630.968 311.177C631.513 311.177 631.954 310.847 631.954 310.44C631.954 310.033 631.513 309.703 630.968 309.703C630.423 309.703 629.981 310.033 629.981 310.44C629.981 310.847 630.423 311.177 630.968 311.177Z" fill="white"/>
<path d="M885.663 32.5722C886.305 32.5722 886.826 32.183 886.826 31.703C886.826 31.2229 886.305 30.8337 885.663 30.8337C885.021 30.8337 884.5 31.2229 884.5 31.703C884.5 32.183 885.021 32.5722 885.663 32.5722Z" fill="white"/>
<path d="M1212.58 188.537C1213.17 188.537 1213.66 188.174 1213.66 187.727C1213.66 187.279 1213.17 186.916 1212.58 186.916C1211.98 186.916 1211.49 187.279 1211.49 187.727C1211.49 188.174 1211.98 188.537 1212.58 188.537Z" fill="white"/>
<path d="M749.929 212.138C750.471 212.138 750.91 211.81 750.91 211.405C750.91 211 750.471 210.672 749.929 210.672C749.387 210.672 748.948 211 748.948 211.405C748.948 211.81 749.387 212.138 749.929 212.138Z" fill="white"/>
<path d="M1338.82 418.633C1339.56 418.633 1340.16 418.183 1340.16 417.628C1340.16 417.074 1339.56 416.624 1338.82 416.624C1338.07 416.624 1337.47 417.074 1337.47 417.628C1337.47 418.183 1338.07 418.633 1338.82 418.633Z" fill="white"/>
<path d="M355.858 114.06C356.204 114.06 356.484 113.85 356.484 113.592C356.484 113.333 356.204 113.124 355.858 113.124C355.513 113.124 355.232 113.333 355.232 113.592C355.232 113.85 355.513 114.06 355.858 114.06Z" fill="white"/>
<path d="M631.081 347.794C631.607 347.794 632.034 347.475 632.034 347.081C632.034 346.688 631.607 346.369 631.081 346.369C630.554 346.369 630.127 346.688 630.127 347.081C630.127 347.475 630.554 347.794 631.081 347.794Z" fill="white"/>
<path d="M1098.18 179.527C1098.72 179.527 1099.16 179.2 1099.16 178.797C1099.16 178.394 1098.72 178.068 1098.18 178.068C1097.64 178.068 1097.21 178.394 1097.21 178.797C1097.21 179.2 1097.64 179.527 1098.18 179.527Z" fill="white"/>
<path d="M686.985 417.856C687.721 417.856 688.317 417.41 688.317 416.861C688.317 416.311 687.721 415.865 686.985 415.865C686.25 415.865 685.653 416.311 685.653 416.861C685.653 417.41 686.25 417.856 686.985 417.856Z" fill="white"/>
<path d="M910.798 115.725C911.353 115.725 911.803 115.388 911.803 114.973C911.803 114.559 911.353 114.222 910.798 114.222C910.243 114.222 909.793 114.559 909.793 114.973C909.793 115.388 910.243 115.725 910.798 115.725Z" fill="white"/>
<path d="M484.262 238.371C485.03 238.371 485.652 237.906 485.652 237.332C485.652 236.758 485.03 236.293 484.262 236.293C483.494 236.293 482.872 236.758 482.872 237.332C482.872 237.906 483.494 238.371 484.262 238.371Z" fill="white"/>
<path d="M77.5439 149.575C77.9278 149.575 78.2391 149.342 78.2391 149.055C78.2391 148.768 77.9278 148.536 77.5439 148.536C77.1599 148.536 76.8486 148.768 76.8486 149.055C76.8486 149.342 77.1599 149.575 77.5439 149.575Z" fill="white"/>
<path d="M960.089 20.6718C960.731 20.6718 961.251 20.2828 961.251 19.803C961.251 19.3232 960.731 18.9343 960.089 18.9343C959.447 18.9343 958.926 19.3232 958.926 19.803C958.926 20.2828 959.447 20.6718 960.089 20.6718Z" fill="white"/>
<path d="M921.057 397.207C921.908 397.207 922.597 396.692 922.597 396.057C922.597 395.421 921.908 394.906 921.057 394.906C920.207 394.906 919.518 395.421 919.518 396.057C919.518 396.692 920.207 397.207 921.057 397.207Z" fill="white"/>
<path d="M461.543 457.971C462.334 457.971 462.975 457.491 462.975 456.9C462.975 456.309 462.334 455.83 461.543 455.83C460.752 455.83 460.11 456.309 460.11 456.9C460.11 457.491 460.752 457.971 461.543 457.971Z" fill="white"/>
<path d="M305.196 83.2145C306.052 83.2145 306.747 82.6955 306.747 82.0553C306.747 81.4151 306.052 80.8961 305.196 80.8961C304.339 80.8961 303.645 81.4151 303.645 82.0553C303.645 82.6955 304.339 83.2145 305.196 83.2145Z" fill="white"/>
<path d="M430.234 340.338C430.834 340.338 431.321 339.974 431.321 339.526C431.321 339.077 430.834 338.714 430.234 338.714C429.634 338.714 429.147 339.077 429.147 339.526C429.147 339.974 429.634 340.338 430.234 340.338Z" fill="white"/>
<path d="M1118.72 243.29C1119.5 243.29 1120.14 242.818 1120.14 242.235C1120.14 241.652 1119.5 241.18 1118.72 241.18C1117.94 241.18 1117.31 241.652 1117.31 242.235C1117.31 242.818 1117.94 243.29 1118.72 243.29Z" fill="white"/>
<path d="M18.3384 473.954C19.0312 473.954 19.5928 473.534 19.5928 473.017C19.5928 472.499 19.0312 472.079 18.3384 472.079C17.6456 472.079 17.084 472.499 17.084 473.017C17.084 473.534 17.6456 473.954 18.3384 473.954Z" fill="white"/>
<path d="M1278.27 191.496C1278.87 191.496 1279.36 191.132 1279.36 190.683C1279.36 190.234 1278.87 189.87 1278.27 189.87C1277.67 189.87 1277.19 190.234 1277.19 190.683C1277.19 191.132 1277.67 191.496 1278.27 191.496Z" fill="white"/>
<path d="M614.095 8.31813C614.55 8.31813 614.918 8.04294 614.918 7.70347C614.918 7.364 614.55 7.08881 614.095 7.08881C613.641 7.08881 613.273 7.364 613.273 7.70347C613.273 8.04294 613.641 8.31813 614.095 8.31813Z" fill="white"/>
<path d="M808.558 41.1034C809.152 41.1034 809.634 40.7434 809.634 40.2994C809.634 39.8554 809.152 39.4955 808.558 39.4955C807.964 39.4955 807.482 39.8554 807.482 40.2994C807.482 40.7434 807.964 41.1034 808.558 41.1034Z" fill="white"/>
<path d="M1018.18 124.826C1018.51 124.826 1018.78 124.625 1018.78 124.377C1018.78 124.129 1018.51 123.928 1018.18 123.928C1017.85 123.928 1017.58 124.129 1017.58 124.377C1017.58 124.625 1017.85 124.826 1018.18 124.826Z" fill="white"/>
<path d="M280.079 160.094C280.577 160.094 280.98 159.792 280.98 159.42C280.98 159.048 280.577 158.747 280.079 158.747C279.581 158.747 279.178 159.048 279.178 159.42C279.178 159.792 279.581 160.094 280.079 160.094Z" fill="white"/>
<path d="M1060.61 138.37C1061.07 138.37 1061.45 138.089 1061.45 137.743C1061.45 137.396 1061.07 137.115 1060.61 137.115C1060.15 137.115 1059.77 137.396 1059.77 137.743C1059.77 138.089 1060.15 138.37 1060.61 138.37Z" fill="white"/>
<path d="M1010.87 454.693C1011.55 454.693 1012.11 454.278 1012.11 453.765C1012.11 453.252 1011.55 452.837 1010.87 452.837C1010.18 452.837 1009.63 453.252 1009.63 453.765C1009.63 454.278 1010.18 454.693 1010.87 454.693Z" fill="white"/>
<path d="M196.628 457.394C197.505 457.394 198.216 456.863 198.216 456.208C198.216 455.553 197.505 455.022 196.628 455.022C195.752 455.022 195.041 455.553 195.041 456.208C195.041 456.863 195.752 457.394 196.628 457.394Z" fill="white"/>
<path d="M1384.04 227.343C1384.76 227.343 1385.34 226.909 1385.34 226.374C1385.34 225.839 1384.76 225.406 1384.04 225.406C1383.32 225.406 1382.74 225.839 1382.74 226.374C1382.74 226.909 1383.32 227.343 1384.04 227.343Z" fill="white"/>
<path d="M998.928 71.9022C999.342 71.9022 999.677 71.6514 999.677 71.342C999.677 71.0326 999.342 70.7817 998.928 70.7817C998.514 70.7817 998.178 71.0326 998.178 71.342C998.178 71.6514 998.514 71.9022 998.928 71.9022Z" fill="white"/>
<path d="M1383.48 463.642C1384.29 463.642 1384.95 463.149 1384.95 462.54C1384.95 461.932 1384.29 461.438 1383.48 461.438C1382.66 461.438 1382 461.932 1382 462.54C1382 463.149 1382.66 463.642 1383.48 463.642Z" fill="white"/>
<path d="M1334.01 450.181C1334.35 450.181 1334.63 449.973 1334.63 449.717C1334.63 449.46 1334.35 449.252 1334.01 449.252C1333.66 449.252 1333.38 449.46 1333.38 449.717C1333.38 449.973 1333.66 450.181 1334.01 450.181Z" fill="white"/>
<path d="M202.926 155.902C203.629 155.902 204.199 155.476 204.199 154.951C204.199 154.426 203.629 154 202.926 154C202.223 154 201.653 154.426 201.653 154.951C201.653 155.476 202.223 155.902 202.926 155.902Z" fill="white"/>
<path d="M85.7446 199.143C86.1155 199.143 86.4161 198.918 86.4161 198.641C86.4161 198.364 86.1155 198.139 85.7446 198.139C85.3738 198.139 85.0732 198.364 85.0732 198.641C85.0732 198.918 85.3738 199.143 85.7446 199.143Z" fill="white"/>
<path d="M875.577 219.602C876.356 219.602 876.988 219.13 876.988 218.548C876.988 217.965 876.356 217.493 875.577 217.493C874.797 217.493 874.166 217.965 874.166 218.548C874.166 219.13 874.797 219.602 875.577 219.602Z" fill="white"/>
<path d="M1187.97 134.618C1188.77 134.618 1189.41 134.134 1189.41 133.538C1189.41 132.942 1188.77 132.459 1187.97 132.459C1187.17 132.459 1186.52 132.942 1186.52 133.538C1186.52 134.134 1187.17 134.618 1187.97 134.618Z" fill="white"/>
<path d="M699.953 389.471C700.382 389.471 700.73 389.211 700.73 388.89C700.73 388.57 700.382 388.31 699.953 388.31C699.523 388.31 699.175 388.57 699.175 388.89C699.175 389.211 699.523 389.471 699.953 389.471Z" fill="white"/>
<path d="M1293.72 71.7411C1294.06 71.7411 1294.33 71.5362 1294.33 71.2833C1294.33 71.0305 1294.06 70.8256 1293.72 70.8256C1293.38 70.8256 1293.11 71.0305 1293.11 71.2833C1293.11 71.5362 1293.38 71.7411 1293.72 71.7411Z" fill="white"/>
<path d="M1121.4 227.66C1122.12 227.66 1122.71 227.221 1122.71 226.681C1122.71 226.14 1122.12 225.702 1121.4 225.702C1120.68 225.702 1120.09 226.14 1120.09 226.681C1120.09 227.221 1120.68 227.66 1121.4 227.66Z" fill="white"/>
<path d="M551.161 291.642C551.697 291.642 552.13 291.318 552.13 290.918C552.13 290.518 551.697 290.193 551.161 290.193C550.626 290.193 550.192 290.518 550.192 290.918C550.192 291.318 550.626 291.642 551.161 291.642Z" fill="white"/>
<path d="M679.726 293.458C680.577 293.458 681.266 292.943 681.266 292.307C681.266 291.671 680.577 291.155 679.726 291.155C678.875 291.155 678.185 291.671 678.185 292.307C678.185 292.943 678.875 293.458 679.726 293.458Z" fill="white"/>
<path d="M255.202 143.852C255.67 143.852 256.05 143.569 256.05 143.219C256.05 142.869 255.67 142.585 255.202 142.585C254.734 142.585 254.354 142.869 254.354 143.219C254.354 143.569 254.734 143.852 255.202 143.852Z" fill="white"/>
<path d="M72.6877 444.203C73.3916 444.203 73.9623 443.776 73.9623 443.25C73.9623 442.724 73.3916 442.298 72.6877 442.298C71.9837 442.298 71.4131 442.724 71.4131 443.25C71.4131 443.776 71.9837 444.203 72.6877 444.203Z" fill="white"/>
<path d="M958.6 113.857C959.356 113.857 959.969 113.399 959.969 112.834C959.969 112.269 959.356 111.811 958.6 111.811C957.844 111.811 957.231 112.269 957.231 112.834C957.231 113.399 957.844 113.857 958.6 113.857Z" fill="white"/>
<path d="M805.016 470.907C805.385 470.907 805.683 470.684 805.683 470.408C805.683 470.133 805.385 469.91 805.016 469.91C804.648 469.91 804.349 470.133 804.349 470.408C804.349 470.684 804.648 470.907 805.016 470.907Z" fill="white"/>
<path d="M374.453 390.49C375.046 390.49 375.526 390.131 375.526 389.689C375.526 389.246 375.046 388.887 374.453 388.887C373.861 388.887 373.381 389.246 373.381 389.689C373.381 390.131 373.861 390.49 374.453 390.49Z" fill="white"/>
<path d="M7.6927 69.0127C8.4679 69.0127 9.09633 68.5431 9.09633 67.9637C9.09633 67.3844 8.4679 66.9147 7.6927 66.9147C6.91749 66.9147 6.28906 67.3844 6.28906 67.9637C6.28906 68.5431 6.91749 69.0127 7.6927 69.0127Z" fill="white"/>
<path d="M999.648 230.29C999.972 230.29 1000.24 230.093 1000.24 229.851C1000.24 229.609 999.972 229.412 999.648 229.412C999.324 229.412 999.061 229.609 999.061 229.851C999.061 230.093 999.324 230.29 999.648 230.29Z" fill="white"/>
<path d="M803.572 379.246C803.94 379.246 804.239 379.023 804.239 378.747C804.239 378.472 803.94 378.249 803.572 378.249C803.204 378.249 802.905 378.472 802.905 378.747C802.905 379.023 803.204 379.246 803.572 379.246Z" fill="white"/>
<path d="M481.43 167.001C482.264 167.001 482.94 166.496 482.94 165.872C482.94 165.249 482.264 164.744 481.43 164.744C480.596 164.744 479.919 165.249 479.919 165.872C479.919 166.496 480.596 167.001 481.43 167.001Z" fill="white"/>
<path d="M1433.84 109.166C1434.21 109.166 1434.5 108.947 1434.5 108.675C1434.5 108.404 1434.21 108.185 1433.84 108.185C1433.48 108.185 1433.19 108.404 1433.19 108.675C1433.19 108.947 1433.48 109.166 1433.84 109.166Z" fill="white"/>
<path d="M437.954 255.739C438.497 255.739 438.938 255.409 438.938 255.003C438.938 254.597 438.497 254.268 437.954 254.268C437.41 254.268 436.97 254.597 436.97 255.003C436.97 255.409 437.41 255.739 437.954 255.739Z" fill="white"/>
<path d="M152.998 361.502C153.78 361.502 154.413 361.029 154.413 360.444C154.413 359.86 153.78 359.387 152.998 359.387C152.217 359.387 151.583 359.86 151.583 360.444C151.583 361.029 152.217 361.502 152.998 361.502Z" fill="white"/>
<path d="M657.425 416.477C658.226 416.477 658.874 415.992 658.874 415.394C658.874 414.795 658.226 414.311 657.425 414.311C656.625 414.311 655.976 414.795 655.976 415.394C655.976 415.992 656.625 416.477 657.425 416.477Z" fill="white"/>
<path d="M1309.48 48.7196C1310.14 48.7196 1310.68 48.3176 1310.68 47.8216C1310.68 47.3256 1310.14 46.9235 1309.48 46.9235C1308.82 46.9235 1308.28 47.3256 1308.28 47.8216C1308.28 48.3176 1308.82 48.7196 1309.48 48.7196Z" fill="white"/>
<path d="M871.296 38.88C871.859 38.88 872.316 38.5388 872.316 38.118C872.316 37.6971 871.859 37.356 871.296 37.356C870.733 37.356 870.276 37.6971 870.276 38.118C870.276 38.5388 870.733 38.88 871.296 38.88Z" fill="white"/>
<path d="M436.825 94.1854C437.324 94.1854 437.729 93.8829 437.729 93.5097C437.729 93.1365 437.324 92.834 436.825 92.834C436.326 92.834 435.921 93.1365 435.921 93.5097C435.921 93.8829 436.326 94.1854 436.825 94.1854Z" fill="white"/>
<path d="M1426.18 212.066C1427 212.066 1427.66 211.573 1427.66 210.964C1427.66 210.356 1427 209.863 1426.18 209.863C1425.37 209.863 1424.71 210.356 1424.71 210.964C1424.71 211.573 1425.37 212.066 1426.18 212.066Z" fill="white"/>
<path d="M12.626 381.713C13.4074 381.713 14.041 381.239 14.041 380.655C14.041 380.071 13.4074 379.598 12.626 379.598C11.8445 379.598 11.2109 380.071 11.2109 380.655C11.2109 381.239 11.8445 381.713 12.626 381.713Z" fill="white"/>
<path d="M564.602 394.588C565.179 394.588 565.646 394.238 565.646 393.807C565.646 393.377 565.179 393.027 564.602 393.027C564.025 393.027 563.558 393.377 563.558 393.807C563.558 394.238 564.025 394.588 564.602 394.588Z" fill="white"/>
<path d="M1387.97 215.033C1388.42 215.033 1388.78 214.764 1388.78 214.433C1388.78 214.102 1388.42 213.833 1387.97 213.833C1387.53 213.833 1387.17 214.102 1387.17 214.433C1387.17 214.764 1387.53 215.033 1387.97 215.033Z" fill="white"/>
<path d="M799.093 162.893C799.599 162.893 800.009 162.586 800.009 162.208C800.009 161.829 799.599 161.523 799.093 161.523C798.586 161.523 798.176 161.829 798.176 162.208C798.176 162.586 798.586 162.893 799.093 162.893Z" fill="white"/>
<path d="M150.178 358.649C150.968 358.649 151.608 358.171 151.608 357.581C151.608 356.99 150.968 356.512 150.178 356.512C149.388 356.512 148.748 356.99 148.748 357.581C148.748 358.171 149.388 358.649 150.178 358.649Z" fill="white"/>
<path d="M1239.39 377.521C1239.99 377.521 1240.49 377.153 1240.49 376.699C1240.49 376.244 1239.99 375.876 1239.39 375.876C1238.78 375.876 1238.29 376.244 1238.29 376.699C1238.29 377.153 1238.78 377.521 1239.39 377.521Z" fill="white"/>
<path d="M1367.9 245.568C1368.23 245.568 1368.5 245.369 1368.5 245.123C1368.5 244.877 1368.23 244.678 1367.9 244.678C1367.57 244.678 1367.31 244.877 1367.31 245.123C1367.31 245.369 1367.57 245.568 1367.9 245.568Z" fill="white"/>
<path d="M218.704 264.131C219.182 264.131 219.57 263.841 219.57 263.484C219.57 263.127 219.182 262.837 218.704 262.837C218.226 262.837 217.838 263.127 217.838 263.484C217.838 263.841 218.226 264.131 218.704 264.131Z" fill="white"/>
<path d="M586.798 384.462C587.253 384.462 587.621 384.187 587.621 383.848C587.621 383.508 587.253 383.233 586.798 383.233C586.344 383.233 585.976 383.508 585.976 383.848C585.976 384.187 586.344 384.462 586.798 384.462Z" fill="white"/>
<path d="M444.236 393.926C444.645 393.926 444.975 393.678 444.975 393.373C444.975 393.068 444.645 392.821 444.236 392.821C443.828 392.821 443.497 393.068 443.497 393.373C443.497 393.678 443.828 393.926 444.236 393.926Z" fill="white"/>
<path d="M881.583 168.158C882.115 168.158 882.547 167.836 882.547 167.438C882.547 167.04 882.115 166.718 881.583 166.718C881.051 166.718 880.619 167.04 880.619 167.438C880.619 167.836 881.051 168.158 881.583 168.158Z" fill="white"/>
<path d="M1251.87 441.094C1252.56 441.094 1253.12 440.674 1253.12 440.156C1253.12 439.639 1252.56 439.219 1251.87 439.219C1251.17 439.219 1250.61 439.639 1250.61 440.156C1250.61 440.674 1251.17 441.094 1251.87 441.094Z" fill="white"/>
<path d="M510.476 459.409C511.036 459.409 511.49 459.07 511.49 458.651C511.49 458.233 511.036 457.894 510.476 457.894C509.916 457.894 509.462 458.233 509.462 458.651C509.462 459.07 509.916 459.409 510.476 459.409Z" fill="white"/>
<path d="M757.643 464.227C758.299 464.227 758.831 463.83 758.831 463.34C758.831 462.85 758.299 462.452 757.643 462.452C756.987 462.452 756.456 462.85 756.456 463.34C756.456 463.83 756.987 464.227 757.643 464.227Z" fill="white"/>
<path d="M1162.19 303.859C1162.92 303.859 1163.5 303.421 1163.5 302.881C1163.5 302.341 1162.92 301.903 1162.19 301.903C1161.47 301.903 1160.88 302.341 1160.88 302.881C1160.88 303.421 1161.47 303.859 1162.19 303.859Z" fill="white"/>
<path d="M92.0958 478.372C92.4232 478.372 92.6887 478.174 92.6887 477.929C92.6887 477.685 92.4232 477.486 92.0958 477.486C91.7684 477.486 91.5029 477.685 91.5029 477.929C91.5029 478.174 91.7684 478.372 92.0958 478.372Z" fill="white"/>
<path d="M460.355 279.957C460.861 279.957 461.271 279.651 461.271 279.273C461.271 278.895 460.861 278.588 460.355 278.588C459.849 278.588 459.439 278.895 459.439 279.273C459.439 279.651 459.849 279.957 460.355 279.957Z" fill="white"/>
<path d="M563.533 332.942C564.23 332.942 564.795 332.52 564.795 331.999C564.795 331.478 564.23 331.056 563.533 331.056C562.836 331.056 562.271 331.478 562.271 331.999C562.271 332.52 562.836 332.942 563.533 332.942Z" fill="white"/>
<path d="M995.861 119.327C996.546 119.327 997.101 118.912 997.101 118.4C997.101 117.888 996.546 117.473 995.861 117.473C995.176 117.473 994.621 117.888 994.621 118.4C994.621 118.912 995.176 119.327 995.861 119.327Z" fill="white"/>
<path d="M811.173 192.77C811.821 192.77 812.347 192.377 812.347 191.892C812.347 191.408 811.821 191.015 811.173 191.015C810.524 191.015 809.999 191.408 809.999 191.892C809.999 192.377 810.524 192.77 811.173 192.77Z" fill="white"/>
<path d="M1305.7 233.41C1306.36 233.41 1306.9 233.011 1306.9 232.519C1306.9 232.026 1306.36 231.627 1305.7 231.627C1305.05 231.627 1304.51 232.026 1304.51 232.519C1304.51 233.011 1305.05 233.41 1305.7 233.41Z" fill="white"/>
<path d="M1130.37 391.85C1130.92 391.85 1131.37 391.516 1131.37 391.105C1131.37 390.694 1130.92 390.361 1130.37 390.361C1129.82 390.361 1129.38 390.694 1129.38 391.105C1129.38 391.516 1129.82 391.85 1130.37 391.85Z" fill="white"/>
<path d="M207.203 72.2806C207.864 72.2806 208.4 71.8802 208.4 71.3862C208.4 70.8922 207.864 70.4917 207.203 70.4917C206.542 70.4917 206.006 70.8922 206.006 71.3862C206.006 71.8802 206.542 72.2806 207.203 72.2806Z" fill="white"/>
<path d="M202.224 32.941C203.011 32.941 203.649 32.4641 203.649 31.8759C203.649 31.2877 203.011 30.8109 202.224 30.8109C201.437 30.8109 200.799 31.2877 200.799 31.8759C200.799 32.4641 201.437 32.941 202.224 32.941Z" fill="white"/>
<path d="M1229.29 326.368C1229.59 326.368 1229.84 326.186 1229.84 325.962C1229.84 325.737 1229.59 325.555 1229.29 325.555C1228.99 325.555 1228.75 325.737 1228.75 325.962C1228.75 326.186 1228.99 326.368 1229.29 326.368Z" fill="white"/>
<path d="M205.448 402.101C206.309 402.101 207.008 401.579 207.008 400.936C207.008 400.292 206.309 399.77 205.448 399.77C204.586 399.77 203.888 400.292 203.888 400.936C203.888 401.579 204.586 402.101 205.448 402.101Z" fill="white"/>
<path d="M417.42 480.571C418.09 480.571 418.633 480.165 418.633 479.665C418.633 479.164 418.09 478.758 417.42 478.758C416.75 478.758 416.207 479.164 416.207 479.665C416.207 480.165 416.75 480.571 417.42 480.571Z" fill="white"/>
<path d="M594.068 130.281C594.598 130.281 595.028 129.96 595.028 129.564C595.028 129.167 594.598 128.846 594.068 128.846C593.537 128.846 593.107 129.167 593.107 129.564C593.107 129.96 593.537 130.281 594.068 130.281Z" fill="white"/>
<path d="M493.653 152.294C494.025 152.294 494.326 152.069 494.326 151.792C494.326 151.514 494.025 151.289 493.653 151.289C493.282 151.289 492.981 151.514 492.981 151.792C492.981 152.069 493.282 152.294 493.653 152.294Z" fill="white"/>
<path d="M87.3388 22.675C87.8279 22.675 88.2244 22.3787 88.2244 22.0131C88.2244 21.6476 87.8279 21.3513 87.3388 21.3513C86.8497 21.3513 86.4531 21.6476 86.4531 22.0131C86.4531 22.3787 86.8497 22.675 87.3388 22.675Z" fill="white"/>
<path d="M471.329 531.109C471.92 531.109 472.4 530.75 472.4 530.308C472.4 529.866 471.92 529.508 471.329 529.508C470.737 529.508 470.258 529.866 470.258 530.308C470.258 530.75 470.737 531.109 471.329 531.109Z" fill="white" fill-opacity="0.678571"/>
<path d="M738.04 538.205C738.631 538.205 739.111 537.846 739.111 537.404C739.111 536.962 738.631 536.604 738.04 536.604C737.448 536.604 736.969 536.962 736.969 537.404C736.969 537.846 737.448 538.205 738.04 538.205Z" fill="white" fill-opacity="0.678571"/>
<path d="M930.817 545.681C931.408 545.681 931.888 545.322 931.888 544.88C931.888 544.438 931.408 544.08 930.817 544.08C930.226 544.08 929.746 544.438 929.746 544.88C929.746 545.322 930.226 545.681 930.817 545.681Z" fill="white" fill-opacity="0.678571"/>
<path d="M182.285 541.805C182.876 541.805 183.356 541.446 183.356 541.004C183.356 540.562 182.876 540.204 182.285 540.204C181.693 540.204 181.214 540.562 181.214 541.004C181.214 541.446 181.693 541.805 182.285 541.805Z" fill="white"/>
<path d="M708.147 582.078C708.739 582.078 709.218 581.719 709.218 581.277C709.218 580.835 708.739 580.477 708.147 580.477C707.556 580.477 707.076 580.835 707.076 581.277C707.076 581.719 707.556 582.078 708.147 582.078Z" fill="white" fill-opacity="0.678571"/>
<path d="M817.602 563.298C818.785 563.298 819.744 562.581 819.744 561.697C819.744 560.813 818.785 560.096 817.602 560.096C816.419 560.096 815.46 560.813 815.46 561.697C815.46 562.581 816.419 563.298 817.602 563.298Z" fill="white" fill-opacity="0.678571"/>
<path d="M1178.63 586.269C1179.39 586.269 1180.01 585.805 1180.01 585.232C1180.01 584.66 1179.39 584.196 1178.63 584.196C1177.86 584.196 1177.24 584.66 1177.24 585.232C1177.24 585.805 1177.86 586.269 1178.63 586.269Z" fill="white" fill-opacity="0.678571"/>
<path d="M1335.18 560.196C1336.04 560.196 1336.74 559.675 1336.74 559.031C1336.74 558.388 1336.04 557.866 1335.18 557.866C1334.32 557.866 1333.62 558.388 1333.62 559.031C1333.62 559.675 1334.32 560.196 1335.18 560.196Z" fill="white"/>
<path d="M508.916 573.771C509.52 573.771 510.011 573.405 510.011 572.953C510.011 572.501 509.52 572.134 508.916 572.134C508.311 572.134 507.82 572.501 507.82 572.953C507.82 573.405 508.311 573.771 508.916 573.771Z" fill="white" fill-opacity="0.678571"/>
<path d="M132.488 597.225C133.311 597.225 133.977 596.727 133.977 596.112C133.977 595.498 133.311 595 132.488 595C131.666 595 131 595.498 131 596.112C131 596.727 131.666 597.225 132.488 597.225Z" fill="white"/>
<path d="M805.788 550.08C806.124 550.08 806.396 549.877 806.396 549.626C806.396 549.375 806.124 549.171 805.788 549.171C805.452 549.171 805.179 549.375 805.179 549.626C805.179 549.877 805.452 550.08 805.788 550.08Z" fill="white" fill-opacity="0.678571"/>
<path d="M255.797 556.627C256.58 556.627 257.214 556.153 257.214 555.569C257.214 554.984 256.58 554.51 255.797 554.51C255.015 554.51 254.381 554.984 254.381 555.569C254.381 556.153 255.015 556.627 255.797 556.627Z" fill="white" fill-opacity="0.678571"/>
<path d="M1354.17 585.044C1354.51 585.044 1354.78 584.838 1354.78 584.585C1354.78 584.331 1354.51 584.126 1354.17 584.126C1353.83 584.126 1353.55 584.331 1353.55 584.585C1353.55 584.838 1353.83 585.044 1354.17 585.044Z" fill="white"/>
<path d="M653.359 531.902C653.885 531.902 654.312 531.583 654.312 531.189C654.312 530.796 653.885 530.477 653.359 530.477C652.833 530.477 652.406 530.796 652.406 531.189C652.406 531.583 652.833 531.902 653.359 531.902Z" fill="white" fill-opacity="0.678571"/>
<path d="M943.336 581.315C944.186 581.315 944.875 580.799 944.875 580.164C944.875 579.528 944.186 579.013 943.336 579.013C942.485 579.013 941.796 579.528 941.796 580.164C941.796 580.799 942.485 581.315 943.336 581.315Z" fill="white" fill-opacity="0.678571"/>
<path d="M452.511 524.445C453.112 524.445 453.598 524.082 453.598 523.633C453.598 523.185 453.112 522.821 452.511 522.821C451.911 522.821 451.425 523.185 451.425 523.633C451.425 524.082 451.911 524.445 452.511 524.445Z" fill="white" fill-opacity="0.678571"/>
<path d="M722.23 573.58C722.66 573.58 723.008 573.319 723.008 572.999C723.008 572.678 722.66 572.418 722.23 572.418C721.801 572.418 721.453 572.678 721.453 572.999C721.453 573.319 721.801 573.58 722.23 573.58Z" fill="white" fill-opacity="0.678571"/>
<path d="M396.732 574.597C397.324 574.597 397.804 574.238 397.804 573.796C397.804 573.353 397.324 572.994 396.732 572.994C396.139 572.994 395.659 573.353 395.659 573.796C395.659 574.238 396.139 574.597 396.732 574.597Z" fill="white" fill-opacity="0.678571"/>
<path d="M825.851 563.354C826.219 563.354 826.517 563.131 826.517 562.855C826.517 562.58 826.219 562.357 825.851 562.357C825.482 562.357 825.184 562.58 825.184 562.855C825.184 563.131 825.482 563.354 825.851 563.354Z" fill="white" fill-opacity="0.678571"/>
<path d="M175.275 545.609C176.057 545.609 176.69 545.136 176.69 544.552C176.69 543.968 176.057 543.494 175.275 543.494C174.494 543.494 173.86 543.968 173.86 544.552C173.86 545.136 174.494 545.609 175.275 545.609Z" fill="white"/>
<path d="M36.415 577.115C37.1965 577.115 37.83 576.642 37.83 576.057C37.83 575.473 37.1965 575 36.415 575C35.6335 575 35 575.473 35 576.057C35 576.642 35.6335 577.115 36.415 577.115Z" fill="white"/>
<path d="M93.415 548.115C94.1965 548.115 94.83 547.642 94.83 547.057C94.83 546.473 94.1965 546 93.415 546C92.6335 546 92 546.473 92 547.057C92 547.642 92.6335 548.115 93.415 548.115Z" fill="white"/>
<path d="M159.415 523.115C160.197 523.115 160.83 522.642 160.83 522.057C160.83 521.473 160.197 521 159.415 521C158.634 521 158 521.473 158 522.057C158 522.642 158.634 523.115 159.415 523.115Z" fill="white"/>
<path d="M586.88 578.695C587.456 578.695 587.924 578.346 587.924 577.915C587.924 577.484 587.456 577.135 586.88 577.135C586.303 577.135 585.836 577.484 585.836 577.915C585.836 578.346 586.303 578.695 586.88 578.695Z" fill="white" fill-opacity="0.678571"/>
<path d="M1261.66 561.629C1262.27 561.629 1262.76 561.261 1262.76 560.807C1262.76 560.352 1262.27 559.984 1261.66 559.984C1261.06 559.984 1260.56 560.352 1260.56 560.807C1260.56 561.261 1261.06 561.629 1261.66 561.629Z" fill="white" fill-opacity="0.678571"/>
<path d="M609.076 568.57C609.53 568.57 609.899 568.295 609.899 567.956C609.899 567.616 609.53 567.341 609.076 567.341C608.622 567.341 608.253 567.616 608.253 567.956C608.253 568.295 608.622 568.57 609.076 568.57Z" fill="white" fill-opacity="0.678571"/>
<path d="M466.515 578.033C466.923 578.033 467.254 577.786 467.254 577.481C467.254 577.176 466.923 576.928 466.515 576.928C466.106 576.928 465.775 577.176 465.775 577.481C465.775 577.786 466.106 578.033 466.515 578.033Z" fill="white" fill-opacity="0.678571"/>
<path d="M1152.65 575.958C1153.2 575.958 1153.65 575.625 1153.65 575.214C1153.65 574.802 1153.2 574.469 1152.65 574.469C1152.1 574.469 1151.65 574.802 1151.65 575.214C1151.65 575.625 1152.1 575.958 1152.65 575.958Z" fill="white" fill-opacity="0.678571"/>
<path d="M227.725 586.21C228.587 586.21 229.285 585.688 229.285 585.044C229.285 584.4 228.587 583.878 227.725 583.878C226.864 583.878 226.165 584.4 226.165 585.044C226.165 585.688 226.864 586.21 227.725 586.21Z" fill="white"/>
<defs>
<radialGradient id="paint0_radial_2300_5770" cx="0" cy="0" r="1" gradientUnits="userSpaceOnUse" gradientTransform="translate(712.306 675.619) scale(1693.77 687.864)">
<stop stop-color="#5C3300"/>
<stop offset="0.729167"/>
</radialGradient>
</defs>
</svg>
