<svg width="25" height="26" viewBox="0 0 25 26" fill="none" xmlns="http://www.w3.org/2000/svg">
<g clip-path="url(#clip0_2083_7777)">
<path d="M24.4503 5.59609C23.5893 5.97761 22.6643 6.2354 21.692 6.35192C22.6953 5.75158 23.4459 4.80671 23.8038 3.69363C22.8611 4.25353 21.8295 4.64764 20.7536 4.85882C20.0302 4.08635 19.0719 3.57435 18.0276 3.4023C16.9833 3.23025 15.9115 3.40779 14.9784 3.90733C14.0454 4.40688 13.3034 5.2005 12.8676 6.16498C12.4318 7.12945 12.3266 8.21081 12.5684 9.24119C10.6584 9.14529 8.7899 8.64884 7.08418 7.78408C5.37846 6.91932 3.87362 5.70556 2.66735 4.22157C2.25489 4.93306 2.01773 5.75798 2.01773 6.63651C2.01727 7.4274 2.21203 8.20617 2.58473 8.90373C2.95744 9.60128 3.49656 10.1961 4.15426 10.6353C3.3915 10.611 2.64556 10.4049 1.97854 10.0341V10.096C1.97847 11.2052 2.36216 12.2804 3.06453 13.1389C3.76689 13.9975 4.74466 14.5866 5.83193 14.8063C5.12434 14.9978 4.38249 15.026 3.6624 14.8888C3.96917 15.8432 4.56671 16.6778 5.37139 17.2758C6.17607 17.8737 7.14759 18.2051 8.14995 18.2235C6.44839 19.5592 4.34697 20.2838 2.18374 20.2806C1.80055 20.2807 1.41768 20.2583 1.03711 20.2136C3.23291 21.6254 5.78898 22.3747 8.39948 22.3718C17.2364 22.3718 22.0673 15.0527 22.0673 8.70499C22.0673 8.49876 22.0622 8.29047 22.0529 8.08424C22.9925 7.40469 23.8037 6.5632 24.4482 5.59918L24.4503 5.59609Z" fill="url(#paint0_linear_2083_7777)"/>
</g>
<defs>
<linearGradient id="paint0_linear_2083_7777" x1="12.3997" y1="1.00896" x2="12.3997" y2="25.3209" gradientUnits="userSpaceOnUse">
<stop stop-color="#FFD37C"/>
<stop offset="0.607292" stop-color="#D08123"/>
</linearGradient>
<clipPath id="clip0_2083_7777">
<rect width="24.7475" height="24.7475" fill="white" transform="translate(0.0708008 0.505127)"/>
</clipPath>
</defs>
</svg>
