<svg width="32" height="32" viewBox="0 0 32 32" fill="none" xmlns="http://www.w3.org/2000/svg">
<g clip-path="url(#clip0_2083_5358)">
<path d="M31.3334 8.67594C31.1522 8.02958 30.7993 7.4444 30.3121 6.98261C29.8111 6.50661 29.1972 6.16612 28.5281 5.99327C26.0241 5.33327 15.9921 5.33327 15.9921 5.33327C11.8099 5.28569 7.62866 5.49497 3.47209 5.95994C2.80301 6.14556 2.19017 6.49365 1.68809 6.97327C1.19476 7.44794 0.837424 8.03327 0.650757 8.67461C0.202348 11.0903 -0.0155202 13.5431 9.04891e-05 15.9999C-0.0159095 18.4546 0.201424 20.9066 0.650757 23.3253C0.833424 23.9639 1.18942 24.5466 1.68409 25.0173C2.17876 25.4879 2.79476 25.8279 3.47209 26.0079C6.00942 26.6666 15.9921 26.6666 15.9921 26.6666C20.1796 26.7143 24.3662 26.505 28.5281 26.0399C29.1972 25.8671 29.8111 25.5266 30.3121 25.0506C30.8054 24.5799 31.1561 23.9946 31.3321 23.3573C31.7922 20.9425 32.0159 18.4887 32.0001 16.0306C32.0347 13.5621 31.8113 11.0967 31.3334 8.67461V8.67594ZM12.8028 20.5653V11.4359L21.1494 16.0013L12.8028 20.5653Z" fill="url(#paint0_linear_2083_5358)"/>
</g>
<defs>
<linearGradient id="paint0_linear_2083_5358" x1="15.5312" y1="2.71414" x2="15.5312" y2="29.9807" gradientUnits="userSpaceOnUse">
<stop stop-color="#FFD37C"/>
<stop offset="0.607292" stop-color="#D08123"/>
</linearGradient>
<clipPath id="clip0_2083_5358">
<rect width="32" height="32" fill="white"/>
</clipPath>
</defs>
</svg>
