<svg width="512" height="512" viewBox="0 0 512 512" fill="none" xmlns="http://www.w3.org/2000/svg">
<rect width="512" height="512" fill="black"/>
<path d="M164.328 343.682C170.098 343.682 174.98 341.685 178.974 337.69C183.191 333.474 185.41 328.481 185.632 322.711V137.294C185.188 131.524 183.524 127.307 180.639 124.644C175.313 119.762 169.876 117.321 164.328 117.321H160V113.992H287.495C298.369 113.992 307.357 113.215 314.459 111.662C321.56 109.886 325.888 108.666 327.441 108V166.255L324.112 165.922V162.26C324.112 148.501 319.008 138.736 308.8 132.966C303.917 130.081 298.147 128.528 291.49 128.306H235.565V225.175H279.506C287.717 224.953 294.486 222.179 299.812 216.853C305.138 211.305 307.801 204.536 307.801 196.547V193.551H311.13V270.448H307.801V267.785C307.801 259.573 305.138 252.805 299.812 247.479C294.707 242.152 288.161 239.378 280.171 239.156H235.565V332.697H279.173C295.373 332.697 308.911 328.037 319.785 318.716C330.881 309.395 339.092 296.191 344.418 279.103H347.747L332.434 347.011H160V343.682H164.328Z" fill="url(#paint0_linear_2594_5186)"/>
<line x1="160" y1="390.95" x2="352.334" y2="390.95" stroke="url(#paint1_linear_2594_5186)" stroke-width="25.8911"/>
<defs>
<linearGradient id="paint0_linear_2594_5186" x1="251.115" y1="78.7482" x2="251.115" y2="384.044" gradientUnits="userSpaceOnUse">
<stop offset="0.234375" stop-color="#FFD37C"/>
<stop offset="0.607292" stop-color="#D08123"/>
</linearGradient>
<linearGradient id="paint1_linear_2594_5186" x1="190.773" y1="404.896" x2="306.173" y2="404.896" gradientUnits="userSpaceOnUse">
<stop offset="0.180208" stop-color="#FFD37C"/>
<stop offset="1" stop-color="#D08123"/>
</linearGradient>
</defs>
</svg>
