<svg width="32" height="32" viewBox="0 0 32 32" fill="none" xmlns="http://www.w3.org/2000/svg">
<g clip-path="url(#clip0_2594_5204)">
<rect width="32" height="32" fill="black"/>
<path d="M10.27 21.7042C10.63 21.7042 10.9346 21.5796 11.1838 21.3304C11.4469 21.0673 11.5853 20.7558 11.5992 20.3958V8.82764C11.5715 8.46765 11.4677 8.20458 11.2877 8.03843C10.9554 7.73383 10.6161 7.58152 10.27 7.58152H10V7.37384H17.9544C18.6328 7.37384 19.1936 7.32538 19.6367 7.22846C20.0797 7.11769 20.3497 7.04154 20.4466 7V10.6345L20.2389 10.6137V10.3853C20.2389 9.52685 19.9205 8.91764 19.2836 8.55765C18.979 8.37765 18.619 8.28073 18.2036 8.26689H14.7145V14.3106H17.4559C17.9682 14.2967 18.3905 14.1236 18.7228 13.7913C19.0551 13.4452 19.2213 13.0229 19.2213 12.5245V12.3375H19.429V17.1351H19.2213V16.969C19.2213 16.4567 19.0551 16.0344 18.7228 15.7021C18.4044 15.3698 17.9959 15.1967 17.4975 15.1828H14.7145V21.0188H17.4352C18.4459 21.0188 19.2905 20.7281 19.969 20.1466C20.6612 19.565 21.1735 18.7412 21.5058 17.6751H21.7135L20.7582 21.9119H10V21.7042H10.27Z" fill="url(#paint0_linear_2594_5204)"/>
<line x1="10" y1="24.6533" x2="21.9997" y2="24.6533" stroke="url(#paint1_linear_2594_5204)" stroke-width="1.61534"/>
</g>
<defs>
<linearGradient id="paint0_linear_2594_5204" x1="15.6847" y1="5.175" x2="15.6847" y2="24.2224" gradientUnits="userSpaceOnUse">
<stop offset="0.234375" stop-color="#FFD37C"/>
<stop offset="0.607292" stop-color="#D08123"/>
</linearGradient>
<linearGradient id="paint1_linear_2594_5204" x1="11.9199" y1="26.4609" x2="19.1197" y2="26.4609" gradientUnits="userSpaceOnUse">
<stop offset="0.180208" stop-color="#FFD37C"/>
<stop offset="1" stop-color="#D08123"/>
</linearGradient>
<clipPath id="clip0_2594_5204">
<rect width="32" height="32" fill="white"/>
</clipPath>
</defs>
</svg>
