<svg width="192" height="192" viewBox="0 0 192 192" fill="none" xmlns="http://www.w3.org/2000/svg">
<g clip-path="url(#clip0_2594_5211)">
<rect width="192" height="192" fill="black"/>
<path d="M55.8902 133.932C58.4102 133.932 60.5426 133.06 62.2872 131.315C64.1287 129.474 65.0979 127.293 65.1949 124.773V43.7937C65.001 41.2737 64.2741 39.4322 63.0141 38.2691C60.6879 36.1368 58.3133 35.0706 55.8902 35.0706H54.0002V33.6168H109.683C114.432 33.6168 118.357 33.2776 121.459 32.5991C124.56 31.8237 126.45 31.2906 127.129 30.9999V56.4422L125.675 56.2968V54.6976C125.675 48.6883 123.446 44.4237 118.987 41.9037C116.855 40.6437 114.335 39.9653 111.427 39.8683H87.0026V82.1753H106.193C109.779 82.0783 112.736 80.8668 115.062 78.5407C117.388 76.1176 118.551 73.1614 118.551 69.6722V68.3637H120.005V101.948H118.551V100.785C118.551 97.1983 117.388 94.2422 115.062 91.916C112.833 89.5899 109.973 88.3784 106.484 88.2814H87.0026V129.135H106.048C113.123 129.135 119.036 127.099 123.785 123.028C128.631 118.958 132.217 113.191 134.543 105.728H135.997L129.309 135.386H54.0002V133.932H55.8902Z" fill="url(#paint0_linear_2594_5211)"/>
<line x1="54.0006" y1="154.346" x2="136.001" y2="154.352" stroke="url(#paint1_linear_2594_5211)" stroke-width="11.3077"/>
</g>
<defs>
<linearGradient id="paint0_linear_2594_5211" x1="93.794" y1="18.2245" x2="93.794" y2="151.56" gradientUnits="userSpaceOnUse">
<stop offset="0.234375" stop-color="#FFD37C"/>
<stop offset="0.607292" stop-color="#D08123"/>
</linearGradient>
<linearGradient id="paint1_linear_2594_5211" x1="67.1202" y1="161.001" x2="116.32" y2="161.004" gradientUnits="userSpaceOnUse">
<stop offset="0.180208" stop-color="#FFD37C"/>
<stop offset="1" stop-color="#D08123"/>
</linearGradient>
<clipPath id="clip0_2594_5211">
<rect width="192" height="192" fill="white"/>
</clipPath>
</defs>
</svg>
