<svg width="16" height="16" viewBox="0 0 16 16" fill="none" xmlns="http://www.w3.org/2000/svg">
<g clip-path="url(#clip0_2594_5190)">
<rect width="16" height="16" fill="black"/>
<path d="M5.13959 10.5357C5.32408 10.5357 5.48018 10.4718 5.60791 10.3441C5.74272 10.2093 5.81368 10.0496 5.82078 9.86511V3.93664C5.80659 3.75215 5.75337 3.61733 5.66112 3.53218C5.49083 3.37607 5.31698 3.29802 5.13959 3.29802H5.00122V3.19158H9.07771C9.42541 3.19158 9.71278 3.16675 9.93985 3.11708C10.1669 3.06031 10.3053 3.02129 10.3549 3V4.86263L10.2485 4.85198V4.73491C10.2485 4.29497 10.0853 3.98276 9.7589 3.79827C9.6028 3.70602 9.41831 3.65635 9.20544 3.64926H7.41732V6.74654H8.82227C9.08481 6.73945 9.30123 6.65075 9.47153 6.48045C9.64182 6.30306 9.72697 6.08664 9.72697 5.83119V5.7354H9.83341V8.19407H9.72697V8.10892C9.72697 7.84638 9.64182 7.62996 9.47153 7.45966C9.30833 7.28937 9.099 7.20067 8.84356 7.19357H7.41732V10.1844H8.81162C9.32961 10.1844 9.76245 10.0354 10.1101 9.73739C10.4649 9.43937 10.7275 9.01717 10.8978 8.4708H11.0042L10.5146 10.6421H5.00122V10.5357H5.13959Z" fill="url(#paint0_linear_2594_5190)"/>
<line x1="5" y1="12.047" x2="11.1496" y2="12.047" stroke="url(#paint1_linear_2594_5190)" stroke-width="0.827834"/>
</g>
<defs>
<linearGradient id="paint0_linear_2594_5190" x1="7.91451" y1="2.06472" x2="7.91451" y2="11.8262" gradientUnits="userSpaceOnUse">
<stop offset="0.234375" stop-color="#FFD37C"/>
<stop offset="0.607292" stop-color="#D08123"/>
</linearGradient>
<linearGradient id="paint1_linear_2594_5190" x1="5.98394" y1="13.4609" x2="9.67372" y2="13.4609" gradientUnits="userSpaceOnUse">
<stop offset="0.180208" stop-color="#FFD37C"/>
<stop offset="1" stop-color="#D08123"/>
</linearGradient>
<clipPath id="clip0_2594_5190">
<rect width="16" height="16" fill="white"/>
</clipPath>
</defs>
</svg>
