<svg width="64" height="64" viewBox="0 0 64 64" fill="none" xmlns="http://www.w3.org/2000/svg">
<g clip-path="url(#clip0_2594_5218)">
<rect width="64" height="64" fill="black"/>
<path d="M18.6127 44.3701C19.4297 44.3701 20.121 44.0873 20.6866 43.5217C21.2836 42.9247 21.5978 42.2177 21.6292 41.4007V15.1477C21.5664 14.3307 21.3307 13.7337 20.9222 13.3566C20.1681 12.6654 19.3983 12.3197 18.6127 12.3197H18V11.8484H36.0519C37.5916 11.8484 38.8642 11.7384 39.8697 11.5185C40.8752 11.2671 41.4879 11.0943 41.7079 11V19.2483L41.2365 19.2011V18.6827C41.2365 16.7345 40.5138 15.3519 39.0684 14.535C38.3771 14.1265 37.5602 13.9065 36.6175 13.8751H28.6992V27.5908H34.9207C36.0833 27.5594 37.0417 27.1666 37.7958 26.4125C38.5499 25.6269 38.927 24.6685 38.927 23.5374V23.1132H39.3983V34.0009H38.927V33.6238C38.927 32.4612 38.5499 31.5028 37.7958 30.7487C37.0731 29.9946 36.1462 29.6018 35.015 29.5704H28.6992V42.8147H34.8736C37.1674 42.8147 39.0841 42.1549 40.6238 40.8351C42.1949 39.5154 43.3575 37.6458 44.1116 35.2263H44.583L42.4148 44.8414H18V44.3701H18.6127Z" fill="url(#paint0_linear_2594_5218)"/>
<line x1="18" y1="51.0626" x2="45.2323" y2="51.0626" stroke="url(#paint1_linear_2594_5218)" stroke-width="3.66589"/>
</g>
<defs>
<linearGradient id="paint0_linear_2594_5218" x1="30.9009" y1="6.85829" x2="30.9009" y2="50.0849" gradientUnits="userSpaceOnUse">
<stop offset="0.234375" stop-color="#FFD37C"/>
<stop offset="0.607292" stop-color="#D08123"/>
</linearGradient>
<linearGradient id="paint1_linear_2594_5218" x1="22.3572" y1="53.8955" x2="38.6966" y2="53.8955" gradientUnits="userSpaceOnUse">
<stop offset="0.180208" stop-color="#FFD37C"/>
<stop offset="1" stop-color="#D08123"/>
</linearGradient>
<clipPath id="clip0_2594_5218">
<rect width="64" height="64" fill="white"/>
</clipPath>
</defs>
</svg>
