<svg width="24" height="24" viewBox="0 0 24 24" fill="none" xmlns="http://www.w3.org/2000/svg">
<g clip-path="url(#clip0_2594_5197)">
<rect width="24" height="24" fill="black"/>
<path d="M7.21247 16.5182C7.49446 16.5182 7.73306 16.4206 7.92829 16.2253C8.13436 16.0193 8.24281 15.7752 8.25366 15.4933V6.43164C8.23197 6.14965 8.15063 5.94358 8.00963 5.81343C7.74933 5.57482 7.48361 5.45552 7.21247 5.45552H7.00098V5.29284H13.2319C13.7633 5.29284 14.2026 5.25488 14.5496 5.17896C14.8967 5.09219 15.1082 5.03254 15.1841 5V7.84701L15.0214 7.83074V7.65179C15.0214 6.97935 14.772 6.50214 14.2731 6.22015C14.0344 6.07915 13.7525 6.00323 13.4271 5.99239H10.694V10.7266H12.8414C13.2427 10.7157 13.5735 10.5801 13.8338 10.3198C14.0941 10.0487 14.2242 9.7179 14.2242 9.32745V9.18104H14.3869V12.9391H14.2242V12.8089C14.2242 12.4076 14.0941 12.0769 13.8338 11.8166C13.5843 11.5563 13.2644 11.4207 12.8739 11.4098H10.694V15.9813H12.8251C13.6169 15.9813 14.2785 15.7536 14.8099 15.298C15.3522 14.8425 15.7535 14.1972 16.0138 13.3621H16.1765L15.4281 16.6809H7.00098V16.5182H7.21247Z" fill="url(#paint0_linear_2594_5197)"/>
<line x1="7" y1="18.8283" x2="16.3996" y2="18.8283" stroke="url(#paint1_linear_2594_5197)" stroke-width="1.26534"/>
</g>
<defs>
<linearGradient id="paint0_linear_2594_5197" x1="11.4539" y1="3.57043" x2="11.4539" y2="18.4907" gradientUnits="userSpaceOnUse">
<stop offset="0.234375" stop-color="#FFD37C"/>
<stop offset="0.607292" stop-color="#D08123"/>
</linearGradient>
<linearGradient id="paint1_linear_2594_5197" x1="8.50394" y1="20.4609" x2="14.1437" y2="20.4609" gradientUnits="userSpaceOnUse">
<stop offset="0.180208" stop-color="#FFD37C"/>
<stop offset="1" stop-color="#D08123"/>
</linearGradient>
<clipPath id="clip0_2594_5197">
<rect width="24" height="24" fill="white"/>
</clipPath>
</defs>
</svg>
