<svg width="43" height="162" viewBox="0 0 43 162" fill="none" xmlns="http://www.w3.org/2000/svg">
<path d="M0.289286 4.90909C0.289286 2.35764 2.35764 0.289286 4.90909 0.289286H42.525V161.711H4.90909C2.35764 161.711 0.289286 159.642 0.289286 157.091V4.90909Z" fill="url(#paint0_linear_3789_18303)" stroke="url(#paint1_linear_3789_18303)" stroke-width="0.578571"/>
<path d="M16.184 120.614V112.244H18.038V118.31H21.548V112.604H23.42V118.31H29V120.614H16.184ZM24.572 102.695V108.959C25.544 108.911 26.264 108.671 26.732 108.239C27.188 107.795 27.416 107.141 27.416 106.277C27.416 105.281 27.092 104.357 26.444 103.505L27.992 102.857C28.34 103.289 28.622 103.823 28.838 104.459C29.042 105.083 29.144 105.719 29.144 106.367C29.144 107.855 28.724 109.025 27.884 109.877C27.044 110.729 25.892 111.155 24.428 111.155C23.504 111.155 22.682 110.969 21.962 110.597C21.242 110.225 20.684 109.703 20.288 109.031C19.88 108.359 19.676 107.597 19.676 106.745C19.676 105.497 20.084 104.513 20.9 103.793C21.704 103.061 22.814 102.695 24.23 102.695H24.572ZM21.296 106.691C21.296 107.291 21.476 107.783 21.836 108.167C22.184 108.539 22.694 108.779 23.366 108.887V104.657C22.682 104.729 22.166 104.939 21.818 105.287C21.47 105.623 21.296 106.091 21.296 106.691ZM24.572 92.8337V99.0977C25.544 99.0497 26.264 98.8097 26.732 98.3777C27.188 97.9337 27.416 97.2797 27.416 96.4157C27.416 95.4197 27.092 94.4957 26.444 93.6437L27.992 92.9957C28.34 93.4277 28.622 93.9617 28.838 94.5977C29.042 95.2217 29.144 95.8577 29.144 96.5057C29.144 97.9937 28.724 99.1637 27.884 100.016C27.044 100.868 25.892 101.294 24.428 101.294C23.504 101.294 22.682 101.108 21.962 100.736C21.242 100.364 20.684 99.8417 20.288 99.1697C19.88 98.4977 19.676 97.7357 19.676 96.8837C19.676 95.6357 20.084 94.6517 20.9 93.9317C21.704 93.1997 22.814 92.8337 24.23 92.8337H24.572ZM21.296 96.8297C21.296 97.4297 21.476 97.9217 21.836 98.3057C22.184 98.6777 22.694 98.9177 23.366 99.0257V94.7957C22.682 94.8677 22.166 95.0777 21.818 95.4257C21.47 95.7617 21.296 96.2297 21.296 96.8297ZM15.752 82.2343H29V84.4483H27.542C28.046 84.7243 28.442 85.1203 28.73 85.6363C29.006 86.1523 29.144 86.7403 29.144 87.4003C29.144 88.1803 28.946 88.8763 28.55 89.4883C28.154 90.1003 27.596 90.5803 26.876 90.9283C26.144 91.2643 25.31 91.4323 24.374 91.4323C23.438 91.4323 22.616 91.2643 21.908 90.9283C21.2 90.5923 20.654 90.1183 20.27 89.5063C19.874 88.8943 19.676 88.1923 19.676 87.4003C19.676 86.7523 19.814 86.1763 20.09 85.6723C20.354 85.1563 20.732 84.7603 21.224 84.4843H15.752V82.2343ZM27.38 86.8063C27.38 86.0623 27.122 85.4863 26.606 85.0783C26.09 84.6583 25.358 84.4483 24.41 84.4483C23.462 84.4483 22.73 84.6523 22.214 85.0603C21.698 85.4683 21.44 86.0443 21.44 86.7883C21.44 87.5443 21.698 88.1323 22.214 88.5523C22.718 88.9603 23.438 89.1643 24.374 89.1643C25.322 89.1643 26.06 88.9603 26.588 88.5523C27.116 88.1323 27.38 87.5503 27.38 86.8063ZM19.676 74.5998C19.676 73.8078 19.874 73.1118 20.27 72.5118C20.654 71.8998 21.2 71.4258 21.908 71.0898C22.616 70.7538 23.438 70.5858 24.374 70.5858C25.31 70.5858 26.144 70.7598 26.876 71.1078C27.596 71.4438 28.154 71.9178 28.55 72.5298C28.946 73.1298 29.144 73.8198 29.144 74.5998C29.144 75.2718 29 75.8718 28.712 76.3998C28.424 76.9158 28.022 77.3058 27.506 77.5698H29V79.7838H15.752V77.5518H21.278C20.774 77.2758 20.384 76.8798 20.108 76.3638C19.82 75.8478 19.676 75.2598 19.676 74.5998ZM27.38 75.1938C27.38 74.4498 27.116 73.8738 26.588 73.4658C26.06 73.0578 25.322 72.8538 24.374 72.8538C23.438 72.8538 22.718 73.0578 22.214 73.4658C21.698 73.8738 21.44 74.4558 21.44 75.2118C21.44 75.9678 21.698 76.5498 22.214 76.9578C22.73 77.3658 23.462 77.5698 24.41 77.5698C25.37 77.5698 26.108 77.3658 26.624 76.9578C27.128 76.5498 27.38 75.9618 27.38 75.1938ZM19.91 59.9277H29V62.1417H27.542C28.046 62.4177 28.442 62.8137 28.73 63.3297C29.006 63.8457 29.144 64.4337 29.144 65.0937C29.144 65.8857 28.952 66.5877 28.568 67.1997C28.184 67.8117 27.638 68.2857 26.93 68.6217C26.222 68.9577 25.4 69.1257 24.464 69.1257C23.528 69.1257 22.7 68.9577 21.98 68.6217C21.248 68.2737 20.684 67.7937 20.288 67.1817C19.88 66.5697 19.676 65.8737 19.676 65.0937C19.676 64.4337 19.82 63.8457 20.108 63.3297C20.384 62.8137 20.774 62.4177 21.278 62.1417H19.91V59.9277ZM27.38 64.4817C27.38 63.7377 27.122 63.1617 26.606 62.7537C26.09 62.3457 25.364 62.1417 24.428 62.1417C23.468 62.1417 22.73 62.3457 22.214 62.7537C21.698 63.1617 21.44 63.7437 21.44 64.4997C21.44 65.2437 21.71 65.8257 22.25 66.2457C22.778 66.6537 23.516 66.8577 24.464 66.8577C25.4 66.8577 26.12 66.6537 26.624 66.2457C27.128 65.8257 27.38 65.2377 27.38 64.4817ZM29.144 53.3552C29.144 54.3032 28.952 55.1252 28.568 55.8212C28.184 56.5172 27.644 57.0512 26.948 57.4232C26.24 57.7952 25.412 57.9812 24.464 57.9812C23.516 57.9812 22.682 57.7892 21.962 57.4052C21.242 57.0092 20.684 56.4572 20.288 55.7492C19.88 55.0292 19.676 54.2012 19.676 53.2652C19.676 52.6172 19.778 51.9932 19.982 51.3932C20.186 50.7812 20.468 50.2952 20.828 49.9352L22.412 50.5652C22.1 50.9492 21.866 51.3572 21.71 51.7892C21.542 52.2212 21.458 52.6472 21.458 53.0672C21.458 53.8832 21.716 54.5192 22.232 54.9752C22.736 55.4312 23.468 55.6592 24.428 55.6592C25.388 55.6592 26.12 55.4372 26.624 54.9932C27.128 54.5372 27.38 53.8952 27.38 53.0672C27.38 52.6472 27.296 52.2212 27.128 51.7892C26.96 51.3572 26.72 50.9492 26.408 50.5652L27.992 49.9352C28.352 50.3192 28.634 50.8172 28.838 51.4292C29.042 52.0412 29.144 52.6832 29.144 53.3552ZM29 42.2144L24.806 46.1924H29V48.4244H15.752V46.1924H23.924L19.928 42.4484V39.7304L24.266 43.8164L29 39.4064V42.2144Z" fill="black"/>
<defs>
<linearGradient id="paint0_linear_3789_18303" x1="20.7781" y1="-19.8265" x2="20.7781" y2="187.101" gradientUnits="userSpaceOnUse">
<stop offset="0.234375" stop-color="#FFD37C"/>
<stop offset="0.607292" stop-color="#D08123"/>
</linearGradient>
<linearGradient id="paint1_linear_3789_18303" x1="20.7781" y1="-19.8265" x2="20.7781" y2="187.101" gradientUnits="userSpaceOnUse">
<stop offset="0.234375" stop-color="#FFD37C"/>
<stop offset="0.607292" stop-color="#D08123"/>
</linearGradient>
</defs>
</svg>
