<svg width="15" height="50" viewBox="0 0 15 50" fill="none" xmlns="http://www.w3.org/2000/svg">
<path d="M2.96841 5.85572C2.87755 6.82499 2.81378 8.54033 3.38607 9.27046C3.38607 9.27046 3.11666 7.38614 5.53177 5.02197C6.50418 4.07024 6.72896 2.77577 6.38941 1.80491C6.19652 1.25492 5.84421 0.800574 5.53814 0.483332C5.3596 0.296813 5.4967 -0.0108639 5.75654 0.000295333C7.32835 0.0704393 9.87576 0.507245 10.9582 3.22373C11.4332 4.41618 11.4683 5.64848 11.2419 6.90151C11.0985 7.70179 10.5883 9.48089 11.752 9.6993C12.5826 9.85553 12.9843 9.19553 13.1644 8.72047C13.2394 8.52279 13.4992 8.47337 13.6395 8.63119C15.0423 10.227 15.1619 12.1065 14.8718 13.7246C14.3106 16.8524 11.1431 19.1289 7.99629 19.1289C4.06517 19.1289 0.935898 16.8795 0.124488 12.8079C-0.202308 11.1643 -0.0365186 7.91222 2.49814 5.6166C2.68625 5.44443 2.99392 5.59747 2.96841 5.85572Z" fill="url(#paint0_radial_3327_27189)"/>
<path d="M9.43206 11.705C7.983 9.83981 8.63181 7.71158 8.9873 6.86347C9.03512 6.75188 8.90759 6.64667 8.80716 6.71522C8.18386 7.13927 6.90696 8.13722 6.31236 9.5417C5.50732 11.4404 5.56471 12.3698 6.04135 13.5048C6.3283 14.1887 5.99512 14.3338 5.82774 14.3593C5.66514 14.3848 5.51529 14.2764 5.39573 14.1632C5.05178 13.833 4.80668 13.4135 4.68794 12.9517C4.66243 12.8528 4.53331 12.8257 4.47433 12.907C4.02797 13.524 3.79682 14.514 3.78566 15.2138C3.75059 17.3771 5.53761 19.1307 7.69924 19.1307C10.4236 19.1307 12.4083 16.1177 10.8429 13.5989C10.3885 12.8656 9.96131 12.3857 9.43206 11.705Z" fill="#686868"/>
<path d="M3.0293 23.5927V20.4043H11.9564V23.5927H3.0293Z" fill="url(#paint1_linear_3327_27189)" stroke="black" stroke-width="0.3"/>
<path d="M3.14619 26.631H3.0293C3.06431 26.616 3.10349 26.6166 3.14619 26.631H11.6376C10.9734 27.614 9.67681 29.6599 9.80434 29.9787H5.10166C4.63646 28.8769 3.64778 26.8003 3.14619 26.631Z" fill="url(#paint2_linear_3327_27189)"/>
<path d="M3.0293 26.631H11.6376C10.9734 27.614 9.67681 29.6599 9.80434 29.9788H5.10166C4.59685 28.7831 3.47565 26.4397 3.0293 26.631Z" stroke="black" stroke-width="0.3"/>
<path d="M2.86952 20.2445L1.27539 18.3315H13.4705L12.0357 20.2445H2.86952Z" fill="#FFCA61" stroke="black" stroke-width="0.3"/>
<path d="M1.11621 25.1061L2.94946 23.751H11.8766L13.7098 25.1061L11.8766 26.5409H2.94946L1.11621 25.1061Z" fill="#FFCA61" stroke="black" stroke-width="0.3"/>
<path d="M9.76551 29.9689H4.97667L4.06543 30.8007L4.97667 31.882H9.76551L10.6811 30.8007L9.76551 29.9689Z" fill="#FFCA61" stroke="black" stroke-width="0.3"/>
<path d="M9.56488 31.8823H5.26074L5.89839 36.346H8.92723L9.56488 31.8823Z" fill="url(#paint3_linear_3327_27189)" stroke="black" stroke-width="0.3"/>
<path d="M9.24559 36.3446H5.5791L6.15544 43.8373H8.65699L9.24559 36.3446Z" fill="#FFCA61" stroke="black" stroke-width="0.3"/>
<path d="M5.5791 47.4147L6.36991 46.3893C7.34764 47.151 8.11929 46.7067 8.38289 46.3893L9.24559 47.4147L7.44829 49.0994L5.5791 47.4147Z" fill="#FFCA61" stroke="black" stroke-width="0.3"/>
<path d="M8.60799 43.8381H6.2168L6.52907 46.5482L7.45304 46.867L8.377 46.5482L8.60799 43.8381Z" fill="url(#paint4_linear_3327_27189)" stroke="black" stroke-width="0.3"/>
<ellipse cx="7.41318" cy="40.0921" rx="0.398532" ry="0.398545" fill="white"/>
<ellipse cx="7.41318" cy="38.1788" rx="0.398532" ry="0.398545" fill="white"/>
<ellipse cx="7.41318" cy="42.1633" rx="0.398532" ry="0.398545" fill="white"/>
<defs>
<radialGradient id="paint0_radial_3327_27189" cx="0" cy="0" r="1" gradientUnits="userSpaceOnUse" gradientTransform="translate(7.21768 19.1784) rotate(-179.751) scale(11.2526 18.4638)">
<stop offset="0.314" stop-color="#E1D8D4"/>
<stop offset="0.662" stop-color="#9E958F"/>
<stop offset="0.972" stop-color="#675A59"/>
</radialGradient>
<linearGradient id="paint1_linear_3327_27189" x1="7.49285" y1="20.4043" x2="7.49285" y2="23.5927" gradientUnits="userSpaceOnUse">
<stop offset="0.0760415" stop-color="#6D3908" stop-opacity="0.97"/>
<stop offset="0.471875" stop-color="#924B09" stop-opacity="0.985714"/>
<stop offset="0.841667" stop-color="#D18D08"/>
</linearGradient>
<linearGradient id="paint2_linear_3327_27189" x1="7.33344" y1="26.6199" x2="7.33344" y2="29.9788" gradientUnits="userSpaceOnUse">
<stop offset="0.242708" stop-color="#924B09" stop-opacity="0.985714"/>
<stop offset="0.841667" stop-color="#D18D08"/>
</linearGradient>
<linearGradient id="paint3_linear_3327_27189" x1="7.41281" y1="31.8823" x2="7.41281" y2="36.346" gradientUnits="userSpaceOnUse">
<stop offset="0.128125" stop-color="#924B09" stop-opacity="0.985714"/>
<stop offset="0.841667" stop-color="#D18D08"/>
</linearGradient>
<linearGradient id="paint4_linear_3327_27189" x1="7.41239" y1="43.8381" x2="7.41239" y2="46.867" gradientUnits="userSpaceOnUse">
<stop offset="0.169792" stop-color="#924B09" stop-opacity="0.985714"/>
<stop offset="0.841667" stop-color="#D18D08"/>
</linearGradient>
</defs>
</svg>
