<svg width="15" height="50" viewBox="0 0 15 50" fill="none" xmlns="http://www.w3.org/2000/svg">
<path d="M2.96841 5.85552C2.87755 6.82475 2.81378 8.54003 3.38607 9.27014C3.38607 9.27014 3.11666 7.38588 5.53177 5.02179C6.50418 4.0701 6.72896 2.77567 6.38941 1.80485C6.19652 1.25487 5.84421 0.800547 5.53814 0.483316C5.3596 0.296803 5.4967 -0.0108636 5.75654 0.000295323C7.32835 0.0704369 9.87576 0.507227 10.9582 3.22362C11.4332 4.41603 11.4683 5.64829 11.2419 6.90127C11.0985 7.70152 10.5883 9.48057 11.752 9.69896C12.5826 9.85519 12.9843 9.19522 13.1644 8.72017C13.2394 8.5225 13.4992 8.47308 13.6395 8.6309C15.0423 10.2266 15.1619 12.1061 14.8718 13.7241C14.3106 16.8518 11.1431 19.1282 7.99629 19.1282C4.06517 19.1282 0.935898 16.8789 0.124488 12.8075C-0.202308 11.164 -0.0365186 7.91195 2.49814 5.6164C2.68625 5.44424 2.99392 5.59727 2.96841 5.85552Z" fill="url(#paint0_radial_3327_27207)"/>
<path d="M9.43206 11.7051C7.983 9.83995 8.63181 7.71179 8.9873 6.86371C9.03512 6.75212 8.90759 6.64691 8.80716 6.71546C8.18386 7.1395 6.90696 8.13742 6.31236 9.54185C5.50732 11.4405 5.56471 12.3698 6.04135 13.5048C6.3283 14.1887 5.99512 14.3338 5.82774 14.3593C5.66514 14.3848 5.51529 14.2764 5.39573 14.1632C5.05178 13.833 4.80668 13.4135 4.68794 12.9517C4.66243 12.8528 4.53331 12.8257 4.47433 12.907C4.02797 13.524 3.79682 14.5139 3.78566 15.2137C3.75059 17.377 5.53761 19.1305 7.69924 19.1305C10.4236 19.1305 12.4083 16.1176 10.8429 13.5989C10.3885 12.8656 9.96131 12.3858 9.43206 11.7051Z" fill="#0F991D"/>
<path d="M3.0293 23.5932V20.405H11.9564V23.5932H3.0293Z" fill="url(#paint1_linear_3327_27207)" stroke="black" stroke-width="0.346154"/>
<path d="M3.14619 26.6315H3.0293C3.06431 26.6164 3.10349 26.617 3.14619 26.6315H11.6376C10.9734 27.6145 9.67681 29.6603 9.80434 29.9791H5.10166C4.63646 28.8773 3.64778 26.8008 3.14619 26.6315Z" fill="url(#paint2_linear_3327_27207)"/>
<path d="M3.0293 26.6315H11.6376C10.9734 27.6145 9.67681 29.6603 9.80434 29.9791H5.10166C4.59685 28.7835 3.47565 26.4402 3.0293 26.6315Z" stroke="black" stroke-width="0.346154"/>
<path d="M2.86952 20.2446L1.27539 18.3317H13.4705L12.0357 20.2446H2.86952Z" fill="#FFCA61" stroke="black" stroke-width="0.346154"/>
<path d="M1.11621 25.1066L2.94946 23.7516H11.8766L13.7098 25.1066L11.8766 26.5413H2.94946L1.11621 25.1066Z" fill="#FFCA61" stroke="black" stroke-width="0.346154"/>
<path d="M9.76551 29.9693H4.97667L4.06543 30.801L4.97667 31.8823H9.76551L10.6811 30.801L9.76551 29.9693Z" fill="#FFCA61" stroke="black" stroke-width="0.346154"/>
<path d="M9.56488 31.8826H5.26074L5.89839 36.3461H8.92723L9.56488 31.8826Z" fill="url(#paint3_linear_3327_27207)" stroke="black" stroke-width="0.346154"/>
<path d="M9.24559 36.3447H5.5791L6.15544 43.8371H8.65699L9.24559 36.3447Z" fill="#FFCA61" stroke="black" stroke-width="0.346154"/>
<path d="M5.5791 47.4144L6.36991 46.389C7.34764 47.1508 8.11929 46.7064 8.38289 46.389L9.24559 47.4144L7.44829 49.0991L5.5791 47.4144Z" fill="#FFCA61" stroke="black" stroke-width="0.346154"/>
<path d="M8.60799 43.838H6.2168L6.52907 46.548L7.45304 46.8668L8.377 46.548L8.60799 43.838Z" fill="url(#paint4_linear_3327_27207)" stroke="black" stroke-width="0.346154"/>
<circle cx="7.41318" cy="40.0921" r="0.398532" fill="white"/>
<circle cx="7.41318" cy="38.1788" r="0.398532" fill="white"/>
<circle cx="7.41318" cy="42.1632" r="0.398532" fill="white"/>
<defs>
<radialGradient id="paint0_radial_3327_27207" cx="0" cy="0" r="1" gradientUnits="userSpaceOnUse" gradientTransform="translate(7.21768 19.1778) rotate(-179.751) scale(11.2526 18.4632)">
<stop offset="0.314" stop-color="#AAFF9D"/>
<stop offset="0.662" stop-color="#53E36A"/>
<stop offset="0.972" stop-color="#14D66D"/>
</radialGradient>
<linearGradient id="paint1_linear_3327_27207" x1="7.49285" y1="20.405" x2="7.49285" y2="23.5932" gradientUnits="userSpaceOnUse">
<stop offset="0.0760415" stop-color="#6D3908" stop-opacity="0.97"/>
<stop offset="0.471875" stop-color="#924B09" stop-opacity="0.985714"/>
<stop offset="0.841667" stop-color="#D18D08"/>
</linearGradient>
<linearGradient id="paint2_linear_3327_27207" x1="7.33344" y1="26.6204" x2="7.33344" y2="29.9791" gradientUnits="userSpaceOnUse">
<stop offset="0.242708" stop-color="#924B09" stop-opacity="0.985714"/>
<stop offset="0.841667" stop-color="#D18D08"/>
</linearGradient>
<linearGradient id="paint3_linear_3327_27207" x1="7.41281" y1="31.8826" x2="7.41281" y2="36.3461" gradientUnits="userSpaceOnUse">
<stop offset="0.128125" stop-color="#924B09" stop-opacity="0.985714"/>
<stop offset="0.841667" stop-color="#D18D08"/>
</linearGradient>
<linearGradient id="paint4_linear_3327_27207" x1="7.41239" y1="43.838" x2="7.41239" y2="46.8668" gradientUnits="userSpaceOnUse">
<stop offset="0.169792" stop-color="#924B09" stop-opacity="0.985714"/>
<stop offset="0.841667" stop-color="#D18D08"/>
</linearGradient>
</defs>
</svg>
