<svg width="178" height="178" viewBox="0 0 178 178" fill="none" xmlns="http://www.w3.org/2000/svg">
<g opacity="0.9">
<path d="M6.56382 171.126V152.135H25.5509L25.5516 171.126H6.56453H6.56382ZM25.5509 177.457H31.8807V171.126V152.135V145.804H25.5509H6.56382H0.234282L0.234253 152.135V171.126V177.457H6.56343H25.5505H25.5509ZM6.56382 133.151V82.514H38.2104V114.159H25.5516V95.1749H19.2226V114.159V120.49H38.2104H44.5395V114.159V82.514V76.1835H38.2104H25.5516V38.2107H44.5395V31.8817H25.5516H19.2226V38.2107V76.1835H6.56453L6.56418 0.232178L0.234996 0.235222L0.234967 133.154V139.484H38.2106V177.46H44.5397H95.1748H101.505H177.457V171.129H101.505V158.468H139.481H145.804V133.154H139.481V152.138H101.505V133.154H95.1748H63.5275H57.1985V139.484V158.468H63.5275H95.1748V171.129H44.5397V133.154H38.2106H6.56401L6.56382 133.151ZM95.1761 152.135H63.5287V139.481H95.1761V152.135ZM63.5287 114.159V95.1749H82.5151V114.159H63.5287ZM82.5151 120.49H88.8456V114.159V95.1749V88.8444H82.5151H63.5287H57.1997V95.1749V114.159V120.49H63.5287H82.5151Z" fill="url(#paint0_linear_1988_5147)"/>
<path d="M0.000214343 0.000893145V0.224174V133.143V139.487V139.709H0.223495H37.9798V177.463V177.684H38.2034H44.5446H95.1598H101.505H177.463H177.684V177.463V171.125V170.897H177.463H101.726V158.686H139.487H145.804H146.025V158.464V133.143V132.921H145.804H139.487H139.259V133.143V151.92H101.726V133.143V132.921H101.505H95.1598H63.5232H57.2048H56.9812V133.143V139.487V158.464V158.686H57.2048H63.5232H94.9383V170.897H44.7675V133.143V132.921H44.5446H38.2034H6.7876V82.7489H37.9798V113.937H25.7669V95.1597V94.9382H25.5432H19.2242H19.0013V95.1597V114.165V120.482V120.703H19.2242H38.2034H44.5446H44.7675V120.482V114.165V82.5274V76.1826V75.9611H44.5446H38.2034H25.7669V38.427H44.5446H44.7675V38.2034V31.8844V31.6614H44.5446H25.5432H19.2242H19.0013V31.8844V38.2034V75.9611H6.7876V0.224174V0H6.56454H0.223353H3.57309e-05L0.000214343 0.000893145ZM0.446741 0.44742H6.34136V76.1844V76.4059H6.56472H19.2242H19.4479V76.1844V38.2052V32.1098H25.5433H44.3217V37.9815H25.5433H25.3203V38.2052V76.1844V76.4059H25.5433H38.2035H44.3217V82.5291V114.167V120.262H38.2035H19.4479V114.167V95.3901H25.3203V114.167V114.389H25.5433H38.2035H38.4271V114.167V82.5291V82.3005H38.2035H6.56472H6.34122V82.5291V133.144V133.366H6.56457H38.2033H44.3216V171.127V171.349H44.5445H95.1597H95.3883V171.127V158.466V158.238H95.1597H63.5231H57.4277V139.489V133.366H63.5231H95.1597H101.283V152.143V152.371H101.504H139.487H139.709V152.143V133.366H145.582V158.238H139.487H101.504H101.283V158.466V171.127V171.349H101.504H177.241V177.243H101.504H95.1597H44.5445H38.427V139.489V139.26H38.2033H0.446312L0.446455 133.144V0.44742H0.446741ZM56.9815 88.6238V88.8453V95.1615V114.167V120.483V120.705H57.2052H63.5235H82.5277H88.8439H89.0654V120.483V114.167V95.1615V88.8453V88.6238H88.8439H82.5277H63.5235H57.2052H56.9815ZM57.4281 89.0668H63.5235H82.5277H88.6224V95.1615V114.167V120.262H82.5277H63.5235H57.4281V114.167V95.1615V89.0668ZM63.3006 94.94V95.1615V114.167V114.389H63.5235H82.5277H82.7492V114.167V95.1615V94.94H82.5277H63.5235H63.3006ZM63.7471 95.3901H82.2991V113.939H63.7471V95.3901ZM63.3006 139.26V139.489V152.143V152.371H63.5235H95.1601H95.3887V152.143V139.489V139.26H95.1601H63.5235H63.3006ZM63.7471 139.711H94.9386V151.921H63.7471V139.711ZM0.000178612 145.584V145.805V152.143V171.127V177.465V177.686H0.22346H6.56464H25.5432H31.8844H32.108V177.465V171.127V152.143V145.805V145.584H31.8844H25.5432H6.56464H0.223317H0H0.000178612ZM0.446705 146.027H6.56468H25.5432H31.6615V152.143V171.127V177.243H25.5432H6.56468H0.446562V171.127V152.143V146.027H0.446705ZM6.34133 151.921V152.143V171.127V171.349H6.56468H25.5432H25.7669V171.127V152.143V151.921H25.5432H6.56468H6.34118H6.34133ZM6.78775 152.371H25.3204V170.898H6.78775V152.371Z" fill="url(#paint1_linear_1988_5147)"/>
</g>
<defs>
<linearGradient id="paint0_linear_1988_5147" x1="86.2416" y1="-21.458" x2="86.2416" y2="204.92" gradientUnits="userSpaceOnUse">
<stop offset="0.234375" stop-color="#FFD37C"/>
<stop offset="0.607292" stop-color="#D08123"/>
</linearGradient>
<linearGradient id="paint1_linear_1988_5147" x1="86.2317" y1="-21.7463" x2="86.2317" y2="205.217" gradientUnits="userSpaceOnUse">
<stop stop-color="#FFD37C"/>
<stop offset="0.607292" stop-color="#D08123"/>
</linearGradient>
</defs>
</svg>
