<svg width="178" height="178" viewBox="0 0 178 178" fill="none" xmlns="http://www.w3.org/2000/svg">
<g opacity="0.9">
<path d="M171.121 6.56007V25.5515H152.134L152.133 6.56007H171.12H171.121ZM152.134 0.229602H145.804V6.56007V25.5515V31.8819H152.134H171.121H177.45L177.45 25.5515V6.56007V0.229602H171.121H152.134H152.134ZM171.121 44.5357L171.121 95.1723H139.474V63.5271H152.133V82.5114H158.462V63.5271V57.1967H139.474H133.145V63.5271V95.1723V101.503H139.474H152.133V139.476H133.145V145.805H152.133H158.462V139.476V101.503H171.12L171.12 177.454L177.449 177.451L177.449 44.5327V38.2022H139.474L139.474 0.22656H133.145H82.5096H76.1792L0.227843 0.22656V6.55703L76.1792 6.55703V19.218L38.2035 19.218H31.8802V44.5327H38.2035V25.5484L76.1792 25.5484V44.5327H82.5096H114.157H120.486V38.2022L120.486 19.218H114.157H82.5096V6.55703H133.145L133.145 44.5327H139.474H171.12L171.121 44.5357ZM82.5084 25.5515H114.156L114.156 38.2053H82.5084V25.5515ZM114.156 63.5271V82.5114H95.1693V63.5271H114.156ZM95.1693 57.1967H88.8388V63.5271V82.5114V88.8419H95.1693H114.156L120.485 88.8419V82.5114V63.5271V57.1967L114.156 57.1967H95.1693Z" fill="url(#paint0_linear_1988_5151)"/>
<path d="M177.684 177.685V177.462V44.5437V38.199V37.9775H177.461H139.705L139.705 0.223322V0.00182898H139.481H133.14H82.5247H76.1799L0.221447 0.00182898H-4.56798e-05V0.223322V6.56093V6.78958H0.221447L75.9584 6.78958V19.0004L38.1971 19.0004H31.8809H31.6594V19.2219V44.5437V44.7652H31.8809H38.1971H38.4257V44.5437V25.7667L75.9584 25.7667V44.5437V44.7652H76.1799H82.5247H114.161H120.48H120.703V44.5437V38.199L120.703 19.2219V19.0004H120.48H114.161H82.7462V6.78958H132.917L132.917 44.5437V44.7652H133.14H139.481H170.897L170.897 94.9374H139.705V63.7495H151.918V82.5265V82.748H152.141H158.46H158.683V82.5265V63.5208V57.2047V56.9832H158.46H139.481H133.14H132.917V57.2047V63.5208V95.1589V101.504V101.725H133.14H139.481H151.918V139.259H133.14H132.917V139.483V145.802V146.025H133.14H152.141H158.46H158.683V145.802V139.483V101.725H170.897V177.462V177.686H171.12H177.461H177.684L177.684 177.685ZM177.238 177.239H171.343V101.502V101.28H171.12H158.46H158.237V101.502V139.481V145.577H152.141H133.363V139.705H152.141H152.364V139.481V101.502V101.28H152.141H139.481H133.363V95.1571V63.5191V57.4244H139.481H158.237V63.5191V82.2961H152.364V63.5191V63.2976H152.141H139.481H139.257V63.5191V95.1571V95.3858H139.481H171.12H171.343V95.1571L171.343 44.542V44.3205H171.12H139.481H133.363L133.363 6.55919V6.33768H133.14H82.5248H82.2961V6.55919V19.2201V19.4488H82.5248H114.161H120.257L120.257 38.1972V44.3205H114.161H82.5248H76.4015V25.5434V25.3148H76.18L38.1972 25.3148H37.9757V25.5434V44.3205H32.1025V19.4488H38.1972L76.18 19.4488H76.4015V19.2201V6.55919V6.33768H76.18L0.44305 6.33768V0.44306L76.18 0.44306H82.5248H133.14H139.257L139.257 38.1972V38.4259H139.481H177.238L177.238 44.542V177.239H177.238ZM120.703 89.0625V88.841V82.5248V63.5191V57.2029V56.9814H120.479L114.161 56.9814H95.1567H88.8405H88.619V57.2029V63.5191V82.5248V88.841V89.0625H88.8405H95.1567H114.161L120.479 89.0625H120.703V89.0625ZM120.256 88.6195L114.161 88.6195H95.1567H89.062V82.5248V63.5191V57.4244H95.1567H114.161L120.256 57.4244V63.5191V82.5248V88.6195V88.6195ZM114.384 82.7463V82.5248V63.5191V63.2976H114.161H95.1567H94.9352V63.5191V82.5248V82.7463H95.1567H114.161H114.384ZM113.937 82.2961H95.3853V63.7477H113.937V82.2961ZM114.384 38.4259V38.1972L114.384 25.5434V25.3148H114.161H82.5243H82.2957V25.5434V38.1972V38.4259H82.5243H114.161H114.384ZM113.937 37.9757H82.7458V25.7649H113.937L113.937 37.9757V37.9757ZM177.684 32.1025V31.881V25.5434V6.55919V0.221567V7.36982e-05H177.461H171.12H152.141H145.8H145.576V0.221567V6.55919V25.5434V31.881V32.1025H145.8H152.141H171.12H177.461H177.684H177.684ZM177.238 31.6596H171.12H152.141H146.023V25.5434V6.55919V0.44306H152.141H171.12H177.238V6.55919V25.5434V31.6596H177.238ZM171.343 25.7649V25.5434V6.55919V6.33768H171.12H152.141H151.918V6.55919V25.5434V25.7649H152.141H171.12H171.343H171.343ZM170.897 25.3148H152.364V6.78782H170.897V25.3148V25.3148Z" fill="url(#paint1_linear_1988_5151)"/>
</g>
<defs>
<linearGradient id="paint0_linear_1988_5151" x1="91.4428" y1="199.144" x2="91.4428" y2="-27.2336" gradientUnits="userSpaceOnUse">
<stop offset="0.234375" stop-color="#FFD37C"/>
<stop offset="0.607292" stop-color="#D08123"/>
</linearGradient>
<linearGradient id="paint1_linear_1988_5151" x1="91.4528" y1="199.433" x2="91.4528" y2="-27.5312" gradientUnits="userSpaceOnUse">
<stop stop-color="#FFD37C"/>
<stop offset="0.607292" stop-color="#D08123"/>
</linearGradient>
</defs>
</svg>
