<svg width="126" height="37" viewBox="0 0 126 37" fill="none" xmlns="http://www.w3.org/2000/svg">
<path d="M125.3 32.2019C125.3 34.1417 123.696 35.7129 121.712 35.7129H4.29385C2.31081 35.7129 0.701172 34.1417 0.701172 32.2019V4.2024C0.701172 2.26353 2.31081 0.686768 4.29385 0.686768H121.711C123.696 0.686768 125.299 2.26353 125.299 4.2024L125.3 32.2019Z" fill="black"/>
<path d="M121.334 0.729067C123.495 0.729067 125.253 2.44327 125.253 4.5499V31.8497C125.253 33.9563 123.495 35.6705 121.334 35.6705H4.66858C2.50793 35.6705 0.74978 33.9563 0.74978 31.8497V4.5499C0.74978 2.44327 2.50793 0.729067 4.66858 0.729067H121.334ZM121.334 -6.35094e-05H4.66858C2.1031 -6.35094e-05 0.00195312 2.04856 0.00195312 4.5499V31.8497C0.00195312 34.351 2.1031 36.3997 4.66858 36.3997H121.334C123.9 36.3997 126.001 34.351 126.001 31.8497V4.5499C126.001 2.04856 123.9 -6.35094e-05 121.334 -6.35094e-05Z" fill="#A6A6A6"/>
<path d="M28.1216 18.0031C28.0946 15.0702 30.5847 13.6433 30.6986 13.5769C29.2883 11.5722 27.1024 11.2983 26.3343 11.2764C24.4985 11.0881 22.7177 12.3475 21.7825 12.3475C20.8286 12.3475 19.3885 11.2946 17.8364 11.3256C15.8391 11.3556 13.9705 12.4831 12.9458 14.2339C10.8308 17.8038 12.4082 23.0499 14.4344 25.9355C15.448 27.3487 16.6324 28.9267 18.1826 28.8711C19.6993 28.8102 20.2658 27.9284 22.0961 27.9284C23.9095 27.9284 24.4415 28.8711 26.0226 28.8357C27.6503 28.8102 28.6751 27.4161 29.6532 25.9901C30.8246 24.3703 31.2949 22.7751 31.3136 22.6932C31.2753 22.6805 28.1524 21.5184 28.1216 18.0031Z" fill="white"/>
<path d="M25.135 9.37819C25.9507 8.38357 26.5089 7.03041 26.3539 5.65723C25.1733 5.70819 23.6967 6.45347 22.8465 7.42625C22.0942 8.28347 21.4222 9.6885 21.5958 11.0098C22.9221 11.1063 24.2838 10.3573 25.135 9.37819Z" fill="white"/>
<path d="M50.0709 28.6681H47.9513L46.7902 25.1109H42.7545L41.6485 28.6681H39.585L43.5833 16.5579H46.0529L50.0709 28.6681ZM46.4402 23.6185L45.3902 20.4563C45.2792 20.1332 45.0711 19.3725 44.764 18.1749H44.7267C44.6044 18.69 44.4075 19.4507 44.1368 20.4563L43.1055 23.6185H46.4402Z" fill="white"/>
<path d="M60.3524 24.1946C60.3524 25.6797 59.9408 26.8536 59.1176 27.7154C58.3803 28.4825 57.4647 28.8656 56.3718 28.8656C55.192 28.8656 54.3446 28.4525 53.8285 27.6262H53.7911V32.2262H51.8013V22.8105C51.8013 21.8769 51.7761 20.9187 51.7275 19.9359H53.4775L53.5886 21.32H53.6259C54.2895 20.2771 55.2966 19.7566 56.648 19.7566C57.7046 19.7566 58.5866 20.1634 59.2921 20.9778C59.9996 21.7932 60.3524 22.8651 60.3524 24.1946ZM58.3252 24.2656C58.3252 23.4157 58.1292 22.715 57.7354 22.1635C57.3051 21.5884 56.7274 21.3009 56.0031 21.3009C55.5122 21.3009 55.066 21.461 54.6675 21.7768C54.2681 22.0953 54.0067 22.5111 53.8845 23.0262C53.8229 23.2664 53.7921 23.463 53.7921 23.6177V25.0737C53.7921 25.7089 53.9918 26.2448 54.3913 26.6825C54.7907 27.1203 55.3096 27.3387 55.948 27.3387C56.6975 27.3387 57.2808 27.0566 57.698 26.4942C58.1162 25.9309 58.3252 25.1883 58.3252 24.2656Z" fill="white"/>
<path d="M70.6542 24.1946C70.6542 25.6797 70.2426 26.8536 69.4185 27.7154C68.6821 28.4825 67.7665 28.8656 66.6736 28.8656C65.4938 28.8656 64.6464 28.4525 64.1312 27.6262H64.0939V32.2262H62.104V22.8105C62.104 21.8769 62.0788 20.9187 62.0303 19.9359H63.7803L63.8913 21.32H63.9287C64.5913 20.2771 65.5984 19.7566 66.9508 19.7566C68.0064 19.7566 68.8884 20.1634 69.5958 20.9778C70.3005 21.7932 70.6542 22.8651 70.6542 24.1946ZM68.627 24.2656C68.627 23.4157 68.4301 22.715 68.0362 22.1635C67.606 21.5884 67.0301 21.3009 66.3049 21.3009C65.813 21.3009 65.3679 21.461 64.9684 21.7768C64.5689 22.0953 64.3085 22.5111 64.1863 23.0262C64.1256 23.2664 64.0939 23.463 64.0939 23.6177V25.0737C64.0939 25.7089 64.2936 26.2448 64.6912 26.6825C65.0906 27.1193 65.6096 27.3387 66.2498 27.3387C66.9993 27.3387 67.5826 27.0566 67.9998 26.4942C68.418 25.9309 68.627 25.1883 68.627 24.2656Z" fill="white"/>
<path d="M82.1723 25.2722C82.1723 26.3023 81.8055 27.1404 81.0692 27.7874C80.26 28.4944 79.1334 28.8475 77.6858 28.8475C76.3493 28.8475 75.2779 28.5964 74.4668 28.0931L74.9279 26.4761C75.8015 26.9911 76.76 27.2496 77.8044 27.2496C78.5538 27.2496 79.1372 27.084 79.5562 26.7545C79.9734 26.4251 80.1816 25.9829 80.1816 25.4314C80.1816 24.94 80.0098 24.526 79.6654 24.1902C79.3229 23.8544 78.7508 23.5423 77.9518 23.2538C75.7772 22.463 74.6908 21.3046 74.6908 19.7813C74.6908 18.7857 75.0716 17.9695 75.8341 17.3343C76.5939 16.6982 77.6074 16.3806 78.8749 16.3806C80.0052 16.3806 80.9441 16.5726 81.6935 16.9557L81.1961 18.5373C80.4961 18.166 79.7046 17.9804 78.8189 17.9804C78.1189 17.9804 77.572 18.1487 77.18 18.4836C76.8486 18.783 76.6825 19.1479 76.6825 19.5802C76.6825 20.0588 76.872 20.4547 77.2528 20.7659C77.5841 21.0534 78.1861 21.3646 79.0597 21.7004C80.1284 22.1199 80.9133 22.6104 81.4182 23.1728C81.9213 23.7334 82.1723 24.435 82.1723 25.2722Z" fill="white"/>
<path d="M88.7512 21.3918H86.5579V25.6314C86.5579 26.7098 86.9443 27.2485 87.719 27.2485C88.0746 27.2485 88.3695 27.2185 88.6028 27.1584L88.6579 28.6317C88.2659 28.7746 87.7498 28.8465 87.1104 28.8465C86.3246 28.8465 85.7105 28.6126 85.2671 28.1458C84.8257 27.678 84.6035 26.8936 84.6035 25.7916V21.39H83.2969V19.934H84.6035V18.3351L86.5579 17.76V19.934H88.7512V21.3918Z" fill="white"/>
<path d="M98.6464 24.2299C98.6464 25.5722 98.2525 26.6742 97.4666 27.5359C96.6425 28.4232 95.5486 28.8654 94.1851 28.8654C92.8709 28.8654 91.8247 28.4405 91.0444 27.5905C90.2642 26.7406 89.874 25.6677 89.874 24.3746C89.874 23.0215 90.2754 21.9131 91.0808 21.0513C91.8844 20.1887 92.9689 19.7573 94.3325 19.7573C95.6466 19.7573 96.7041 20.1823 97.5021 21.0331C98.2656 21.8585 98.6464 22.9241 98.6464 24.2299ZM96.5818 24.2927C96.5818 23.4874 96.4054 22.7967 96.048 22.2207C95.6308 21.5236 95.0344 21.176 94.2616 21.176C93.4617 21.176 92.8541 21.5245 92.4369 22.2207C92.0795 22.7976 91.9031 23.4992 91.9031 24.3291C91.9031 25.1345 92.0795 25.8252 92.4369 26.4003C92.8672 27.0973 93.4683 27.4449 94.2439 27.4449C95.0036 27.4449 95.6 27.09 96.0302 26.3821C96.397 25.7951 96.5818 25.0972 96.5818 24.2927Z" fill="white"/>
<path d="M105.115 21.6421C104.918 21.6066 104.708 21.5884 104.488 21.5884C103.788 21.5884 103.246 21.8459 102.866 22.3619C102.534 22.8169 102.368 23.392 102.368 24.0863V28.6682H100.379L100.398 22.6859C100.398 21.6794 100.373 20.763 100.323 19.9368H102.056L102.129 21.6075H102.184C102.394 21.0333 102.726 20.571 103.179 20.2243C103.623 19.9122 104.101 19.7566 104.617 19.7566C104.801 19.7566 104.967 19.7693 105.115 19.7921V21.6421Z" fill="white"/>
<path d="M114.013 23.8889C114.013 24.2365 113.99 24.5295 113.94 24.7689H107.971C107.994 25.6315 108.282 26.2913 108.837 26.7463C109.34 27.153 109.99 27.3569 110.789 27.3569C111.673 27.3569 112.48 27.2195 113.205 26.9437L113.517 28.2905C112.669 28.6509 111.669 28.8302 110.514 28.8302C109.125 28.8302 108.035 28.4316 107.242 27.6353C106.45 26.8391 106.054 25.7698 106.054 24.4285C106.054 23.1118 106.422 22.0152 107.161 21.1407C107.933 20.2071 108.978 19.7402 110.292 19.7402C111.583 19.7402 112.56 20.2071 113.224 21.1407C113.749 21.8824 114.013 22.7996 114.013 23.8889ZM112.116 23.3857C112.129 22.8105 111.999 22.3137 111.729 21.8942C111.385 21.3546 110.856 21.0852 110.144 21.0852C109.493 21.0852 108.964 21.3482 108.56 21.876C108.228 22.2955 108.031 22.7987 107.971 23.3848H112.116V23.3857Z" fill="white"/>
<path d="M45.7823 9.10829C45.7823 10.1794 45.4528 10.9856 44.7948 11.5271C44.1854 12.0266 43.3193 12.2769 42.1974 12.2769C41.6411 12.2769 41.1651 12.2532 40.7666 12.2059V6.35374C41.2865 6.27184 41.8465 6.22998 42.4513 6.22998C43.5199 6.22998 44.3254 6.45657 44.8686 6.90975C45.4771 7.42207 45.7823 8.15462 45.7823 9.10829ZM44.751 9.13468C44.751 8.44035 44.5624 7.90801 44.1854 7.53673C43.8083 7.16636 43.2577 6.98072 42.5325 6.98072C42.2245 6.98072 41.9622 7.00074 41.7447 7.0426V11.4916C41.8651 11.5098 42.0854 11.518 42.4055 11.518C43.1541 11.518 43.7318 11.315 44.1387 10.9092C44.5456 10.5033 44.751 9.91181 44.751 9.13468Z" fill="white"/>
<path d="M51.2506 10.0436C51.2506 10.7034 51.0574 11.2439 50.671 11.668C50.2659 12.1039 49.7293 12.3214 49.0591 12.3214C48.4133 12.3214 47.899 12.113 47.5154 11.6944C47.1327 11.2767 46.9414 10.7498 46.9414 10.1146C46.9414 9.45033 47.1383 8.90525 47.5341 8.4821C47.9298 8.05895 48.4618 7.84692 49.1319 7.84692C49.7778 7.84692 50.2967 8.05531 50.6896 8.473C51.063 8.87886 51.2506 9.40301 51.2506 10.0436ZM50.236 10.0746C50.236 9.67874 50.1483 9.33931 49.9738 9.0563C49.7685 8.71415 49.4763 8.54307 49.0965 8.54307C48.7035 8.54307 48.4049 8.71415 48.1995 9.0563C48.0241 9.33931 47.9373 9.6842 47.9373 10.0919C47.9373 10.4877 48.025 10.8272 48.1995 11.1102C48.4114 11.4523 48.7063 11.6234 49.0871 11.6234C49.4605 11.6234 49.7535 11.4496 49.9645 11.1011C50.1455 10.8126 50.236 10.4704 50.236 10.0746Z" fill="white"/>
<path d="M58.5836 7.93433L57.2069 12.224H56.311L55.7407 10.3613C55.596 9.89627 55.4784 9.434 55.387 8.97536H55.3692C55.2843 9.44673 55.1667 9.9081 55.0155 10.3613L54.4098 12.224H53.5035L52.209 7.93433H53.2142L53.7116 9.97362C53.832 10.4559 53.931 10.9155 54.0103 11.3504H54.028C54.1008 10.9919 54.2212 10.5351 54.3911 9.98272L55.0155 7.93524H55.8126L56.4108 9.93904C56.5555 10.4277 56.6731 10.8982 56.7636 11.3514H56.7907C56.8569 10.91 56.9568 10.4395 57.0893 9.93904L57.6232 7.93524H58.5836V7.93433Z" fill="white"/>
<path d="M63.6534 12.2243H62.6752V9.7673C62.6752 9.01018 62.3803 8.63163 61.7886 8.63163C61.4983 8.63163 61.2641 8.73537 61.0821 8.94375C60.9019 9.15214 60.8105 9.39784 60.8105 9.67903V12.2234H59.8323V9.16033C59.8323 8.7836 59.8202 8.37501 59.7969 7.93275H60.6565L60.7022 8.60342H60.7293C60.8431 8.39503 61.013 8.22304 61.2361 8.08563C61.5011 7.92547 61.7979 7.84448 62.1227 7.84448C62.5334 7.84448 62.875 7.9737 63.1466 8.23305C63.4844 8.55064 63.6534 9.02474 63.6534 9.65446V12.2243Z" fill="white"/>
<path d="M66.3512 12.2241H65.374V5.96606H66.3512V12.2241Z" fill="white"/>
<path d="M72.11 10.0436C72.11 10.7034 71.9168 11.2439 71.5304 11.668C71.1253 12.1039 70.5877 12.3214 69.9185 12.3214C69.2717 12.3214 68.7574 12.113 68.3748 11.6944C67.9921 11.2767 67.8008 10.7498 67.8008 10.1146C67.8008 9.45033 67.9977 8.90525 68.3934 8.4821C68.7892 8.05895 69.3212 7.84692 69.9904 7.84692C70.6372 7.84692 71.1552 8.05531 71.549 8.473C71.9223 8.87886 72.11 9.40301 72.11 10.0436ZM71.0945 10.0746C71.0945 9.67874 71.0068 9.33931 70.8322 9.0563C70.6278 8.71415 70.3348 8.54307 69.9558 8.54307C69.562 8.54307 69.2633 8.71415 69.0589 9.0563C68.8834 9.33931 68.7966 9.6842 68.7966 10.0919C68.7966 10.4877 68.8844 10.8272 69.0589 11.1102C69.2708 11.4523 69.5657 11.6234 69.9465 11.6234C70.3198 11.6234 70.612 11.4496 70.8229 11.1011C71.0049 10.8126 71.0945 10.4704 71.0945 10.0746Z" fill="white"/>
<path d="M76.8444 12.224H75.9661L75.8933 11.7299H75.8663C75.5657 12.1239 75.1373 12.3214 74.5811 12.3214C74.1657 12.3214 73.8298 12.1912 73.5768 11.9328C73.3472 11.698 73.2324 11.4059 73.2324 11.0592C73.2324 10.535 73.4564 10.1356 73.9072 9.85892C74.3571 9.58228 74.9899 9.44669 75.8047 9.45306V9.37298C75.8047 8.80788 75.5004 8.52578 74.8909 8.52578C74.4569 8.52578 74.0743 8.63225 73.7439 8.84337L73.5451 8.21729C73.9539 7.97068 74.4588 7.84692 75.0543 7.84692C76.2041 7.84692 76.7809 8.43842 76.7809 9.62141V11.2012C76.7809 11.6298 76.8024 11.971 76.8444 12.224ZM75.8289 10.7498V10.0882C74.75 10.07 74.2106 10.3585 74.2106 10.9527C74.2106 11.1766 74.2721 11.344 74.3981 11.456C74.5241 11.5679 74.6847 11.6234 74.876 11.6234C75.0907 11.6234 75.2913 11.557 75.4743 11.425C75.6581 11.2922 75.7711 11.1238 75.8131 10.9172C75.8233 10.8708 75.8289 10.8144 75.8289 10.7498Z" fill="white"/>
<path d="M82.4002 12.2241H81.5322L81.4864 11.5352H81.4594C81.1822 12.0594 80.7099 12.3215 80.0463 12.3215C79.5162 12.3215 79.0747 12.1185 78.7247 11.7127C78.3747 11.3068 78.2002 10.7799 78.2002 10.1329C78.2002 9.4386 78.3897 8.87622 78.7705 8.44671C79.1391 8.04631 79.5908 7.84611 80.1284 7.84611C80.7192 7.84611 81.1327 8.03994 81.3679 8.42851H81.3866V5.96606H82.3656V11.0684C82.3656 11.4861 82.3768 11.871 82.4002 12.2241ZM81.3866 10.415V9.69977C81.3866 9.57601 81.3772 9.47591 81.3595 9.39947C81.3044 9.17015 81.1859 8.97723 81.0058 8.82162C80.8238 8.66601 80.6044 8.58775 80.3515 8.58775C79.9866 8.58775 79.701 8.7288 79.491 9.01181C79.2828 9.29482 79.1774 9.65609 79.1774 10.0974C79.1774 10.5215 79.2772 10.8655 79.4779 11.1303C79.6898 11.4124 79.9754 11.5534 80.3328 11.5534C80.6539 11.5534 80.9106 11.436 81.1056 11.2003C81.2942 10.9829 81.3866 10.7208 81.3866 10.415Z" fill="white"/>
<path d="M90.7672 10.0436C90.7672 10.7034 90.574 11.2439 90.1876 11.668C89.7825 12.1039 89.2468 12.3214 88.5757 12.3214C87.9308 12.3214 87.4165 12.113 87.032 11.6944C86.6493 11.2767 86.458 10.7498 86.458 10.1146C86.458 9.45033 86.6549 8.90525 87.0507 8.4821C87.4464 8.05895 87.9784 7.84692 88.6495 7.84692C89.2944 7.84692 89.8143 8.05531 90.2062 8.473C90.5796 8.87886 90.7672 9.40301 90.7672 10.0436ZM89.7536 10.0746C89.7536 9.67874 89.6658 9.33931 89.4913 9.0563C89.285 8.71415 88.9939 8.54307 88.6131 8.54307C88.2211 8.54307 87.9224 8.71415 87.7161 9.0563C87.5407 9.33931 87.4539 9.6842 87.4539 10.0919C87.4539 10.4877 87.5416 10.8272 87.7161 11.1102C87.928 11.4523 88.2229 11.6234 88.6037 11.6234C88.9771 11.6234 89.2711 11.4496 89.482 11.1011C89.6621 10.8126 89.7536 10.4704 89.7536 10.0746Z" fill="white"/>
<path d="M96.0265 12.2243H95.0493V9.7673C95.0493 9.01018 94.7543 8.63163 94.1617 8.63163C93.8714 8.63163 93.6372 8.73537 93.4561 8.94375C93.275 9.15214 93.1845 9.39784 93.1845 9.67903V12.2234H92.2054V9.16033C92.2054 8.7836 92.1942 8.37501 92.1709 7.93275H93.0296L93.0753 8.60342H93.1024C93.2172 8.39503 93.387 8.22304 93.6092 8.08563C93.8751 7.92547 94.171 7.84448 94.4967 7.84448C94.9065 7.84448 95.2481 7.9737 95.5197 8.23305C95.8585 8.55064 96.0265 9.02474 96.0265 9.65446V12.2243Z" fill="white"/>
<path d="M102.609 8.64889H101.532V10.7328C101.532 11.2624 101.724 11.5272 102.102 11.5272C102.278 11.5272 102.424 11.5126 102.538 11.4826L102.564 12.2061C102.37 12.277 102.116 12.3125 101.804 12.3125C101.417 12.3125 101.117 12.1979 100.899 11.9685C100.681 11.7392 100.573 11.3534 100.573 10.8119V8.64889H99.9297V7.93454H100.573V7.14831L101.531 6.86621V7.93363H102.608V8.64889H102.609Z" fill="white"/>
<path d="M107.786 12.2241H106.807V9.78531C106.807 9.01636 106.512 8.63143 105.921 8.63143C105.468 8.63143 105.158 8.85438 104.988 9.30028C104.959 9.39401 104.942 9.50867 104.942 9.64335V12.2232H103.965V5.96606H104.942V8.55136H104.961C105.269 8.08089 105.71 7.84611 106.282 7.84611C106.687 7.84611 107.022 7.97533 107.288 8.23468C107.62 8.55772 107.786 9.0382 107.786 9.67338V12.2241Z" fill="white"/>
<path d="M113.129 9.87634C113.129 10.0474 113.116 10.1912 113.093 10.3086H110.16C110.173 10.7326 110.313 11.0557 110.584 11.2796C110.832 11.4797 111.153 11.5798 111.545 11.5798C111.979 11.5798 112.374 11.5125 112.731 11.3769L112.884 12.0394C112.467 12.2159 111.976 12.3042 111.407 12.3042C110.726 12.3042 110.189 12.1086 109.801 11.7173C109.411 11.326 109.218 10.8009 109.218 10.1421C109.218 9.49505 109.398 8.95634 109.761 8.52682C110.14 8.06819 110.652 7.83887 111.299 7.83887C111.932 7.83887 112.413 8.06819 112.737 8.52682C113 8.89082 113.129 9.34127 113.129 9.87634ZM112.196 9.62973C112.203 9.34673 112.139 9.10285 112.007 8.89719C111.837 8.63238 111.578 8.49952 111.228 8.49952C110.909 8.49952 110.649 8.62874 110.45 8.88809C110.287 9.09466 110.191 9.34127 110.16 9.62973H112.196Z" fill="white"/>
</svg>
