<svg width="129" height="47" viewBox="0 0 129 47" fill="none" xmlns="http://www.w3.org/2000/svg">
<path d="M5.08534 24.742C5.5326 24.742 5.91105 24.5871 6.2207 24.2775C6.54754 23.9507 6.71957 23.5636 6.73677 23.1163V8.74373C6.68516 8.14165 6.40132 7.69439 5.88525 7.40194C5.62722 7.26433 5.36058 7.19552 5.08534 7.19552H4.74989V6.93748H12.0007C12.7576 6.93748 13.4199 6.87727 13.9876 6.75686C14.5553 6.63644 14.9251 6.54182 15.0971 6.47301V10.9886H14.8133V10.679C14.8305 9.90489 14.6069 9.28561 14.1424 8.82114C13.6951 8.33948 13.0845 8.08144 12.3103 8.04704H10.6073V15.5559H14.7101C15.3466 15.5387 15.8712 15.3237 16.2841 14.9108C16.697 14.4807 16.9034 13.9561 16.9034 13.3368V13.1045H17.1356V19.0652H16.9034V18.8587C16.9034 18.2223 16.697 17.6976 16.2841 17.2847C15.8712 16.8719 15.3552 16.6568 14.7359 16.6396H10.6073V23.8904H15.639C16.8948 23.8904 17.9441 23.5292 18.7871 22.8067C19.6472 22.0842 20.2837 21.0607 20.6965 19.7361H20.9546L19.7418 25H4.74989V24.742H5.08534ZM45.3394 27.6836C45.6318 27.8556 45.9586 28.0104 46.3199 28.148C46.6811 28.3029 47.0252 28.4061 47.352 28.4577C47.6961 28.5265 48.0659 28.5609 48.4616 28.5609C48.8745 28.5609 49.2959 28.5093 49.726 28.4061L49.8292 28.6641C48.8659 29.1286 47.8939 29.3608 46.9134 29.3608C44.6599 29.3608 42.3633 28.1136 40.0238 25.6193L27.7929 12.6401V23.1937C27.7929 23.6238 27.9477 23.9937 28.2574 24.3033C28.567 24.5957 28.9369 24.742 29.3669 24.742H29.8572V25H22.0387V24.742H22.5032C22.9504 24.742 23.3289 24.5957 23.6385 24.3033C23.9482 23.9937 24.103 23.6152 24.103 23.1679V8.69213C23.2601 7.72879 22.6236 7.0579 22.1935 6.67944C21.7635 6.28379 21.385 5.95694 21.0582 5.69891C20.7141 5.44087 20.3873 5.22584 20.0776 5.05382C19.3551 4.64096 18.7789 4.40013 18.3488 4.33132C17.9015 4.26251 17.4887 4.2281 17.1102 4.2281C16.7146 4.2281 16.2931 4.30551 15.8458 4.46033L15.7426 4.2023C16.6888 3.65182 17.6607 3.37658 18.6584 3.37658C20.8259 3.37658 23.1225 4.66676 25.548 7.24712L37.0822 19.5038V8.76954C37.065 8.32227 36.9016 7.95242 36.5919 7.65998C36.2823 7.35034 35.9124 7.19552 35.4824 7.19552H35.0179V6.93748H42.8364V7.19552H42.3461C41.9161 7.19552 41.5462 7.35034 41.2366 7.65998C40.9269 7.95242 40.7635 8.31367 40.7463 8.74373V23.426L41.1592 23.8388C41.2624 23.9421 41.4172 24.1227 41.6236 24.3807C41.8473 24.6215 42.0451 24.828 42.2171 25C42.3891 25.1892 42.6042 25.4215 42.8622 25.6967C43.1375 25.9719 43.3869 26.2128 43.6105 26.4192C43.8514 26.6256 44.1266 26.8493 44.4362 27.0901C44.7631 27.3309 45.0641 27.5288 45.3394 27.6836ZM54.3767 24.742H54.7121V25H46.8678V24.742H47.2033C47.6505 24.742 48.029 24.5871 48.3386 24.2775C48.6655 23.9507 48.8375 23.5636 48.8547 23.1163V7.99543L46.4034 8.09864C44.7863 8.16745 43.9778 8.76954 43.9778 9.90489C43.9778 10.3694 44.1326 10.765 44.4423 11.0919C44.7691 11.4015 45.2164 11.5563 45.7841 11.5563C45.8357 11.5563 45.8873 11.5563 45.9389 11.5563V11.7111C45.5948 11.8316 45.3024 11.8918 45.0616 11.8918C44.2875 11.8918 43.694 11.6165 43.2811 11.0661C42.9887 10.6876 42.8425 10.2575 42.8425 9.77588C42.8425 9.01897 43.1435 8.39968 43.7456 7.91802C44.3305 7.41915 45.2422 7.12671 46.4808 7.04069C46.7044 7.02349 47.4269 6.98909 48.6483 6.93748C51.4351 6.83427 53.4563 6.66224 54.7121 6.42141L54.7637 6.67944C54.024 6.79986 53.4993 7.0493 53.1897 7.42775C52.8973 7.8062 52.7424 8.36528 52.7252 9.10498V23.1163C52.7424 23.5636 52.9059 23.9507 53.2155 24.2775C53.5423 24.5871 53.9294 24.742 54.3767 24.742ZM80.2454 30.1091C79.8153 30.1091 79.3939 30.0747 78.981 30.0059C77.3124 29.7479 75.8932 29.1114 74.7234 28.0964C73.5536 27.0987 72.7107 25.8515 72.1947 24.3549C70.5776 25.0258 68.8316 25.3613 66.9565 25.3613C63.8601 25.3613 61.3227 24.4839 59.3445 22.7293C57.3662 20.9746 56.377 18.7211 56.377 15.9687C56.377 14.1281 56.8243 12.4939 57.7188 11.0661C58.6306 9.63826 59.9035 8.5373 61.5378 7.7632C63.172 6.97188 65.0385 6.57623 67.1371 6.57623C68.5133 6.57623 69.8465 6.71385 71.1367 6.98909C72.4269 7.24712 73.4676 7.57397 74.2589 7.96962L74.3105 12.4078H74.1041C73.6913 10.8424 72.8914 9.66406 71.7044 8.87275C70.5346 8.06424 69.124 7.65998 67.4726 7.65998C65.4427 7.65998 63.7827 8.44269 62.4925 10.0081C61.2195 11.5563 60.583 13.5604 60.583 16.0203C60.583 18.4631 61.2109 20.45 62.4667 21.981C63.7225 23.512 65.3395 24.2775 67.3178 24.2775C68.3843 24.2775 69.3047 24.0453 70.0788 23.5808C70.8701 23.1163 71.4033 22.4971 71.6786 21.7229V17.8008C71.6786 17.4223 71.5668 17.1299 71.3431 16.9235C71.1195 16.717 70.8013 16.6138 70.3884 16.6138H69.9755V16.3558H77.2264V16.6138H76.8393C76.4092 16.6138 76.0824 16.717 75.8588 16.9235C75.6351 17.1299 75.5319 17.4137 75.5491 17.775V21.8778C75.5663 23.0131 75.7814 24.0711 76.1942 25.0516C77.1059 27.1503 78.6197 28.4577 80.7356 28.9738C81.3033 29.1114 81.8882 29.1802 82.4903 29.1802C83.1096 29.1802 83.7375 29.1114 84.374 28.9738L84.4256 29.2318C82.9462 29.8167 81.5528 30.1091 80.2454 30.1091ZM75.7382 5.23444C76.7188 4.82159 77.5703 4.61516 78.2928 4.61516C79.0153 4.61516 79.6518 4.68397 80.2022 4.82158C80.7527 4.9592 81.3118 5.19144 81.8795 5.51828C82.4644 5.82793 83.0062 6.21498 83.5051 6.67944C84.4684 7.59117 85.2855 8.62332 85.9564 9.77588L91.1172 19.4522L98.6002 6.57623H98.8324L101.516 21.7487C101.929 24.0883 102.643 25.9461 103.658 27.3223C104.673 28.7157 106.066 29.4124 107.838 29.4124C107.958 29.4124 108.07 29.4124 108.173 29.4124V29.6705C107.227 29.9285 106.298 30.0575 105.387 30.0575C103.529 30.0575 101.834 29.3264 100.303 27.8642C98.8238 26.4708 97.8175 24.4323 97.2842 21.7487L96.0198 14.2399L91.1688 22.6519C90.5151 23.7356 90.1796 24.6904 90.1624 25.5161H89.9302L83.5051 13.3368L82.2407 23.6582C82.1891 24.0539 82.3611 24.3721 82.7568 24.6129C82.9116 24.7162 83.075 24.7678 83.2471 24.7678H83.6599V25H78.267V24.742H78.6798C79.1271 24.742 79.5227 24.6129 79.8668 24.3549C80.228 24.0797 80.4517 23.7098 80.5377 23.2454L82.2923 10.937C81.5182 9.56085 80.6323 8.33948 79.6346 7.27293C78.5164 6.06876 77.3466 5.46668 76.1253 5.46668C76.0049 5.46668 75.893 5.47528 75.7898 5.49248L75.7382 5.23444ZM128.501 29.7221C126.626 30.6682 124.725 30.823 122.798 30.1865C120.751 29.5328 118.988 28.1394 117.508 26.0063C116.717 24.871 116.038 23.555 115.47 22.0584L114.644 19.8651H108.555L107.187 23.1163C107.101 23.34 107.058 23.5206 107.058 23.6582C107.058 23.7958 107.084 23.9507 107.135 24.1227C107.204 24.2775 107.333 24.4237 107.522 24.5613C107.729 24.6818 107.952 24.742 108.193 24.742H108.4V25H102.878V24.742H103.11C103.506 24.742 103.893 24.6301 104.271 24.4065C104.667 24.1657 104.994 23.813 105.252 23.3486L111.006 10.2145C110.335 8.70073 109.621 7.65998 108.864 7.0923C108.228 6.61063 107.617 6.3698 107.032 6.3698C106.464 6.3698 105.931 6.45581 105.432 6.62784L105.381 6.3698C106.619 5.73331 107.806 5.41507 108.942 5.41507C110.352 5.41507 111.617 5.96554 112.735 7.0665C113.836 8.15025 114.808 9.71567 115.651 11.7628L119.392 21.0004C120.803 24.4925 122.248 26.8923 123.727 28.1996C124.329 28.7329 124.948 29.1028 125.585 29.3092C126.221 29.5156 126.755 29.6188 127.185 29.6188C127.632 29.6188 128.062 29.5672 128.475 29.464L128.501 29.7221ZM108.993 18.7555H114.257L112.451 13.9819C112.365 13.741 112.244 13.4142 112.09 13.0013C111.935 12.5713 111.832 12.2702 111.78 12.0982L108.993 18.7555Z" fill="url(#paint0_linear_3488_51754)"/>
<path d="M9.03386 45.3372C8.40884 45.6526 7.77522 45.7042 7.133 45.492C6.45064 45.2741 5.86289 44.8097 5.36975 44.0986C5.10598 43.7202 4.87948 43.2815 4.69026 42.7826L4.41502 42.0515H2.38514L1.92927 43.1353C1.9006 43.2098 1.88627 43.27 1.88627 43.3159C1.88627 43.3618 1.89487 43.4134 1.91207 43.4707C1.93501 43.5224 1.97801 43.5711 2.04109 43.617C2.1099 43.6571 2.18444 43.6772 2.26472 43.6772H2.33353V43.7632H0.492873V43.6772H0.570284C0.702169 43.6772 0.831187 43.6399 0.957338 43.5654C1.08922 43.4851 1.19817 43.3675 1.28418 43.2127L3.20225 38.8347C2.97862 38.3301 2.74065 37.9832 2.48835 37.794C2.27619 37.6334 2.07263 37.5531 1.87767 37.5531C1.68844 37.5531 1.51068 37.5818 1.34439 37.6391L1.32719 37.5531C1.74005 37.341 2.1357 37.2349 2.51415 37.2349C2.98435 37.2349 3.40581 37.4184 3.77853 37.7853C4.14552 38.1466 4.46949 38.6684 4.75047 39.3508L5.99764 42.43C6.46784 43.594 6.94951 44.3939 7.44264 44.8297C7.64334 45.0075 7.84977 45.1308 8.06193 45.1996C8.27409 45.2684 8.45185 45.3028 8.5952 45.3028C8.74429 45.3028 8.88764 45.2856 9.02526 45.2512L9.03386 45.3372ZM2.53136 41.6817H4.286L3.68392 40.0905C3.65525 40.0102 3.61511 39.9012 3.5635 39.7636C3.51189 39.6203 3.47749 39.5199 3.46029 39.4626L2.53136 41.6817ZM13.8168 37.8284C13.6734 37.8284 13.5502 37.88 13.447 37.9832C13.3437 38.0807 13.2893 38.2011 13.2835 38.3444V42.7826C13.2835 43.1668 13.3093 43.4908 13.3609 43.7546L13.3867 43.8836H13.3093L8.96573 39.7464V43.1611C8.96573 43.3045 9.01733 43.4277 9.12055 43.531C9.22376 43.6284 9.34705 43.6772 9.4904 43.6772H9.65382V43.7632H7.04766V43.6772H7.20248C7.35157 43.6772 7.47772 43.6284 7.58093 43.531C7.68415 43.4277 7.73575 43.3016 7.73575 43.1525V38.6885C7.73575 38.31 7.70995 37.9946 7.65834 37.7423L7.64114 37.6133H7.71855L12.0622 41.7505V38.353C12.0564 38.2039 12.0019 38.0807 11.8987 37.9832C11.7955 37.88 11.6722 37.8284 11.5289 37.8284H11.3741V37.7423H13.9802V37.8284H13.8168ZM19.2376 39.9184C19.1344 39.7006 19.0828 39.4941 19.0828 39.2992C19.0828 39.0985 19.1086 38.915 19.1602 38.7487C19.2118 38.5767 19.2978 38.4104 19.4182 38.2498C19.5386 38.0835 19.7078 37.9459 19.9257 37.837C20.2238 37.6821 20.5822 37.6047 21.0008 37.6047C21.5513 37.6047 22.0731 37.7452 22.5662 38.0262C23.2142 38.3932 23.6643 38.9006 23.9166 39.5486C24.06 39.9041 24.1317 40.2854 24.1317 40.6926C24.1317 41.6502 23.7847 42.4214 23.0909 43.0063C22.4028 43.5912 21.5026 43.8836 20.3901 43.8836C19.2834 43.8836 18.3803 43.5912 17.6808 43.0063C16.9869 42.4214 16.64 41.653 16.64 40.7012C16.64 39.9901 16.8407 39.3737 17.2421 38.8519C17.6492 38.3244 18.1968 37.966 18.8849 37.7767L18.9365 37.8542C18.6441 38.1007 18.4233 38.462 18.2742 38.9379C18.1252 39.4138 18.0506 39.927 18.0506 40.4775C18.0506 41.4065 18.2656 42.1462 18.6957 42.6966C19.1258 43.2471 19.6877 43.5224 20.3815 43.5224C21.0811 43.5224 21.643 43.2643 22.0674 42.7482C22.4974 42.2264 22.7125 41.5383 22.7125 40.684C22.7125 40.1679 22.6322 39.7034 22.4716 39.2906C22.3168 38.872 22.0903 38.5509 21.7921 38.3272C21.494 38.0979 21.1614 37.9832 20.7944 37.9832C20.3873 37.9832 20.0576 38.0893 19.8053 38.3014C19.4497 38.6053 19.272 38.9924 19.272 39.4626C19.272 39.6117 19.292 39.7636 19.3322 39.9184H19.2376ZM31.3132 37.8284C31.1698 37.8284 31.0465 37.88 30.9433 37.9832C30.8401 38.0807 30.7856 38.2011 30.7799 38.3444V42.7826C30.7799 43.1668 30.8057 43.4908 30.8573 43.7546L30.8831 43.8836H30.8057L26.4621 39.7464V43.1611C26.4621 43.3045 26.5137 43.4277 26.6169 43.531C26.7201 43.6284 26.8434 43.6772 26.9868 43.6772H27.1502V43.7632H24.544V43.6772H24.6989C24.848 43.6772 24.9741 43.6284 25.0773 43.531C25.1805 43.4277 25.2321 43.3016 25.2321 43.1525V38.6885C25.2321 38.31 25.2063 37.9946 25.1547 37.7423L25.1375 37.6133H25.2149L29.5585 41.7505V38.353C29.5528 38.2039 29.4983 38.0807 29.3951 37.9832C29.2919 37.88 29.1686 37.8284 29.0253 37.8284H28.8704V37.7423H31.4766V37.8284H31.3132ZM32.0667 43.6772C32.2158 43.6772 32.342 43.6256 32.4452 43.5224C32.5541 43.4134 32.6115 43.2844 32.6172 43.1353V38.3702C32.6115 38.2211 32.5541 38.095 32.4452 37.9918C32.342 37.8828 32.2158 37.8284 32.0667 37.8284H31.9549V37.7423H34.5697L34.5611 37.8284H34.4579C34.3088 37.8284 34.1798 37.8828 34.0708 37.9918C33.9619 38.095 33.9074 38.2211 33.9074 38.3702V43.3933H35.0341C35.4527 43.3933 35.8025 43.2729 36.0835 43.0321C36.3702 42.7912 36.5824 42.4501 36.72 42.0085H36.806L36.4103 43.7632H31.9549V43.6772H32.0667ZM37.3165 43.6772C37.4656 43.6772 37.5917 43.6256 37.6949 43.5224C37.8039 43.4134 37.8612 43.2844 37.867 43.1353V38.3616C37.8612 38.2125 37.8039 38.0864 37.6949 37.9832C37.5917 37.88 37.4656 37.8284 37.3165 37.8284H37.2047V37.7423H39.8194L39.8108 37.8284H39.7076C39.5585 37.8284 39.4295 37.88 39.3206 37.9832C39.2116 38.0864 39.1571 38.2125 39.1571 38.3616V43.1353C39.1571 43.2844 39.2116 43.4134 39.3206 43.5224C39.4295 43.6256 39.5585 43.6772 39.7076 43.6772H39.8108L39.8194 43.7632H37.2047V43.6772H37.3165ZM47.1884 37.8284C47.0451 37.8284 46.9218 37.88 46.8186 37.9832C46.7154 38.0807 46.6609 38.2011 46.6552 38.3444V42.7826C46.6552 43.1668 46.681 43.4908 46.7326 43.7546L46.7584 43.8836H46.681L42.3374 39.7464V43.1611C42.3374 43.3045 42.389 43.4277 42.4922 43.531C42.5954 43.6284 42.7187 43.6772 42.862 43.6772H43.0255V43.7632H40.4193V43.6772H40.5741C40.7232 43.6772 40.8494 43.6284 40.9526 43.531C41.0558 43.4277 41.1074 43.3016 41.1074 43.1525V38.6885C41.1074 38.31 41.0816 37.9946 41.03 37.7423L41.0128 37.6133H41.0902L45.4338 41.7505V38.353C45.4281 38.2039 45.3736 38.0807 45.2704 37.9832C45.1672 37.88 45.0439 37.8284 44.9005 37.8284H44.7457V37.7423H47.3519V37.8284H47.1884ZM47.942 43.6772C48.0911 43.6772 48.2172 43.6256 48.3204 43.5224C48.4294 43.4134 48.4867 43.2844 48.4925 43.1353V38.3444C48.4753 38.1437 48.3807 37.9946 48.2086 37.8972C48.1226 37.8513 48.0337 37.8284 47.942 37.8284H47.8302V37.7423H51.1244C51.3022 37.7423 51.4972 37.7251 51.7093 37.6907C51.9215 37.6563 52.0706 37.6219 52.1566 37.5875V39.0927H52.0706V38.9895C52.0706 38.7315 51.9932 38.5251 51.8383 38.3702C51.6893 38.2097 51.4857 38.1237 51.2277 38.1122H49.7827V40.6151H50.918C51.1302 40.6094 51.3051 40.5377 51.4427 40.4001C51.5803 40.2568 51.6491 40.0819 51.6491 39.8754V39.798H51.7351V41.7849H51.6491V41.7161C51.6491 41.4294 51.5344 41.2172 51.3051 41.0796C51.1904 41.0165 51.0642 40.9821 50.9266 40.9764H49.7827V43.3933H50.9094C51.328 43.3933 51.6778 43.2729 51.9588 43.0321C52.2455 42.7912 52.4576 42.4501 52.5952 42.0085H52.6813L52.2856 43.7632H47.8302V43.6772H47.942ZM61.9951 40.4001C62.0123 40.5721 62.0209 40.79 62.0209 41.0538C62.0209 41.3118 61.9693 41.6301 61.8661 42.0085C61.7629 42.3813 61.5766 42.711 61.307 42.9977C60.7566 43.5883 59.9997 43.8836 59.0363 43.8836C57.8666 43.8836 56.9434 43.5969 56.2667 43.0235C55.5901 42.4443 55.2518 41.6903 55.2518 40.7614C55.2518 39.8267 55.593 39.0698 56.2753 38.4906C56.9634 37.9115 57.8694 37.6219 58.9933 37.6219C59.4234 37.6219 59.8334 37.6649 60.2233 37.7509C60.6132 37.837 60.9372 37.9488 61.1952 38.0864L61.2124 39.5658H61.1436C61.0461 39.1988 60.8827 38.892 60.6534 38.6455C60.2405 38.2039 59.6843 37.9832 58.9847 37.9832C58.2852 37.9832 57.7203 38.2326 57.2903 38.7315C56.866 39.2304 56.6538 39.8926 56.6538 40.7184C56.6538 41.5383 56.8746 42.2064 57.3161 42.7224C57.7634 43.2385 58.3769 43.5051 59.1567 43.5224C59.9997 43.5224 60.6706 43.2528 61.1694 42.7138C61.6683 42.1748 61.9177 41.4437 61.9177 40.5205C61.9177 40.4804 61.9177 40.4403 61.9177 40.4001H61.9951ZM64.8362 38.1208H64.4664C64.4549 38.1208 64.4463 38.1208 64.4406 38.1208V43.1353C64.4463 43.3475 64.5381 43.5051 64.7158 43.6084C64.8018 43.6542 64.8936 43.6772 64.991 43.6772H65.1029V43.7632H62.4881V43.6772H62.5999C62.8063 43.6772 62.964 43.5883 63.073 43.4105C63.1189 43.3303 63.1447 43.2414 63.1504 43.1439V38.3702C63.1447 38.2211 63.0873 38.095 62.9784 37.9918C62.8752 37.8828 62.749 37.8284 62.5999 37.8284H62.4881V37.7423H65.4383C65.9945 37.7423 66.4647 37.8628 66.8489 38.1036C67.0439 38.224 67.1987 38.3932 67.3134 38.6111C67.4281 38.8232 67.4854 39.0669 67.4854 39.3422C67.4854 39.6117 67.4367 39.8611 67.3392 40.0905C67.2474 40.3198 67.0897 40.5205 66.8661 40.6926C66.6482 40.8646 66.3844 40.9678 66.0748 41.0022C66.4074 41.1111 66.6998 41.3634 66.9521 41.7591C67.5714 42.7511 68.0301 43.3417 68.3283 43.531C68.4774 43.6227 68.6638 43.6714 68.8874 43.6772V43.7632H68.0445C67.5571 43.7632 67.1499 43.6972 66.8231 43.5654C66.4963 43.4277 66.2296 43.1955 66.0232 42.8687C65.92 42.7024 65.7881 42.4529 65.6275 42.1204C65.467 41.782 65.3609 41.5412 65.3093 41.3979C65.1545 41.0538 64.9595 40.8617 64.7244 40.8216V40.7356H64.991C65.2491 40.7356 65.4756 40.6582 65.6705 40.5033C65.8712 40.3485 66.006 40.0962 66.0748 39.7464C66.0977 39.626 66.1092 39.5314 66.1092 39.4626C66.1092 38.9924 66.0146 38.6541 65.8254 38.4476C65.6361 38.2355 65.3924 38.1265 65.0943 38.1208C65.0369 38.1208 64.9509 38.1208 64.8362 38.1208ZM74.4202 37.8284H74.2998C74.1278 37.8284 73.9644 37.8771 73.8096 37.9746C73.6547 38.0721 73.5315 38.1896 73.4397 38.3272L71.7453 41.028V43.1353C71.7453 43.2844 71.7997 43.4134 71.9087 43.5224C72.0176 43.6256 72.1467 43.6772 72.2958 43.6772H72.399L72.4076 43.7632H69.7928V43.6772H69.9046C70.0537 43.6772 70.1799 43.6256 70.2831 43.5224C70.392 43.4191 70.4494 43.293 70.4551 43.1439V41.0194L68.8123 38.3186C68.7263 38.181 68.603 38.0663 68.4424 37.9746C68.2876 37.8771 68.127 37.8284 67.9607 37.8284H67.8403V37.7423H70.6873V37.8284H70.5755C70.4494 37.8284 70.3519 37.8857 70.2831 38.0004C70.2487 38.0635 70.2315 38.1265 70.2315 38.1896C70.2315 38.2469 70.2458 38.3043 70.2745 38.3616L71.5044 40.5979L72.7774 38.3616C72.8118 38.3043 72.829 38.2469 72.829 38.1896C72.829 38.1265 72.809 38.0663 72.7688 38.009C72.7 37.8886 72.6025 37.8284 72.4764 37.8284H72.3732V37.7423H74.4202V37.8284ZM79.3758 40.2109C79.1809 40.6582 78.8196 40.9678 78.2921 41.1398C78.1372 41.1914 77.9939 41.2172 77.862 41.2172C77.4549 41.2172 77.0908 41.1111 76.7697 40.899V40.813C77.1997 40.8244 77.5466 40.684 77.8104 40.3915C78.0455 40.1392 78.163 39.8095 78.163 39.4024C78.163 38.7774 77.9452 38.3731 77.5094 38.1896C77.3717 38.1323 77.2198 38.1036 77.0535 38.1036H76.4772V43.1353C76.4772 43.2844 76.5317 43.4134 76.6406 43.5224C76.7496 43.6256 76.8786 43.6772 77.0277 43.6772H77.1395V43.7632H74.5247V43.6772H74.6366C74.7856 43.6772 74.9118 43.6256 75.015 43.5224C75.124 43.4134 75.1813 43.2844 75.187 43.1353V38.3272C75.1641 38.1323 75.0666 37.9889 74.8946 37.8972C74.8143 37.8513 74.7283 37.8284 74.6366 37.8284H74.5247V37.7423H77.3975C78.4354 37.7423 79.1006 38.0721 79.393 38.7315C79.4848 38.9494 79.5306 39.1931 79.5306 39.4626C79.5306 39.7264 79.479 39.9758 79.3758 40.2109ZM83.3925 38.095V43.1439C83.3982 43.293 83.4527 43.4191 83.5559 43.5224C83.6649 43.6256 83.7939 43.6772 83.943 43.6772H84.0462L84.0548 43.7632H81.44V43.6772H81.5519C81.6952 43.6772 81.8185 43.6256 81.9217 43.5224C82.0307 43.4191 82.0909 43.2959 82.1023 43.1525V38.095H80.9412C80.6774 38.1007 80.4681 38.1839 80.3133 38.3444C80.1585 38.505 80.081 38.7143 80.081 38.9723V39.0755H79.995V37.5789C80.0753 37.6133 80.2187 37.6477 80.4251 37.6821C80.6373 37.7165 80.8322 37.7337 81.01 37.7337H84.4763C84.7572 37.728 84.9866 37.7051 85.1644 37.6649C85.3421 37.6248 85.4511 37.5961 85.4912 37.5789V39.0755H85.4052V38.9723C85.4052 38.7143 85.3278 38.505 85.173 38.3444C85.0181 38.1839 84.8088 38.1007 84.5451 38.095H83.3925ZM86.0762 43.6772C86.2253 43.6772 86.3515 43.6256 86.4547 43.5224C86.5636 43.4134 86.621 43.2844 86.6267 43.1353V38.3616C86.621 38.2125 86.5636 38.0864 86.4547 37.9832C86.3515 37.88 86.2253 37.8284 86.0762 37.8284H85.9644V37.7423H88.5792L88.5706 37.8284H88.4673C88.3183 37.8284 88.1892 37.88 88.0803 37.9832C87.9713 38.0864 87.9169 38.2125 87.9169 38.3616V43.1353C87.9169 43.2844 87.9713 43.4134 88.0803 43.5224C88.1892 43.6256 88.3183 43.6772 88.4673 43.6772H88.5706L88.5792 43.7632H85.9644V43.6772H86.0762ZM92.6672 43.875C91.5605 43.875 90.6917 43.5969 90.061 43.0407C89.4302 42.4845 89.1149 41.7218 89.1149 40.7528C89.1149 39.7837 89.4274 39.0211 90.0524 38.4648C90.6774 37.9029 91.5347 37.6219 92.6241 37.6219C93.4556 37.6219 94.1695 37.7767 94.7658 38.0864L94.7831 39.5658H94.7142C94.4218 38.5107 93.7538 37.9832 92.7102 37.9832C92.0335 37.9832 91.4974 38.2297 91.1017 38.7229C90.7118 39.2103 90.5169 39.8783 90.5169 40.727C90.5169 41.5756 90.7032 42.2494 91.0759 42.7482C91.4544 43.2471 91.9647 43.5051 92.6069 43.5224C93.2721 43.5224 93.7796 43.3561 94.1294 43.0235C94.4849 42.6794 94.7314 42.0888 94.8691 41.2516H94.9379L95.0239 42.731C94.5594 43.4994 93.7738 43.8807 92.6672 43.875ZM102.088 43.6772C102.237 43.6772 102.366 43.6256 102.475 43.5224C102.584 43.4191 102.641 43.293 102.647 43.1439V40.9506H99.9375V43.1611C99.9375 43.8492 99.7626 44.3968 99.4128 44.8039C99.1376 45.125 98.742 45.2856 98.2259 45.2856C98.0596 45.2856 97.879 45.2655 97.684 45.2254L97.6668 45.1394C98.0911 44.9616 98.3635 44.6978 98.4839 44.3481C98.5929 44.0499 98.6473 43.6542 98.6473 43.1611V38.3616C98.6416 38.2125 98.5843 38.0864 98.4753 37.9832C98.3721 37.88 98.246 37.8284 98.0969 37.8284H97.985V37.7423H100.6V37.8284H100.488C100.282 37.8284 100.127 37.9144 100.024 38.0864C99.9719 38.1667 99.9433 38.2584 99.9375 38.3616V40.5807H102.647V38.5165C102.647 37.8456 102.856 37.3123 103.275 36.9166C103.607 36.5898 104.026 36.4264 104.531 36.4264C104.645 36.4264 104.766 36.435 104.892 36.4522L104.909 36.5382C104.49 36.6873 104.218 36.951 104.092 37.3295C103.989 37.6391 103.934 38.0348 103.928 38.5165V43.1353C103.934 43.3417 104.026 43.4965 104.204 43.5998C104.29 43.6514 104.384 43.6772 104.488 43.6772H104.591V43.7632H101.985V43.6772H102.088ZM111.793 37.8284H111.647C111.526 37.8284 111.42 37.8685 111.328 37.9488C111.242 38.0233 111.199 38.1179 111.199 38.2326V41.5871C111.199 42.2924 110.979 42.8515 110.537 43.2643C110.095 43.6772 109.491 43.8836 108.722 43.8836C107.816 43.8836 107.122 43.6829 106.641 43.2815C106.159 42.8744 105.918 42.3124 105.918 41.5957V38.2584C105.918 38.1323 105.872 38.0291 105.781 37.9488C105.695 37.8685 105.588 37.8284 105.462 37.8284H105.325V37.7423H107.802V37.8284H107.664C107.538 37.8284 107.432 37.8685 107.346 37.9488C107.26 38.0233 107.214 38.1208 107.208 38.2412V41.5269C107.208 42.1347 107.357 42.6164 107.656 42.9719C107.954 43.3274 108.364 43.5051 108.886 43.5051C109.407 43.5051 109.82 43.3389 110.124 43.0063C110.428 42.668 110.583 42.2121 110.589 41.6387V38.2412C110.589 38.1208 110.543 38.0233 110.451 37.9488C110.365 37.8685 110.259 37.8284 110.133 37.8284H109.995V37.7423H111.793V37.8284ZM119.089 37.8284C118.946 37.8284 118.822 37.88 118.719 37.9832C118.616 38.0807 118.562 38.2011 118.556 38.3444V42.7826C118.556 43.1668 118.582 43.4908 118.633 43.7546L118.659 43.8836H118.582L114.238 39.7464V43.1611C114.238 43.3045 114.29 43.4277 114.393 43.531C114.496 43.6284 114.619 43.6772 114.763 43.6772H114.926V43.7632H112.32V43.6772H112.475C112.624 43.6772 112.75 43.6284 112.853 43.531C112.956 43.4277 113.008 43.3016 113.008 43.1525V38.6885C113.008 38.31 112.982 37.9946 112.931 37.7423L112.913 37.6133H112.991L117.334 41.7505V38.353C117.329 38.2039 117.274 38.0807 117.171 37.9832C117.068 37.88 116.945 37.8284 116.801 37.8284H116.646V37.7423H119.253V37.8284H119.089ZM123.022 38.095V43.1439C123.028 43.293 123.082 43.4191 123.185 43.5224C123.294 43.6256 123.423 43.6772 123.572 43.6772H123.676L123.684 43.7632H121.069V43.6772H121.181C121.325 43.6772 121.448 43.6256 121.551 43.5224C121.66 43.4191 121.72 43.2959 121.732 43.1525V38.095H120.571C120.307 38.1007 120.097 38.1839 119.943 38.3444C119.788 38.505 119.71 38.7143 119.71 38.9723V39.0755H119.624V37.5789C119.705 37.6133 119.848 37.6477 120.054 37.6821C120.267 37.7165 120.462 37.7337 120.639 37.7337H124.106C124.387 37.728 124.616 37.7051 124.794 37.6649C124.971 37.6248 125.08 37.5961 125.121 37.5789V39.0755H125.035V38.9723C125.035 38.7143 124.957 38.505 124.802 38.3444C124.647 38.1839 124.438 38.1007 124.174 38.095H123.022Z" fill="url(#paint1_linear_3488_51754)"/>
<defs>
<linearGradient id="paint0_linear_3488_51754" x1="60.8742" y1="-4.25452" x2="60.8742" y2="40.1495" gradientUnits="userSpaceOnUse">
<stop offset="0.234375" stop-color="#FFD37C"/>
<stop offset="0.607292" stop-color="#D08123"/>
</linearGradient>
<linearGradient id="paint1_linear_3488_51754" x1="62.9788" y1="38.5192" x2="62.9788" y2="46.2314" gradientUnits="userSpaceOnUse">
<stop stop-color="#0FA3B1"/>
<stop offset="1" stop-color="#037EC4" stop-opacity="0.97"/>
</linearGradient>
</defs>
</svg>
