<svg width="126" height="37" viewBox="0 0 126 37" fill="none" xmlns="http://www.w3.org/2000/svg">
<path d="M121.166 36.5068H4.66022C2.09826 36.5068 0 34.4582 0 31.9569V4.65708C0 2.15574 2.09826 0.107119 4.66022 0.107119H121.166C123.728 0.107119 125.826 2.15574 125.826 4.65708V31.9569C125.826 34.4582 123.728 36.5068 121.166 36.5068Z" fill="black"/>
<path d="M121.166 0.836249C123.323 0.836249 125.079 2.55045 125.079 4.65708V31.9569C125.079 34.0635 123.323 35.7777 121.166 35.7777H4.66022C2.50254 35.7777 0.746799 34.0635 0.746799 31.9569V4.65708C0.746799 2.55045 2.50254 0.836249 4.66022 0.836249H121.166ZM121.166 0.107119H4.66022C2.09826 0.107119 0 2.15574 0 4.65708V31.9569C0 34.4582 2.09826 36.5068 4.66022 36.5068H121.166C123.728 36.5068 125.826 34.4582 125.826 31.9569V4.65708C125.826 2.15574 123.728 0.107119 121.166 0.107119Z" fill="#A6A6A6"/>
<path d="M44.1948 9.42864C44.1948 10.1885 43.9618 10.797 43.5028 11.2509C42.975 11.7889 42.2876 12.0597 41.4453 12.0597C40.6403 12.0597 39.9529 11.7844 39.389 11.2418C38.8239 10.6913 38.542 10.0156 38.542 9.20683C38.542 8.39808 38.8239 7.72241 39.389 7.17641C39.9529 6.62928 40.6403 6.354 41.4453 6.354C41.8461 6.354 42.2282 6.43477 42.5929 6.58491C42.9564 6.7362 43.2523 6.94095 43.4667 7.19347L42.9797 7.67349C42.6057 7.24239 42.0966 7.02967 41.4453 7.02967C40.8581 7.02967 40.349 7.22987 39.9168 7.63368C39.4892 8.03863 39.2748 8.56301 39.2748 9.20683C39.2748 9.85065 39.4892 10.3796 39.9168 10.7845C40.349 11.1838 40.8581 11.3885 41.4453 11.3885C42.0686 11.3885 42.5929 11.1838 43.0065 10.78C43.2791 10.5127 43.4341 10.1441 43.4748 9.6732H41.4453V9.01573H44.1529C44.1855 9.15792 44.1948 9.29556 44.1948 9.42864Z" fill="white" stroke="white" stroke-width="0.111999" stroke-miterlimit="10"/>
<path d="M48.4909 7.14923H45.9475V8.87822H48.2404V9.53569H45.9475V11.2647H48.4909V11.9347H45.2275V6.47925H48.4909V7.14923Z" fill="white" stroke="white" stroke-width="0.111999" stroke-miterlimit="10"/>
<path d="M51.5232 11.9347H50.8032V7.14923H49.2432V6.47925H53.0843V7.14923H51.5232V11.9347Z" fill="white" stroke="white" stroke-width="0.111999" stroke-miterlimit="10"/>
<path d="M55.8643 11.9347V6.47925H56.5831V11.9347H55.8643Z" fill="white" stroke="white" stroke-width="0.111999" stroke-miterlimit="10"/>
<path d="M59.7683 11.9347H59.0541V7.14923H57.4883V6.47925H61.3341V7.14923H59.7683V11.9347Z" fill="white" stroke="white" stroke-width="0.111999" stroke-miterlimit="10"/>
<path d="M68.6073 11.2327C68.0562 11.7844 67.3735 12.0597 66.5591 12.0597C65.7401 12.0597 65.0574 11.7844 64.5063 11.2327C63.9564 10.6822 63.6826 10.0065 63.6826 9.20683C63.6826 8.40718 63.9564 7.73151 64.5063 7.18096C65.0574 6.62928 65.7401 6.354 66.5591 6.354C67.3688 6.354 68.0516 6.62928 68.6026 7.18551C69.1572 7.74061 69.431 8.41173 69.431 9.20683C69.431 10.0065 69.1572 10.6822 68.6073 11.2327ZM65.0387 10.7754C65.4535 11.1838 65.958 11.3885 66.5591 11.3885C67.1556 11.3885 67.6648 11.1838 68.0749 10.7754C68.4885 10.3671 68.6982 9.84269 68.6982 9.20683C68.6982 8.57097 68.4885 8.04659 68.0749 7.63823C67.6648 7.22987 67.1556 7.02512 66.5591 7.02512C65.958 7.02512 65.4535 7.22987 65.0387 7.63823C64.6251 8.04659 64.4154 8.57097 64.4154 9.20683C64.4154 9.84269 64.6251 10.3671 65.0387 10.7754Z" fill="white" stroke="white" stroke-width="0.111999" stroke-miterlimit="10"/>
<path d="M70.4414 11.9347V6.47925H71.3152L74.0321 10.7221H74.0636L74.0321 9.67332V6.47925H74.7509V11.9347H74.0006L71.1556 7.48252H71.1241L71.1556 8.53583V11.9347H70.4414Z" fill="white" stroke="white" stroke-width="0.111999" stroke-miterlimit="10"/>
<path d="M63.5057 19.9018C61.3165 19.9018 59.5282 21.5284 59.5282 23.7727C59.5282 25.9987 61.3165 27.6424 63.5057 27.6424C65.6995 27.6424 67.4878 25.9987 67.4878 23.7727C67.4878 21.5284 65.6995 19.9018 63.5057 19.9018ZM63.5057 26.1182C62.3045 26.1182 61.2711 25.1502 61.2711 23.7727C61.2711 22.377 62.3045 21.426 63.5057 21.426C64.7068 21.426 65.7449 22.377 65.7449 23.7727C65.7449 25.1502 64.7068 26.1182 63.5057 26.1182ZM54.8272 19.9018C52.6334 19.9018 50.8497 21.5284 50.8497 23.7727C50.8497 25.9987 52.6334 27.6424 54.8272 27.6424C57.0198 27.6424 58.8047 25.9987 58.8047 23.7727C58.8047 21.5284 57.0198 19.9018 54.8272 19.9018ZM54.8272 26.1182C53.6248 26.1182 52.5879 25.1502 52.5879 23.7727C52.5879 22.377 53.6248 21.426 54.8272 21.426C56.0283 21.426 57.0617 22.377 57.0617 23.7727C57.0617 25.1502 56.0283 26.1182 54.8272 26.1182ZM44.5001 21.0882V22.733H48.5231C48.4054 23.6521 48.0908 24.3277 47.6085 24.7987C47.0213 25.3674 46.1067 25.9987 44.5001 25.9987C42.0244 25.9987 40.0857 24.0479 40.0857 21.6308C40.0857 19.2136 42.0244 17.2628 44.5001 17.2628C45.8388 17.2628 46.8128 17.7735 47.5316 18.4355L48.7188 17.2764C47.7134 16.3391 46.3759 15.6191 44.5001 15.6191C41.1052 15.6191 38.252 18.3161 38.252 21.6308C38.252 24.9454 41.1052 27.6424 44.5001 27.6424C46.3351 27.6424 47.7134 27.0555 48.7969 25.9544C49.9072 24.8703 50.2532 23.3461 50.2532 22.1153C50.2532 21.7331 50.2206 21.3816 50.1623 21.0882H44.5001ZM86.7287 22.3633C86.4013 21.4977 85.3912 19.9018 83.3337 19.9018C81.2949 19.9018 79.5974 21.4704 79.5974 23.7727C79.5974 25.9407 81.2774 27.6424 83.5294 27.6424C85.3504 27.6424 86.4013 26.5584 86.8335 25.9271L85.4821 25.0478C85.0312 25.6916 84.4172 26.1182 83.5294 26.1182C82.6475 26.1182 82.0149 25.7234 81.6094 24.9454L86.9116 22.8035L86.7287 22.3633ZM81.3228 23.6521C81.2774 22.1597 82.51 21.3953 83.3931 21.3953C84.0852 21.3953 84.6724 21.7331 84.8681 22.2166L81.3228 23.6521ZM77.0133 27.4069H78.7562V16.032H77.0133V27.4069ZM74.1589 20.764H74.1007C73.7092 20.3113 72.9624 19.9018 72.0164 19.9018C70.0311 19.9018 68.216 21.6035 68.216 23.7852C68.216 25.9544 70.0311 27.6424 72.0164 27.6424C72.9624 27.6424 73.7092 27.2295 74.1007 26.7631H74.1589V27.3182C74.1589 28.7981 73.3492 29.5932 72.0432 29.5932C70.9783 29.5932 70.3177 28.8424 70.0451 28.2111L68.5294 28.8288C68.9663 29.8548 70.1232 31.1174 72.0432 31.1174C74.0867 31.1174 75.811 29.9435 75.811 27.0873V20.1372H74.1589V20.764ZM72.1655 26.1182C70.9643 26.1182 69.9589 25.1365 69.9589 23.7852C69.9589 22.4213 70.9643 21.426 72.1655 21.426C73.3492 21.426 74.2824 22.4213 74.2824 23.7852C74.2824 25.1365 73.3492 26.1182 72.1655 26.1182ZM94.8887 16.032H90.7201V27.4069H92.4584V23.097H94.8887C96.8192 23.097 98.7124 21.7331 98.7124 19.5639C98.7124 17.3959 96.8145 16.032 94.8887 16.032ZM94.9342 21.5147H92.4584V17.6143H94.9342C96.232 17.6143 96.973 18.6665 96.973 19.5639C96.973 20.4444 96.232 21.5147 94.9342 21.5147ZM105.679 19.8802C104.424 19.8802 103.117 20.4216 102.58 21.6217L104.123 22.253C104.455 21.6217 105.065 21.4169 105.711 21.4169C106.613 21.4169 107.527 21.9458 107.541 22.8797V22.9992C107.227 22.8217 106.553 22.559 105.725 22.559C104.064 22.559 102.371 23.4519 102.371 25.1183C102.371 26.6425 103.731 27.6242 105.261 27.6242C106.431 27.6242 107.076 27.1089 107.482 26.5095H107.541V27.3887H109.22V23.0253C109.22 21.0086 107.678 19.8802 105.679 19.8802ZM105.47 26.1136C104.901 26.1136 104.109 25.8383 104.109 25.1502C104.109 24.2697 105.097 23.9319 105.952 23.9319C106.718 23.9319 107.076 24.0968 107.541 24.3141C107.405 25.3674 106.476 26.1136 105.47 26.1136ZM115.337 20.1293L113.339 25.0603H113.279L111.213 20.1293H109.339L112.443 27.0202L110.672 30.8547H112.488L117.271 20.1293H115.337ZM99.6678 27.4069H101.411V16.032H99.6678V27.4069Z" fill="white"/>
<path d="M9.72716 6.96737C9.45337 7.24719 9.29492 7.68285 9.29492 8.24705V28.3715C9.29492 28.9357 9.45337 29.3714 9.72716 29.6512L9.79473 29.7126L21.3451 18.4401V18.1739L9.79473 6.90139L9.72716 6.96737Z" fill="url(#paint0_linear_3488_51728)"/>
<path d="M25.1896 22.1995L21.3438 18.4401V18.1739L25.1943 14.4145L25.2805 14.4634L29.8405 16.9966C31.1419 17.7155 31.1419 18.8985 29.8405 19.6219L25.2805 22.1505L25.1896 22.1995Z" fill="url(#paint1_linear_3488_51728)"/>
<path d="M25.2812 22.1504L21.3445 18.3069L9.72656 29.6511C10.1588 30.0947 10.8637 30.1482 11.6652 29.7045L25.2812 22.1504Z" fill="url(#paint2_linear_3488_51728)"/>
<path d="M25.2812 14.4633L11.6652 6.90922C10.8637 6.47015 10.1588 6.52361 9.72656 6.96723L21.3445 18.3069L25.2812 14.4633Z" fill="url(#paint3_linear_3488_51728)"/>
<defs>
<linearGradient id="paint0_linear_3488_51728" x1="20.3195" y1="28.5811" x2="5.05205" y2="12.9437" gradientUnits="userSpaceOnUse">
<stop stop-color="#00A0FF"/>
<stop offset="0.0066" stop-color="#00A1FF"/>
<stop offset="0.2601" stop-color="#00BEFF"/>
<stop offset="0.5122" stop-color="#00D2FF"/>
<stop offset="0.7604" stop-color="#00DFFF"/>
<stop offset="1" stop-color="#00E3FF"/>
</linearGradient>
<linearGradient id="paint1_linear_3488_51728" x1="31.5351" y1="18.3057" x2="8.98253" y2="18.3057" gradientUnits="userSpaceOnUse">
<stop stop-color="#FFE000"/>
<stop offset="0.4087" stop-color="#FFBD00"/>
<stop offset="0.7754" stop-color="#FFA500"/>
<stop offset="1" stop-color="#FF9C00"/>
</linearGradient>
<linearGradient id="paint2_linear_3488_51728" x1="23.1405" y1="16.2174" x2="2.43657" y2="-4.98821" gradientUnits="userSpaceOnUse">
<stop stop-color="#FF3A44"/>
<stop offset="1" stop-color="#C31162"/>
</linearGradient>
<linearGradient id="paint3_linear_3488_51728" x1="6.80209" y1="36.3464" x2="16.0473" y2="26.8772" gradientUnits="userSpaceOnUse">
<stop stop-color="#32A071"/>
<stop offset="0.0685" stop-color="#2DA771"/>
<stop offset="0.4762" stop-color="#15CF74"/>
<stop offset="0.8009" stop-color="#06E775"/>
<stop offset="1" stop-color="#00F076"/>
</linearGradient>
</defs>
</svg>
