<svg width="187" height="508" viewBox="0 0 187 508" fill="none" xmlns="http://www.w3.org/2000/svg">
<path fill-rule="evenodd" clip-rule="evenodd" d="M42 110.539C51.3555 138.185 66.1551 152.844 92.6794 154.522C121.863 163.872 148.948 144.746 141.27 114.731C137.779 121.151 135.546 124.642 129.541 126.455C131.915 109.842 116.694 107.048 124.097 89.1781C129.26 78.1497 132.33 64.6072 123.255 53.5739C119.489 66.1398 114.881 74.5187 105.666 83.734C106.643 68.3736 114.741 55.9479 109.853 41.4287C110.554 31.6554 94.4973 31.9344 94.3571 2.05615C84.1651 14.901 79.8379 24.814 81.3706 44.3605C77.6042 60.1397 68.3889 65.8594 70.0617 82.8976C68.6645 73.4018 67.6878 65.1632 69.6459 58.1816C68.5242 49.5271 67.4074 42.1268 58.7529 35.9836C61.4073 46.7325 64.4774 62.9295 55.4023 66.9811C52.8882 72.1448 40.3223 89.8743 54.1453 117.66C50.0985 115.287 46.0468 114.59 42 110.539Z" fill="url(#paint0_linear_2287_5205)" stroke="#FFFF00" stroke-opacity="0.50382" stroke-width="1.04255"/>
<path fill-rule="evenodd" clip-rule="evenodd" d="M89.7494 150.33C67.5476 126.876 63.7812 110.539 78.4406 95.0429C94.9131 65.724 90.8663 47.2934 78.8564 29.6992C90.1652 68.654 65.4541 93.7858 57.4958 105.095C52.7479 90.4352 56.7996 84.1498 63.3605 66.1398C50.5142 80.103 42.6962 96.9962 47.4441 113.053C56.0985 137.208 76.4824 142.512 89.7494 150.33Z" fill="url(#paint1_linear_2287_5205)" stroke="#FFFF00" stroke-opacity="0.50382" stroke-width="1.04255"/>
<path fill-rule="evenodd" clip-rule="evenodd" d="M116.689 61.7064C113.716 53.0519 116.143 51.2001 118.749 47.4192C121.437 46.3701 120.615 42.7202 122.08 34.5879C124.304 43.6649 130.266 47.7915 116.689 61.7064Z" fill="#FFD700" stroke="#FFFF00" stroke-opacity="0.50382" stroke-width="1.04255"/>
<path fill-rule="evenodd" clip-rule="evenodd" d="M80.0458 29.6604C80.3552 36.3219 82.2505 42.9181 81.3802 49.643C80.6163 65.3419 73.7169 80.1028 64.197 92.3883C62.4322 94.8976 60.5514 97.3248 58.7287 99.7954C56.2967 91.6873 57.3943 82.9409 60.6723 75.2486C62.3984 71.1341 63.6119 66.8697 64.2453 62.4458C55.146 70.7473 48.7205 82.0658 46.4626 94.1772C44.6253 105.38 48.5657 116.896 56.0018 125.314C65.3428 136.338 78.779 142.531 91.8042 148.072C84.4213 137.691 74.152 128.326 71.9715 115.209C70.4727 107.594 73.4703 99.9549 78.4744 94.2594C84.1989 86.3979 87.7623 77.0424 89.8799 67.5998C92.631 55.2998 90.4263 42.0019 83.7058 31.3376C82.0474 30.125 79.0836 23.754 80.0458 29.6604Z" fill="url(#paint2_linear_2287_5205)"/>
<path fill-rule="evenodd" clip-rule="evenodd" d="M120.035 33.1644C119.131 37.0227 119.537 41.275 117.859 44.8741C113.924 47.8833 112.207 53.4676 113.933 58.2107C114.465 62.1849 115.708 62.8715 117.913 59.2405C122.617 54.4008 127.022 47.4627 124.343 40.5246C123.134 36.9859 122.075 33.3931 120.727 29.9009C120.499 30.9887 120.267 32.0766 120.035 33.1644Z" fill="url(#paint3_linear_2287_5205)"/>
<path fill-rule="evenodd" clip-rule="evenodd" d="M91.3207 8.07152C84.0684 17.589 80.9982 29.7435 81.9217 41.5953C82.6083 47.3904 79.5284 52.7861 77.3334 57.9643C73.3011 65.6808 69.6556 74.108 70.7579 83.0236C70.4388 88.1631 68.1567 82.9849 68.3937 80.3982C67.301 73.1314 66.8368 65.5938 68.326 58.3898C67.5766 51.384 65.7973 43.7864 60.0148 39.1812C61.7312 47.4967 63.9649 56.8764 59.8165 64.8202C58.3274 67.4842 55.001 68.2094 54.3048 71.4101C47.3232 83.6424 46.7962 98.8917 52.0952 111.844C53.1976 114.794 54.6384 117.608 55.8858 120.499C51.9985 118.275 47.7293 116.771 43.9678 114.334C49.1749 129.584 59.0816 144.591 74.7177 150.528C80.8677 153.144 87.5689 153.632 94.067 154.662C108.306 159.11 125.977 156.19 135.371 143.798C140.888 136.628 142.421 126.953 140.545 118.217C138.06 123.245 133.752 127.321 128.187 128.612C129.463 122.157 127.515 115.693 124.179 110.172C120.582 104.283 119.735 96.832 122.607 90.4645C126.968 80.9107 130.261 69.3456 125.184 59.4003C123.613 54.8071 122.506 57.6258 121.713 60.8797C118.391 71.091 111.685 79.7794 104.099 87.2299C104.626 76.8107 108.262 66.9524 109.805 56.712C110.689 51.4952 109.674 46.259 108.581 41.2065C107.837 35.5294 101.924 32.6169 99.424 27.7554C94.9759 21.2897 93.4964 13.2531 93.2354 5.5332C92.5972 6.37931 91.9589 7.22542 91.3207 8.07152Z" fill="url(#paint4_linear_2287_5205)"/>
<path fill-rule="evenodd" clip-rule="evenodd" d="M135.821 114.73C143.504 107.328 141.966 104.118 141.27 98.8139C139.036 96.2998 141.826 92.9492 144.621 83.7339C137.499 91.9726 129.12 93.0894 135.821 114.73Z" fill="#FFD700" stroke="#FFFF00" stroke-opacity="0.50382" stroke-width="1.04255"/>
<path fill-rule="evenodd" clip-rule="evenodd" d="M99.8011 150.33C108.456 145.447 110.83 130.086 111.946 113.053C114.04 96.5756 118.232 80.1031 145.878 77.4487C134.564 86.5238 125.354 97.6973 129.541 118.497C128.424 148.797 105.946 147.68 99.8011 150.33Z" fill="url(#paint5_linear_2287_5205)" stroke="#FFFF00" stroke-opacity="0.50382" stroke-width="1.04255"/>
<path fill-rule="evenodd" clip-rule="evenodd" d="M142.692 75.0459C130.904 76.7139 118.749 83.7971 115.292 95.8263C109.737 110.863 112.807 127.974 105.236 142.415C102.359 143.663 103.06 149.025 106.614 147.975C117.018 146.09 126.891 138.862 129.526 128.259C132.069 120.89 130.629 113.101 130.358 105.535C130.701 94.5644 137.054 84.6673 145.394 77.8985C146.855 75.7953 144.418 75.0894 142.692 75.0459Z" fill="url(#paint6_linear_2287_5205)"/>
<path fill-rule="evenodd" clip-rule="evenodd" d="M142.832 80.7892C138.084 85.8175 131.189 90.5218 131.359 98.2528C131.006 103.794 132.978 109.073 134.206 114.392C138.33 110.456 143.015 105.331 141.507 99.1231C141.497 96.3914 139.433 93.9981 141.053 91.3341C142.605 87.1132 144.234 82.9166 145.312 78.5361C144.485 79.2855 143.659 80.0349 142.832 80.7892Z" fill="url(#paint7_linear_2287_5205)"/>
<path fill-rule="evenodd" clip-rule="evenodd" d="M84.7212 139.021C83.6044 125.619 82.0717 115.983 98.9648 103.838C127.587 83.8743 113.484 72.285 95.6142 51.4805C100.918 72.1448 92.4039 88.6173 85.1419 99.6506C80.394 106.492 63.9215 120.455 84.7212 139.021Z" fill="url(#paint8_linear_2287_5205)" stroke="#FFFF00" stroke-opacity="0.50382" stroke-width="1.04255"/>
<path fill-rule="evenodd" clip-rule="evenodd" d="M73.804 40.7044C81.535 31.8029 79.5479 28.139 78.286 22.0108C75.6026 19.1853 78.3488 15.1824 80.5487 4.37451C73.5091 14.2251 64.4292 15.8637 73.804 40.7044Z" fill="#FFD700" stroke="#FFFF00" stroke-opacity="0.50382" stroke-width="1.04255"/>
<path fill-rule="evenodd" clip-rule="evenodd" d="M78.6969 2.47789C74.1956 8.36437 67.3687 13.7954 67.7265 21.9538C67.6782 28.7367 70.3519 35.0651 72.3487 41.4293C76.4293 36.7709 80.7711 30.8554 78.958 24.2915C78.9677 21.6942 77.1497 19.678 77.0966 17.2248C78.0925 11.435 80.1474 5.84201 80.9596 0C80.2054 0.826139 79.4511 1.65208 78.6969 2.47803V2.47789Z" fill="url(#paint9_linear_2287_5205)"/>
<path fill-rule="evenodd" clip-rule="evenodd" d="M95.1839 48.0187C98.2782 62.1028 95.0872 76.9459 87.9605 89.3184C83.5366 97.8279 74.8096 104.345 73.978 114.465C72.6436 123.288 79.0014 130.642 84.8904 136.338C87.2885 139.355 85.2336 132.223 85.5576 130.555C84.6003 121.877 86.0894 112.139 93.0952 106.187C100.889 98.6014 112.009 93.3459 115.742 82.4432C118.27 72.8169 111.54 64.1866 105.666 57.3501C102.127 53.0567 98.3942 48.9325 94.681 44.7847C94.8502 45.8624 95.0146 46.9406 95.1839 48.0187Z" fill="url(#paint10_linear_2287_5205)"/>
<g filter="url(#filter0_i_2287_5205)">
<path d="M0 507.904V476.737H187V507.904H0Z" fill="#744500"/>
</g>
<path d="M0 476.737L36.1936 465.606H149.801L187 476.737H0Z" fill="#744500"/>
<path d="M44.5234 474.511L57.2998 202.916H129.699L142.476 474.511H44.5234Z" fill="url(#paint11_linear_2287_5205)"/>
<g filter="url(#filter1_i_2287_5205)">
<path d="M160.938 136.007C164.554 137.314 167.058 140.766 166.481 144.568C165.703 149.701 163.986 154.739 161.372 159.532C157.68 166.3 152.268 172.449 145.447 177.629C138.625 182.809 130.526 186.918 121.613 189.722C112.7 192.525 103.147 193.968 93.4994 193.968C83.852 193.968 69.3536 191.166 60.4405 188.363C51.5274 185.56 48.3741 182.809 41.5523 177.629C34.7306 172.449 29.3192 166.3 25.6273 159.532C23.0319 154.774 21.3219 149.776 20.5352 144.682C19.9396 140.826 22.5149 137.336 26.2062 136.072L31.3516 134.31C49.3537 128.146 68.2511 125 87.2794 125H93.4994H100.242C120.252 125 140.109 128.478 158.927 135.28L160.938 136.007Z" fill="#774904"/>
</g>
<path fill-rule="evenodd" clip-rule="evenodd" d="M89.8238 498.763V489.425L97.3574 489.425V487.868L88.6648 487.868V497.207H82.8697V492.537H84.0287V495.65H87.5058V487.868H70.1205V497.207H64.3255V492.537H65.4845V495.65H68.9615V487.868H51.5763V497.207H45.7812V492.537H46.9402V495.65H50.4172V487.868H33.032V497.207H27.2369V492.537H28.3959V495.65H31.873V487.868H14.4877V497.207H8.69263V492.537H9.85165V495.65H13.3287V487.868L0 487.868V489.425L12.1697 489.425V494.094H11.0107V490.981H7.53361V498.763H15.6467V489.425H30.714V494.094H29.5549V490.981H26.0779V498.763H34.191V489.425H49.2582V494.094H48.0992V490.981H44.6222V498.763H52.7353V489.425H67.8025V494.094H66.6435V490.981H63.1664V498.763H71.2796V489.425H86.3468V494.094H85.1878V490.981H81.7107V498.763H89.8238Z" fill="url(#paint12_linear_2287_5205)"/>
<path fill-rule="evenodd" clip-rule="evenodd" d="M183.914 498.763V489.425L186.999 489.425V487.868L182.755 487.868V497.207H176.96V492.537H178.119V495.65H181.596V487.868H164.21V497.207H158.415V492.537H159.574V495.65H163.051V487.868H145.666V497.207H139.871V492.537H141.03V495.65H144.507V487.868H127.122V497.207H121.327V492.537H122.486V495.65H125.963V487.868H108.578V497.207H102.782V492.537H103.941V495.65H107.419V487.868L94.0898 487.868V489.425L106.26 489.425V494.094H105.101V490.981H101.623V498.763H109.737V489.425H124.804V494.094H123.645V490.981H120.168V498.763H128.281V489.425H143.348V494.094H142.189V490.981H138.712V498.763H146.825V489.425H161.892V494.094H160.733V490.981H157.256V498.763H165.369V489.425H180.437V494.094H179.278V490.981H175.801V498.763H183.914Z" fill="url(#paint13_linear_2287_5205)"/>
<path d="M0.000747681 491.65V490.094L6.74632 490.094V497.875H3.26927V494.763H2.11026V499.432H17.1775V490.094H25.2906V497.875H21.8135V494.763H20.6545V499.432H35.7218V490.094H43.8349V497.875H40.3578V494.763H39.1988V499.432H54.266V490.094H62.3791V497.875H58.9021V494.763H57.7431V499.432H72.8103V490.094H80.9234V497.875H77.4464V494.763H76.2874V499.432L88.457 499.432V500.988L75.1283 500.988V493.206H78.6054V496.319H79.7644V491.65H73.9693V500.988H56.5841V493.206H60.0611V496.319H61.2201V491.65H55.425V500.988H38.0398V493.206H41.5168V496.319H42.6759V491.65H36.8808V500.988H19.4955V493.206H22.9726V496.319H24.1316V491.65H18.3365V500.988H0.951233V493.206H4.42829V496.319H5.5873V491.65H0.000747681Z" fill="url(#paint14_linear_2287_5205)"/>
<path fill-rule="evenodd" clip-rule="evenodd" d="M92.1386 490.094V499.432L84.605 499.432V500.988L93.2976 500.988V491.65H99.0927V496.319H97.9337V493.206H94.4566V500.988H111.842V491.65H117.637V496.319H116.478V493.206H113.001V500.988H130.386V491.65H136.181V496.319H135.022V493.206H131.545V500.988H148.93V491.65H154.726V496.319H153.567V493.206H150.089V500.988H167.475V491.65H173.27V496.319H172.111V493.206H168.634V500.988L187 500.988L187 499.432H169.793V494.763H170.952V497.875H174.429V490.094H166.316V499.432H151.248V494.763H152.407V497.875H155.885V490.094H147.771V499.432H132.704V494.763H133.863V497.875H137.34V490.094H129.227V499.432H114.16V494.763H115.319V497.875H118.796V490.094H110.683V499.432H95.6157V494.763H96.7747V497.875H100.252V490.094H92.1386Z" fill="url(#paint15_linear_2287_5205)"/>
<g filter="url(#filter2_i_2287_5205)">
<path d="M99.2573 234.647C99.2573 235.084 98.3119 235.676 96.4211 236.424C94.5303 237.151 93.5849 238.086 93.5849 239.229C93.5849 239.478 93.8447 239.935 94.3641 240.6C94.8835 241.244 95.1433 241.836 95.1433 242.377C95.1433 243.27 94.8212 243.977 94.1771 244.496C93.5538 244.995 93.2317 245.379 93.2109 245.649L94.2083 247.114L96.7328 250.636V251.228H95.9536C95.725 250.75 95.2679 250.044 94.5823 249.109C93.6265 247.779 92.9408 247.114 92.5253 247.114C92.2759 247.114 91.8812 247.478 91.3409 248.205C90.7384 249.057 90.1982 250.064 89.7203 251.228H88.9411V250.449C89.3982 249.95 89.8345 249.337 90.2501 248.61C91.1228 247.072 91.7253 246.127 92.0578 245.774L90.7488 244.247C90.3124 243.686 90.0943 243.093 90.0943 242.47C90.0943 241.784 90.3436 241.161 90.8423 240.6C91.3409 240.018 91.611 239.561 91.6526 239.229C91.6526 238.792 91.0812 238.169 89.9384 237.359L86.1673 234.647C86.1673 233.463 87.0815 232.403 88.9099 231.468C90.3852 230.72 91.5591 230.346 92.4318 230.346C93.5745 230.346 94.9355 230.772 96.5146 231.624C98.343 232.601 99.2573 233.608 99.2573 234.647ZM97.6989 233.899C97.0133 233.276 96.3899 232.777 95.8289 232.403C94.8108 231.697 93.6369 231.344 92.3071 231.344C91.102 231.344 90.0943 231.645 89.2839 232.247L87.5698 233.899L88.0061 234.554C88.1308 234.741 88.3074 234.834 88.5359 234.834C88.8892 234.834 89.2112 234.71 89.5021 234.46C90.0839 233.92 91.0604 233.65 92.4318 233.65C93.5122 233.65 94.3433 233.837 94.9251 234.211C95.5277 234.585 95.9536 234.793 96.2029 234.834C96.5146 234.834 96.7847 234.762 97.0133 234.616C97.2418 234.45 97.4704 234.211 97.6989 233.899ZM94.2083 236.112C94.2083 235.51 94.0836 235.084 93.8343 234.834C93.6057 234.585 93.1694 234.46 92.5253 234.46C91.9435 234.46 91.5487 234.564 91.3409 234.772C91.1747 234.98 91.0916 235.426 91.0916 236.112C91.0916 236.548 91.2994 237.068 91.7149 237.67C92.1305 238.19 92.3694 238.554 92.4318 238.761L92.8369 238.574C93.0863 237.972 93.3772 237.619 93.7096 237.515C94.042 237.39 94.2083 236.922 94.2083 236.112ZM93.7719 242.377L93.6784 241.878C93.5953 241.649 93.533 241.431 93.4914 241.223C93.4499 241.016 93.4291 240.777 93.4291 240.507L92.0578 240.32L91.6838 241.473L91.4656 242.345C91.4656 242.616 91.5487 242.927 91.7149 243.28L92.0578 244.215H92.8369C93.2109 243.904 93.4603 243.623 93.5849 243.374C93.7096 243.104 93.7719 242.771 93.7719 242.377ZM106.546 287.67C106.297 288.127 106.017 288.48 105.705 288.729C104.811 289.436 103.575 289.789 101.996 289.789C101.123 289.789 100.427 289.332 99.9079 288.418C99.4092 287.503 98.7963 287.046 98.069 287.046C97.7366 287.046 97.4457 287.129 97.1964 287.296C96.6354 287.67 95.5445 287.857 93.9239 287.857C93.82 287.961 93.7473 288.085 93.7057 288.231C93.7057 288.688 94.0382 289.01 94.703 289.197C95.4303 289.363 96.2614 289.446 97.1964 289.446H97.9132L98.5989 289.415C98.4327 289.706 98.1418 289.945 97.7262 290.132C97.373 290.256 96.9574 290.319 96.4795 290.319C96.251 290.319 96.0017 290.308 95.7315 290.288C95.4822 290.267 95.2225 290.225 94.9524 290.163L93.394 289.789L89.841 290.288L86.101 290.786C85.727 290.786 85.4465 290.776 85.2595 290.755C85.0725 290.734 84.7713 290.672 84.3557 290.568C83.7739 290.402 83.0571 290.153 82.2052 289.82L82.4857 289.353C82.6727 289.166 82.9013 289.062 83.1714 289.041L84.8232 289.571L86.1945 289.789C87.1919 289.789 87.8775 289.633 88.2515 289.321C88.6463 288.989 88.8437 288.407 88.8437 287.576C88.8437 285.935 88.1788 284.013 86.849 281.81L84.3557 277.914C83.3584 275.442 82.4857 273.717 81.7377 272.741C81.1767 272.014 80.5742 271.65 79.93 271.65L79.0574 271.775L78.2159 271.868C77.925 271.868 77.5718 271.806 77.1562 271.681V271.12C78.0912 271.12 79.0574 270.995 80.0547 270.746L81.6442 270.341H86.6932C87.5867 270.341 88.532 270.933 89.5294 272.117L91.3682 274.424L93.1135 275.141C93.6745 275.348 94.2667 275.691 94.89 276.169C96.4484 277.291 97.7678 278.548 98.8482 279.94L100.718 282.589C101.217 283.254 101.809 283.587 102.495 283.587C102.578 284.106 103.523 285 105.331 286.267C106.141 286.828 106.546 287.296 106.546 287.67ZM102.495 285.519C101.934 284.979 101.227 284.439 100.375 283.898L99.191 283.182C99.1287 283.119 99.1287 282.953 99.191 282.683C99.2534 282.392 99.2534 282.174 99.191 282.028L98.6924 281.904C98.3392 281.821 98.1106 281.727 98.0067 281.623L93.8927 276.855C92.2513 275.463 90.7241 274.767 89.3112 274.767C88.4593 274.767 87.8048 274.839 87.3477 274.985C86.9114 275.109 86.6828 275.338 86.662 275.67C86.662 276.19 87.2334 277.031 88.3762 278.195C89.0203 278.881 90.0904 279.868 91.5864 281.156L93.3317 282.621L97.5704 284.241C100.188 285.239 101.664 285.737 101.996 285.737C102.121 285.737 102.204 285.727 102.245 285.706C102.245 285.685 102.266 285.654 102.308 285.613C102.37 285.55 102.432 285.519 102.495 285.519ZM104.645 288.262L100.749 286.111H99.378C99.6274 286.631 100.199 287.306 101.092 288.137C101.882 288.823 102.37 289.186 102.557 289.228C102.869 289.228 103.232 289.124 103.648 288.916C103.897 288.792 104.084 288.688 104.209 288.605C104.334 288.522 104.479 288.407 104.645 288.262ZM97.0405 286.298C95.8562 285.176 94.3706 284.2 92.5837 283.369L90.215 282.402C90.0073 282.278 89.8307 282.008 89.6852 281.592C89.5813 281.156 89.4982 280.906 89.4359 280.844C88.4178 280.179 87.5139 279.379 86.7244 278.444C85.9348 277.509 85.54 276.554 85.54 275.577C85.54 274.808 85.7894 274.361 86.288 274.237L88.8437 273.832C88.5528 272.959 88.21 272.273 87.8152 271.775C87.4204 271.255 87.0153 270.964 86.5997 270.902L85.5089 270.808C85.3011 270.808 85.1037 270.808 84.9167 270.808C84.7297 270.808 84.5115 270.829 84.2622 270.871L81.987 271.089L82.0805 271.369L82.2052 271.681C83.1194 271.681 83.7116 272.107 83.9817 272.959C85.0829 276.408 86.4439 279.036 88.0645 280.844C89.1242 282.028 89.9969 282.901 90.6825 283.462L92.3655 284.553L93.7057 286.516C94.2252 287.036 94.7446 287.296 95.264 287.296C95.6796 287.296 96.0328 287.171 96.3237 286.922L97.0405 286.298ZM91.7734 287.296C91.6695 286.984 91.5656 286.672 91.4617 286.361C91.2955 285.924 91.1293 285.571 90.963 285.301C90.6722 284.823 90.2878 284.449 89.8099 284.179L89.0307 284.366C89.3839 284.906 89.6021 285.384 89.6852 285.8L90.028 287.296H91.7734ZM92.1474 288.262L91.0565 288.106L90.8072 288.075H90.028L89.7787 288.511L90.028 289.228H91.3682L92.1474 288.262ZM101.972 325.857H101.006C100.424 325.379 100.061 324.859 99.9152 324.298C99.9152 324.132 99.8944 324.007 99.8528 323.924L98.5127 323.394L97.8893 323.145C97.7023 322.917 97.4634 322.366 97.1725 321.493C96.944 320.621 96.8297 319.779 96.8297 318.969L96.8608 318.034C96.9024 317.784 96.9855 317.535 97.1102 317.286L96.2687 316.787C96.0193 316.6 95.8012 316.507 95.6142 316.507C95.2817 316.507 94.4818 317.016 93.2143 318.034C91.8846 319.135 91.2197 319.956 91.2197 320.496C91.2197 320.808 91.8742 321.556 93.1832 322.74C94.4922 323.904 95.1467 325.233 95.1467 326.729C95.1467 327.685 94.7207 328.527 93.8688 329.254C93.0377 329.981 91.9677 330.345 90.6587 330.345C89.2458 330.345 88.1861 329.991 87.4797 329.285C86.8563 328.662 86.5447 327.841 86.5447 326.823C86.5447 326.22 86.6486 325.638 86.8563 325.077C87.0641 324.496 87.4173 323.852 87.916 323.145C88.7887 321.878 89.2458 321.057 89.2873 320.683C89.2873 320.371 88.9133 319.945 88.1653 319.405C87.2303 318.761 85.6616 317.992 83.4592 317.099V314.948H85.0175C86.3888 314.948 87.4485 315.489 88.1965 316.569L90.0977 319.623C90.8665 318.543 91.7703 317.618 92.8092 316.849C93.8481 316.081 94.887 315.696 95.9258 315.696C97.2141 315.696 98.3465 316.101 99.323 316.912C100.32 317.701 100.881 318.605 101.006 319.623L101.037 319.935V320.247C101.037 320.538 101.027 320.766 101.006 320.932C100.985 321.099 100.923 321.348 100.819 321.68L100.632 322.553C100.632 322.802 100.726 323.093 100.913 323.426C101.1 323.758 101.453 324.184 101.972 324.703V325.857ZM99.6347 320.496C99.6347 319.644 99.5827 319.114 99.4788 318.906C99.375 318.678 98.9802 318.335 98.2945 317.878L97.9828 318.221C97.7958 318.449 97.7023 318.688 97.7023 318.938C97.7023 319.436 97.8997 320.049 98.2945 320.776C98.4607 321.067 98.6166 321.327 98.762 321.556C98.9282 321.763 99.1568 322.034 99.4477 322.366L99.697 321.213L99.6347 320.496ZM87.9472 318.065C87.6355 317.442 87.1265 316.901 86.42 316.444C85.859 316.07 85.485 315.883 85.298 315.883L84.6435 316.133V316.694C84.9344 316.694 85.2045 316.777 85.4538 316.943C86.0772 317.359 86.7109 317.733 87.355 318.065H87.9472ZM93.7753 326.729C93.7753 326.314 93.4741 325.67 92.8715 324.797L90.6898 321.961H90.0977L88.6017 324.61C88.1446 325.462 87.916 326.168 87.916 326.729C87.916 327.373 88.2173 328.007 88.8198 328.63C89.4224 329.233 90.0042 329.534 90.5652 329.534C91.521 329.534 92.3313 329.108 92.9962 328.256C93.5156 327.612 93.7753 327.103 93.7753 326.729ZM98.6729 347.12L98.3924 347.245C98.2054 347.369 98.1119 347.588 98.1119 347.899V362.516C98.1119 362.683 98.0599 362.87 97.9561 363.077L97.7067 363.67L96.9276 363.296V349.458C96.4704 349.167 94.4966 348.71 91.0059 348.086C88.4294 347.65 87.1412 346.736 87.1412 345.344C87.1412 345.094 87.4113 344.835 87.9516 344.564C88.2009 344.44 88.3983 344.377 88.5437 344.377H98.6729V347.12ZM97.5197 346.528V345.562L97.1146 345.344H89.1359L89.0424 346.06L89.1359 346.902C89.4683 346.902 89.8735 346.933 90.3514 346.995C90.8293 347.058 91.4007 347.162 92.0656 347.307L95.9302 348.086C96.6159 348.086 96.9899 347.993 97.0522 347.806C97.1769 347.245 97.3327 346.819 97.5197 346.528ZM101.994 399.145C100.955 399.145 100.384 399.28 100.28 399.55C100.176 399.82 99.9057 400.142 99.4693 400.516C99.5317 400.288 99.6563 400.028 99.8433 399.737C99.594 399.488 99.3758 399.322 99.1888 399.239C99.0018 399.156 98.7317 399.114 98.3785 399.114H97.7863C95.9163 399.114 94.732 399.831 94.2333 401.264L93.2048 405.191L92.5192 404.038C92.4568 403.851 92.4049 403.56 92.3633 403.166L92.4257 402.573L92.5192 402.106C92.5192 401.815 92.353 401.462 92.0205 401.046C91.6881 400.61 90.9816 399.976 89.9012 399.145H86.4105V400.703L85.5067 399.644C85.2158 399.311 84.6652 399.145 83.8548 399.145V398.366H84.3223C84.6963 398.366 84.9145 398.335 84.9768 398.272L85.4132 397.587C85.7456 397.815 86.1508 398.013 86.6287 398.179C86.878 398.241 87.117 398.293 87.3455 398.335C87.5741 398.376 87.8546 398.397 88.187 398.397H88.6545C89.3817 398.397 89.9739 398.511 90.431 398.74C90.9505 398.927 91.4907 399.259 92.0517 399.737C92.114 399.613 92.1867 399.519 92.2698 399.457C92.353 399.374 92.4049 399.228 92.4257 399.02L91.9582 398.085C91.0024 396.693 89.5064 395.997 87.4702 395.997H86.878L86.4105 395.966L85.943 396.06C85.8599 396.122 85.756 396.371 85.6313 396.808L84.7898 396.34C84.5613 396.195 84.2496 396.091 83.8548 396.028V395.249H84.634L84.6652 394.501L84.634 394.065C84.9041 394.252 85.1327 394.449 85.3197 394.657L85.8183 395.249H90.6803L91.2102 395.935L91.553 395.997C91.7816 395.997 91.9893 395.904 92.1763 395.717L92.4257 395.436V385.12L91.74 384.466C91.5946 384.279 91.2413 383.977 90.6803 383.562H87.1897L87.0962 383.811L86.9403 383.998L87.5325 384.746C87.6572 384.933 87.7403 385.11 87.7818 385.276C87.7818 385.401 87.678 385.463 87.4702 385.463C87.3663 385.463 87.1585 385.307 86.8468 384.995C86.556 384.684 86.3066 384.528 86.0988 384.528C85.9326 384.528 85.7352 384.684 85.5067 384.995L84.8522 385.899H84.26V385.307L85.4132 384.123C85.1431 383.894 84.8314 383.697 84.4782 383.531L83.8548 383.344V382.783H84.447L85.9118 383.531L87.0338 382.938C87.9481 382.544 88.7792 382.346 89.5272 382.346C90.5245 382.679 91.2621 382.97 91.74 383.219C93.236 383.967 93.984 384.725 93.984 385.494V396.215L94.3892 396.808C95.6982 395.935 97.2046 395.416 98.9083 395.249C99.2823 395.249 99.4693 394.979 99.4693 394.439L99.6563 394.065L100.467 395.093C100.55 395.218 100.654 395.291 100.778 395.312L101.184 395.28L101.994 395.249V396.028L101.028 395.966C100.945 396.091 100.893 396.195 100.872 396.278C100.872 396.506 100.851 396.683 100.81 396.808L99.9368 396.278C99.646 396.091 99.3239 395.997 98.9707 395.997C98.7629 395.997 98.3266 396.132 97.6617 396.402C95.9579 397.088 94.732 397.867 93.984 398.74V399.332L94.3892 399.737C95.2203 398.865 96.2903 398.428 97.5993 398.428C98.8876 398.428 99.833 398.148 100.436 397.587L101.371 398.522L101.994 399.145ZM99.7537 427.016L97.1046 427.889C96.8968 428.346 96.7929 429.509 96.7929 431.379L97.2604 434.621C97.5929 436.782 97.8422 438.007 98.0084 438.298V441.228H89.0324V438.111L89.5934 435.306C89.7804 434.267 89.9259 433.426 90.0297 432.782C90.1336 432.117 90.1856 431.649 90.1856 431.379C90.1856 429.052 89.8947 427.754 89.3129 427.483L87.0689 427.016L87.8169 427.047H88.3467C88.6376 427.047 88.8454 427.026 88.9701 426.985C89.0947 426.922 89.2194 426.85 89.3441 426.767C89.4895 426.684 89.6454 426.569 89.8116 426.424C89.583 426.195 89.3856 426.039 89.2194 425.956C89.074 425.873 88.8974 425.811 88.6896 425.769L88.1286 425.832C87.9 425.832 87.7338 425.811 87.6299 425.769L87.0689 425.458L87.8169 425.489H88.3467C88.6376 425.489 88.8454 425.468 88.9701 425.426C89.0947 425.364 89.2194 425.291 89.3441 425.208C89.4895 425.125 89.6454 425.011 89.8116 424.865C89.583 424.637 89.3856 424.481 89.2194 424.398C89.074 424.315 88.8974 424.253 88.6896 424.211L88.1286 424.273C87.9 424.273 87.7338 424.253 87.6299 424.211L87.0689 423.899L87.8169 423.93H88.3467C88.6376 423.93 88.8454 423.91 88.9701 423.868C89.0947 423.806 89.2194 423.733 89.3441 423.65C89.4895 423.567 89.6454 423.453 89.8116 423.307C89.583 423.079 89.3856 422.923 89.2194 422.84C89.074 422.757 88.8974 422.694 88.6896 422.653L88.1286 422.715C87.9 422.715 87.7338 422.694 87.6299 422.653L87.0689 422.341C88.3987 422.341 89.5622 422.216 90.5596 421.967L93.5204 421.157L96.4189 421.811C98.4344 422.289 99.546 422.59 99.7537 422.715H97.4162L97.3851 423.12V423.338L97.4162 423.899H99.7537V424.273H97.4162L97.3851 424.678V424.897L97.4162 425.458H99.7537V425.832H97.4162L97.3851 426.237V426.455L97.4162 427.016H99.7537ZM96.2319 423.12H95.4527H94.8294H94.3307H93.8944H93.5204H92.3672L91.1517 423.089H90.7466L90.8401 423.369L90.9647 423.681H95.2657C95.5566 423.681 95.7644 423.629 95.8891 423.525L96.2319 423.12ZM96.2319 424.678H95.4527H94.8294H94.3307H93.8944H93.5204H92.3672L91.1517 424.647H90.7466L90.8401 424.928L90.9647 425.239H95.2657C95.5566 425.239 95.7644 425.188 95.8891 425.084L96.2319 424.678ZM96.2319 426.237H95.4527H94.8294H94.3307H93.8944H93.5204H92.3672L91.1517 426.206H90.7466L90.8401 426.486L90.9647 426.798H95.2657C95.5566 426.798 95.7644 426.746 95.8891 426.642L96.2319 426.237ZM96.6059 438.392C96.6059 437.249 96.3462 435.701 95.8267 433.748C95.5566 432.626 95.4216 431.868 95.4216 431.473C95.4216 430.725 95.4527 430.216 95.5151 429.946C95.5982 429.676 95.8371 429.281 96.2319 428.761V427.577H90.9647L90.8089 427.92L90.7466 428.263C90.7466 428.387 90.8816 428.699 91.1517 429.198C91.4219 429.676 91.5569 430.392 91.5569 431.348C91.5569 431.639 91.2972 433.052 90.7777 435.587C90.5076 437 90.3726 437.935 90.3726 438.392C90.3726 438.953 90.3934 439.306 90.4349 439.451L90.5907 440.075H95.6397C95.993 440.075 96.2631 439.981 96.4501 439.794C96.5747 439.628 96.6579 439.4 96.6994 439.109L96.6682 438.703L96.6059 438.392Z" fill="url(#paint16_linear_2287_5205)"/>
</g>
<g filter="url(#filter3_f_2287_5205)">
<path d="M151.963 170C152.333 174.992 149.929 179.942 145.001 184.334C140.073 188.727 132.8 192.404 123.937 194.982C115.073 197.561 104.942 198.947 94.5945 198.999C84.2467 199.05 74.0589 197.764 65.0878 195.273C56.1168 192.783 48.6893 189.179 43.5757 184.836C38.4622 180.493 35.8488 175.568 36.0068 170.573L94.0016 171L151.963 170Z" fill="black"/>
</g>
<g filter="url(#filter4_i_2287_5205)">
<rect x="42.2969" y="182.881" width="100.179" height="4.45238" fill="url(#paint17_linear_2287_5205)"/>
</g>
<g filter="url(#filter5_i_2287_5205)">
<path d="M42.2969 187.333H142.475L129.117 205.143H57.8787L42.2969 187.333Z" fill="url(#paint18_linear_2287_5205)"/>
</g>
<g filter="url(#filter6_i_2287_5205)">
<path d="M42.2969 187.333L57.8802 205.143L45.6362 196.238L42.2969 187.333Z" fill="#673D00"/>
</g>
<g filter="url(#filter7_i_2287_5205)">
<path d="M142.477 187.333L129.119 205.143L141.363 196.238L142.477 187.333Z" fill="#673D00"/>
</g>
<defs>
<filter id="filter0_i_2287_5205" x="0" y="476.737" width="187" height="40.0713" filterUnits="userSpaceOnUse" color-interpolation-filters="sRGB">
<feFlood flood-opacity="0" result="BackgroundImageFix"/>
<feBlend mode="normal" in="SourceGraphic" in2="BackgroundImageFix" result="shape"/>
<feColorMatrix in="SourceAlpha" type="matrix" values="0 0 0 0 0 0 0 0 0 0 0 0 0 0 0 0 0 0 127 0" result="hardAlpha"/>
<feOffset dy="8.90476"/>
<feGaussianBlur stdDeviation="4.45238"/>
<feComposite in2="hardAlpha" operator="arithmetic" k2="-1" k3="1"/>
<feColorMatrix type="matrix" values="0 0 0 0 0 0 0 0 0 0 0 0 0 0 0 0 0 0 0.25 0"/>
<feBlend mode="normal" in2="shape" result="effect1_innerShadow_2287_5205"/>
</filter>
<filter id="filter1_i_2287_5205" x="20.4495" y="116.095" width="146.114" height="77.8725" filterUnits="userSpaceOnUse" color-interpolation-filters="sRGB">
<feFlood flood-opacity="0" result="BackgroundImageFix"/>
<feBlend mode="normal" in="SourceGraphic" in2="BackgroundImageFix" result="shape"/>
<feColorMatrix in="SourceAlpha" type="matrix" values="0 0 0 0 0 0 0 0 0 0 0 0 0 0 0 0 0 0 127 0" result="hardAlpha"/>
<feOffset dy="-20.0357"/>
<feGaussianBlur stdDeviation="4.45238"/>
<feComposite in2="hardAlpha" operator="arithmetic" k2="-1" k3="1"/>
<feColorMatrix type="matrix" values="0 0 0 0 0 0 0 0 0 0 0 0 0 0 0 0 0 0 0.25 0"/>
<feBlend mode="normal" in2="shape" result="effect1_innerShadow_2287_5205"/>
</filter>
<filter id="filter2_i_2287_5205" x="77.1562" y="230.346" width="33.8425" height="215.334" filterUnits="userSpaceOnUse" color-interpolation-filters="sRGB">
<feFlood flood-opacity="0" result="BackgroundImageFix"/>
<feBlend mode="normal" in="SourceGraphic" in2="BackgroundImageFix" result="shape"/>
<feColorMatrix in="SourceAlpha" type="matrix" values="0 0 0 0 0 0 0 0 0 0 0 0 0 0 0 0 0 0 127 0" result="hardAlpha"/>
<feOffset dx="20.0357" dy="31.1667"/>
<feGaussianBlur stdDeviation="2.22619"/>
<feComposite in2="hardAlpha" operator="arithmetic" k2="-1" k3="1"/>
<feColorMatrix type="matrix" values="0 0 0 0 0.558333 0 0 0 0 0.311131 0 0 0 0 0.0209375 0 0 0 0.25 0"/>
<feBlend mode="normal" in2="shape" result="effect1_innerShadow_2287_5205"/>
</filter>
<filter id="filter3_f_2287_5205" x="17.5233" y="151.523" width="152.953" height="65.9534" filterUnits="userSpaceOnUse" color-interpolation-filters="sRGB">
<feFlood flood-opacity="0" result="BackgroundImageFix"/>
<feBlend mode="normal" in="SourceGraphic" in2="BackgroundImageFix" result="shape"/>
<feGaussianBlur stdDeviation="9.23835" result="effect1_foregroundBlur_2287_5205"/>
</filter>
<filter id="filter4_i_2287_5205" x="42.2969" y="182.881" width="100.179" height="13.3569" filterUnits="userSpaceOnUse" color-interpolation-filters="sRGB">
<feFlood flood-opacity="0" result="BackgroundImageFix"/>
<feBlend mode="normal" in="SourceGraphic" in2="BackgroundImageFix" result="shape"/>
<feColorMatrix in="SourceAlpha" type="matrix" values="0 0 0 0 0 0 0 0 0 0 0 0 0 0 0 0 0 0 127 0" result="hardAlpha"/>
<feOffset dy="8.90476"/>
<feGaussianBlur stdDeviation="4.45238"/>
<feComposite in2="hardAlpha" operator="arithmetic" k2="-1" k3="1"/>
<feColorMatrix type="matrix" values="0 0 0 0 0 0 0 0 0 0 0 0 0 0 0 0 0 0 0.25 0"/>
<feBlend mode="normal" in2="shape" result="effect1_innerShadow_2287_5205"/>
</filter>
<filter id="filter5_i_2287_5205" x="42.2969" y="187.333" width="100.179" height="26.7143" filterUnits="userSpaceOnUse" color-interpolation-filters="sRGB">
<feFlood flood-opacity="0" result="BackgroundImageFix"/>
<feBlend mode="normal" in="SourceGraphic" in2="BackgroundImageFix" result="shape"/>
<feColorMatrix in="SourceAlpha" type="matrix" values="0 0 0 0 0 0 0 0 0 0 0 0 0 0 0 0 0 0 127 0" result="hardAlpha"/>
<feOffset dy="8.90476"/>
<feGaussianBlur stdDeviation="4.45238"/>
<feComposite in2="hardAlpha" operator="arithmetic" k2="-1" k3="1"/>
<feColorMatrix type="matrix" values="0 0 0 0 0 0 0 0 0 0 0 0 0 0 0 0 0 0 0.25 0"/>
<feBlend mode="normal" in2="shape" result="effect1_innerShadow_2287_5205"/>
</filter>
<filter id="filter6_i_2287_5205" x="42.2969" y="187.333" width="15.5833" height="26.7143" filterUnits="userSpaceOnUse" color-interpolation-filters="sRGB">
<feFlood flood-opacity="0" result="BackgroundImageFix"/>
<feBlend mode="normal" in="SourceGraphic" in2="BackgroundImageFix" result="shape"/>
<feColorMatrix in="SourceAlpha" type="matrix" values="0 0 0 0 0 0 0 0 0 0 0 0 0 0 0 0 0 0 127 0" result="hardAlpha"/>
<feOffset dy="8.90476"/>
<feGaussianBlur stdDeviation="4.45238"/>
<feComposite in2="hardAlpha" operator="arithmetic" k2="-1" k3="1"/>
<feColorMatrix type="matrix" values="0 0 0 0 0 0 0 0 0 0 0 0 0 0 0 0 0 0 0.25 0"/>
<feBlend mode="normal" in2="shape" result="effect1_innerShadow_2287_5205"/>
</filter>
<filter id="filter7_i_2287_5205" x="129.119" y="187.333" width="13.3571" height="26.7143" filterUnits="userSpaceOnUse" color-interpolation-filters="sRGB">
<feFlood flood-opacity="0" result="BackgroundImageFix"/>
<feBlend mode="normal" in="SourceGraphic" in2="BackgroundImageFix" result="shape"/>
<feColorMatrix in="SourceAlpha" type="matrix" values="0 0 0 0 0 0 0 0 0 0 0 0 0 0 0 0 0 0 127 0" result="hardAlpha"/>
<feOffset dy="8.90476"/>
<feGaussianBlur stdDeviation="4.45238"/>
<feComposite in2="hardAlpha" operator="arithmetic" k2="-1" k3="1"/>
<feColorMatrix type="matrix" values="0 0 0 0 0 0 0 0 0 0 0 0 0 0 0 0 0 0 0.25 0"/>
<feBlend mode="normal" in2="shape" result="effect1_innerShadow_2287_5205"/>
</filter>
<linearGradient id="paint0_linear_2287_5205" x1="63.5539" y1="143.6" x2="112.781" y2="53.3536" gradientUnits="userSpaceOnUse">
<stop stop-color="#DC0000"/>
<stop offset="1" stop-color="#FFB200"/>
</linearGradient>
<linearGradient id="paint1_linear_2287_5205" x1="76.9964" y1="139.016" x2="45.304" y2="114.431" gradientUnits="userSpaceOnUse">
<stop stop-color="#DC0000"/>
<stop offset="1" stop-color="#FFB200"/>
</linearGradient>
<linearGradient id="paint2_linear_2287_5205" x1="20.3735" y1="42.3059" x2="88.2795" y2="67.6403" gradientUnits="userSpaceOnUse">
<stop stop-color="white"/>
<stop offset="1" stop-color="white" stop-opacity="0"/>
</linearGradient>
<linearGradient id="paint3_linear_2287_5205" x1="114.224" y1="46.8564" x2="124.213" y2="46.8564" gradientUnits="userSpaceOnUse">
<stop stop-color="white" stop-opacity="0.44928"/>
<stop offset="1" stop-color="white" stop-opacity="0"/>
</linearGradient>
<linearGradient id="paint4_linear_2287_5205" x1="-10.9545" y1="8.81607" x2="145.261" y2="87.8175" gradientUnits="userSpaceOnUse">
<stop stop-color="white"/>
<stop offset="1" stop-color="white" stop-opacity="0"/>
</linearGradient>
<linearGradient id="paint5_linear_2287_5205" x1="109.907" y1="140.638" x2="152.231" y2="105.995" gradientUnits="userSpaceOnUse">
<stop stop-color="#DC0000"/>
<stop offset="1" stop-color="#FFB200"/>
</linearGradient>
<linearGradient id="paint6_linear_2287_5205" x1="180.98" y1="81.3264" x2="98.6624" y2="109.959" gradientUnits="userSpaceOnUse">
<stop stop-color="white"/>
<stop offset="1" stop-color="white" stop-opacity="0"/>
</linearGradient>
<linearGradient id="paint7_linear_2287_5205" x1="132.269" y1="96.9647" x2="143.522" y2="96.9647" gradientUnits="userSpaceOnUse">
<stop stop-color="white" stop-opacity="0.44928"/>
<stop offset="1" stop-color="white" stop-opacity="0"/>
</linearGradient>
<linearGradient id="paint8_linear_2287_5205" x1="85.3577" y1="163.643" x2="124.524" y2="100.471" gradientUnits="userSpaceOnUse">
<stop stop-color="#DC0000"/>
<stop offset="1" stop-color="#FFB200"/>
</linearGradient>
<linearGradient id="paint9_linear_2287_5205" x1="68.6965" y1="21.2424" x2="79.4537" y2="21.2424" gradientUnits="userSpaceOnUse">
<stop stop-color="white" stop-opacity="0.44928"/>
<stop offset="1" stop-color="white" stop-opacity="0"/>
</linearGradient>
<linearGradient id="paint10_linear_2287_5205" x1="53.2604" y1="19.5493" x2="135.845" y2="61.6327" gradientUnits="userSpaceOnUse">
<stop stop-color="white"/>
<stop offset="1" stop-color="white" stop-opacity="0"/>
</linearGradient>
<linearGradient id="paint11_linear_2287_5205" x1="93.4996" y1="202.916" x2="93.4996" y2="474.511" gradientUnits="userSpaceOnUse">
<stop offset="0.0552082" stop-color="#744500" stop-opacity="0.985714"/>
<stop offset="0.607292" stop-color="#774F00"/>
<stop offset="0.914583" stop-color="#4F3400"/>
</linearGradient>
<linearGradient id="paint12_linear_2287_5205" x1="47.2483" y1="486.535" x2="47.2483" y2="500.451" gradientUnits="userSpaceOnUse">
<stop stop-color="#FFD37C"/>
<stop offset="0.607292" stop-color="#D08123"/>
</linearGradient>
<linearGradient id="paint13_linear_2287_5205" x1="139.179" y1="486.535" x2="139.179" y2="500.451" gradientUnits="userSpaceOnUse">
<stop stop-color="#FFD37C"/>
<stop offset="0.607292" stop-color="#D08123"/>
</linearGradient>
<linearGradient id="paint14_linear_2287_5205" x1="45.5285" y1="502.322" x2="45.5285" y2="488.405" gradientUnits="userSpaceOnUse">
<stop stop-color="#FFD37C"/>
<stop offset="0.607292" stop-color="#D08123"/>
</linearGradient>
<linearGradient id="paint15_linear_2287_5205" x1="137.307" y1="502.322" x2="137.307" y2="488.405" gradientUnits="userSpaceOnUse">
<stop stop-color="#FFD37C"/>
<stop offset="0.607292" stop-color="#D08123"/>
</linearGradient>
<linearGradient id="paint16_linear_2287_5205" x1="92.9776" y1="199.614" x2="92.9776" y2="489.659" gradientUnits="userSpaceOnUse">
<stop stop-color="#FFD37C"/>
<stop offset="0.607292" stop-color="#D08123"/>
</linearGradient>
<linearGradient id="paint17_linear_2287_5205" x1="92.3862" y1="182.881" x2="92.3862" y2="187.333" gradientUnits="userSpaceOnUse">
<stop stop-color="#AD6801"/>
<stop offset="1" stop-color="#4F2F01"/>
</linearGradient>
<linearGradient id="paint18_linear_2287_5205" x1="92.3862" y1="187.333" x2="92.3862" y2="205.143" gradientUnits="userSpaceOnUse">
<stop offset="0.270833" stop-color="#744500"/>
<stop offset="0.984375" stop-color="#271800"/>
</linearGradient>
</defs>
</svg>
