<svg width="913" height="801" viewBox="0 0 913 801" fill="none" xmlns="http://www.w3.org/2000/svg">
<g opacity="0.1">
<path d="M175.555 103.84H223.046C227.252 99.586 259.879 66.5883 264.272 62.1459L257.794 55.5946L254.559 58.8685L254.557 58.8665C237.142 76.482 236.91 76.7162 227.072 86.664V86.666L219.252 94.5745H159.686L189.469 146.746L186.607 157.549L186.605 157.55C183.007 171.141 182.922 171.461 176.545 195.522L176.548 195.523L175.362 199.993L184.211 202.391C185.818 196.323 197.761 151.247 199.301 145.435L175.555 103.84ZM738.443 103.84L714.698 145.436C716.237 151.247 728.18 196.323 729.788 202.392L738.636 199.994L737.451 195.523L737.453 195.523C731.076 171.462 730.992 171.141 727.393 157.551L727.391 157.55L724.529 146.747L754.312 94.575H694.746L686.927 86.6665V86.6645C677.089 76.7167 676.856 76.4826 659.442 58.867L659.44 58.869L656.205 55.5951L649.727 62.1464C654.119 66.5888 686.746 99.5869 690.953 103.841H738.443V103.84ZM456.999 596.857L433.254 555.261C427.508 553.704 382.939 541.626 376.938 540L374.567 548.949L378.988 550.146L378.988 550.148C402.779 556.593 403.096 556.68 416.533 560.323L416.534 560.322L427.216 563.216L456.998 615.388L486.781 563.216L497.463 560.322L497.465 560.323C510.902 556.679 511.219 556.593 535.01 550.148L535.009 550.146L539.431 548.949L537.059 540C531.059 541.626 486.49 553.704 480.744 555.261L456.999 596.857ZM127.958 76.0472H204.727L215.231 65.4238L215.229 65.4203L242.714 37.6227L242.716 37.6262L266.963 13.104L280.701 27.0008L287.181 20.4475L266.963 -1.18759e-05L236.24 31.0744L236.242 31.0764L208.756 58.874L208.754 58.872L200.935 66.7805H112.089L156.512 144.597L153.65 155.401L153.653 155.401L143.592 193.373L143.59 193.373L132.343 235.82L159.961 243.305L162.333 234.353L143.563 229.268L152.438 195.77H152.434L162.494 157.798H162.498L166.343 143.287L127.958 76.0472ZM786.041 76.0472L747.656 143.287L751.5 157.799H751.504L761.565 195.771H761.561L770.435 229.269L751.666 234.354L754.038 243.305L781.656 235.821L770.409 193.373L770.406 193.374L760.346 155.402L760.349 155.401L757.487 144.598L801.91 66.781H713.064L705.244 58.8725L705.242 58.8745L677.757 31.0769L677.759 31.0749L647.036 0.000476837L626.818 20.448L633.297 27.0013L647.036 13.1045L671.283 37.6267L671.285 37.6232L698.77 65.4208L698.768 65.4243L709.272 76.0477H786.041V76.0472ZM456.999 652.442L418.614 585.203L404.265 581.314L404.263 581.318L366.718 571.143L366.72 571.14L333.599 562.164L338.629 543.182L329.778 540.784L322.377 568.716L364.348 580.089L364.349 580.086L401.894 590.261L401.894 590.263L412.576 593.158L456.998 670.975L501.422 593.157L512.104 590.263L512.103 590.26L549.648 580.086L549.649 580.088L591.619 568.716L584.219 540.783L575.368 543.182L580.398 562.164L547.277 571.139L547.279 571.143L509.734 581.317L509.732 581.314L495.383 585.202L456.999 652.442ZM16.8707 11.1824H219.253L234.888 26.9973L241.366 20.446L223.042 1.91464H0.998438L112.021 196.396L137.051 203.179L139.422 194.23L118.062 188.443L16.8707 11.1824ZM897.127 11.1824L795.936 188.443L774.576 194.23L776.947 203.179L801.978 196.396L913 1.91464H690.956L672.633 20.446L679.111 26.9973L694.746 11.1824H897.127V11.1824ZM456.999 782.172L355.808 604.911L361.532 583.309L352.684 580.911L345.977 606.226L456.999 800.708L568.021 606.227L561.314 580.912L552.466 583.31L558.191 604.912L456.999 782.172ZM64.4761 38.9799H200.929L211.984 50.1618L218.462 43.6105L204.719 29.7117H48.6038L126.661 166.449L145.434 171.536L147.805 162.587L132.703 158.496L64.4761 38.9799ZM849.522 38.9799L781.295 158.496L766.193 162.587L768.564 171.536L787.336 166.448L865.394 29.7112H709.278L695.536 43.61L702.013 50.1613L713.068 38.9794H849.522V38.9799ZM456.999 726.578L388.772 607.062L392.82 591.788L383.971 589.39L378.941 608.376L456.998 745.113L535.056 608.376L530.026 589.39L521.177 591.788L525.225 607.062L456.999 726.578ZM223.838 62.1459L234.89 73.3258L241.37 66.773L230.316 55.5946L223.838 62.1459ZM397.155 575.415L401.202 560.144L392.351 557.746L388.306 573.017L397.155 575.415ZM750.004 166.976L734.904 171.067L737.276 180.019L752.375 175.925L750.004 166.976ZM683.683 55.5946L672.629 66.773L679.109 73.3258L690.161 62.1459L683.683 55.5946ZM161.623 175.925L176.722 180.019L179.094 171.067L163.994 166.976L161.623 175.925ZM525.691 573.017L521.646 557.745L512.795 560.144L516.842 575.414L525.691 573.017ZM329.182 29.7082L327.84 31.0654L327.842 31.0674L300.357 58.865L300.355 58.863C297.598 61.6509 270.386 89.1702 266.947 92.6488L253.206 78.754L246.741 85.3108L266.959 105.758C271.18 101.49 302.425 69.8892 306.844 65.4198L306.842 65.4163L325.165 46.8849L325.167 46.8884L332.987 38.9799L581.009 38.9799L588.829 46.8884L588.831 46.8849L607.154 65.4163L607.152 65.4198C611.572 69.8897 642.816 101.49 647.037 105.758L667.255 85.3108L660.79 78.754L647.049 92.6488C643.609 89.1702 616.398 61.6509 613.641 58.863L613.639 58.865L586.154 31.0674L586.156 31.0654L584.814 29.7082L329.182 29.7082ZM725.108 275.463L724.617 273.609L724.614 273.61L714.554 235.638L714.556 235.637C713.548 231.828 703.589 194.235 702.33 189.483L721.098 184.396L718.716 175.455L691.098 182.939C692.643 188.77 704.08 231.937 705.697 238.043H705.701L712.408 263.358H712.404L715.266 274.161L591.255 491.397L580.573 494.291L580.576 494.295L555.545 501.078L555.543 501.074C549.506 502.71 506.824 514.277 501.059 515.839L508.459 543.771L517.306 541.387L512.278 522.405C516.977 521.131 554.147 511.058 557.913 510.037L557.913 510.034L595.458 499.86L595.458 499.862L597.292 499.365L725.108 275.463ZM316.707 499.365L318.54 499.862L318.541 499.86L356.086 510.034L356.085 510.037C359.851 511.058 397.022 521.131 401.719 522.405L396.692 541.387L405.539 543.771L412.939 515.839C407.173 514.277 364.492 502.71 358.455 501.074L358.453 501.078L333.422 494.295L333.425 494.291L322.743 491.397L198.731 274.161L201.593 263.358H201.59L208.296 238.043H208.3C209.918 231.937 221.355 188.77 222.899 182.939L195.281 175.455L192.899 184.396L211.667 189.483C210.409 194.235 200.449 231.828 199.441 235.637L199.443 235.638L189.383 273.61L189.381 273.609L188.89 275.463L316.707 499.365ZM246.742 38.9814L280.698 73.3263L287.176 66.775L253.219 32.4301L246.742 38.9814ZM365.868 566.936L378.299 520.022L369.45 517.624L357.02 564.538L365.868 566.936ZM758.388 198.619L712 211.189L714.371 220.138L760.759 207.568L758.388 198.619ZM660.779 32.4301L626.822 66.775L633.3 73.3263L667.257 38.9814L660.779 32.4301ZM153.239 207.569L199.627 220.138L201.998 211.19L155.611 198.62L153.239 207.569ZM556.979 564.538L544.548 517.624L535.7 520.022L548.13 566.936L556.979 564.538ZM310.868 1.91965L269.648 43.6105L276.125 50.1618L314.665 11.1824L599.334 11.1824L637.873 50.1618L644.351 43.6105L603.13 1.91965L310.868 1.91965ZM758.06 273.316L742.971 216.367L734.123 218.765L748.231 272.01L605.895 521.344L553.248 535.609L555.619 544.558L611.929 529.301L758.06 273.316ZM302.069 529.301L358.379 544.559L360.75 535.61L308.102 521.345L165.768 272.012L179.875 218.767L171.027 216.369L155.938 273.318L302.069 529.301ZM314.666 94.574L299.028 78.759L292.551 85.3063L310.875 103.838L603.123 103.838L621.447 85.3063L614.969 78.759L599.332 94.574L314.666 94.574ZM676.822 230.316L698.183 224.527L695.815 215.58L670.784 222.363L524.66 478.335L531.367 503.649L540.212 501.25L534.488 479.647L676.822 230.316ZM379.51 479.647L373.786 501.25L382.631 503.649L389.338 478.335L243.214 222.363L218.183 215.58L215.815 224.527L237.176 230.316L379.51 479.647ZM292.552 38.9779L303.605 50.1578L310.082 43.6065L299.029 32.4266L292.552 38.9779ZM342.96 526.814L347.007 511.543L338.159 509.145L334.112 524.415L342.96 526.814ZM735.486 238.745L720.386 242.836L722.757 251.784L737.857 247.694L735.486 238.745ZM614.969 32.4266L603.916 43.6065L610.394 50.1578L621.447 38.9779L614.969 32.4266ZM176.141 247.694L191.241 251.785L193.612 242.836L178.512 238.745L176.141 247.694ZM579.887 524.416L575.84 509.146L566.991 511.544L571.039 526.815L579.887 524.416ZM332.989 66.777L321.933 55.5951L315.456 62.1424L329.199 76.0412L584.8 76.0412L598.543 62.1424L592.065 55.5951L581.009 66.777L332.989 66.777ZM691.463 260.263L706.567 256.17L704.198 247.223L685.426 252.311L557.625 476.185L562.655 495.171L571.5 492.771L567.453 477.496L691.463 260.263ZM346.545 477.496L342.498 492.771L351.343 495.171L356.373 476.185L228.572 252.311L209.8 247.223L207.431 256.17L222.535 260.263L346.545 477.496Z" fill="url(#paint0_linear_1988_5424)"/>
</g>
<defs>
<linearGradient id="paint0_linear_1988_5424" x1="470.399" y1="898.703" x2="470.399" y2="-124.064" gradientUnits="userSpaceOnUse">
<stop stop-color="#FFD37C"/>
<stop offset="0.607292" stop-color="#D08123"/>
</linearGradient>
</defs>
</svg>
