<svg width="187" height="378" viewBox="0 0 187 378" fill="none" xmlns="http://www.w3.org/2000/svg">
<g filter="url(#filter0_i_2328_5151)">
<path d="M0 382.904V351.737H187V382.904H0Z" fill="#744500"/>
</g>
<path d="M0 351.737L36.1936 340.606H149.801L187 351.737H0Z" fill="#744500"/>
<path d="M44.5234 349.511L57.2998 77.916H129.699L142.476 349.511H44.5234Z" fill="url(#paint0_linear_2328_5151)"/>
<g filter="url(#filter1_i_2328_5151)">
<path d="M160.938 11.0072C164.554 12.3142 167.058 15.7661 166.481 19.5675C165.703 24.7014 163.986 29.7386 161.372 34.5322C157.68 41.3 152.268 47.4495 145.447 52.6294C138.625 57.8093 130.526 61.9182 121.613 64.7216C112.7 67.5249 103.147 68.9678 93.4994 68.9678C83.852 68.9678 69.3536 66.1663 60.4405 63.3629C51.5274 60.5596 48.3741 57.8093 41.5523 52.6294C34.7306 47.4495 29.3192 41.3 25.6273 34.5322C23.0319 29.7743 21.3219 24.7764 20.5352 19.6822C19.9396 15.8263 22.5149 12.3359 26.2062 11.0719L31.3516 9.31004C49.3537 3.14576 68.2511 0 87.2794 0H93.4994H100.242C120.252 0 140.109 3.47848 158.927 10.2801L160.938 11.0072Z" fill="#774904"/>
</g>
<path fill-rule="evenodd" clip-rule="evenodd" d="M89.8238 373.763V364.425L97.3574 364.425V362.868L88.6648 362.868V372.207H82.8697V367.537H84.0287V370.65H87.5058V362.868H70.1205V372.207H64.3255V367.537H65.4845V370.65H68.9615V362.868H51.5763V372.207H45.7812V367.537H46.9402V370.65H50.4172V362.868H33.032V372.207H27.2369V367.537H28.3959V370.65H31.873V362.868H14.4877V372.207H8.69263V367.537H9.85165V370.65H13.3287V362.868L0 362.868V364.425L12.1697 364.425V369.094H11.0107V365.981H7.53361V373.763H15.6467V364.425H30.714V369.094H29.5549V365.981H26.0779V373.763H34.191V364.425H49.2582V369.094H48.0992V365.981H44.6222V373.763H52.7353V364.425H67.8025V369.094H66.6435V365.981H63.1664V373.763H71.2796V364.425H86.3468V369.094H85.1878V365.981H81.7107V373.763H89.8238Z" fill="url(#paint1_linear_2328_5151)"/>
<path fill-rule="evenodd" clip-rule="evenodd" d="M183.914 373.763V364.425L186.999 364.425V362.868L182.755 362.868V372.207H176.96V367.537H178.119V370.65H181.596V362.868H164.21V372.207H158.415V367.537H159.574V370.65H163.051V362.868H145.666V372.207H139.871V367.537H141.03V370.65H144.507V362.868H127.122V372.207H121.327V367.537H122.486V370.65H125.963V362.868H108.578V372.207H102.782V367.537H103.941V370.65H107.419V362.868L94.0898 362.868V364.425L106.26 364.425V369.094H105.101V365.981H101.623V373.763H109.737V364.425H124.804V369.094H123.645V365.981H120.168V373.763H128.281V364.425H143.348V369.094H142.189V365.981H138.712V373.763H146.825V364.425H161.892V369.094H160.733V365.981H157.256V373.763H165.369V364.425H180.437V369.094H179.278V365.981H175.801V373.763H183.914Z" fill="url(#paint2_linear_2328_5151)"/>
<path d="M0.000747681 366.65V365.094L6.74632 365.094V372.875H3.26927V369.763H2.11026V374.432H17.1775V365.094H25.2906V372.875H21.8135V369.763H20.6545V374.432H35.7218V365.094H43.8349V372.875H40.3578V369.763H39.1988V374.432H54.266V365.094H62.3791V372.875H58.9021V369.763H57.7431V374.432H72.8103V365.094H80.9234V372.875H77.4464V369.763H76.2874V374.432L88.457 374.432V375.988L75.1283 375.988V368.206H78.6054V371.319H79.7644V366.65H73.9693V375.988H56.5841V368.206H60.0611V371.319H61.2201V366.65H55.425V375.988H38.0398V368.206H41.5168V371.319H42.6759V366.65H36.8808V375.988H19.4955V368.206H22.9726V371.319H24.1316V366.65H18.3365V375.988H0.951233V368.206H4.42829V371.319H5.5873V366.65H0.000747681Z" fill="url(#paint3_linear_2328_5151)"/>
<path fill-rule="evenodd" clip-rule="evenodd" d="M92.1386 365.094V374.432L84.605 374.432V375.988L93.2976 375.988V366.65H99.0927V371.319H97.9337V368.206H94.4566V375.988H111.842V366.65H117.637V371.319H116.478V368.206H113.001V375.988H130.386V366.65H136.181V371.319H135.022V368.206H131.545V375.988H148.93V366.65H154.726V371.319H153.567V368.206H150.089V375.988H167.475V366.65H173.27V371.319H172.111V368.206H168.634V375.988L187 375.988L187 374.432H169.793V369.763H170.952V372.875H174.429V365.094H166.316V374.432H151.248V369.763H152.407V372.875H155.885V365.094H147.771V374.432H132.704V369.763H133.863V372.875H137.34V365.094H129.227V374.432H114.16V369.763H115.319V372.875H118.796V365.094H110.683V374.432H95.6157V369.763H96.7747V372.875H100.252V365.094H92.1386Z" fill="url(#paint4_linear_2328_5151)"/>
<g filter="url(#filter2_i_2328_5151)">
<path d="M99.2573 109.647C99.2573 110.084 98.3119 110.676 96.4211 111.424C94.5303 112.151 93.5849 113.086 93.5849 114.229C93.5849 114.478 93.8447 114.935 94.3641 115.6C94.8835 116.244 95.1433 116.836 95.1433 117.377C95.1433 118.27 94.8212 118.977 94.1771 119.496C93.5538 119.995 93.2317 120.379 93.2109 120.649L94.2083 122.114L96.7328 125.636V126.228H95.9536C95.725 125.75 95.2679 125.044 94.5823 124.109C93.6265 122.779 92.9408 122.114 92.5253 122.114C92.2759 122.114 91.8812 122.478 91.3409 123.205C90.7384 124.057 90.1982 125.064 89.7203 126.228H88.9411V125.449C89.3982 124.95 89.8345 124.337 90.2501 123.61C91.1228 122.072 91.7253 121.127 92.0578 120.774L90.7488 119.247C90.3124 118.686 90.0943 118.093 90.0943 117.47C90.0943 116.784 90.3436 116.161 90.8423 115.6C91.3409 115.018 91.611 114.561 91.6526 114.229C91.6526 113.792 91.0812 113.169 89.9384 112.359L86.1673 109.647C86.1673 108.463 87.0815 107.403 88.9099 106.468C90.3852 105.72 91.5591 105.346 92.4318 105.346C93.5745 105.346 94.9355 105.772 96.5146 106.624C98.343 107.601 99.2573 108.608 99.2573 109.647ZM97.6989 108.899C97.0133 108.276 96.3899 107.777 95.8289 107.403C94.8108 106.697 93.6369 106.344 92.3071 106.344C91.102 106.344 90.0943 106.645 89.2839 107.247L87.5698 108.899L88.0061 109.554C88.1308 109.741 88.3074 109.834 88.5359 109.834C88.8892 109.834 89.2112 109.71 89.5021 109.46C90.0839 108.92 91.0604 108.65 92.4318 108.65C93.5122 108.65 94.3433 108.837 94.9251 109.211C95.5277 109.585 95.9536 109.793 96.2029 109.834C96.5146 109.834 96.7847 109.762 97.0133 109.616C97.2418 109.45 97.4704 109.211 97.6989 108.899ZM94.2083 111.112C94.2083 110.51 94.0836 110.084 93.8343 109.834C93.6057 109.585 93.1694 109.46 92.5253 109.46C91.9435 109.46 91.5487 109.564 91.3409 109.772C91.1747 109.98 91.0916 110.426 91.0916 111.112C91.0916 111.548 91.2994 112.068 91.7149 112.67C92.1305 113.19 92.3694 113.554 92.4318 113.761L92.8369 113.574C93.0863 112.972 93.3772 112.619 93.7096 112.515C94.042 112.39 94.2083 111.922 94.2083 111.112ZM93.7719 117.377L93.6784 116.878C93.5953 116.649 93.533 116.431 93.4914 116.223C93.4499 116.016 93.4291 115.777 93.4291 115.507L92.0578 115.32L91.6838 116.473L91.4656 117.345C91.4656 117.616 91.5487 117.927 91.7149 118.28L92.0578 119.215H92.8369C93.2109 118.904 93.4603 118.623 93.5849 118.374C93.7096 118.104 93.7719 117.771 93.7719 117.377ZM106.546 162.67C106.297 163.127 106.017 163.48 105.705 163.729C104.811 164.436 103.575 164.789 101.996 164.789C101.123 164.789 100.427 164.332 99.9079 163.418C99.4092 162.503 98.7963 162.046 98.069 162.046C97.7366 162.046 97.4457 162.129 97.1964 162.296C96.6354 162.67 95.5445 162.857 93.9239 162.857C93.82 162.961 93.7473 163.085 93.7057 163.231C93.7057 163.688 94.0382 164.01 94.703 164.197C95.4303 164.363 96.2614 164.446 97.1964 164.446H97.9132L98.5989 164.415C98.4327 164.706 98.1418 164.945 97.7262 165.132C97.373 165.256 96.9574 165.319 96.4795 165.319C96.251 165.319 96.0017 165.308 95.7315 165.288C95.4822 165.267 95.2225 165.225 94.9524 165.163L93.394 164.789L89.841 165.288L86.101 165.786C85.727 165.786 85.4465 165.776 85.2595 165.755C85.0725 165.734 84.7713 165.672 84.3557 165.568C83.7739 165.402 83.0571 165.153 82.2052 164.82L82.4857 164.353C82.6727 164.166 82.9013 164.062 83.1714 164.041L84.8232 164.571L86.1945 164.789C87.1919 164.789 87.8775 164.633 88.2515 164.321C88.6463 163.989 88.8437 163.407 88.8437 162.576C88.8437 160.935 88.1788 159.013 86.849 156.81L84.3557 152.914C83.3584 150.442 82.4857 148.717 81.7377 147.741C81.1767 147.014 80.5742 146.65 79.93 146.65L79.0574 146.775L78.2159 146.868C77.925 146.868 77.5718 146.806 77.1562 146.681V146.12C78.0912 146.12 79.0574 145.995 80.0547 145.746L81.6442 145.341H86.6932C87.5867 145.341 88.532 145.933 89.5294 147.117L91.3682 149.424L93.1135 150.141C93.6745 150.348 94.2667 150.691 94.89 151.169C96.4484 152.291 97.7678 153.548 98.8482 154.94L100.718 157.589C101.217 158.254 101.809 158.587 102.495 158.587C102.578 159.106 103.523 160 105.331 161.267C106.141 161.828 106.546 162.296 106.546 162.67ZM102.495 160.519C101.934 159.979 101.227 159.439 100.375 158.898L99.191 158.182C99.1287 158.119 99.1287 157.953 99.191 157.683C99.2534 157.392 99.2534 157.174 99.191 157.028L98.6924 156.904C98.3392 156.821 98.1106 156.727 98.0067 156.623L93.8927 151.855C92.2513 150.463 90.7241 149.767 89.3112 149.767C88.4593 149.767 87.8048 149.839 87.3477 149.985C86.9114 150.109 86.6828 150.338 86.662 150.67C86.662 151.19 87.2334 152.031 88.3762 153.195C89.0203 153.881 90.0904 154.868 91.5864 156.156L93.3317 157.621L97.5704 159.241C100.188 160.239 101.664 160.737 101.996 160.737C102.121 160.737 102.204 160.727 102.245 160.706C102.245 160.685 102.266 160.654 102.308 160.613C102.37 160.55 102.432 160.519 102.495 160.519ZM104.645 163.262L100.749 161.111H99.378C99.6274 161.631 100.199 162.306 101.092 163.137C101.882 163.823 102.37 164.186 102.557 164.228C102.869 164.228 103.232 164.124 103.648 163.916C103.897 163.792 104.084 163.688 104.209 163.605C104.334 163.522 104.479 163.407 104.645 163.262ZM97.0405 161.298C95.8562 160.176 94.3706 159.2 92.5837 158.369L90.215 157.402C90.0073 157.278 89.8307 157.008 89.6852 156.592C89.5813 156.156 89.4982 155.906 89.4359 155.844C88.4178 155.179 87.5139 154.379 86.7244 153.444C85.9348 152.509 85.54 151.554 85.54 150.577C85.54 149.808 85.7894 149.361 86.288 149.237L88.8437 148.832C88.5528 147.959 88.21 147.273 87.8152 146.775C87.4204 146.255 87.0153 145.964 86.5997 145.902L85.5089 145.808C85.3011 145.808 85.1037 145.808 84.9167 145.808C84.7297 145.808 84.5115 145.829 84.2622 145.871L81.987 146.089L82.0805 146.369L82.2052 146.681C83.1194 146.681 83.7116 147.107 83.9817 147.959C85.0829 151.408 86.4439 154.036 88.0645 155.844C89.1242 157.028 89.9969 157.901 90.6825 158.462L92.3655 159.553L93.7057 161.516C94.2252 162.036 94.7446 162.296 95.264 162.296C95.6796 162.296 96.0328 162.171 96.3237 161.922L97.0405 161.298ZM91.7734 162.296C91.6695 161.984 91.5656 161.672 91.4617 161.361C91.2955 160.924 91.1293 160.571 90.963 160.301C90.6722 159.823 90.2878 159.449 89.8099 159.179L89.0307 159.366C89.3839 159.906 89.6021 160.384 89.6852 160.8L90.028 162.296H91.7734ZM92.1474 163.262L91.0565 163.106L90.8072 163.075H90.028L89.7787 163.511L90.028 164.228H91.3682L92.1474 163.262ZM101.972 200.857H101.006C100.424 200.379 100.061 199.859 99.9152 199.298C99.9152 199.132 99.8944 199.007 99.8528 198.924L98.5127 198.394L97.8893 198.145C97.7023 197.917 97.4634 197.366 97.1725 196.493C96.944 195.621 96.8297 194.779 96.8297 193.969L96.8608 193.034C96.9024 192.784 96.9855 192.535 97.1102 192.286L96.2687 191.787C96.0193 191.6 95.8012 191.507 95.6142 191.507C95.2817 191.507 94.4818 192.016 93.2143 193.034C91.8846 194.135 91.2197 194.956 91.2197 195.496C91.2197 195.808 91.8742 196.556 93.1832 197.74C94.4922 198.904 95.1467 200.233 95.1467 201.729C95.1467 202.685 94.7207 203.527 93.8688 204.254C93.0377 204.981 91.9677 205.345 90.6587 205.345C89.2458 205.345 88.1861 204.991 87.4797 204.285C86.8563 203.662 86.5447 202.841 86.5447 201.823C86.5447 201.22 86.6486 200.638 86.8563 200.077C87.0641 199.496 87.4173 198.852 87.916 198.145C88.7887 196.878 89.2458 196.057 89.2873 195.683C89.2873 195.371 88.9133 194.945 88.1653 194.405C87.2303 193.761 85.6616 192.992 83.4592 192.099V189.948H85.0175C86.3888 189.948 87.4485 190.489 88.1965 191.569L90.0977 194.623C90.8665 193.543 91.7703 192.618 92.8092 191.849C93.8481 191.081 94.887 190.696 95.9258 190.696C97.2141 190.696 98.3465 191.101 99.323 191.912C100.32 192.701 100.881 193.605 101.006 194.623L101.037 194.935V195.247C101.037 195.538 101.027 195.766 101.006 195.932C100.985 196.099 100.923 196.348 100.819 196.68L100.632 197.553C100.632 197.802 100.726 198.093 100.913 198.426C101.1 198.758 101.453 199.184 101.972 199.703V200.857ZM99.6347 195.496C99.6347 194.644 99.5827 194.114 99.4788 193.906C99.375 193.678 98.9802 193.335 98.2945 192.878L97.9828 193.221C97.7958 193.449 97.7023 193.688 97.7023 193.938C97.7023 194.436 97.8997 195.049 98.2945 195.776C98.4607 196.067 98.6166 196.327 98.762 196.556C98.9282 196.763 99.1568 197.034 99.4477 197.366L99.697 196.213L99.6347 195.496ZM87.9472 193.065C87.6355 192.442 87.1265 191.901 86.42 191.444C85.859 191.07 85.485 190.883 85.298 190.883L84.6435 191.133V191.694C84.9344 191.694 85.2045 191.777 85.4538 191.943C86.0772 192.359 86.7109 192.733 87.355 193.065H87.9472ZM93.7753 201.729C93.7753 201.314 93.4741 200.67 92.8715 199.797L90.6898 196.961H90.0977L88.6017 199.61C88.1446 200.462 87.916 201.168 87.916 201.729C87.916 202.373 88.2173 203.007 88.8198 203.63C89.4224 204.233 90.0042 204.534 90.5652 204.534C91.521 204.534 92.3313 204.108 92.9962 203.256C93.5156 202.612 93.7753 202.103 93.7753 201.729ZM98.6729 222.12L98.3924 222.245C98.2054 222.369 98.1119 222.588 98.1119 222.899V237.516C98.1119 237.683 98.0599 237.87 97.9561 238.077L97.7067 238.67L96.9276 238.296V224.458C96.4704 224.167 94.4966 223.71 91.0059 223.086C88.4294 222.65 87.1412 221.736 87.1412 220.344C87.1412 220.094 87.4113 219.835 87.9516 219.564C88.2009 219.44 88.3983 219.377 88.5437 219.377H98.6729V222.12ZM97.5197 221.528V220.562L97.1146 220.344H89.1359L89.0424 221.06L89.1359 221.902C89.4683 221.902 89.8735 221.933 90.3514 221.995C90.8293 222.058 91.4007 222.162 92.0656 222.307L95.9302 223.086C96.6159 223.086 96.9899 222.993 97.0522 222.806C97.1769 222.245 97.3327 221.819 97.5197 221.528ZM101.994 274.145C100.955 274.145 100.384 274.28 100.28 274.55C100.176 274.82 99.9057 275.142 99.4693 275.516C99.5317 275.288 99.6563 275.028 99.8433 274.737C99.594 274.488 99.3758 274.322 99.1888 274.239C99.0018 274.156 98.7317 274.114 98.3785 274.114H97.7863C95.9163 274.114 94.732 274.831 94.2333 276.264L93.2048 280.191L92.5192 279.038C92.4568 278.851 92.4049 278.56 92.3633 278.166L92.4257 277.573L92.5192 277.106C92.5192 276.815 92.353 276.462 92.0205 276.046C91.6881 275.61 90.9816 274.976 89.9012 274.145H86.4105V275.703L85.5067 274.644C85.2158 274.311 84.6652 274.145 83.8548 274.145V273.366H84.3223C84.6963 273.366 84.9145 273.335 84.9768 273.272L85.4132 272.587C85.7456 272.815 86.1508 273.013 86.6287 273.179C86.878 273.241 87.117 273.293 87.3455 273.335C87.5741 273.376 87.8546 273.397 88.187 273.397H88.6545C89.3817 273.397 89.9739 273.511 90.431 273.74C90.9505 273.927 91.4907 274.259 92.0517 274.737C92.114 274.613 92.1867 274.519 92.2698 274.457C92.353 274.374 92.4049 274.228 92.4257 274.02L91.9582 273.085C91.0024 271.693 89.5064 270.997 87.4702 270.997H86.878L86.4105 270.966L85.943 271.06C85.8599 271.122 85.756 271.371 85.6313 271.808L84.7898 271.34C84.5613 271.195 84.2496 271.091 83.8548 271.028V270.249H84.634L84.6652 269.501L84.634 269.065C84.9041 269.252 85.1327 269.449 85.3197 269.657L85.8183 270.249H90.6803L91.2102 270.935L91.553 270.997C91.7816 270.997 91.9893 270.904 92.1763 270.717L92.4257 270.436V260.12L91.74 259.466C91.5946 259.279 91.2413 258.977 90.6803 258.562H87.1897L87.0962 258.811L86.9403 258.998L87.5325 259.746C87.6572 259.933 87.7403 260.11 87.7818 260.276C87.7818 260.401 87.678 260.463 87.4702 260.463C87.3663 260.463 87.1585 260.307 86.8468 259.995C86.556 259.684 86.3066 259.528 86.0988 259.528C85.9326 259.528 85.7352 259.684 85.5067 259.995L84.8522 260.899H84.26V260.307L85.4132 259.123C85.1431 258.894 84.8314 258.697 84.4782 258.531L83.8548 258.344V257.783H84.447L85.9118 258.531L87.0338 257.938C87.9481 257.544 88.7792 257.346 89.5272 257.346C90.5245 257.679 91.2621 257.97 91.74 258.219C93.236 258.967 93.984 259.725 93.984 260.494V271.215L94.3892 271.808C95.6982 270.935 97.2046 270.416 98.9083 270.249C99.2823 270.249 99.4693 269.979 99.4693 269.439L99.6563 269.065L100.467 270.093C100.55 270.218 100.654 270.291 100.778 270.312L101.184 270.28L101.994 270.249V271.028L101.028 270.966C100.945 271.091 100.893 271.195 100.872 271.278C100.872 271.506 100.851 271.683 100.81 271.808L99.9368 271.278C99.646 271.091 99.3239 270.997 98.9707 270.997C98.7629 270.997 98.3266 271.132 97.6617 271.402C95.9579 272.088 94.732 272.867 93.984 273.74V274.332L94.3892 274.737C95.2203 273.865 96.2903 273.428 97.5993 273.428C98.8876 273.428 99.833 273.148 100.436 272.587L101.371 273.522L101.994 274.145ZM99.7537 302.016L97.1046 302.889C96.8968 303.346 96.7929 304.509 96.7929 306.379L97.2604 309.621C97.5929 311.782 97.8422 313.007 98.0084 313.298V316.228H89.0324V313.111L89.5934 310.306C89.7804 309.267 89.9259 308.426 90.0297 307.782C90.1336 307.117 90.1856 306.649 90.1856 306.379C90.1856 304.052 89.8947 302.754 89.3129 302.483L87.0689 302.016L87.8169 302.047H88.3467C88.6376 302.047 88.8454 302.026 88.9701 301.985C89.0947 301.922 89.2194 301.85 89.3441 301.767C89.4895 301.684 89.6454 301.569 89.8116 301.424C89.583 301.195 89.3856 301.039 89.2194 300.956C89.074 300.873 88.8974 300.811 88.6896 300.769L88.1286 300.832C87.9 300.832 87.7338 300.811 87.6299 300.769L87.0689 300.458L87.8169 300.489H88.3467C88.6376 300.489 88.8454 300.468 88.9701 300.426C89.0947 300.364 89.2194 300.291 89.3441 300.208C89.4895 300.125 89.6454 300.011 89.8116 299.865C89.583 299.637 89.3856 299.481 89.2194 299.398C89.074 299.315 88.8974 299.253 88.6896 299.211L88.1286 299.273C87.9 299.273 87.7338 299.253 87.6299 299.211L87.0689 298.899L87.8169 298.93H88.3467C88.6376 298.93 88.8454 298.91 88.9701 298.868C89.0947 298.806 89.2194 298.733 89.3441 298.65C89.4895 298.567 89.6454 298.453 89.8116 298.307C89.583 298.079 89.3856 297.923 89.2194 297.84C89.074 297.757 88.8974 297.694 88.6896 297.653L88.1286 297.715C87.9 297.715 87.7338 297.694 87.6299 297.653L87.0689 297.341C88.3987 297.341 89.5622 297.216 90.5596 296.967L93.5204 296.157L96.4189 296.811C98.4344 297.289 99.546 297.59 99.7537 297.715H97.4162L97.3851 298.12V298.338L97.4162 298.899H99.7537V299.273H97.4162L97.3851 299.678V299.897L97.4162 300.458H99.7537V300.832H97.4162L97.3851 301.237V301.455L97.4162 302.016H99.7537ZM96.2319 298.12H95.4527H94.8294H94.3307H93.8944H93.5204H92.3672L91.1517 298.089H90.7466L90.8401 298.369L90.9647 298.681H95.2657C95.5566 298.681 95.7644 298.629 95.8891 298.525L96.2319 298.12ZM96.2319 299.678H95.4527H94.8294H94.3307H93.8944H93.5204H92.3672L91.1517 299.647H90.7466L90.8401 299.928L90.9647 300.239H95.2657C95.5566 300.239 95.7644 300.188 95.8891 300.084L96.2319 299.678ZM96.2319 301.237H95.4527H94.8294H94.3307H93.8944H93.5204H92.3672L91.1517 301.206H90.7466L90.8401 301.486L90.9647 301.798H95.2657C95.5566 301.798 95.7644 301.746 95.8891 301.642L96.2319 301.237ZM96.6059 313.392C96.6059 312.249 96.3462 310.701 95.8267 308.748C95.5566 307.626 95.4216 306.868 95.4216 306.473C95.4216 305.725 95.4527 305.216 95.5151 304.946C95.5982 304.676 95.8371 304.281 96.2319 303.761V302.577H90.9647L90.8089 302.92L90.7466 303.263C90.7466 303.387 90.8816 303.699 91.1517 304.198C91.4219 304.676 91.5569 305.392 91.5569 306.348C91.5569 306.639 91.2972 308.052 90.7777 310.587C90.5076 312 90.3726 312.935 90.3726 313.392C90.3726 313.953 90.3934 314.306 90.4349 314.451L90.5907 315.075H95.6397C95.993 315.075 96.2631 314.981 96.4501 314.794C96.5747 314.628 96.6579 314.4 96.6994 314.109L96.6682 313.703L96.6059 313.392Z" fill="url(#paint5_linear_2328_5151)"/>
</g>
<g filter="url(#filter3_f_2328_5151)">
<path d="M151.963 45C152.333 49.9924 149.929 54.9417 145.001 59.3345C140.073 63.7272 132.8 67.4036 123.937 69.9821C115.073 72.5606 104.942 73.9473 94.5945 73.9985C84.2467 74.0497 74.0589 72.7635 65.0878 70.2733C56.1168 67.7829 48.6893 64.1793 43.5757 59.8361C38.4622 55.4929 35.8488 50.5683 36.0068 45.5732L94.0016 46.0004L151.963 45Z" fill="black"/>
</g>
<g filter="url(#filter4_i_2328_5151)">
<rect x="42.2969" y="57.8809" width="100.179" height="4.45238" fill="url(#paint6_linear_2328_5151)"/>
</g>
<g filter="url(#filter5_i_2328_5151)">
<path d="M42.2969 62.333H142.475L129.117 80.1425H57.8787L42.2969 62.333Z" fill="url(#paint7_linear_2328_5151)"/>
</g>
<g filter="url(#filter6_i_2328_5151)">
<path d="M42.2969 62.333L57.8802 80.1425L45.6362 71.2378L42.2969 62.333Z" fill="#673D00"/>
</g>
<g filter="url(#filter7_i_2328_5151)">
<path d="M142.477 62.333L129.119 80.1425L141.363 71.2378L142.477 62.333Z" fill="#673D00"/>
</g>
<defs>
<filter id="filter0_i_2328_5151" x="0" y="351.737" width="187" height="40.0715" filterUnits="userSpaceOnUse" color-interpolation-filters="sRGB">
<feFlood flood-opacity="0" result="BackgroundImageFix"/>
<feBlend mode="normal" in="SourceGraphic" in2="BackgroundImageFix" result="shape"/>
<feColorMatrix in="SourceAlpha" type="matrix" values="0 0 0 0 0 0 0 0 0 0 0 0 0 0 0 0 0 0 127 0" result="hardAlpha"/>
<feOffset dy="8.90476"/>
<feGaussianBlur stdDeviation="4.45238"/>
<feComposite in2="hardAlpha" operator="arithmetic" k2="-1" k3="1"/>
<feColorMatrix type="matrix" values="0 0 0 0 0 0 0 0 0 0 0 0 0 0 0 0 0 0 0.25 0"/>
<feBlend mode="normal" in2="shape" result="effect1_innerShadow_2328_5151"/>
</filter>
<filter id="filter1_i_2328_5151" x="20.4495" y="-8.90476" width="146.114" height="77.8725" filterUnits="userSpaceOnUse" color-interpolation-filters="sRGB">
<feFlood flood-opacity="0" result="BackgroundImageFix"/>
<feBlend mode="normal" in="SourceGraphic" in2="BackgroundImageFix" result="shape"/>
<feColorMatrix in="SourceAlpha" type="matrix" values="0 0 0 0 0 0 0 0 0 0 0 0 0 0 0 0 0 0 127 0" result="hardAlpha"/>
<feOffset dy="-20.0357"/>
<feGaussianBlur stdDeviation="4.45238"/>
<feComposite in2="hardAlpha" operator="arithmetic" k2="-1" k3="1"/>
<feColorMatrix type="matrix" values="0 0 0 0 0 0 0 0 0 0 0 0 0 0 0 0 0 0 0.25 0"/>
<feBlend mode="normal" in2="shape" result="effect1_innerShadow_2328_5151"/>
</filter>
<filter id="filter2_i_2328_5151" x="77.1562" y="105.346" width="33.8425" height="215.334" filterUnits="userSpaceOnUse" color-interpolation-filters="sRGB">
<feFlood flood-opacity="0" result="BackgroundImageFix"/>
<feBlend mode="normal" in="SourceGraphic" in2="BackgroundImageFix" result="shape"/>
<feColorMatrix in="SourceAlpha" type="matrix" values="0 0 0 0 0 0 0 0 0 0 0 0 0 0 0 0 0 0 127 0" result="hardAlpha"/>
<feOffset dx="20.0357" dy="31.1667"/>
<feGaussianBlur stdDeviation="2.22619"/>
<feComposite in2="hardAlpha" operator="arithmetic" k2="-1" k3="1"/>
<feColorMatrix type="matrix" values="0 0 0 0 0.558333 0 0 0 0 0.311131 0 0 0 0 0.0209375 0 0 0 0.25 0"/>
<feBlend mode="normal" in2="shape" result="effect1_innerShadow_2328_5151"/>
</filter>
<filter id="filter3_f_2328_5151" x="17.5233" y="26.5233" width="152.953" height="65.9534" filterUnits="userSpaceOnUse" color-interpolation-filters="sRGB">
<feFlood flood-opacity="0" result="BackgroundImageFix"/>
<feBlend mode="normal" in="SourceGraphic" in2="BackgroundImageFix" result="shape"/>
<feGaussianBlur stdDeviation="9.23835" result="effect1_foregroundBlur_2328_5151"/>
</filter>
<filter id="filter4_i_2328_5151" x="42.2969" y="57.8809" width="100.179" height="13.3572" filterUnits="userSpaceOnUse" color-interpolation-filters="sRGB">
<feFlood flood-opacity="0" result="BackgroundImageFix"/>
<feBlend mode="normal" in="SourceGraphic" in2="BackgroundImageFix" result="shape"/>
<feColorMatrix in="SourceAlpha" type="matrix" values="0 0 0 0 0 0 0 0 0 0 0 0 0 0 0 0 0 0 127 0" result="hardAlpha"/>
<feOffset dy="8.90476"/>
<feGaussianBlur stdDeviation="4.45238"/>
<feComposite in2="hardAlpha" operator="arithmetic" k2="-1" k3="1"/>
<feColorMatrix type="matrix" values="0 0 0 0 0 0 0 0 0 0 0 0 0 0 0 0 0 0 0.25 0"/>
<feBlend mode="normal" in2="shape" result="effect1_innerShadow_2328_5151"/>
</filter>
<filter id="filter5_i_2328_5151" x="42.2969" y="62.333" width="100.179" height="26.7143" filterUnits="userSpaceOnUse" color-interpolation-filters="sRGB">
<feFlood flood-opacity="0" result="BackgroundImageFix"/>
<feBlend mode="normal" in="SourceGraphic" in2="BackgroundImageFix" result="shape"/>
<feColorMatrix in="SourceAlpha" type="matrix" values="0 0 0 0 0 0 0 0 0 0 0 0 0 0 0 0 0 0 127 0" result="hardAlpha"/>
<feOffset dy="8.90476"/>
<feGaussianBlur stdDeviation="4.45238"/>
<feComposite in2="hardAlpha" operator="arithmetic" k2="-1" k3="1"/>
<feColorMatrix type="matrix" values="0 0 0 0 0 0 0 0 0 0 0 0 0 0 0 0 0 0 0.25 0"/>
<feBlend mode="normal" in2="shape" result="effect1_innerShadow_2328_5151"/>
</filter>
<filter id="filter6_i_2328_5151" x="42.2969" y="62.333" width="15.5833" height="26.7143" filterUnits="userSpaceOnUse" color-interpolation-filters="sRGB">
<feFlood flood-opacity="0" result="BackgroundImageFix"/>
<feBlend mode="normal" in="SourceGraphic" in2="BackgroundImageFix" result="shape"/>
<feColorMatrix in="SourceAlpha" type="matrix" values="0 0 0 0 0 0 0 0 0 0 0 0 0 0 0 0 0 0 127 0" result="hardAlpha"/>
<feOffset dy="8.90476"/>
<feGaussianBlur stdDeviation="4.45238"/>
<feComposite in2="hardAlpha" operator="arithmetic" k2="-1" k3="1"/>
<feColorMatrix type="matrix" values="0 0 0 0 0 0 0 0 0 0 0 0 0 0 0 0 0 0 0.25 0"/>
<feBlend mode="normal" in2="shape" result="effect1_innerShadow_2328_5151"/>
</filter>
<filter id="filter7_i_2328_5151" x="129.119" y="62.333" width="13.3571" height="26.7143" filterUnits="userSpaceOnUse" color-interpolation-filters="sRGB">
<feFlood flood-opacity="0" result="BackgroundImageFix"/>
<feBlend mode="normal" in="SourceGraphic" in2="BackgroundImageFix" result="shape"/>
<feColorMatrix in="SourceAlpha" type="matrix" values="0 0 0 0 0 0 0 0 0 0 0 0 0 0 0 0 0 0 127 0" result="hardAlpha"/>
<feOffset dy="8.90476"/>
<feGaussianBlur stdDeviation="4.45238"/>
<feComposite in2="hardAlpha" operator="arithmetic" k2="-1" k3="1"/>
<feColorMatrix type="matrix" values="0 0 0 0 0 0 0 0 0 0 0 0 0 0 0 0 0 0 0.25 0"/>
<feBlend mode="normal" in2="shape" result="effect1_innerShadow_2328_5151"/>
</filter>
<linearGradient id="paint0_linear_2328_5151" x1="93.4996" y1="77.916" x2="93.4996" y2="349.511" gradientUnits="userSpaceOnUse">
<stop offset="0.0552082" stop-color="#744500" stop-opacity="0.985714"/>
<stop offset="0.607292" stop-color="#774F00"/>
<stop offset="0.914583" stop-color="#4F3400"/>
</linearGradient>
<linearGradient id="paint1_linear_2328_5151" x1="47.2483" y1="361.535" x2="47.2483" y2="375.451" gradientUnits="userSpaceOnUse">
<stop stop-color="#FFD37C"/>
<stop offset="0.607292" stop-color="#D08123"/>
</linearGradient>
<linearGradient id="paint2_linear_2328_5151" x1="139.179" y1="361.535" x2="139.179" y2="375.451" gradientUnits="userSpaceOnUse">
<stop stop-color="#FFD37C"/>
<stop offset="0.607292" stop-color="#D08123"/>
</linearGradient>
<linearGradient id="paint3_linear_2328_5151" x1="45.5285" y1="377.322" x2="45.5285" y2="363.405" gradientUnits="userSpaceOnUse">
<stop stop-color="#FFD37C"/>
<stop offset="0.607292" stop-color="#D08123"/>
</linearGradient>
<linearGradient id="paint4_linear_2328_5151" x1="137.307" y1="377.322" x2="137.307" y2="363.405" gradientUnits="userSpaceOnUse">
<stop stop-color="#FFD37C"/>
<stop offset="0.607292" stop-color="#D08123"/>
</linearGradient>
<linearGradient id="paint5_linear_2328_5151" x1="92.9776" y1="74.614" x2="92.9776" y2="364.659" gradientUnits="userSpaceOnUse">
<stop stop-color="#FFD37C"/>
<stop offset="0.607292" stop-color="#D08123"/>
</linearGradient>
<linearGradient id="paint6_linear_2328_5151" x1="92.3862" y1="57.8809" x2="92.3862" y2="62.3332" gradientUnits="userSpaceOnUse">
<stop stop-color="#AD6801"/>
<stop offset="1" stop-color="#4F2F01"/>
</linearGradient>
<linearGradient id="paint7_linear_2328_5151" x1="92.3862" y1="62.333" x2="92.3862" y2="80.1425" gradientUnits="userSpaceOnUse">
<stop offset="0.270833" stop-color="#744500"/>
<stop offset="0.984375" stop-color="#271800"/>
</linearGradient>
</defs>
</svg>
