<svg width="346" height="79" viewBox="0 0 346 79" fill="none" xmlns="http://www.w3.org/2000/svg">
<path d="M0.96 60.28C2.208 60.28 3.264 59.848 4.128 58.984C5.04 58.072 5.52 56.992 5.568 55.744V15.64C5.424 13.96 4.632 12.712 3.192 11.896C2.472 11.512 1.728 11.32 0.96 11.32H0.0240002V10.6H20.256C22.368 10.6 24.216 10.432 25.8 10.096C27.384 9.76 28.416 9.496 28.896 9.304V21.904H28.104V21.04C28.152 18.88 27.528 17.152 26.232 15.856C24.984 14.512 23.28 13.792 21.12 13.696H16.368V34.648H27.816C29.592 34.6 31.056 34 32.208 32.848C33.36 31.648 33.936 30.184 33.936 28.456V27.808H34.584V44.44H33.936V43.864C33.936 42.088 33.36 40.624 32.208 39.472C31.056 38.32 29.616 37.72 27.888 37.672H16.368V57.904H30.408C33.912 57.904 36.84 56.896 39.192 54.88C41.592 52.864 43.368 50.008 44.52 46.312H45.24L41.856 61H0.0240002V60.28H0.96ZM113.281 68.488C114.097 68.968 115.009 69.4 116.017 69.784C117.025 70.216 117.985 70.504 118.897 70.648C119.857 70.84 120.889 70.936 121.993 70.936C123.145 70.936 124.321 70.792 125.521 70.504L125.809 71.224C123.121 72.52 120.409 73.168 117.673 73.168C111.385 73.168 104.977 69.688 98.4491 62.728L64.3211 26.512V55.96C64.3211 57.16 64.7531 58.192 65.6171 59.056C66.4811 59.872 67.5131 60.28 68.7131 60.28H70.0811V61H48.2651V60.28H49.5611C50.8091 60.28 51.8651 59.872 52.7291 59.056C53.5931 58.192 54.0251 57.136 54.0251 55.888V15.496C51.6731 12.808 49.8971 10.936 48.6971 9.88C47.4971 8.776 46.4411 7.864 45.5291 7.144C44.5691 6.424 43.6571 5.824 42.7931 5.344C40.7771 4.192 39.1691 3.52 37.9691 3.328C36.7211 3.136 35.5691 3.04 34.5131 3.04C33.4091 3.04 32.2331 3.256 30.9851 3.688L30.6971 2.968C33.3371 1.432 36.0491 0.663996 38.8331 0.663996C44.8811 0.663996 51.2891 4.264 58.0571 11.464L90.2411 45.664V15.712C90.1931 14.464 89.7371 13.432 88.8731 12.616C88.0091 11.752 86.9771 11.32 85.7771 11.32H84.4811V10.6H106.297V11.32H104.929C103.729 11.32 102.697 11.752 101.833 12.616C100.969 13.432 100.513 14.44 100.465 15.64V56.608L101.617 57.76C101.905 58.048 102.337 58.552 102.913 59.272C103.537 59.944 104.089 60.52 104.569 61C105.049 61.528 105.649 62.176 106.369 62.944C107.137 63.712 107.833 64.384 108.457 64.96C109.129 65.536 109.897 66.16 110.761 66.832C111.673 67.504 112.513 68.056 113.281 68.488ZM138.498 60.28H139.434V61H117.546V60.28H118.482C119.73 60.28 120.786 59.848 121.65 58.984C122.562 58.072 123.042 56.992 123.09 55.744V13.552L116.25 13.84C111.738 14.032 109.482 15.712 109.482 18.88C109.482 20.176 109.914 21.28 110.778 22.192C111.69 23.056 112.938 23.488 114.522 23.488C114.666 23.488 114.81 23.488 114.954 23.488V23.92C113.994 24.256 113.178 24.424 112.506 24.424C110.346 24.424 108.69 23.656 107.538 22.12C106.722 21.064 106.314 19.864 106.314 18.52C106.314 16.408 107.154 14.68 108.834 13.336C110.466 11.944 113.01 11.128 116.466 10.888C117.09 10.84 119.106 10.744 122.514 10.6C130.29 10.312 135.93 9.832 139.434 9.16L139.578 9.88C137.514 10.216 136.05 10.912 135.186 11.968C134.37 13.024 133.938 14.584 133.89 16.648V55.744C133.938 56.992 134.394 58.072 135.258 58.984C136.17 59.848 137.25 60.28 138.498 60.28ZM210.68 75.256C209.48 75.256 208.304 75.16 207.152 74.968C202.496 74.248 198.536 72.472 195.272 69.64C192.008 66.856 189.656 63.376 188.216 59.2C183.704 61.072 178.832 62.008 173.6 62.008C164.96 62.008 157.88 59.56 152.36 54.664C146.84 49.768 144.08 43.48 144.08 35.8C144.08 30.664 145.328 26.104 147.824 22.12C150.368 18.136 153.92 15.064 158.48 12.904C163.04 10.696 168.248 9.592 174.104 9.592C177.944 9.592 181.664 9.976 185.264 10.744C188.864 11.464 191.768 12.376 193.976 13.48L194.12 25.864H193.544C192.392 21.496 190.16 18.208 186.848 16C183.584 13.744 179.648 12.616 175.04 12.616C169.376 12.616 164.744 14.8 161.144 19.168C157.592 23.488 155.816 29.08 155.816 35.944C155.816 42.76 157.568 48.304 161.072 52.576C164.576 56.848 169.088 58.984 174.608 58.984C177.584 58.984 180.152 58.336 182.312 57.04C184.52 55.744 186.008 54.016 186.776 51.856V40.912C186.776 39.856 186.464 39.04 185.84 38.464C185.216 37.888 184.328 37.6 183.176 37.6H182.024V36.88H202.256V37.6H201.176C199.976 37.6 199.064 37.888 198.44 38.464C197.816 39.04 197.528 39.832 197.576 40.84V52.288C197.624 55.456 198.224 58.408 199.376 61.144C201.92 67 206.144 70.648 212.048 72.088C213.632 72.472 215.264 72.664 216.944 72.664C218.672 72.664 220.424 72.472 222.2 72.088L222.344 72.808C218.216 74.44 214.328 75.256 210.68 75.256ZM198.103 5.848C200.839 4.696 203.215 4.12 205.231 4.12C207.247 4.12 209.023 4.312 210.559 4.696C212.095 5.08 213.655 5.728 215.239 6.64C216.871 7.504 218.383 8.584 219.775 9.88C222.463 12.424 224.743 15.304 226.615 18.52L241.015 45.52L261.895 9.592H262.543L270.031 51.928C271.183 58.456 273.175 63.64 276.007 67.48C278.839 71.368 282.727 73.312 287.671 73.312C288.007 73.312 288.319 73.312 288.607 73.312V74.032C285.967 74.752 283.375 75.112 280.831 75.112C275.647 75.112 270.919 73.072 266.647 68.992C262.519 65.104 259.711 59.416 258.223 51.928L254.695 30.976L241.159 54.448C239.335 57.472 238.399 60.136 238.351 62.44H237.703L219.775 28.456L216.247 57.256C216.103 58.36 216.583 59.248 217.687 59.92C218.119 60.208 218.575 60.352 219.055 60.352H220.207V61H205.159V60.28H206.311C207.559 60.28 208.663 59.92 209.623 59.2C210.631 58.432 211.255 57.4 211.495 56.104L216.391 21.76C214.231 17.92 211.759 14.512 208.975 11.536C205.855 8.176 202.591 6.496 199.183 6.496C198.847 6.496 198.535 6.52 198.247 6.568L198.103 5.848ZM345.327 74.176C340.095 76.816 334.791 77.248 329.415 75.472C323.703 73.648 318.783 69.76 314.655 63.808C312.447 60.64 310.551 56.968 308.967 52.792L306.663 46.672H289.671L285.855 55.744C285.615 56.368 285.495 56.872 285.495 57.256C285.495 57.64 285.567 58.072 285.711 58.552C285.903 58.984 286.263 59.392 286.791 59.776C287.367 60.112 287.991 60.28 288.663 60.28H289.239V61H273.831V60.28H274.479C275.583 60.28 276.663 59.968 277.719 59.344C278.823 58.672 279.735 57.688 280.455 56.392L296.511 19.744C294.639 15.52 292.647 12.616 290.535 11.032C288.759 9.688 287.055 9.016 285.423 9.016C283.839 9.016 282.351 9.256 280.959 9.736L280.815 9.016C284.271 7.24 287.583 6.352 290.751 6.352C294.687 6.352 298.215 7.888 301.335 10.96C304.407 13.984 307.119 18.352 309.471 24.064L319.911 49.84C323.847 59.584 327.879 66.28 332.007 69.928C333.687 71.416 335.415 72.448 337.191 73.024C338.967 73.6 340.455 73.888 341.655 73.888C342.903 73.888 344.103 73.744 345.255 73.456L345.327 74.176ZM290.895 43.576H305.583L300.543 30.256C300.303 29.584 299.967 28.672 299.535 27.52C299.103 26.32 298.815 25.48 298.671 25L290.895 43.576Z" fill="url(#paint0_linear_2261_5136)"/>
<defs>
<linearGradient id="paint0_linear_2261_5136" x1="166.858" y1="-20.8714" x2="166.858" y2="103.029" gradientUnits="userSpaceOnUse">
<stop offset="0.234375" stop-color="#FFD37C"/>
<stop offset="0.607292" stop-color="#D08123"/>
</linearGradient>
</defs>
</svg>
