<svg width="174" height="40" viewBox="0 0 174 40" fill="none" xmlns="http://www.w3.org/2000/svg">
<path d="M0.98 30.64C1.604 30.64 2.132 30.424 2.564 29.992C3.02 29.536 3.26 28.996 3.284 28.372V8.32C3.212 7.48 2.816 6.856 2.096 6.448C1.736 6.256 1.364 6.16 0.98 6.16H0.512V5.8H10.628C11.684 5.8 12.608 5.716 13.4 5.548C14.192 5.38 14.708 5.248 14.948 5.152V11.452H14.552V11.02C14.576 9.94 14.264 9.076 13.616 8.428C12.992 7.756 12.14 7.396 11.06 7.348H8.684V17.824H14.408C15.296 17.8 16.028 17.5 16.604 16.924C17.18 16.324 17.468 15.592 17.468 14.728V14.404H17.792V22.72H17.468V22.432C17.468 21.544 17.18 20.812 16.604 20.236C16.028 19.66 15.308 19.36 14.444 19.336H8.684V29.452H15.704C17.456 29.452 18.92 28.948 20.096 27.94C21.296 26.932 22.184 25.504 22.76 23.656H23.12L21.428 31H0.512V30.64H0.98ZM57.1406 34.744C57.5486 34.984 58.0046 35.2 58.5086 35.392C59.0126 35.608 59.4926 35.752 59.9486 35.824C60.4286 35.92 60.9446 35.968 61.4966 35.968C62.0726 35.968 62.6606 35.896 63.2606 35.752L63.4046 36.112C62.0606 36.76 60.7046 37.084 59.3366 37.084C56.1926 37.084 52.9886 35.344 49.7246 31.864L32.6606 13.756V28.48C32.6606 29.08 32.8766 29.596 33.3086 30.028C33.7406 30.436 34.2566 30.64 34.8566 30.64H35.5406V31H24.6326V30.64H25.2806C25.9046 30.64 26.4326 30.436 26.8646 30.028C27.2966 29.596 27.5126 29.068 27.5126 28.444V8.248C26.3366 6.904 25.4486 5.968 24.8486 5.44C24.2486 4.888 23.7206 4.432 23.2646 4.072C22.7846 3.712 22.3286 3.412 21.8966 3.172C20.8886 2.596 20.0846 2.26 19.4846 2.164C18.8606 2.068 18.2846 2.02 17.7566 2.02C17.2046 2.02 16.6166 2.128 15.9926 2.344L15.8486 1.984C17.1686 1.216 18.5246 0.831998 19.9166 0.831998C22.9406 0.831998 26.1446 2.632 29.5286 6.232L45.6206 23.332V8.356C45.5966 7.732 45.3686 7.216 44.9366 6.808C44.5046 6.376 43.9886 6.16 43.3886 6.16H42.7406V5.8H53.6486V6.16H52.9646C52.3646 6.16 51.8486 6.376 51.4166 6.808C50.9846 7.216 50.7566 7.72 50.7326 8.32V28.804L51.3086 29.38C51.4526 29.524 51.6686 29.776 51.9566 30.136C52.2686 30.472 52.5446 30.76 52.7846 31C53.0246 31.264 53.3246 31.588 53.6846 31.972C54.0686 32.356 54.4166 32.692 54.7286 32.98C55.0646 33.268 55.4486 33.58 55.8806 33.916C56.3366 34.252 56.7566 34.528 57.1406 34.744ZM69.749 30.64H70.217V31H59.273V30.64H59.741C60.365 30.64 60.893 30.424 61.325 29.992C61.781 29.536 62.021 28.996 62.045 28.372V7.276L58.625 7.42C56.369 7.516 55.241 8.356 55.241 9.94C55.241 10.588 55.457 11.14 55.889 11.596C56.345 12.028 56.969 12.244 57.761 12.244C57.833 12.244 57.905 12.244 57.977 12.244V12.46C57.497 12.628 57.089 12.712 56.753 12.712C55.673 12.712 54.845 12.328 54.269 11.56C53.861 11.032 53.657 10.432 53.657 9.76C53.657 8.704 54.077 7.84 54.917 7.168C55.733 6.472 57.005 6.064 58.733 5.944C59.045 5.92 60.053 5.872 61.757 5.8C65.645 5.656 68.465 5.416 70.217 5.08L70.289 5.44C69.257 5.608 68.525 5.956 68.093 6.484C67.685 7.012 67.469 7.792 67.445 8.824V28.372C67.469 28.996 67.697 29.536 68.129 29.992C68.585 30.424 69.125 30.64 69.749 30.64ZM105.84 38.128C105.24 38.128 104.652 38.08 104.076 37.984C101.748 37.624 99.7678 36.736 98.1358 35.32C96.5038 33.928 95.3278 32.188 94.6078 30.1C92.3518 31.036 89.9158 31.504 87.2998 31.504C82.9798 31.504 79.4398 30.28 76.6798 27.832C73.9198 25.384 72.5398 22.24 72.5398 18.4C72.5398 15.832 73.1638 13.552 74.4118 11.56C75.6838 9.568 77.4598 8.032 79.7398 6.952C82.0198 5.848 84.6238 5.296 87.5518 5.296C89.4718 5.296 91.3318 5.488 93.1318 5.872C94.9318 6.232 96.3838 6.688 97.4878 7.24L97.5598 13.432H97.2718C96.6958 11.248 95.5798 9.604 93.9238 8.5C92.2918 7.372 90.3238 6.808 88.0198 6.808C85.1878 6.808 82.8718 7.9 81.0718 10.084C79.2958 12.244 78.4078 15.04 78.4078 18.472C78.4078 21.88 79.2838 24.652 81.0358 26.788C82.7878 28.924 85.0438 29.992 87.8038 29.992C89.2918 29.992 90.5758 29.668 91.6558 29.02C92.7598 28.372 93.5038 27.508 93.8878 26.428V20.956C93.8878 20.428 93.7318 20.02 93.4198 19.732C93.1078 19.444 92.6638 19.3 92.0878 19.3H91.5118V18.94H101.628V19.3H101.088C100.488 19.3 100.032 19.444 99.7198 19.732C99.4078 20.02 99.2638 20.416 99.2878 20.92V26.644C99.3118 28.228 99.6118 29.704 100.188 31.072C101.46 34 103.572 35.824 106.524 36.544C107.316 36.736 108.132 36.832 108.972 36.832C109.836 36.832 110.712 36.736 111.6 36.544L111.672 36.904C109.608 37.72 107.664 38.128 105.84 38.128ZM99.5517 3.424C100.92 2.848 102.108 2.56 103.116 2.56C104.124 2.56 105.012 2.656 105.78 2.848C106.548 3.04 107.328 3.364 108.12 3.82C108.936 4.252 109.692 4.792 110.388 5.44C111.732 6.712 112.872 8.152 113.808 9.76L121.008 23.26L131.448 5.296H131.772L135.516 26.464C136.092 29.728 137.088 32.32 138.504 34.24C139.92 36.184 141.864 37.156 144.336 37.156C144.504 37.156 144.66 37.156 144.804 37.156V37.516C143.484 37.876 142.188 38.056 140.916 38.056C138.324 38.056 135.96 37.036 133.824 34.996C131.76 33.052 130.356 30.208 129.612 26.464L127.848 15.988L121.08 27.724C120.168 29.236 119.7 30.568 119.676 31.72H119.352L110.388 14.728L108.624 29.128C108.552 29.68 108.792 30.124 109.344 30.46C109.56 30.604 109.788 30.676 110.028 30.676H110.604V31H103.08V30.64H103.656C104.28 30.64 104.832 30.46 105.312 30.1C105.816 29.716 106.128 29.2 106.248 28.552L108.696 11.38C107.616 9.46 106.38 7.756 104.988 6.268C103.428 4.588 101.796 3.748 100.092 3.748C99.9237 3.748 99.7677 3.76 99.6237 3.784L99.5517 3.424ZM173.163 37.588C170.547 38.908 167.895 39.124 165.207 38.236C162.351 37.324 159.891 35.38 157.827 32.404C156.723 30.82 155.775 28.984 154.983 26.896L153.831 23.836H145.335L143.427 28.372C143.307 28.684 143.247 28.936 143.247 29.128C143.247 29.32 143.283 29.536 143.355 29.776C143.451 29.992 143.631 30.196 143.895 30.388C144.183 30.556 144.495 30.64 144.831 30.64H145.119V31H137.415V30.64H137.739C138.291 30.64 138.831 30.484 139.359 30.172C139.911 29.836 140.367 29.344 140.727 28.696L148.755 10.372C147.819 8.26 146.823 6.808 145.767 6.016C144.879 5.344 144.027 5.008 143.211 5.008C142.419 5.008 141.675 5.128 140.979 5.368L140.907 5.008C142.635 4.12 144.291 3.676 145.875 3.676C147.843 3.676 149.607 4.444 151.167 5.98C152.703 7.492 154.059 9.676 155.235 12.532L160.455 25.42C162.423 30.292 164.439 33.64 166.503 35.464C167.343 36.208 168.207 36.724 169.095 37.012C169.983 37.3 170.727 37.444 171.327 37.444C171.951 37.444 172.551 37.372 173.127 37.228L173.163 37.588ZM145.947 22.288H153.291L150.771 15.628C150.651 15.292 150.483 14.836 150.267 14.26C150.051 13.66 149.907 13.24 149.835 13L145.947 22.288Z" fill="url(#paint0_linear_2083_5551)"/>
<defs>
<linearGradient id="paint0_linear_2083_5551" x1="79.0758" y1="-9.9969" x2="79.0758" y2="52.5922" gradientUnits="userSpaceOnUse">
<stop offset="0.234375" stop-color="#FFD37C"/>
<stop offset="0.607292" stop-color="#D08123"/>
</linearGradient>
</defs>
</svg>
