<svg width="99" height="24" viewBox="0 0 99 24" fill="none" xmlns="http://www.w3.org/2000/svg">
<path d="M4.25 19.75H11.75C12.0814 19.7497 12.3992 19.6179 12.6335 19.3835C12.8679 19.1492 12.9997 18.8314 13 18.5V16.625H11.75V18.5H4.25V3.5H11.75V5.375H13V3.5C12.9997 3.16858 12.8679 2.85083 12.6335 2.61648C12.3992 2.38213 12.0814 2.25033 11.75 2.25H4.25C3.91858 2.25033 3.60083 2.38213 3.36648 2.61648C3.13213 2.85083 3.00033 3.16858 3 3.5V18.5C3.00033 18.8314 3.13213 19.1492 3.36648 19.3835C3.60083 19.6179 3.91858 19.7497 4.25 19.75Z" fill="url(#paint0_linear_1988_5392)"/>
<path d="M13.3663 13.8663L15.6075 11.625H6.75V10.375H15.6075L13.3663 8.13375L14.25 7.25L18 11L14.25 14.75L13.3663 13.8663Z" fill="url(#paint1_linear_1988_5392)"/>
<path d="M27.436 3.336H29.24V17.46H37.094V19H27.436V3.336ZM44.0588 19.154C43.0175 19.154 42.1008 18.9193 41.3088 18.45C40.5168 17.9807 39.9008 17.3133 39.4608 16.448C39.0355 15.5827 38.8228 14.5707 38.8228 13.412C38.8228 12.2533 39.0355 11.2413 39.4608 10.376C39.9008 9.51067 40.5168 8.84333 41.3088 8.374C42.1008 7.90467 43.0175 7.67 44.0588 7.67C45.1001 7.67 46.0168 7.90467 46.8088 8.374C47.6008 8.84333 48.2095 9.51067 48.6348 10.376C49.0748 11.2413 49.2948 12.2533 49.2948 13.412C49.2948 14.5707 49.0748 15.5827 48.6348 16.448C48.2095 17.3133 47.6008 17.9807 46.8088 18.45C46.0168 18.9193 45.1001 19.154 44.0588 19.154ZM44.0588 17.68C45.1588 17.68 46.0021 17.3207 46.5888 16.602C47.1755 15.8687 47.4688 14.8053 47.4688 13.412C47.4688 12.0627 47.1681 11.0213 46.5668 10.288C45.9655 9.54 45.1295 9.166 44.0588 9.166C42.9735 9.166 42.1301 9.54 41.5288 10.288C40.9275 11.0213 40.6268 12.0627 40.6268 13.412C40.6268 14.8053 40.9201 15.8687 41.5068 16.602C42.1081 17.3207 42.9588 17.68 44.0588 17.68ZM62.2286 7.934V18.912C62.2286 20.5547 61.8033 21.794 60.9526 22.63C60.1166 23.4807 58.8773 23.906 57.2346 23.906C55.548 23.906 54.096 23.5247 52.8786 22.762L53.1866 21.31C53.8906 21.706 54.5506 21.992 55.1666 22.168C55.7973 22.344 56.4866 22.432 57.2346 22.432C58.3053 22.432 59.112 22.146 59.6546 21.574C60.1973 21.0167 60.4686 20.1807 60.4686 19.066V16.448C60.1313 17.152 59.6326 17.702 58.9726 18.098C58.3273 18.4793 57.5573 18.67 56.6626 18.67C55.6946 18.67 54.8293 18.4427 54.0666 17.988C53.3186 17.5333 52.7393 16.888 52.3286 16.052C51.918 15.216 51.7126 14.2553 51.7126 13.17C51.7126 12.0847 51.918 11.124 52.3286 10.288C52.7393 9.452 53.3186 8.80667 54.0666 8.352C54.8293 7.89733 55.6946 7.67 56.6626 7.67C57.5426 7.67 58.3053 7.86067 58.9506 8.242C59.6106 8.62333 60.1093 9.15867 60.4466 9.848V7.934H62.2286ZM57.0146 17.174C58.0853 17.174 58.9213 16.822 59.5226 16.118C60.1386 15.3993 60.4466 14.4167 60.4466 13.17C60.4466 11.9233 60.1386 10.948 59.5226 10.244C58.9213 9.52533 58.0853 9.166 57.0146 9.166C55.9293 9.166 55.0713 9.52533 54.4406 10.244C53.8246 10.948 53.5166 11.9233 53.5166 13.17C53.5166 14.4167 53.8246 15.3993 54.4406 16.118C55.0713 16.822 55.9293 17.174 57.0146 17.174ZM70.526 19.154C69.4847 19.154 68.568 18.9193 67.776 18.45C66.984 17.9807 66.368 17.3133 65.928 16.448C65.5027 15.5827 65.29 14.5707 65.29 13.412C65.29 12.2533 65.5027 11.2413 65.928 10.376C66.368 9.51067 66.984 8.84333 67.776 8.374C68.568 7.90467 69.4847 7.67 70.526 7.67C71.5673 7.67 72.484 7.90467 73.276 8.374C74.068 8.84333 74.6767 9.51067 75.102 10.376C75.542 11.2413 75.762 12.2533 75.762 13.412C75.762 14.5707 75.542 15.5827 75.102 16.448C74.6767 17.3133 74.068 17.9807 73.276 18.45C72.484 18.9193 71.5673 19.154 70.526 19.154ZM70.526 17.68C71.626 17.68 72.4693 17.3207 73.056 16.602C73.6427 15.8687 73.936 14.8053 73.936 13.412C73.936 12.0627 73.6353 11.0213 73.034 10.288C72.4327 9.54 71.5967 9.166 70.526 9.166C69.4407 9.166 68.5973 9.54 67.996 10.288C67.3947 11.0213 67.094 12.0627 67.094 13.412C67.094 14.8053 67.3873 15.8687 67.974 16.602C68.5753 17.3207 69.426 17.68 70.526 17.68ZM88.1018 7.934V19H86.3638V17.086C86.0118 17.7607 85.5205 18.274 84.8898 18.626C84.2592 18.978 83.5478 19.154 82.7558 19.154C81.4505 19.154 80.4605 18.7873 79.7858 18.054C79.1112 17.3207 78.7738 16.2353 78.7738 14.798V7.934H80.5558V14.754C80.5558 15.7513 80.7612 16.4847 81.1718 16.954C81.5825 17.4233 82.2058 17.658 83.0418 17.658C84.0245 17.658 84.8165 17.3427 85.4178 16.712C86.0192 16.0667 86.3198 15.2233 86.3198 14.182V7.934H88.1018ZM94.2131 9.342V15.392C94.2131 16.2133 94.3818 16.7927 94.7191 17.13C95.0564 17.4527 95.5331 17.614 96.1491 17.614C96.5598 17.614 96.9558 17.548 97.3371 17.416V18.934C96.8824 19.0807 96.3691 19.154 95.7971 19.154C94.7411 19.154 93.9124 18.8607 93.3111 18.274C92.7244 17.6727 92.4311 16.7927 92.4311 15.634V9.342H90.2751V7.934H92.4311V5.096L94.2131 4.458V7.934H97.3811V9.342H94.2131Z" fill="url(#paint2_linear_1988_5392)"/>
<defs>
<linearGradient id="paint0_linear_1988_5392" x1="7.85308" y1="0.108249" x2="7.85308" y2="22.4615" gradientUnits="userSpaceOnUse">
<stop offset="0.234375" stop-color="#FFD37C"/>
<stop offset="0.607292" stop-color="#D08123"/>
</linearGradient>
<linearGradient id="paint1_linear_1988_5392" x1="12.2097" y1="6.33211" x2="12.2097" y2="15.9121" gradientUnits="userSpaceOnUse">
<stop offset="0.234375" stop-color="#FFD37C"/>
<stop offset="0.607292" stop-color="#D08123"/>
</linearGradient>
<linearGradient id="paint2_linear_1988_5392" x1="60.9275" y1="-2.69249" x2="60.9275" y2="25.4087" gradientUnits="userSpaceOnUse">
<stop offset="0.234375" stop-color="#FFD37C"/>
<stop offset="0.607292" stop-color="#D08123"/>
</linearGradient>
</defs>
</svg>
