<svg width="21" height="20" viewBox="0 0 21 20" fill="none" xmlns="http://www.w3.org/2000/svg">
<path d="M4.25 18.75H11.75C12.0814 18.7497 12.3992 18.6179 12.6335 18.3835C12.8679 18.1492 12.9997 17.8314 13 17.5V15.625H11.75V17.5H4.25V2.5H11.75V4.375H13V2.5C12.9997 2.16858 12.8679 1.85083 12.6335 1.61648C12.3992 1.38213 12.0814 1.25033 11.75 1.25H4.25C3.91858 1.25033 3.60083 1.38213 3.36648 1.61648C3.13213 1.85083 3.00033 2.16858 3 2.5V17.5C3.00033 17.8314 3.13213 18.1492 3.36648 18.3835C3.60083 18.6179 3.91858 18.7497 4.25 18.75Z" fill="url(#paint0_linear_1988_5393)"/>
<path d="M13.3663 12.8663L15.6075 10.625H6.75V9.375H15.6075L13.3663 7.13375L14.25 6.25L18 10L14.25 13.75L13.3663 12.8663Z" fill="url(#paint1_linear_1988_5393)"/>
<defs>
<linearGradient id="paint0_linear_1988_5393" x1="7.85308" y1="-0.891751" x2="7.85308" y2="21.4615" gradientUnits="userSpaceOnUse">
<stop offset="0.234375" stop-color="#FFD37C"/>
<stop offset="0.607292" stop-color="#D08123"/>
</linearGradient>
<linearGradient id="paint1_linear_1988_5393" x1="12.2097" y1="5.33211" x2="12.2097" y2="14.9121" gradientUnits="userSpaceOnUse">
<stop offset="0.234375" stop-color="#FFD37C"/>
<stop offset="0.607292" stop-color="#D08123"/>
</linearGradient>
</defs>
</svg>
