<svg width="73" height="73" viewBox="0 0 73 73" fill="none" xmlns="http://www.w3.org/2000/svg">
<g clip-path="url(#clip0_372:1785)">
<path d="M41.4703 73H31.5298L28.8894 55.2936H44.1106L41.4703 73Z" fill="#E14A4A"/>
<path d="M18.7935 41.7809C22.0552 48.3043 28.7339 52.8085 36.4998 52.8085C44.2658 52.8085 50.9445 48.3043 54.2062 41.7809H18.7935Z" fill="#F16D6E"/>
<path d="M46.906 52.8087H26.0932C25.1613 52.8087 24.3848 52.0321 24.3848 51.1002C24.3848 50.1683 25.1613 49.3917 26.0932 49.3917H46.906C47.8379 49.3917 48.6144 50.1683 48.6144 51.1002C48.6146 52.032 47.8379 52.8087 46.906 52.8087Z" fill="#E14A4A"/>
<path d="M44.4216 56.3809H28.5791C27.6472 56.3809 26.8706 55.6044 26.8706 54.6725C26.8706 53.7405 27.6472 52.964 28.5791 52.964H44.4216C45.3535 52.964 46.1301 53.7405 46.1301 54.6725C46.1301 55.6044 45.3535 56.3809 44.4216 56.3809Z" fill="#F16D6E"/>
<path d="M55.2933 39.7617H17.7061V41.9361H55.2933V39.7617Z" fill="#E14A4A"/>
<path d="M31.3746 16.4639C31.996 18.0171 31.8406 19.8809 31.0641 21.2788C30.5981 22.0554 29.9768 23.1426 30.5981 23.764C30.9087 24.2299 31.6854 24.2299 32.1513 24.0746C32.6173 23.764 33.0833 23.298 33.2386 22.832C34.0152 21.4342 34.1705 19.7257 34.3259 18.1725C34.3259 16.93 34.3259 15.5321 33.7046 14.4448C33.394 13.9789 32.928 13.5129 32.6173 13.0469C32.1513 11.9597 32.4619 10.7172 32.7727 9.62987C33.5492 6.36816 33.5492 2.6405 31.5302 0.00012207C34.9469 0.776524 37.5873 3.41705 39.1406 6.36802C40.6938 9.31899 41.315 12.8914 41.4703 16.3085C41.6257 18.1723 41.4703 20.0362 41.1598 21.7446C40.6938 23.4531 39.9173 25.1617 38.6746 26.4042C38.0533 27.0255 37.1214 27.6467 37.2767 28.5786C39.1406 27.8021 41.1598 27.0254 42.4023 25.4723C43.3342 24.2298 43.6448 22.6765 43.9555 20.9681C44.2661 18.7937 44.4215 16.4639 44.4215 14.1341C45.9747 16.9298 47.3726 19.8809 47.9938 22.9873C48.6149 26.0936 48.6151 29.5107 47.2172 32.4618C46.9066 33.2383 46.4407 34.015 45.8193 34.6362C44.8874 35.7235 43.4895 36.3447 42.0917 36.966C41.4703 37.2766 40.8492 37.5873 40.2278 37.7426C39.7619 37.8979 39.1406 37.8979 38.6746 38.0531C36.1894 38.2085 33.5491 38.3637 31.2193 37.4318C28.5789 36.3445 26.4043 34.0147 25.3172 31.3744C24.2299 28.734 24.2299 25.6277 25.0065 22.8319C25.4724 20.9681 26.249 19.2596 26.4043 17.551C26.5597 15.6872 26.0937 13.668 24.6959 12.5808C27.4916 12.7362 30.4427 13.9787 31.3746 16.4639Z" fill="#FEC656"/>
<path d="M34.7919 24.2298C33.5494 25.3171 31.9961 26.249 30.4429 25.6277C29.9769 25.3171 29.511 25.0064 29.045 24.5404C27.6472 22.8319 26.8706 20.6574 26.8706 18.3276C26.8706 17.0851 27.1812 15.9978 27.9579 15.0659C28.7344 14.134 30.1323 13.668 30.909 12.7361C31.6856 12.2701 31.8409 11.6488 32.1515 11.0276C32.6175 9.94033 32.9281 8.69783 33.0834 7.45532C36.3451 10.4064 38.5196 15.2212 38.3643 19.5702C38.3643 20.0362 38.3643 20.3468 38.209 20.8127C38.0536 21.1233 37.743 21.4341 37.5876 21.7446C36.8111 22.5213 35.8792 23.4533 34.7919 24.2298Z" fill="#FEC656"/>
</g>
<defs>
<clipPath id="clip0_372:1785">
<rect width="73" height="73" fill="white"/>
</clipPath>
</defs>
</svg>