<svg width="681" height="617" viewBox="0 0 681 617" fill="none" xmlns="http://www.w3.org/2000/svg">
<g opacity="0.08">
<path d="M163.708 569.673L203.901 601.129" stroke="url(#paint0_linear_2960_5784)" stroke-width="7.0287"/>
<path d="M519.039 570.255L478.846 601.71" stroke="url(#paint1_linear_2960_5784)" stroke-width="7.0287"/>
<circle cx="208.561" cy="558.605" r="31.4363" stroke="url(#paint2_linear_2960_5784)" stroke-width="7.0287"/>
<circle r="31.4363" transform="matrix(-1 0 0 1 474.185 559.188)" stroke="url(#paint3_linear_2960_5784)" stroke-width="7.0287"/>
<path d="M245.258 566.761C252.248 559.576 263.083 540.198 250.5 520.16C252.83 512.199 258.656 494.879 263.316 489.287L245.258 468.316L226.617 509.092C208.56 508.51 174.308 512.354 181.764 532.393" stroke="url(#paint4_linear_2960_5784)" stroke-width="7.0287"/>
<path d="M437.486 567.343C430.496 560.159 419.662 540.781 432.244 520.742C429.914 512.781 424.089 495.461 419.429 489.869L437.486 468.899L456.127 509.675C474.184 509.092 508.436 512.937 500.98 532.975" stroke="url(#paint5_linear_2960_5784)" stroke-width="7.0287"/>
<path d="M284.288 502.685L248.755 468.899L284.288 376.863C289.88 414.143 305.258 453.754 312.248 468.899L284.288 502.685Z" stroke="url(#paint6_linear_2960_5784)" stroke-width="7.0287"/>
<path d="M399.624 502.685L435.157 468.899L399.624 376.863C394.032 414.143 378.654 453.754 371.664 468.899L399.624 502.685Z" stroke="url(#paint7_linear_2960_5784)" stroke-width="7.0287"/>
<path d="M329.724 474.724H312.249L291.278 596.469C298.273 601.556 309.85 607.476 323.899 610.649M329.724 474.724L323.899 610.649M329.724 474.724H350.694M323.899 610.649C335.765 613.329 349.394 614.048 363.516 610.649M350.694 474.724H371.665L393.8 596.469C383.76 603.771 373.514 608.242 363.516 610.649M350.694 474.724L363.516 610.649" stroke="url(#paint8_linear_2960_5784)" stroke-width="7.0287"/>
<path d="M287.782 277.252C266.346 350.415 296.714 439.384 314.578 474.723H373.411L392.052 407.734C397.294 380.939 406.498 323.503 401.372 308.125C396.246 292.747 387.586 261.33 383.897 247.544C384.829 217.253 361.373 196.089 349.529 189.293C342.538 186.186 323.782 181.837 304.675 189.293C285.569 196.749 278.074 212.593 276.715 219.583C310.267 213.059 298.074 255.311 287.782 277.252Z" stroke="url(#paint9_linear_2960_5784)" stroke-width="7.0287"/>
<path d="M323.316 233.564C330.889 231.04 345.335 221.681 342.539 204.439" stroke="url(#paint10_linear_2960_5784)" stroke-width="7.0287"/>
<path d="M323.897 210.265H309.917" stroke="url(#paint11_linear_2960_5784)" stroke-width="7.0287"/>
<circle cx="329.724" cy="131.044" r="53.5716" stroke="url(#paint12_linear_2960_5784)" stroke-width="7.0287"/>
<path d="M198.659 525.985L186.427 473.559M186.427 473.559C177.495 460.549 162.311 433.016 173.029 426.958C186.427 419.385 192.252 454.918 186.427 473.559ZM186.427 473.559L157.301 482.296M186.427 473.559L212.639 465.986" stroke="url(#paint13_linear_2960_5784)" stroke-width="7.0287"/>
<path d="M477.681 525.863L489.913 473.437M489.913 473.437C498.845 460.428 514.029 432.894 503.311 426.836C489.913 419.263 484.088 454.797 489.913 473.437ZM489.913 473.437L519.039 482.175M489.913 473.437L463.701 465.864" stroke="url(#paint14_linear_2960_5784)" stroke-width="7.0287"/>
<path d="M279.627 379.775L260.986 440.356C251.3 440.302 241.561 439.264 231.861 437.412M279.627 379.775C219.628 370.066 97.1845 322.339 87.3985 209.099C77.6125 95.8593 131.296 79.9762 159.361 86.1897M279.627 379.775V320.941M159.361 86.1897C157.256 100.252 156.211 116.829 156.717 136.286C156.933 144.557 157.847 152.411 159.361 159.861M159.361 86.1897C166.939 35.5861 188.25 17.5548 200.406 15.1236C192.701 11.0611 180.625 6.83691 166.037 4.97753M159.361 159.861C174.23 233 246.982 267.223 284.87 275.506L279.627 320.941M159.361 159.861C143.917 180.74 127.126 233.099 183.513 275.506C239.9 317.912 271.083 323.465 279.627 320.941M166.037 4.97753C160.212 11.6604 148.679 28.1717 149.145 40.7539M166.037 4.97753C153.516 3.3815 139.144 3.52786 124.097 7.01447M124.097 7.01447C121.767 12.4358 118.505 26.7736 124.097 40.7539M124.097 7.01447C113.505 9.46864 102.58 13.5777 91.73 19.899M91.73 19.899C86.1703 23.1381 80.6306 26.9581 75.166 31.4339C69.061 36.4342 63.4366 41.7101 58.2623 47.1615M91.73 19.899C90.092 30.5399 89.0295 54.0351 97.8836 62.8893M58.2623 47.1615C59.8193 60.1709 65.38 86.1897 75.166 86.1897M58.2623 47.1615C49.552 56.3381 42.117 66.0118 35.8116 75.7045M35.8116 75.7045C38.833 85.0246 47.0892 104.597 55.9431 108.325M35.8116 75.7045C28.599 86.7918 22.8644 97.9039 18.3898 108.325M18.3898 108.325C21.5873 117.645 30.7783 136.286 41.9627 136.286M18.3898 108.325C12.3428 122.408 8.59681 135.23 6.61366 145.023M6.61366 145.023C6.00118 148.048 5.55684 150.783 5.26478 153.178C4.33195 161.955 3.80097 173.171 4.06978 185.799M6.61366 145.023C14.296 151.819 30.8908 165.411 35.8116 165.411M4.06978 185.799C12.6 189.1 30.8908 195.352 35.8116 193.954M4.06978 185.799C4.32214 197.654 5.27941 210.752 7.27084 224.245M7.27084 224.245C14.7341 224.245 30.8908 224.245 35.8116 224.245M7.27084 224.245C8.97406 235.784 11.4338 247.612 14.8559 259.195M14.8559 259.195H41.9627M14.8559 259.195C18.1222 270.251 22.2652 281.084 27.4641 291.233M27.4641 291.233L61.1855 287.156M27.4641 291.233C33.0374 302.113 39.8241 312.205 48.0448 320.941M48.0448 320.941C50.5431 323.596 53.1738 326.126 55.9431 328.514C62.1649 335.423 70.2736 343.623 79.8925 352.397M48.0448 320.941L75.166 315.116M79.8925 352.397L97.8836 340.747M79.8925 352.397C87.3031 359.156 95.61 366.256 104.641 373.367M104.641 373.367L124.097 362.882M104.641 373.367C114.089 380.807 124.329 388.259 135.164 395.349M135.164 395.349L149.145 379.775M135.164 395.349C145.013 401.794 155.353 407.939 166.037 413.501M166.037 413.501L177.688 401.328M166.037 413.501C175.696 418.53 185.635 423.084 195.745 426.953M195.745 426.953L209.726 413.501M195.745 426.953C207.607 431.493 219.704 435.091 231.861 437.412M231.861 437.412L242.346 419.385" stroke="url(#paint15_linear_2960_5784)" stroke-width="7.0287"/>
<path d="M401.373 379.83L420.014 440.411C429.7 440.358 439.439 439.319 449.139 437.467M401.373 379.83C461.372 370.122 583.816 322.395 593.602 209.155C603.388 95.915 549.704 80.0319 521.639 86.2453M401.373 379.83V320.997M521.639 86.2453C523.744 100.307 524.789 116.885 524.283 136.341C524.067 144.613 523.153 152.467 521.639 159.917M521.639 86.2453C514.061 35.6418 492.75 17.6104 480.594 15.1793C488.299 11.1168 500.375 6.89257 514.963 5.03319M521.639 159.917C506.77 233.056 434.018 267.279 396.13 275.561L401.373 320.997M521.639 159.917C537.083 180.795 553.874 233.155 497.487 275.561C441.1 317.968 409.917 323.521 401.373 320.997M514.963 5.03319C520.788 11.7161 532.321 28.2273 531.855 40.8095M514.963 5.03319C527.484 3.43717 541.856 3.58352 556.903 7.07014M556.903 7.07014C559.233 12.4915 562.495 26.8293 556.903 40.8095M556.903 7.07014C567.495 9.5243 578.42 13.6334 589.27 19.9547M589.27 19.9547C594.83 23.1938 600.369 27.0138 605.834 31.4896C611.939 36.4898 617.563 41.7658 622.738 47.2172M589.27 19.9547C590.908 30.5955 591.971 54.0908 583.116 62.9449M622.738 47.2172C621.181 60.2265 615.62 86.2453 605.834 86.2453M622.738 47.2172C631.448 56.3938 638.883 66.0675 645.188 75.7601M645.188 75.7601C642.167 85.0803 633.911 104.653 625.057 108.381M645.188 75.7601C652.401 86.8475 658.136 97.9595 662.61 108.381M662.61 108.381C659.413 117.701 650.222 136.341 639.037 136.341M662.61 108.381C668.657 122.464 672.403 135.286 674.386 145.079M674.386 145.079C674.999 148.103 675.443 150.839 675.735 153.234C676.668 162.011 677.199 173.227 676.93 185.855M674.386 145.079C666.704 151.875 650.109 165.467 645.188 165.467M676.93 185.855C668.4 189.155 650.109 195.408 645.188 194.01M676.93 185.855C676.678 197.709 675.721 210.808 673.729 224.3M673.729 224.3C666.266 224.3 650.109 224.3 645.188 224.3M673.729 224.3C672.026 235.84 669.566 247.667 666.144 259.251M666.144 259.251H639.037M666.144 259.251C662.878 270.307 658.735 281.14 653.536 291.289M653.536 291.289L619.814 287.211M653.536 291.289C647.963 302.168 641.176 312.261 632.955 320.997M632.955 320.997C630.457 323.652 627.826 326.181 625.057 328.569C618.835 335.479 610.726 343.679 601.107 352.452M632.955 320.997L605.834 315.172M601.107 352.452L583.116 340.802M601.107 352.452C593.697 359.212 585.39 366.311 576.359 373.423M576.359 373.423L556.903 362.938M576.359 373.423C566.911 380.862 556.671 388.315 545.836 395.405M545.836 395.405L531.855 379.83M545.836 395.405C535.987 401.849 525.647 407.994 514.963 413.557M514.963 413.557L503.312 401.383M514.963 413.557C505.304 418.586 495.365 423.139 485.255 427.009M485.255 427.009L471.274 413.557M485.255 427.009C473.393 431.548 461.296 435.147 449.139 437.467M449.139 437.467L438.654 419.441" stroke="url(#paint16_linear_2960_5784)" stroke-width="7.0287"/>
<path d="M286.618 276.088C309.724 280.942 363.393 287.738 393.217 276.088" stroke="url(#paint17_linear_2960_5784)" stroke-width="7.0287"/>
<path d="M298.852 309.873C303.706 322.3 316.443 339.698 328.56 309.873M354.773 309.873C356.714 316.475 362.811 329.096 371.665 326.766C380.519 324.436 382.733 314.533 382.733 309.873M328.56 341.329C329.919 347.736 334.851 360.435 343.705 359.969C352.559 359.503 354.773 347.348 354.773 341.329M308.172 378.609C308.172 385.794 310.968 399.813 322.152 398.415C333.336 397.017 335.744 384.628 335.55 378.609M349.53 378.609C349.142 385.211 351.161 398.415 362.345 398.415C373.529 398.415 376.325 385.211 376.325 378.609M328.56 415.89C329.919 423.462 334.851 438.025 343.705 435.695C352.559 433.365 354.773 421.521 354.773 415.89" stroke="url(#paint18_linear_2960_5784)" stroke-width="7.0287"/>
</g>
<defs>
<linearGradient id="paint0_linear_2960_5784" x1="183.214" y1="565.824" x2="183.214" y2="606.003" gradientUnits="userSpaceOnUse">
<stop offset="0.234375" stop-color="#FFD37C"/>
<stop offset="0.607292" stop-color="#D08123"/>
</linearGradient>
<linearGradient id="paint1_linear_2960_5784" x1="499.533" y1="566.405" x2="499.533" y2="606.584" gradientUnits="userSpaceOnUse">
<stop offset="0.234375" stop-color="#FFD37C"/>
<stop offset="0.607292" stop-color="#D08123"/>
</linearGradient>
<linearGradient id="paint2_linear_2960_5784" x1="207.534" y1="515.1" x2="207.534" y2="604.387" gradientUnits="userSpaceOnUse">
<stop offset="0.234375" stop-color="#FFD37C"/>
<stop offset="0.607292" stop-color="#D08123"/>
</linearGradient>
<linearGradient id="paint3_linear_2960_5784" x1="33.9236" y1="-8.55491" x2="33.9236" y2="80.7319" gradientUnits="userSpaceOnUse">
<stop offset="0.234375" stop-color="#FFD37C"/>
<stop offset="0.607292" stop-color="#D08123"/>
</linearGradient>
<linearGradient id="paint4_linear_2960_5784" x1="220.804" y1="456.268" x2="220.804" y2="582.014" gradientUnits="userSpaceOnUse">
<stop offset="0.234375" stop-color="#FFD37C"/>
<stop offset="0.607292" stop-color="#D08123"/>
</linearGradient>
<linearGradient id="paint5_linear_2960_5784" x1="461.94" y1="456.851" x2="461.94" y2="582.596" gradientUnits="userSpaceOnUse">
<stop offset="0.234375" stop-color="#FFD37C"/>
<stop offset="0.607292" stop-color="#D08123"/>
</linearGradient>
<linearGradient id="paint6_linear_2960_5784" x1="279.569" y1="361.464" x2="279.569" y2="522.18" gradientUnits="userSpaceOnUse">
<stop offset="0.234375" stop-color="#FFD37C"/>
<stop offset="0.607292" stop-color="#D08123"/>
</linearGradient>
<linearGradient id="paint7_linear_2960_5784" x1="404.343" y1="361.464" x2="404.343" y2="522.18" gradientUnits="userSpaceOnUse">
<stop offset="0.234375" stop-color="#FFD37C"/>
<stop offset="0.607292" stop-color="#D08123"/>
</linearGradient>
<linearGradient id="paint8_linear_2960_5784" x1="341.033" y1="457.809" x2="341.033" y2="634.351" gradientUnits="userSpaceOnUse">
<stop offset="0.234375" stop-color="#FFD37C"/>
<stop offset="0.607292" stop-color="#D08123"/>
</linearGradient>
<linearGradient id="paint9_linear_2960_5784" x1="337.942" y1="149.74" x2="337.942" y2="519.586" gradientUnits="userSpaceOnUse">
<stop offset="0.234375" stop-color="#FFD37C"/>
<stop offset="0.607292" stop-color="#D08123"/>
</linearGradient>
<linearGradient id="paint10_linear_2960_5784" x1="332.817" y1="200.874" x2="332.817" y2="238.077" gradientUnits="userSpaceOnUse">
<stop offset="0.234375" stop-color="#FFD37C"/>
<stop offset="0.607292" stop-color="#D08123"/>
</linearGradient>
<linearGradient id="paint11_linear_2960_5784" x1="316.702" y1="210.143" x2="316.702" y2="211.42" gradientUnits="userSpaceOnUse">
<stop offset="0.234375" stop-color="#FFD37C"/>
<stop offset="0.607292" stop-color="#D08123"/>
</linearGradient>
<linearGradient id="paint12_linear_2960_5784" x1="328.046" y1="59.9845" x2="328.046" y2="205.82" gradientUnits="userSpaceOnUse">
<stop offset="0.234375" stop-color="#FFD37C"/>
<stop offset="0.607292" stop-color="#D08123"/>
</linearGradient>
<linearGradient id="paint13_linear_2960_5784" x1="184.157" y1="413.668" x2="184.157" y2="541.49" gradientUnits="userSpaceOnUse">
<stop offset="0.234375" stop-color="#FFD37C"/>
<stop offset="0.607292" stop-color="#D08123"/>
</linearGradient>
<linearGradient id="paint14_linear_2960_5784" x1="492.183" y1="413.546" x2="492.183" y2="541.368" gradientUnits="userSpaceOnUse">
<stop offset="0.234375" stop-color="#FFD37C"/>
<stop offset="0.607292" stop-color="#D08123"/>
</linearGradient>
<linearGradient id="paint15_linear_2960_5784" x1="140.308" y1="-49.4037" x2="140.308" y2="507.966" gradientUnits="userSpaceOnUse">
<stop offset="0.234375" stop-color="#FFD37C"/>
<stop offset="0.607292" stop-color="#D08123"/>
</linearGradient>
<linearGradient id="paint16_linear_2960_5784" x1="540.692" y1="-49.3481" x2="540.692" y2="508.022" gradientUnits="userSpaceOnUse">
<stop offset="0.234375" stop-color="#FFD37C"/>
<stop offset="0.607292" stop-color="#D08123"/>
</linearGradient>
<linearGradient id="paint17_linear_2960_5784" x1="338.352" y1="275.3" x2="338.352" y2="283.517" gradientUnits="userSpaceOnUse">
<stop offset="0.234375" stop-color="#FFD37C"/>
<stop offset="0.607292" stop-color="#D08123"/>
</linearGradient>
<linearGradient id="paint18_linear_2960_5784" x1="339.56" y1="294.444" x2="339.56" y2="455.479" gradientUnits="userSpaceOnUse">
<stop offset="0.234375" stop-color="#FFD37C"/>
<stop offset="0.607292" stop-color="#D08123"/>
</linearGradient>
</defs>
</svg>
