<svg width="78" height="79" viewBox="0 0 78 79" fill="none" xmlns="http://www.w3.org/2000/svg">
<g clip-path="url(#clip0_2960_5727)">
<g opacity="0.8">
<ellipse cx="39.1824" cy="40.1243" rx="19.8933" ry="19.2061" fill="url(#paint0_linear_2960_5727)"/>
<ellipse cx="39.1823" cy="40.1269" rx="15.6823" ry="15.1406" fill="url(#paint1_linear_2960_5727)"/>
<path d="M39.3304 5.50317L42.8515 17.0689H35.8094L39.3304 5.50317Z" fill="url(#paint2_linear_2960_5727)"/>
<path d="M44.8493 3.8215C44.8493 3.8215 50.6733 4.44716 54.1425 5.71406C57.7181 7.01981 62.6371 10.4108 62.6371 10.4108L48.6972 18.4017L44.8493 3.8215Z" fill="url(#paint3_linear_2960_5727)"/>
<path d="M64.7537 15.6228L58.735 26.1848L53.7726 21.3608L64.7537 15.6228Z" fill="url(#paint4_linear_2960_5727)"/>
<path d="M69.8767 18.2169C69.8767 18.2169 73.5209 22.6474 75.0345 25.9166C76.5945 29.2861 77.5686 35.0453 77.5686 35.0453L61.873 31.1271L69.8767 18.2169Z" fill="url(#paint5_linear_2960_5727)"/>
<path d="M75.2303 40.3854L63.2238 43.6953L63.2783 36.8966L75.2303 40.3854Z" fill="url(#paint6_linear_2960_5727)"/>
<path d="M76.9304 45.7266C76.9304 45.7266 76.2373 51.3444 74.8983 54.6838C73.5182 58.1257 69.9679 62.8484 69.9679 62.8484L61.7992 49.3286L76.9304 45.7266Z" fill="url(#paint7_linear_2960_5727)"/>
<path d="M64.6955 65.0913L53.8622 59.0972L58.9446 54.3911L64.6955 65.0913Z" fill="url(#paint8_linear_2960_5727)"/>
<path d="M61.9176 69.9941C61.9176 69.9941 57.2658 73.4345 53.8537 74.8386C50.337 76.2857 44.3556 77.1256 44.3556 77.1256L48.6872 62.0428L61.9176 69.9941Z" fill="url(#paint9_linear_2960_5727)"/>
<path d="M39.3036 74.9381L35.6395 63.4139L42.6811 63.3325L39.3036 74.9381Z" fill="url(#paint10_linear_2960_5727)"/>
<path d="M33.8047 76.682C33.8047 76.682 27.9734 76.1237 24.4887 74.897C20.8972 73.6326 15.9365 70.2987 15.9365 70.2987L29.7763 62.1474L33.8047 76.682Z" fill="url(#paint11_linear_2960_5727)"/>
<path d="M13.0601 65.268L19.2591 54.8037L24.1381 59.7064L13.0601 65.268Z" fill="url(#paint12_linear_2960_5727)"/>
<path d="M7.98245 62.5907C7.98245 62.5907 4.41474 58.1025 2.95745 54.8096C1.45546 51.4156 0.580215 45.6416 0.580215 45.6416L16.2065 49.8102L7.98245 62.5907Z" fill="url(#paint13_linear_2960_5727)"/>
<path d="M3.33253 40.3209L15.2481 36.7178L15.3724 43.5156L3.33253 40.3209Z" fill="url(#paint14_linear_2960_5727)"/>
<path d="M1.49521 35.0285C1.49521 35.0285 2.04036 29.3955 3.29115 26.0243C4.58029 22.5497 8.00525 17.7415 8.00525 17.7415L16.5268 31.0567L1.49521 35.0285Z" fill="url(#paint15_linear_2960_5727)"/>
<path d="M13.7234 15.1423L24.6783 20.9269L19.6939 25.7298L13.7234 15.1423Z" fill="url(#paint16_linear_2960_5727)"/>
<path d="M16.3986 10.1881C16.3986 10.1881 20.9786 6.65878 24.361 5.18938C27.8472 3.67491 33.81 2.72011 33.81 2.72011L29.7906 17.8833L16.3986 10.1881Z" fill="url(#paint17_linear_2960_5727)"/>
</g>
<path d="M47.7708 37.2915H46.1068V32.0915C46.1068 28.2782 43.1116 25.1582 39.4508 25.1582C35.79 25.1582 32.7948 28.2782 32.7948 32.0915V37.2915H31.1308C30.2988 37.2915 29.4668 38.1582 29.4668 39.0249V51.1582C29.4668 52.0249 30.2988 52.8915 31.1308 52.8915H47.7708C48.6028 52.8915 49.4348 52.0249 49.4348 51.1582V39.0249C49.4348 38.1582 48.6028 37.2915 47.7708 37.2915ZM41.1148 49.4249H37.7868L38.4524 45.6115C37.6204 45.2649 36.9548 44.2249 36.9548 43.3582C36.9548 41.9715 38.1196 40.7582 39.4508 40.7582C40.782 40.7582 41.9468 41.9715 41.9468 43.3582C41.9468 44.3982 41.4476 45.2649 40.4492 45.6115L41.1148 49.4249ZM42.7788 37.2915H36.1228V32.0915C36.1228 30.1849 37.6204 28.6249 39.4508 28.6249C41.2812 28.6249 42.7788 30.1849 42.7788 32.0915V37.2915Z" fill="black"/>
</g>
<defs>
<linearGradient id="paint0_linear_2960_5727" x1="38.5978" y1="16.2171" x2="38.5978" y2="65.2821" gradientUnits="userSpaceOnUse">
<stop offset="0.234375" stop-color="#FFD37C"/>
<stop offset="0.607292" stop-color="#D08123"/>
</linearGradient>
<linearGradient id="paint1_linear_2960_5727" x1="38.7215" y1="21.2803" x2="38.7215" y2="59.9593" gradientUnits="userSpaceOnUse">
<stop offset="0.234375" stop-color="#FFD37C"/>
<stop offset="0.607292" stop-color="#D08123"/>
</linearGradient>
<linearGradient id="paint2_linear_2960_5727" x1="39.211" y1="3.61587" x2="39.211" y2="23.3135" gradientUnits="userSpaceOnUse">
<stop offset="0.234375" stop-color="#FFD37C"/>
<stop offset="0.607292" stop-color="#D08123"/>
</linearGradient>
<linearGradient id="paint3_linear_2960_5727" x1="44.5601" y1="1.53776" x2="57.2744" y2="17.7851" gradientUnits="userSpaceOnUse">
<stop offset="0.234375" stop-color="#FFD37C"/>
<stop offset="0.607292" stop-color="#D08123"/>
</linearGradient>
<linearGradient id="paint4_linear_2960_5727" x1="66.0565" y1="14.211" x2="52.0856" y2="28.5826" gradientUnits="userSpaceOnUse">
<stop offset="0.234375" stop-color="#FFD37C"/>
<stop offset="0.607292" stop-color="#D08123"/>
</linearGradient>
<linearGradient id="paint5_linear_2960_5727" x1="71.3513" y1="16.4096" x2="69.2376" y2="36.6587" gradientUnits="userSpaceOnUse">
<stop offset="0.234375" stop-color="#FFD37C"/>
<stop offset="0.607292" stop-color="#D08123"/>
</linearGradient>
<linearGradient id="paint6_linear_2960_5727" x1="77.186" y1="40.2847" x2="56.7842" y2="40.1211" gradientUnits="userSpaceOnUse">
<stop offset="0.234375" stop-color="#FFD37C"/>
<stop offset="0.607292" stop-color="#D08123"/>
</linearGradient>
<linearGradient id="paint7_linear_2960_5727" x1="79.298" y1="45.4651" x2="63.2741" y2="58.7064" gradientUnits="userSpaceOnUse">
<stop offset="0.234375" stop-color="#FFD37C"/>
<stop offset="0.607292" stop-color="#D08123"/>
</linearGradient>
<linearGradient id="paint8_linear_2960_5727" x1="66.1349" y1="66.3736" x2="52.5288" y2="51.6795" gradientUnits="userSpaceOnUse">
<stop offset="0.234375" stop-color="#FFD37C"/>
<stop offset="0.607292" stop-color="#D08123"/>
</linearGradient>
<linearGradient id="paint9_linear_2960_5727" x1="63.7637" y1="71.449" x2="42.8729" y2="68.7269" gradientUnits="userSpaceOnUse">
<stop offset="0.234375" stop-color="#FFD37C"/>
<stop offset="0.607292" stop-color="#D08123"/>
</linearGradient>
<linearGradient id="paint10_linear_2960_5727" x1="39.4465" y1="76.8239" x2="39.2189" y2="57.1275" gradientUnits="userSpaceOnUse">
<stop offset="0.234375" stop-color="#FFD37C"/>
<stop offset="0.607292" stop-color="#D08123"/>
</linearGradient>
<linearGradient id="paint11_linear_2960_5727" x1="34.1222" y1="78.9623" x2="21.2105" y2="62.8605" gradientUnits="userSpaceOnUse">
<stop offset="0.234375" stop-color="#FFD37C"/>
<stop offset="0.607292" stop-color="#D08123"/>
</linearGradient>
<linearGradient id="paint12_linear_2960_5727" x1="11.7332" y1="66.6588" x2="25.9485" y2="52.5123" gradientUnits="userSpaceOnUse">
<stop offset="0.234375" stop-color="#FFD37C"/>
<stop offset="0.607292" stop-color="#D08123"/>
</linearGradient>
<linearGradient id="paint13_linear_2960_5727" x1="6.47704" y1="64.3742" x2="8.9148" y2="44.1589" gradientUnits="userSpaceOnUse">
<stop offset="0.234375" stop-color="#FFD37C"/>
<stop offset="0.607292" stop-color="#D08123"/>
</linearGradient>
<linearGradient id="paint14_linear_2960_5727" x1="1.38011" y1="40.4695" x2="21.7789" y2="40.0965" gradientUnits="userSpaceOnUse">
<stop offset="0.234375" stop-color="#FFD37C"/>
<stop offset="0.607292" stop-color="#D08123"/>
</linearGradient>
<linearGradient id="paint15_linear_2960_5727" x1="-0.864769" y1="35.3479" x2="14.8018" y2="21.7136" gradientUnits="userSpaceOnUse">
<stop offset="0.234375" stop-color="#FFD37C"/>
<stop offset="0.607292" stop-color="#D08123"/>
</linearGradient>
<linearGradient id="paint16_linear_2960_5727" x1="12.2579" y1="13.888" x2="26.1633" y2="28.3186" gradientUnits="userSpaceOnUse">
<stop offset="0.234375" stop-color="#FFD37C"/>
<stop offset="0.607292" stop-color="#D08123"/>
</linearGradient>
<linearGradient id="paint17_linear_2960_5727" x1="14.5229" y1="8.76889" x2="35.4689" y2="11.0601" gradientUnits="userSpaceOnUse">
<stop offset="0.234375" stop-color="#FFD37C"/>
<stop offset="0.607292" stop-color="#D08123"/>
</linearGradient>
<clipPath id="clip0_2960_5727">
<rect width="78" height="78" fill="white" transform="translate(0 0.891602)"/>
</clipPath>
</defs>
</svg>
