<svg width="14" height="21" viewBox="0 0 14 21" fill="none" xmlns="http://www.w3.org/2000/svg">
<path d="M7.38127 0C5.1105 0 3.25259 1.6144 3.25259 3.58756C3.25259 4.99174 4.17164 6.36793 5.03288 7.4894C5.1427 7.63506 5.25913 7.75775 5.36813 7.89264H0.775391V10.1571L1.72994 10.0452L6.47791 9.46184L5.7298 19.3284L5.67778 20.0904H9.08475L9.03273 19.3276L8.28462 9.46184L13.0326 10.0452L13.9871 10.1571V7.89264H9.39358C9.5034 7.75775 9.61983 7.63434 9.72965 7.48868C10.5909 6.36865 11.5099 4.99174 11.5099 3.58756C11.5099 1.6144 9.65204 0 7.38127 0ZM7.38127 1.43503C8.75859 1.43503 9.85847 2.39075 9.85847 3.58756C9.85847 4.36104 9.12604 5.6784 8.33581 6.70444C7.85524 7.33226 7.68431 7.48366 7.38127 7.80295C7.07822 7.48366 6.90729 7.33226 6.42672 6.70444C5.63649 5.6784 4.90406 4.36104 4.90406 3.58756C4.90406 2.39075 6.00394 1.43503 7.38127 1.43503Z" fill="url(#paint0_linear_2960_5686)"/>
<defs>
<linearGradient id="paint0_linear_2960_5686" x1="7.18715" y1="-2.45877" x2="7.18715" y2="23.2032" gradientUnits="userSpaceOnUse">
<stop offset="0.234375" stop-color="#FFD37C"/>
<stop offset="0.607292" stop-color="#D08123"/>
</linearGradient>
</defs>
</svg>
