<svg width="14" height="21" viewBox="0 0 14 21" fill="none" xmlns="http://www.w3.org/2000/svg">
<path d="M7.28263 0C5.01186 0 3.15396 1.6144 3.15396 3.58756C3.15396 4.99174 4.073 6.36793 4.93424 7.4894C5.04407 7.63506 5.1605 7.75775 5.26949 7.89264H0.676758V10.1571L1.63131 10.0452L6.37928 9.46184L5.63116 19.3284L5.57914 20.0904H8.98612L8.9341 19.3276L8.18599 9.46184L12.934 10.0452L13.8885 10.1571V7.89264H9.29495C9.40477 7.75775 9.5212 7.63434 9.63102 7.48868C10.4923 6.36865 11.4113 4.99174 11.4113 3.58756C11.4113 1.6144 9.5534 0 7.28263 0ZM7.28263 1.43503C8.65996 1.43503 9.75984 2.39075 9.75984 3.58756C9.75984 4.36104 9.02741 5.6784 8.23718 6.70444C7.7566 7.33226 7.58568 7.48366 7.28263 7.80295C6.97959 7.48366 6.80866 7.33226 6.32808 6.70444C5.53786 5.6784 4.80543 4.36104 4.80543 3.58756C4.80543 2.39075 5.90531 1.43503 7.28263 1.43503Z" fill="#C4C4C4"/>
</svg>
